G04 #@! TF.GenerationSoftware,KiCad,Pcbnew,(5.1.7)-1*
G04 #@! TF.CreationDate,2020-12-10T21:45:52+01:00*
G04 #@! TF.ProjectId,lora,6c6f7261-2e6b-4696-9361-645f70636258,v1.0*
G04 #@! TF.SameCoordinates,Original*
G04 #@! TF.FileFunction,Profile,NP*
%FSLAX46Y46*%
G04 Gerber Fmt 4.6, Leading zero omitted, Abs format (unit mm)*
G04 Created by KiCad (PCBNEW (5.1.7)-1) date 2020-12-10 21:45:52*
%MOMM*%
%LPD*%
G01*
G04 APERTURE LIST*
G04 #@! TA.AperFunction,Profile*
%ADD10C,0.050000*%
G04 #@! TD*
G04 APERTURE END LIST*
D10*
X223816000Y-134780000D02*
G75*
G03*
X223816000Y-134780000I-576000J0D01*
G01*
X174166000Y-119060000D02*
G75*
G03*
X174166000Y-119060000I-576000J0D01*
G01*
X213870000Y-98620000D02*
G75*
G03*
X213870000Y-98620000I-576000J0D01*
G01*
X172000000Y-137000000D02*
G75*
G02*
X170000000Y-135000000I0J2000000D01*
G01*
X170000000Y-94000000D02*
G75*
G02*
X172000000Y-92000000I2000000J0D01*
G01*
X250500000Y-135000000D02*
G75*
G02*
X248500000Y-137000000I-2000000J0D01*
G01*
X248500000Y-92000000D02*
G75*
G02*
X250500000Y-94000000I0J-2000000D01*
G01*
X230000000Y-116000000D02*
X230000000Y-110000000D01*
X231000000Y-110000000D02*
X231000000Y-116000000D01*
X230000000Y-102000000D02*
X230000000Y-105000000D01*
X231000000Y-105000000D02*
X231000000Y-102000000D01*
X230000000Y-98500000D02*
X230000000Y-95500000D01*
X231000000Y-95500000D02*
X231000000Y-98500000D01*
X231000000Y-133500000D02*
G75*
G02*
X230000000Y-133500000I-500000J0D01*
G01*
X231000000Y-133500000D02*
X231000000Y-133000000D01*
X230000000Y-133000000D02*
X230000000Y-133500000D01*
X230000000Y-129500000D02*
G75*
G02*
X231000000Y-129500000I500000J0D01*
G01*
X231000000Y-133000000D02*
X231000000Y-129500000D01*
X230000000Y-129500000D02*
X230000000Y-133000000D01*
X231000000Y-125500000D02*
G75*
G02*
X230000000Y-125500000I-500000J0D01*
G01*
X230000000Y-119000000D02*
G75*
G02*
X231000000Y-119000000I500000J0D01*
G01*
X231000000Y-125500000D02*
X231000000Y-119000000D01*
X230000000Y-119000000D02*
X230000000Y-125500000D01*
X231000000Y-116000000D02*
G75*
G02*
X230000000Y-116000000I-500000J0D01*
G01*
X230000000Y-109500000D02*
G75*
G02*
X231000000Y-109500000I500000J0D01*
G01*
X231000000Y-110000000D02*
X231000000Y-109500000D01*
X230000000Y-109500000D02*
X230000000Y-110000000D01*
X231000000Y-105500000D02*
G75*
G02*
X230000000Y-105500000I-500000J0D01*
G01*
X231000000Y-105500000D02*
X231000000Y-105000000D01*
X230000000Y-105000000D02*
X230000000Y-105500000D01*
X230000000Y-101500000D02*
G75*
G02*
X231000000Y-101500000I500000J0D01*
G01*
X231000000Y-102000000D02*
X231000000Y-101500000D01*
X230000000Y-101500000D02*
X230000000Y-102000000D01*
X230000000Y-137000000D02*
X172000000Y-137000000D01*
X248500000Y-137000000D02*
X231000000Y-137000000D01*
X230000000Y-92500000D02*
X230000000Y-92000000D01*
X230000000Y-92000000D02*
X172000000Y-92000000D01*
X248500000Y-92000000D02*
X231000000Y-92000000D01*
X231000000Y-137000000D02*
X231000000Y-136500000D01*
X230000000Y-136500000D02*
X230000000Y-137000000D01*
X230000000Y-136500000D02*
G75*
G02*
X231000000Y-136500000I500000J0D01*
G01*
X230000000Y-95500000D02*
G75*
G02*
X231000000Y-95500000I500000J0D01*
G01*
X231000000Y-98500000D02*
G75*
G02*
X230000000Y-98500000I-500000J0D01*
G01*
X231000000Y-92500000D02*
X231000000Y-92000000D01*
X231000000Y-92500000D02*
G75*
G02*
X230000000Y-92500000I-500000J0D01*
G01*
X250500000Y-94000000D02*
X250500000Y-135000000D01*
X170000000Y-135000000D02*
X170000000Y-94000000D01*
M02*
