G04 #@! TF.GenerationSoftware,KiCad,Pcbnew,(5.1.7)-1*
G04 #@! TF.CreationDate,2020-11-22T23:18:21+01:00*
G04 #@! TF.ProjectId,lora,6c6f7261-2e6b-4696-9361-645f70636258,rev?*
G04 #@! TF.SameCoordinates,Original*
G04 #@! TF.FileFunction,Soldermask,Top*
G04 #@! TF.FilePolarity,Negative*
%FSLAX46Y46*%
G04 Gerber Fmt 4.6, Leading zero omitted, Abs format (unit mm)*
G04 Created by KiCad (PCBNEW (5.1.7)-1) date 2020-11-22 23:18:21*
%MOMM*%
%LPD*%
G01*
G04 APERTURE LIST*
%ADD10R,4.190000X2.665000*%
%ADD11R,4.190000X1.780000*%
%ADD12R,2.500000X1.800000*%
%ADD13R,1.200000X0.900000*%
%ADD14R,1.700000X1.700000*%
%ADD15O,1.700000X1.700000*%
%ADD16R,4.950000X4.100000*%
%ADD17R,0.800000X0.900000*%
%ADD18R,0.900000X0.800000*%
%ADD19R,1.000000X1.500000*%
%ADD20R,2.600000X3.100000*%
%ADD21R,1.550000X0.600000*%
%ADD22R,5.000000X5.000000*%
%ADD23R,2.000000X0.900000*%
%ADD24R,0.900000X2.000000*%
%ADD25R,1.000000X2.000000*%
%ADD26R,1.800000X1.000000*%
%ADD27C,1.530000*%
%ADD28C,3.960000*%
%ADD29C,3.800000*%
G04 APERTURE END LIST*
D10*
X227838000Y-102992500D03*
D11*
X227838000Y-99500000D03*
D10*
X227838000Y-96007500D03*
G36*
G01*
X185350000Y-107000000D02*
X184850000Y-107000000D01*
G75*
G02*
X184625000Y-106775000I0J225000D01*
G01*
X184625000Y-106325000D01*
G75*
G02*
X184850000Y-106100000I225000J0D01*
G01*
X185350000Y-106100000D01*
G75*
G02*
X185575000Y-106325000I0J-225000D01*
G01*
X185575000Y-106775000D01*
G75*
G02*
X185350000Y-107000000I-225000J0D01*
G01*
G37*
G36*
G01*
X185350000Y-108550000D02*
X184850000Y-108550000D01*
G75*
G02*
X184625000Y-108325000I0J225000D01*
G01*
X184625000Y-107875000D01*
G75*
G02*
X184850000Y-107650000I225000J0D01*
G01*
X185350000Y-107650000D01*
G75*
G02*
X185575000Y-107875000I0J-225000D01*
G01*
X185575000Y-108325000D01*
G75*
G02*
X185350000Y-108550000I-225000J0D01*
G01*
G37*
G36*
G01*
X187450000Y-95300000D02*
X187450000Y-96400000D01*
G75*
G02*
X187200000Y-96650000I-250000J0D01*
G01*
X184200000Y-96650000D01*
G75*
G02*
X183950000Y-96400000I0J250000D01*
G01*
X183950000Y-95300000D01*
G75*
G02*
X184200000Y-95050000I250000J0D01*
G01*
X187200000Y-95050000D01*
G75*
G02*
X187450000Y-95300000I0J-250000D01*
G01*
G37*
G36*
G01*
X182050000Y-95300000D02*
X182050000Y-96400000D01*
G75*
G02*
X181800000Y-96650000I-250000J0D01*
G01*
X178800000Y-96650000D01*
G75*
G02*
X178550000Y-96400000I0J250000D01*
G01*
X178550000Y-95300000D01*
G75*
G02*
X178800000Y-95050000I250000J0D01*
G01*
X181800000Y-95050000D01*
G75*
G02*
X182050000Y-95300000I0J-250000D01*
G01*
G37*
G36*
G01*
X227150000Y-115750000D02*
X227150000Y-116250000D01*
G75*
G02*
X226925000Y-116475000I-225000J0D01*
G01*
X226475000Y-116475000D01*
G75*
G02*
X226250000Y-116250000I0J225000D01*
G01*
X226250000Y-115750000D01*
G75*
G02*
X226475000Y-115525000I225000J0D01*
G01*
X226925000Y-115525000D01*
G75*
G02*
X227150000Y-115750000I0J-225000D01*
G01*
G37*
G36*
G01*
X225600000Y-115750000D02*
X225600000Y-116250000D01*
G75*
G02*
X225375000Y-116475000I-225000J0D01*
G01*
X224925000Y-116475000D01*
G75*
G02*
X224700000Y-116250000I0J225000D01*
G01*
X224700000Y-115750000D01*
G75*
G02*
X224925000Y-115525000I225000J0D01*
G01*
X225375000Y-115525000D01*
G75*
G02*
X225600000Y-115750000I0J-225000D01*
G01*
G37*
G36*
G01*
X205000000Y-129950000D02*
X204500000Y-129950000D01*
G75*
G02*
X204275000Y-129725000I0J225000D01*
G01*
X204275000Y-129275000D01*
G75*
G02*
X204500000Y-129050000I225000J0D01*
G01*
X205000000Y-129050000D01*
G75*
G02*
X205225000Y-129275000I0J-225000D01*
G01*
X205225000Y-129725000D01*
G75*
G02*
X205000000Y-129950000I-225000J0D01*
G01*
G37*
G36*
G01*
X205000000Y-128400000D02*
X204500000Y-128400000D01*
G75*
G02*
X204275000Y-128175000I0J225000D01*
G01*
X204275000Y-127725000D01*
G75*
G02*
X204500000Y-127500000I225000J0D01*
G01*
X205000000Y-127500000D01*
G75*
G02*
X205225000Y-127725000I0J-225000D01*
G01*
X205225000Y-128175000D01*
G75*
G02*
X205000000Y-128400000I-225000J0D01*
G01*
G37*
G36*
G01*
X207025000Y-130100000D02*
X206075000Y-130100000D01*
G75*
G02*
X205825000Y-129850000I0J250000D01*
G01*
X205825000Y-129350000D01*
G75*
G02*
X206075000Y-129100000I250000J0D01*
G01*
X207025000Y-129100000D01*
G75*
G02*
X207275000Y-129350000I0J-250000D01*
G01*
X207275000Y-129850000D01*
G75*
G02*
X207025000Y-130100000I-250000J0D01*
G01*
G37*
G36*
G01*
X207025000Y-128200000D02*
X206075000Y-128200000D01*
G75*
G02*
X205825000Y-127950000I0J250000D01*
G01*
X205825000Y-127450000D01*
G75*
G02*
X206075000Y-127200000I250000J0D01*
G01*
X207025000Y-127200000D01*
G75*
G02*
X207275000Y-127450000I0J-250000D01*
G01*
X207275000Y-127950000D01*
G75*
G02*
X207025000Y-128200000I-250000J0D01*
G01*
G37*
G36*
G01*
X210500000Y-120850000D02*
X210500000Y-121350000D01*
G75*
G02*
X210275000Y-121575000I-225000J0D01*
G01*
X209825000Y-121575000D01*
G75*
G02*
X209600000Y-121350000I0J225000D01*
G01*
X209600000Y-120850000D01*
G75*
G02*
X209825000Y-120625000I225000J0D01*
G01*
X210275000Y-120625000D01*
G75*
G02*
X210500000Y-120850000I0J-225000D01*
G01*
G37*
G36*
G01*
X208950000Y-120850000D02*
X208950000Y-121350000D01*
G75*
G02*
X208725000Y-121575000I-225000J0D01*
G01*
X208275000Y-121575000D01*
G75*
G02*
X208050000Y-121350000I0J225000D01*
G01*
X208050000Y-120850000D01*
G75*
G02*
X208275000Y-120625000I225000J0D01*
G01*
X208725000Y-120625000D01*
G75*
G02*
X208950000Y-120850000I0J-225000D01*
G01*
G37*
G36*
G01*
X203350000Y-95850000D02*
X202850000Y-95850000D01*
G75*
G02*
X202625000Y-95625000I0J225000D01*
G01*
X202625000Y-95175000D01*
G75*
G02*
X202850000Y-94950000I225000J0D01*
G01*
X203350000Y-94950000D01*
G75*
G02*
X203575000Y-95175000I0J-225000D01*
G01*
X203575000Y-95625000D01*
G75*
G02*
X203350000Y-95850000I-225000J0D01*
G01*
G37*
G36*
G01*
X203350000Y-94300000D02*
X202850000Y-94300000D01*
G75*
G02*
X202625000Y-94075000I0J225000D01*
G01*
X202625000Y-93625000D01*
G75*
G02*
X202850000Y-93400000I225000J0D01*
G01*
X203350000Y-93400000D01*
G75*
G02*
X203575000Y-93625000I0J-225000D01*
G01*
X203575000Y-94075000D01*
G75*
G02*
X203350000Y-94300000I-225000J0D01*
G01*
G37*
G36*
G01*
X208000000Y-118750000D02*
X208000000Y-118250000D01*
G75*
G02*
X208225000Y-118025000I225000J0D01*
G01*
X208675000Y-118025000D01*
G75*
G02*
X208900000Y-118250000I0J-225000D01*
G01*
X208900000Y-118750000D01*
G75*
G02*
X208675000Y-118975000I-225000J0D01*
G01*
X208225000Y-118975000D01*
G75*
G02*
X208000000Y-118750000I0J225000D01*
G01*
G37*
G36*
G01*
X209550000Y-118750000D02*
X209550000Y-118250000D01*
G75*
G02*
X209775000Y-118025000I225000J0D01*
G01*
X210225000Y-118025000D01*
G75*
G02*
X210450000Y-118250000I0J-225000D01*
G01*
X210450000Y-118750000D01*
G75*
G02*
X210225000Y-118975000I-225000J0D01*
G01*
X209775000Y-118975000D01*
G75*
G02*
X209550000Y-118750000I0J225000D01*
G01*
G37*
D12*
X178750000Y-107050000D03*
X182750000Y-107050000D03*
D13*
X172150000Y-105250000D03*
X172150000Y-101950000D03*
D14*
X173760000Y-94800000D03*
D15*
X176300000Y-94800000D03*
X223400000Y-135100000D03*
X223400000Y-132560000D03*
D14*
X223400000Y-130020000D03*
X227150000Y-130020000D03*
D15*
X227150000Y-132560000D03*
X227150000Y-135100000D03*
D14*
X172500000Y-134950000D03*
D15*
X172500000Y-132410000D03*
X178650000Y-123500000D03*
X176110000Y-123500000D03*
D14*
X173570000Y-123500000D03*
D15*
X209050000Y-132550000D03*
D14*
X209050000Y-135090000D03*
X213900000Y-127480000D03*
D15*
X213900000Y-130020000D03*
X213900000Y-132560000D03*
X213900000Y-135100000D03*
X217600000Y-135100000D03*
X217600000Y-132560000D03*
X217600000Y-130020000D03*
D14*
X217600000Y-127480000D03*
X176200000Y-127350000D03*
D15*
X176200000Y-129890000D03*
X176200000Y-132430000D03*
X176200000Y-134970000D03*
D16*
X193400000Y-104800000D03*
X193400000Y-95300000D03*
D17*
X228150000Y-125400000D03*
X226250000Y-125400000D03*
X227200000Y-127400000D03*
D18*
X177800000Y-113550000D03*
X175800000Y-114500000D03*
X175800000Y-112600000D03*
D17*
X214800000Y-122800000D03*
X212900000Y-122800000D03*
X213850000Y-124800000D03*
D18*
X174200000Y-97500000D03*
X174200000Y-99400000D03*
X176200000Y-98450000D03*
X223700000Y-110850000D03*
X221700000Y-111800000D03*
X221700000Y-109900000D03*
G36*
G01*
X225980000Y-123450000D02*
X226480000Y-123450000D01*
G75*
G02*
X226705000Y-123675000I0J-225000D01*
G01*
X226705000Y-124125000D01*
G75*
G02*
X226480000Y-124350000I-225000J0D01*
G01*
X225980000Y-124350000D01*
G75*
G02*
X225755000Y-124125000I0J225000D01*
G01*
X225755000Y-123675000D01*
G75*
G02*
X225980000Y-123450000I225000J0D01*
G01*
G37*
G36*
G01*
X225980000Y-121900000D02*
X226480000Y-121900000D01*
G75*
G02*
X226705000Y-122125000I0J-225000D01*
G01*
X226705000Y-122575000D01*
G75*
G02*
X226480000Y-122800000I-225000J0D01*
G01*
X225980000Y-122800000D01*
G75*
G02*
X225755000Y-122575000I0J225000D01*
G01*
X225755000Y-122125000D01*
G75*
G02*
X225980000Y-121900000I225000J0D01*
G01*
G37*
G36*
G01*
X227525000Y-121875000D02*
X228075000Y-121875000D01*
G75*
G02*
X228275000Y-122075000I0J-200000D01*
G01*
X228275000Y-122475000D01*
G75*
G02*
X228075000Y-122675000I-200000J0D01*
G01*
X227525000Y-122675000D01*
G75*
G02*
X227325000Y-122475000I0J200000D01*
G01*
X227325000Y-122075000D01*
G75*
G02*
X227525000Y-121875000I200000J0D01*
G01*
G37*
G36*
G01*
X227525000Y-123525000D02*
X228075000Y-123525000D01*
G75*
G02*
X228275000Y-123725000I0J-200000D01*
G01*
X228275000Y-124125000D01*
G75*
G02*
X228075000Y-124325000I-200000J0D01*
G01*
X227525000Y-124325000D01*
G75*
G02*
X227325000Y-124125000I0J200000D01*
G01*
X227325000Y-123725000D01*
G75*
G02*
X227525000Y-123525000I200000J0D01*
G01*
G37*
G36*
G01*
X226200000Y-117950000D02*
X226200000Y-117450000D01*
G75*
G02*
X226425000Y-117225000I225000J0D01*
G01*
X226875000Y-117225000D01*
G75*
G02*
X227100000Y-117450000I0J-225000D01*
G01*
X227100000Y-117950000D01*
G75*
G02*
X226875000Y-118175000I-225000J0D01*
G01*
X226425000Y-118175000D01*
G75*
G02*
X226200000Y-117950000I0J225000D01*
G01*
G37*
G36*
G01*
X224650000Y-117950000D02*
X224650000Y-117450000D01*
G75*
G02*
X224875000Y-117225000I225000J0D01*
G01*
X225325000Y-117225000D01*
G75*
G02*
X225550000Y-117450000I0J-225000D01*
G01*
X225550000Y-117950000D01*
G75*
G02*
X225325000Y-118175000I-225000J0D01*
G01*
X224875000Y-118175000D01*
G75*
G02*
X224650000Y-117950000I0J225000D01*
G01*
G37*
G36*
G01*
X185500000Y-99800000D02*
X186000000Y-99800000D01*
G75*
G02*
X186225000Y-100025000I0J-225000D01*
G01*
X186225000Y-100475000D01*
G75*
G02*
X186000000Y-100700000I-225000J0D01*
G01*
X185500000Y-100700000D01*
G75*
G02*
X185275000Y-100475000I0J225000D01*
G01*
X185275000Y-100025000D01*
G75*
G02*
X185500000Y-99800000I225000J0D01*
G01*
G37*
G36*
G01*
X185500000Y-101350000D02*
X186000000Y-101350000D01*
G75*
G02*
X186225000Y-101575000I0J-225000D01*
G01*
X186225000Y-102025000D01*
G75*
G02*
X186000000Y-102250000I-225000J0D01*
G01*
X185500000Y-102250000D01*
G75*
G02*
X185275000Y-102025000I0J225000D01*
G01*
X185275000Y-101575000D01*
G75*
G02*
X185500000Y-101350000I225000J0D01*
G01*
G37*
G36*
G01*
X187025000Y-102275000D02*
X187575000Y-102275000D01*
G75*
G02*
X187775000Y-102475000I0J-200000D01*
G01*
X187775000Y-102875000D01*
G75*
G02*
X187575000Y-103075000I-200000J0D01*
G01*
X187025000Y-103075000D01*
G75*
G02*
X186825000Y-102875000I0J200000D01*
G01*
X186825000Y-102475000D01*
G75*
G02*
X187025000Y-102275000I200000J0D01*
G01*
G37*
G36*
G01*
X187025000Y-100625000D02*
X187575000Y-100625000D01*
G75*
G02*
X187775000Y-100825000I0J-200000D01*
G01*
X187775000Y-101225000D01*
G75*
G02*
X187575000Y-101425000I-200000J0D01*
G01*
X187025000Y-101425000D01*
G75*
G02*
X186825000Y-101225000I0J200000D01*
G01*
X186825000Y-100825000D01*
G75*
G02*
X187025000Y-100625000I200000J0D01*
G01*
G37*
G36*
G01*
X187500000Y-103875000D02*
X187500000Y-104425000D01*
G75*
G02*
X187300000Y-104625000I-200000J0D01*
G01*
X186900000Y-104625000D01*
G75*
G02*
X186700000Y-104425000I0J200000D01*
G01*
X186700000Y-103875000D01*
G75*
G02*
X186900000Y-103675000I200000J0D01*
G01*
X187300000Y-103675000D01*
G75*
G02*
X187500000Y-103875000I0J-200000D01*
G01*
G37*
G36*
G01*
X185850000Y-103875000D02*
X185850000Y-104425000D01*
G75*
G02*
X185650000Y-104625000I-200000J0D01*
G01*
X185250000Y-104625000D01*
G75*
G02*
X185050000Y-104425000I0J200000D01*
G01*
X185050000Y-103875000D01*
G75*
G02*
X185250000Y-103675000I200000J0D01*
G01*
X185650000Y-103675000D01*
G75*
G02*
X185850000Y-103875000I0J-200000D01*
G01*
G37*
G36*
G01*
X179275000Y-113650000D02*
X179825000Y-113650000D01*
G75*
G02*
X180025000Y-113850000I0J-200000D01*
G01*
X180025000Y-114250000D01*
G75*
G02*
X179825000Y-114450000I-200000J0D01*
G01*
X179275000Y-114450000D01*
G75*
G02*
X179075000Y-114250000I0J200000D01*
G01*
X179075000Y-113850000D01*
G75*
G02*
X179275000Y-113650000I200000J0D01*
G01*
G37*
G36*
G01*
X179275000Y-112000000D02*
X179825000Y-112000000D01*
G75*
G02*
X180025000Y-112200000I0J-200000D01*
G01*
X180025000Y-112600000D01*
G75*
G02*
X179825000Y-112800000I-200000J0D01*
G01*
X179275000Y-112800000D01*
G75*
G02*
X179075000Y-112600000I0J200000D01*
G01*
X179075000Y-112200000D01*
G75*
G02*
X179275000Y-112000000I200000J0D01*
G01*
G37*
G36*
G01*
X181525000Y-114450000D02*
X180975000Y-114450000D01*
G75*
G02*
X180775000Y-114250000I0J200000D01*
G01*
X180775000Y-113850000D01*
G75*
G02*
X180975000Y-113650000I200000J0D01*
G01*
X181525000Y-113650000D01*
G75*
G02*
X181725000Y-113850000I0J-200000D01*
G01*
X181725000Y-114250000D01*
G75*
G02*
X181525000Y-114450000I-200000J0D01*
G01*
G37*
G36*
G01*
X181525000Y-112800000D02*
X180975000Y-112800000D01*
G75*
G02*
X180775000Y-112600000I0J200000D01*
G01*
X180775000Y-112200000D01*
G75*
G02*
X180975000Y-112000000I200000J0D01*
G01*
X181525000Y-112000000D01*
G75*
G02*
X181725000Y-112200000I0J-200000D01*
G01*
X181725000Y-112600000D01*
G75*
G02*
X181525000Y-112800000I-200000J0D01*
G01*
G37*
G36*
G01*
X174300000Y-114500000D02*
X173800000Y-114500000D01*
G75*
G02*
X173575000Y-114275000I0J225000D01*
G01*
X173575000Y-113825000D01*
G75*
G02*
X173800000Y-113600000I225000J0D01*
G01*
X174300000Y-113600000D01*
G75*
G02*
X174525000Y-113825000I0J-225000D01*
G01*
X174525000Y-114275000D01*
G75*
G02*
X174300000Y-114500000I-225000J0D01*
G01*
G37*
G36*
G01*
X174300000Y-116050000D02*
X173800000Y-116050000D01*
G75*
G02*
X173575000Y-115825000I0J225000D01*
G01*
X173575000Y-115375000D01*
G75*
G02*
X173800000Y-115150000I225000J0D01*
G01*
X174300000Y-115150000D01*
G75*
G02*
X174525000Y-115375000I0J-225000D01*
G01*
X174525000Y-115825000D01*
G75*
G02*
X174300000Y-116050000I-225000J0D01*
G01*
G37*
G36*
G01*
X177825000Y-110425000D02*
X177825000Y-110975000D01*
G75*
G02*
X177625000Y-111175000I-200000J0D01*
G01*
X177225000Y-111175000D01*
G75*
G02*
X177025000Y-110975000I0J200000D01*
G01*
X177025000Y-110425000D01*
G75*
G02*
X177225000Y-110225000I200000J0D01*
G01*
X177625000Y-110225000D01*
G75*
G02*
X177825000Y-110425000I0J-200000D01*
G01*
G37*
G36*
G01*
X176175000Y-110425000D02*
X176175000Y-110975000D01*
G75*
G02*
X175975000Y-111175000I-200000J0D01*
G01*
X175575000Y-111175000D01*
G75*
G02*
X175375000Y-110975000I0J200000D01*
G01*
X175375000Y-110425000D01*
G75*
G02*
X175575000Y-110225000I200000J0D01*
G01*
X175975000Y-110225000D01*
G75*
G02*
X176175000Y-110425000I0J-200000D01*
G01*
G37*
G36*
G01*
X213050000Y-120150000D02*
X212550000Y-120150000D01*
G75*
G02*
X212325000Y-119925000I0J225000D01*
G01*
X212325000Y-119475000D01*
G75*
G02*
X212550000Y-119250000I225000J0D01*
G01*
X213050000Y-119250000D01*
G75*
G02*
X213275000Y-119475000I0J-225000D01*
G01*
X213275000Y-119925000D01*
G75*
G02*
X213050000Y-120150000I-225000J0D01*
G01*
G37*
G36*
G01*
X213050000Y-121700000D02*
X212550000Y-121700000D01*
G75*
G02*
X212325000Y-121475000I0J225000D01*
G01*
X212325000Y-121025000D01*
G75*
G02*
X212550000Y-120800000I225000J0D01*
G01*
X213050000Y-120800000D01*
G75*
G02*
X213275000Y-121025000I0J-225000D01*
G01*
X213275000Y-121475000D01*
G75*
G02*
X213050000Y-121700000I-225000J0D01*
G01*
G37*
G36*
G01*
X214575000Y-120900000D02*
X215125000Y-120900000D01*
G75*
G02*
X215325000Y-121100000I0J-200000D01*
G01*
X215325000Y-121500000D01*
G75*
G02*
X215125000Y-121700000I-200000J0D01*
G01*
X214575000Y-121700000D01*
G75*
G02*
X214375000Y-121500000I0J200000D01*
G01*
X214375000Y-121100000D01*
G75*
G02*
X214575000Y-120900000I200000J0D01*
G01*
G37*
G36*
G01*
X214575000Y-119250000D02*
X215125000Y-119250000D01*
G75*
G02*
X215325000Y-119450000I0J-200000D01*
G01*
X215325000Y-119850000D01*
G75*
G02*
X215125000Y-120050000I-200000J0D01*
G01*
X214575000Y-120050000D01*
G75*
G02*
X214375000Y-119850000I0J200000D01*
G01*
X214375000Y-119450000D01*
G75*
G02*
X214575000Y-119250000I200000J0D01*
G01*
G37*
G36*
G01*
X214550000Y-113250000D02*
X214550000Y-112750000D01*
G75*
G02*
X214775000Y-112525000I225000J0D01*
G01*
X215225000Y-112525000D01*
G75*
G02*
X215450000Y-112750000I0J-225000D01*
G01*
X215450000Y-113250000D01*
G75*
G02*
X215225000Y-113475000I-225000J0D01*
G01*
X214775000Y-113475000D01*
G75*
G02*
X214550000Y-113250000I0J225000D01*
G01*
G37*
G36*
G01*
X216100000Y-113250000D02*
X216100000Y-112750000D01*
G75*
G02*
X216325000Y-112525000I225000J0D01*
G01*
X216775000Y-112525000D01*
G75*
G02*
X217000000Y-112750000I0J-225000D01*
G01*
X217000000Y-113250000D01*
G75*
G02*
X216775000Y-113475000I-225000J0D01*
G01*
X216325000Y-113475000D01*
G75*
G02*
X216100000Y-113250000I0J225000D01*
G01*
G37*
G36*
G01*
X204675000Y-119400000D02*
X204125000Y-119400000D01*
G75*
G02*
X203925000Y-119200000I0J200000D01*
G01*
X203925000Y-118800000D01*
G75*
G02*
X204125000Y-118600000I200000J0D01*
G01*
X204675000Y-118600000D01*
G75*
G02*
X204875000Y-118800000I0J-200000D01*
G01*
X204875000Y-119200000D01*
G75*
G02*
X204675000Y-119400000I-200000J0D01*
G01*
G37*
G36*
G01*
X204675000Y-121050000D02*
X204125000Y-121050000D01*
G75*
G02*
X203925000Y-120850000I0J200000D01*
G01*
X203925000Y-120450000D01*
G75*
G02*
X204125000Y-120250000I200000J0D01*
G01*
X204675000Y-120250000D01*
G75*
G02*
X204875000Y-120450000I0J-200000D01*
G01*
X204875000Y-120850000D01*
G75*
G02*
X204675000Y-121050000I-200000J0D01*
G01*
G37*
G36*
G01*
X173125000Y-129875000D02*
X173125000Y-129325000D01*
G75*
G02*
X173325000Y-129125000I200000J0D01*
G01*
X173725000Y-129125000D01*
G75*
G02*
X173925000Y-129325000I0J-200000D01*
G01*
X173925000Y-129875000D01*
G75*
G02*
X173725000Y-130075000I-200000J0D01*
G01*
X173325000Y-130075000D01*
G75*
G02*
X173125000Y-129875000I0J200000D01*
G01*
G37*
G36*
G01*
X171475000Y-129875000D02*
X171475000Y-129325000D01*
G75*
G02*
X171675000Y-129125000I200000J0D01*
G01*
X172075000Y-129125000D01*
G75*
G02*
X172275000Y-129325000I0J-200000D01*
G01*
X172275000Y-129875000D01*
G75*
G02*
X172075000Y-130075000I-200000J0D01*
G01*
X171675000Y-130075000D01*
G75*
G02*
X171475000Y-129875000I0J200000D01*
G01*
G37*
G36*
G01*
X173225000Y-125750000D02*
X173775000Y-125750000D01*
G75*
G02*
X173975000Y-125950000I0J-200000D01*
G01*
X173975000Y-126350000D01*
G75*
G02*
X173775000Y-126550000I-200000J0D01*
G01*
X173225000Y-126550000D01*
G75*
G02*
X173025000Y-126350000I0J200000D01*
G01*
X173025000Y-125950000D01*
G75*
G02*
X173225000Y-125750000I200000J0D01*
G01*
G37*
G36*
G01*
X173225000Y-127400000D02*
X173775000Y-127400000D01*
G75*
G02*
X173975000Y-127600000I0J-200000D01*
G01*
X173975000Y-128000000D01*
G75*
G02*
X173775000Y-128200000I-200000J0D01*
G01*
X173225000Y-128200000D01*
G75*
G02*
X173025000Y-128000000I0J200000D01*
G01*
X173025000Y-127600000D01*
G75*
G02*
X173225000Y-127400000I200000J0D01*
G01*
G37*
G36*
G01*
X171600000Y-127350000D02*
X172100000Y-127350000D01*
G75*
G02*
X172325000Y-127575000I0J-225000D01*
G01*
X172325000Y-128025000D01*
G75*
G02*
X172100000Y-128250000I-225000J0D01*
G01*
X171600000Y-128250000D01*
G75*
G02*
X171375000Y-128025000I0J225000D01*
G01*
X171375000Y-127575000D01*
G75*
G02*
X171600000Y-127350000I225000J0D01*
G01*
G37*
G36*
G01*
X171600000Y-125800000D02*
X172100000Y-125800000D01*
G75*
G02*
X172325000Y-126025000I0J-225000D01*
G01*
X172325000Y-126475000D01*
G75*
G02*
X172100000Y-126700000I-225000J0D01*
G01*
X171600000Y-126700000D01*
G75*
G02*
X171375000Y-126475000I0J225000D01*
G01*
X171375000Y-126025000D01*
G75*
G02*
X171600000Y-125800000I225000J0D01*
G01*
G37*
G36*
G01*
X172925000Y-99850000D02*
X172375000Y-99850000D01*
G75*
G02*
X172175000Y-99650000I0J200000D01*
G01*
X172175000Y-99250000D01*
G75*
G02*
X172375000Y-99050000I200000J0D01*
G01*
X172925000Y-99050000D01*
G75*
G02*
X173125000Y-99250000I0J-200000D01*
G01*
X173125000Y-99650000D01*
G75*
G02*
X172925000Y-99850000I-200000J0D01*
G01*
G37*
G36*
G01*
X172925000Y-98200000D02*
X172375000Y-98200000D01*
G75*
G02*
X172175000Y-98000000I0J200000D01*
G01*
X172175000Y-97600000D01*
G75*
G02*
X172375000Y-97400000I200000J0D01*
G01*
X172925000Y-97400000D01*
G75*
G02*
X173125000Y-97600000I0J-200000D01*
G01*
X173125000Y-98000000D01*
G75*
G02*
X172925000Y-98200000I-200000J0D01*
G01*
G37*
G36*
G01*
X226550000Y-109475000D02*
X226550000Y-108925000D01*
G75*
G02*
X226750000Y-108725000I200000J0D01*
G01*
X227150000Y-108725000D01*
G75*
G02*
X227350000Y-108925000I0J-200000D01*
G01*
X227350000Y-109475000D01*
G75*
G02*
X227150000Y-109675000I-200000J0D01*
G01*
X226750000Y-109675000D01*
G75*
G02*
X226550000Y-109475000I0J200000D01*
G01*
G37*
G36*
G01*
X224900000Y-109475000D02*
X224900000Y-108925000D01*
G75*
G02*
X225100000Y-108725000I200000J0D01*
G01*
X225500000Y-108725000D01*
G75*
G02*
X225700000Y-108925000I0J-200000D01*
G01*
X225700000Y-109475000D01*
G75*
G02*
X225500000Y-109675000I-200000J0D01*
G01*
X225100000Y-109675000D01*
G75*
G02*
X224900000Y-109475000I0J200000D01*
G01*
G37*
D19*
X219600000Y-120550000D03*
X219600000Y-114550000D03*
X223300000Y-120550000D03*
X223300000Y-114550000D03*
D14*
X200700000Y-100200000D03*
D15*
X200700000Y-102740000D03*
X200700000Y-105280000D03*
D20*
X180900000Y-102340000D03*
D21*
X183600000Y-104245000D03*
X183600000Y-102975000D03*
X183600000Y-101705000D03*
X183600000Y-100435000D03*
X178200000Y-100435000D03*
X178200000Y-101705000D03*
X178200000Y-102975000D03*
X178200000Y-104245000D03*
D22*
X193850000Y-121755000D03*
D23*
X201350000Y-129255000D03*
X201350000Y-127985000D03*
X201350000Y-126715000D03*
X201350000Y-125445000D03*
X201350000Y-124175000D03*
X201350000Y-122905000D03*
X201350000Y-121635000D03*
X201350000Y-120365000D03*
X201350000Y-119095000D03*
X201350000Y-117825000D03*
X201350000Y-116555000D03*
X201350000Y-115285000D03*
X201350000Y-114015000D03*
X201350000Y-112745000D03*
D24*
X198565000Y-111745000D03*
X197295000Y-111745000D03*
X196025000Y-111745000D03*
X194755000Y-111745000D03*
X193485000Y-111745000D03*
X192215000Y-111745000D03*
X190945000Y-111745000D03*
X189675000Y-111745000D03*
X188405000Y-111745000D03*
X187135000Y-111745000D03*
D23*
X184350000Y-112745000D03*
X184350000Y-114015000D03*
X184350000Y-115285000D03*
X184350000Y-116555000D03*
X184350000Y-117825000D03*
X184350000Y-119095000D03*
X184350000Y-120365000D03*
X184350000Y-121635000D03*
X184350000Y-122905000D03*
X184350000Y-124175000D03*
X184350000Y-125445000D03*
X184350000Y-126715000D03*
X184350000Y-127985000D03*
X184350000Y-129255000D03*
D25*
X205300000Y-110400000D03*
X207300000Y-110400000D03*
X209300000Y-110400000D03*
X211300000Y-110400000D03*
X213300000Y-110400000D03*
X215300000Y-110400000D03*
X217300000Y-110400000D03*
X219300000Y-110400000D03*
X219300000Y-94400000D03*
X217300000Y-94400000D03*
X215300000Y-94400000D03*
X213300000Y-94400000D03*
X211300000Y-94400000D03*
X209300000Y-94400000D03*
X207300000Y-94400000D03*
X205300000Y-94400000D03*
D26*
X206450000Y-118600000D03*
X206450000Y-121100000D03*
G36*
G01*
X175049999Y-103575000D02*
X176350001Y-103575000D01*
G75*
G02*
X176600000Y-103824999I0J-249999D01*
G01*
X176600000Y-104475001D01*
G75*
G02*
X176350001Y-104725000I-249999J0D01*
G01*
X175049999Y-104725000D01*
G75*
G02*
X174800000Y-104475001I0J249999D01*
G01*
X174800000Y-103824999D01*
G75*
G02*
X175049999Y-103575000I249999J0D01*
G01*
G37*
G36*
G01*
X175049999Y-100625000D02*
X176350001Y-100625000D01*
G75*
G02*
X176600000Y-100874999I0J-249999D01*
G01*
X176600000Y-101525001D01*
G75*
G02*
X176350001Y-101775000I-249999J0D01*
G01*
X175049999Y-101775000D01*
G75*
G02*
X174800000Y-101525001I0J249999D01*
G01*
X174800000Y-100874999D01*
G75*
G02*
X175049999Y-100625000I249999J0D01*
G01*
G37*
G36*
G01*
X176350001Y-109475000D02*
X175049999Y-109475000D01*
G75*
G02*
X174800000Y-109225001I0J249999D01*
G01*
X174800000Y-108574999D01*
G75*
G02*
X175049999Y-108325000I249999J0D01*
G01*
X176350001Y-108325000D01*
G75*
G02*
X176600000Y-108574999I0J-249999D01*
G01*
X176600000Y-109225001D01*
G75*
G02*
X176350001Y-109475000I-249999J0D01*
G01*
G37*
G36*
G01*
X176350001Y-106525000D02*
X175049999Y-106525000D01*
G75*
G02*
X174800000Y-106275001I0J249999D01*
G01*
X174800000Y-105624999D01*
G75*
G02*
X175049999Y-105375000I249999J0D01*
G01*
X176350001Y-105375000D01*
G75*
G02*
X176600000Y-105624999I0J-249999D01*
G01*
X176600000Y-106275001D01*
G75*
G02*
X176350001Y-106525000I-249999J0D01*
G01*
G37*
G36*
G01*
X221380000Y-97500000D02*
X221880000Y-97500000D01*
G75*
G02*
X222105000Y-97725000I0J-225000D01*
G01*
X222105000Y-98175000D01*
G75*
G02*
X221880000Y-98400000I-225000J0D01*
G01*
X221380000Y-98400000D01*
G75*
G02*
X221155000Y-98175000I0J225000D01*
G01*
X221155000Y-97725000D01*
G75*
G02*
X221380000Y-97500000I225000J0D01*
G01*
G37*
G36*
G01*
X221380000Y-99050000D02*
X221880000Y-99050000D01*
G75*
G02*
X222105000Y-99275000I0J-225000D01*
G01*
X222105000Y-99725000D01*
G75*
G02*
X221880000Y-99950000I-225000J0D01*
G01*
X221380000Y-99950000D01*
G75*
G02*
X221155000Y-99725000I0J225000D01*
G01*
X221155000Y-99275000D01*
G75*
G02*
X221380000Y-99050000I225000J0D01*
G01*
G37*
G36*
G01*
X225960000Y-98050000D02*
X226460000Y-98050000D01*
G75*
G02*
X226685000Y-98275000I0J-225000D01*
G01*
X226685000Y-98725000D01*
G75*
G02*
X226460000Y-98950000I-225000J0D01*
G01*
X225960000Y-98950000D01*
G75*
G02*
X225735000Y-98725000I0J225000D01*
G01*
X225735000Y-98275000D01*
G75*
G02*
X225960000Y-98050000I225000J0D01*
G01*
G37*
G36*
G01*
X225960000Y-96500000D02*
X226460000Y-96500000D01*
G75*
G02*
X226685000Y-96725000I0J-225000D01*
G01*
X226685000Y-97175000D01*
G75*
G02*
X226460000Y-97400000I-225000J0D01*
G01*
X225960000Y-97400000D01*
G75*
G02*
X225735000Y-97175000I0J225000D01*
G01*
X225735000Y-96725000D01*
G75*
G02*
X225960000Y-96500000I225000J0D01*
G01*
G37*
G36*
G01*
X222700000Y-99775000D02*
X222700000Y-99225000D01*
G75*
G02*
X222900000Y-99025000I200000J0D01*
G01*
X223300000Y-99025000D01*
G75*
G02*
X223500000Y-99225000I0J-200000D01*
G01*
X223500000Y-99775000D01*
G75*
G02*
X223300000Y-99975000I-200000J0D01*
G01*
X222900000Y-99975000D01*
G75*
G02*
X222700000Y-99775000I0J200000D01*
G01*
G37*
G36*
G01*
X224350000Y-99775000D02*
X224350000Y-99225000D01*
G75*
G02*
X224550000Y-99025000I200000J0D01*
G01*
X224950000Y-99025000D01*
G75*
G02*
X225150000Y-99225000I0J-200000D01*
G01*
X225150000Y-99775000D01*
G75*
G02*
X224950000Y-99975000I-200000J0D01*
G01*
X224550000Y-99975000D01*
G75*
G02*
X224350000Y-99775000I0J200000D01*
G01*
G37*
G36*
G01*
X174162500Y-106599999D02*
X174162500Y-107500001D01*
G75*
G02*
X173912501Y-107750000I-249999J0D01*
G01*
X173387499Y-107750000D01*
G75*
G02*
X173137500Y-107500001I0J249999D01*
G01*
X173137500Y-106599999D01*
G75*
G02*
X173387499Y-106350000I249999J0D01*
G01*
X173912501Y-106350000D01*
G75*
G02*
X174162500Y-106599999I0J-249999D01*
G01*
G37*
G36*
G01*
X172337500Y-106599999D02*
X172337500Y-107500001D01*
G75*
G02*
X172087501Y-107750000I-249999J0D01*
G01*
X171562499Y-107750000D01*
G75*
G02*
X171312500Y-107500001I0J249999D01*
G01*
X171312500Y-106599999D01*
G75*
G02*
X171562499Y-106350000I249999J0D01*
G01*
X172087501Y-106350000D01*
G75*
G02*
X172337500Y-106599999I0J-249999D01*
G01*
G37*
D27*
X225995000Y-111955000D03*
X174005000Y-111955000D03*
D28*
X176755000Y-117995000D03*
X223235000Y-106005000D03*
D19*
X228990000Y-93310000D03*
X227690000Y-93310000D03*
D29*
X222700000Y-94300000D03*
X180600000Y-128100000D03*
X222700000Y-124670000D03*
M02*
