G04 #@! TF.GenerationSoftware,KiCad,Pcbnew,(5.1.7)-1*
G04 #@! TF.CreationDate,2020-12-10T21:45:52+01:00*
G04 #@! TF.ProjectId,lora,6c6f7261-2e6b-4696-9361-645f70636258,v1.0*
G04 #@! TF.SameCoordinates,Original*
G04 #@! TF.FileFunction,Copper,L4,Bot*
G04 #@! TF.FilePolarity,Positive*
%FSLAX46Y46*%
G04 Gerber Fmt 4.6, Leading zero omitted, Abs format (unit mm)*
G04 Created by KiCad (PCBNEW (5.1.7)-1) date 2020-12-10 21:45:52*
%MOMM*%
%LPD*%
G01*
G04 APERTURE LIST*
G04 #@! TA.AperFunction,ComponentPad*
%ADD10R,1.700000X1.700000*%
G04 #@! TD*
G04 #@! TA.AperFunction,ComponentPad*
%ADD11O,1.700000X1.700000*%
G04 #@! TD*
G04 #@! TA.AperFunction,ComponentPad*
%ADD12C,1.530000*%
G04 #@! TD*
G04 #@! TA.AperFunction,ComponentPad*
%ADD13C,3.960000*%
G04 #@! TD*
G04 #@! TA.AperFunction,SMDPad,CuDef*
%ADD14R,0.890000X0.460000*%
G04 #@! TD*
G04 #@! TA.AperFunction,ComponentPad*
%ADD15C,0.970000*%
G04 #@! TD*
G04 #@! TA.AperFunction,SMDPad,CuDef*
%ADD16R,4.190000X2.665000*%
G04 #@! TD*
G04 #@! TA.AperFunction,SMDPad,CuDef*
%ADD17R,2.950000X4.500000*%
G04 #@! TD*
G04 #@! TA.AperFunction,ComponentPad*
%ADD18C,0.600000*%
G04 #@! TD*
G04 #@! TA.AperFunction,ComponentPad*
%ADD19C,3.800000*%
G04 #@! TD*
G04 #@! TA.AperFunction,ViaPad*
%ADD20C,0.800000*%
G04 #@! TD*
G04 #@! TA.AperFunction,Conductor*
%ADD21C,1.000000*%
G04 #@! TD*
G04 #@! TA.AperFunction,Conductor*
%ADD22C,0.300000*%
G04 #@! TD*
G04 APERTURE END LIST*
D10*
X226540000Y-127450000D03*
D11*
X226540000Y-129990000D03*
X226540000Y-132530000D03*
X226540000Y-135070000D03*
D12*
X225995000Y-111955000D03*
X174005000Y-111955000D03*
D13*
X176755000Y-117995000D03*
X223235000Y-106005000D03*
D14*
X225298000Y-96007500D03*
D15*
X224853000Y-96007500D03*
D16*
X227838000Y-102992500D03*
X227838000Y-96007500D03*
D15*
X224853000Y-102992500D03*
D14*
X225298000Y-102992500D03*
D10*
X177450000Y-126110000D03*
D11*
X177450000Y-128650000D03*
X181120000Y-123570000D03*
X181120000Y-126110000D03*
D10*
X181120000Y-128650000D03*
D11*
X209670000Y-132560000D03*
D10*
X209670000Y-135100000D03*
X213900000Y-127480000D03*
D11*
X213900000Y-130020000D03*
X213900000Y-132560000D03*
X213900000Y-135100000D03*
X217600000Y-135100000D03*
X217600000Y-132560000D03*
X217600000Y-130020000D03*
D10*
X217600000Y-127480000D03*
X200700000Y-100200000D03*
D11*
X200700000Y-102740000D03*
X200700000Y-105280000D03*
D17*
X180900000Y-102340000D03*
D18*
X181500000Y-104140000D03*
X181500000Y-102940000D03*
X180300000Y-102940000D03*
X180300000Y-104140000D03*
X181500000Y-100540000D03*
X181500000Y-101640000D03*
X180300000Y-101640000D03*
X180300000Y-100540000D03*
D19*
X222700000Y-94300000D03*
X222700000Y-124670000D03*
D10*
X173850000Y-97380000D03*
D11*
X173850000Y-94840000D03*
D10*
X173780000Y-135530000D03*
D11*
X173780000Y-132990000D03*
X173780000Y-130450000D03*
X173780000Y-121730000D03*
X173780000Y-124270000D03*
D10*
X173780000Y-126810000D03*
D20*
X229000000Y-104000000D03*
X229000000Y-103000000D03*
X227500000Y-102000000D03*
X229000000Y-97000000D03*
X227500000Y-96000000D03*
X229000000Y-95000000D03*
X195700000Y-119850000D03*
X195700000Y-123550000D03*
X192050000Y-123500000D03*
X192000000Y-119800000D03*
X209600000Y-117150000D03*
X209450000Y-122350000D03*
X199700000Y-129700000D03*
X186200000Y-129450000D03*
X198750000Y-113450000D03*
X217450000Y-96200000D03*
X219300000Y-108600000D03*
X203200000Y-96500000D03*
X205300000Y-112200000D03*
X174005000Y-109595000D03*
X227420000Y-108230000D03*
X219650000Y-119450000D03*
X185450000Y-103050000D03*
X227200000Y-115050000D03*
X174005000Y-110495000D03*
X180300000Y-97400000D03*
X180300000Y-98400000D03*
X176500000Y-99900000D03*
X171470000Y-93030000D03*
X174580000Y-93010000D03*
X177000000Y-93000000D03*
X179000000Y-93000000D03*
X181000000Y-93000000D03*
X183000000Y-93000000D03*
X181850000Y-106150000D03*
X177295000Y-101705000D03*
X185000000Y-93000000D03*
X187000000Y-93000000D03*
X189000000Y-93000000D03*
X183000000Y-106000000D03*
X227780000Y-105980000D03*
X229000000Y-108000000D03*
X229000000Y-110000000D03*
X228000000Y-112000000D03*
X229000000Y-114000000D03*
X229000000Y-116000000D03*
X228500000Y-118000000D03*
X229000000Y-120000000D03*
X229000000Y-124000000D03*
X229000000Y-130000000D03*
X229000000Y-132000000D03*
X229000000Y-136000000D03*
X172320000Y-117910000D03*
X172500000Y-115500000D03*
X172500000Y-113000000D03*
X172500000Y-111000000D03*
X172500000Y-109000000D03*
X171000000Y-103000000D03*
X197000000Y-93000000D03*
X199000000Y-93000000D03*
X201000000Y-93000000D03*
X226000000Y-93000000D03*
X217000000Y-93000000D03*
X206000000Y-97000000D03*
X215000000Y-97000000D03*
X221000000Y-96500000D03*
X218000000Y-98000000D03*
X219000000Y-100000000D03*
X221000000Y-101000000D03*
X223000000Y-101000000D03*
X225000000Y-101000000D03*
X225000000Y-98000000D03*
X222930250Y-97930250D03*
X188000000Y-130000000D03*
X191000000Y-130000000D03*
X194000000Y-130000000D03*
X197000000Y-130000000D03*
X224000000Y-122000000D03*
X220000000Y-122000000D03*
X220000000Y-118000000D03*
X190000000Y-99000000D03*
X192000000Y-99000000D03*
X194000000Y-99000000D03*
X196000000Y-99000000D03*
X197000000Y-101000000D03*
X193000000Y-101000000D03*
X189000000Y-101000000D03*
X198000000Y-104000000D03*
X198000000Y-106000000D03*
X207000000Y-101000000D03*
X204000000Y-101000000D03*
X204000000Y-99000000D03*
X229000000Y-127500000D03*
X229000000Y-122000000D03*
X223000000Y-103000000D03*
X190000000Y-108500000D03*
X192000000Y-108500000D03*
X194000000Y-108500000D03*
X198000000Y-108500000D03*
X200000000Y-108500000D03*
X202000000Y-107500000D03*
X203500000Y-106500000D03*
X206000000Y-103500000D03*
X196000000Y-108500000D03*
X177000000Y-109500000D03*
X179000000Y-110000000D03*
X180690000Y-110530000D03*
X184760000Y-110550000D03*
X186600000Y-109800000D03*
X188200000Y-108400000D03*
X195090000Y-92630000D03*
X192810000Y-92600000D03*
X190720000Y-92630000D03*
X170990000Y-109010000D03*
X170600010Y-104899990D03*
X170600010Y-106899990D03*
X176000000Y-107500000D03*
X207000000Y-99000000D03*
X207300000Y-129900000D03*
X180910000Y-113620000D03*
X215750000Y-125350000D03*
X204900000Y-125350000D03*
X211500000Y-96250000D03*
X173800000Y-116700000D03*
X176750000Y-114850000D03*
X227150000Y-118650000D03*
X198450000Y-130050000D03*
X217300000Y-118100000D03*
X207050000Y-126650000D03*
X210600000Y-126400000D03*
X210750000Y-92650000D03*
X202500000Y-92625000D03*
X179920000Y-119300000D03*
X176370000Y-133610000D03*
X212350000Y-118450000D03*
X221260000Y-134920000D03*
X222250000Y-128980000D03*
X173510009Y-102979991D03*
X174200000Y-102290000D03*
X189260000Y-122470000D03*
X190390000Y-119590000D03*
X194070000Y-116830000D03*
X199660000Y-116590000D03*
X198750069Y-117889794D03*
X188520000Y-121710000D03*
X194130000Y-115700001D03*
X189260000Y-119310000D03*
X183740000Y-112790000D03*
X182140000Y-119730000D03*
X190980000Y-124970000D03*
X194770000Y-125260000D03*
X182645000Y-115285000D03*
X182700000Y-116610000D03*
X197300000Y-113300000D03*
X203300000Y-114100000D03*
X211900000Y-126300000D03*
X211330000Y-116260000D03*
X198460000Y-124110000D03*
X220770000Y-131040000D03*
X198330000Y-122990000D03*
X220350000Y-112800000D03*
X187385331Y-114604669D03*
X182270000Y-113150000D03*
X186750000Y-113740000D03*
X182134669Y-111604669D03*
X212435000Y-114015000D03*
X197920000Y-114950000D03*
X194200000Y-114200000D03*
X188399686Y-118579024D03*
X185800000Y-127900000D03*
X186230000Y-122360000D03*
X191200000Y-110000000D03*
X182800000Y-114070000D03*
X213250000Y-108300000D03*
X186394669Y-116944669D03*
X211250000Y-108649999D03*
X187314354Y-117493692D03*
X207300000Y-109200000D03*
X188311086Y-117412888D03*
X171950000Y-105890000D03*
X172600000Y-100330000D03*
X172309999Y-101150001D03*
X212794669Y-112594669D03*
X217100000Y-114700000D03*
D21*
X227838000Y-96007500D02*
X224853000Y-96007500D01*
X227838000Y-102992500D02*
X224853000Y-102992500D01*
D22*
X215750000Y-125350000D02*
X204900000Y-125350000D01*
D21*
X174200000Y-102290000D02*
X173510009Y-102979991D01*
X173850000Y-97870000D02*
X174200000Y-98220000D01*
X174200000Y-98220000D02*
X174200000Y-102290000D01*
X173850000Y-97380000D02*
X173850000Y-97870000D01*
X174200000Y-97400000D02*
X174200000Y-98220000D01*
D22*
X192200000Y-117780000D02*
X192200000Y-117770000D01*
X190390000Y-119590000D02*
X192200000Y-117780000D01*
X193140000Y-116830000D02*
X194070000Y-116830000D01*
X192200000Y-117770000D02*
X193140000Y-116830000D01*
X198719668Y-117530332D02*
X199660000Y-116590000D01*
X198719668Y-117859393D02*
X198750069Y-117889794D01*
X198719668Y-117530332D02*
X198719668Y-117859393D01*
X175820000Y-131390000D02*
X174160000Y-133050000D01*
X175820000Y-124100000D02*
X175820000Y-131390000D01*
X177220000Y-122700000D02*
X175820000Y-124100000D01*
X177220000Y-122700000D02*
X177240000Y-122700000D01*
X177240000Y-122700000D02*
X178740000Y-121200000D01*
X188169998Y-122470000D02*
X189260000Y-122470000D01*
X186899998Y-121200000D02*
X188169998Y-122470000D01*
X178740000Y-121200000D02*
X186899998Y-121200000D01*
X188440000Y-121710000D02*
X188520000Y-121710000D01*
X193111855Y-115700001D02*
X194130000Y-115700001D01*
X190365089Y-118446767D02*
X193111855Y-115700001D01*
X190123233Y-118446767D02*
X189260000Y-119310000D01*
X190365089Y-118446767D02*
X190123233Y-118446767D01*
X188400002Y-121710000D02*
X188520000Y-121710000D01*
X176579999Y-121860001D02*
X174160000Y-124280000D01*
X188520000Y-121710000D02*
X188369999Y-121860001D01*
X176579999Y-121860001D02*
X176599999Y-121860001D01*
X176599999Y-121860001D02*
X177910000Y-120550000D01*
X187360000Y-120550000D02*
X188520000Y-121710000D01*
X177910000Y-120550000D02*
X187360000Y-120550000D01*
X183020001Y-112789999D02*
X182630002Y-112400000D01*
X183740000Y-112790000D02*
X183020001Y-112789999D01*
X182630002Y-112400000D02*
X180820000Y-112400000D01*
X180159999Y-113060001D02*
X180159999Y-115919999D01*
X180820000Y-112400000D02*
X180159999Y-113060001D01*
X182140000Y-117900000D02*
X182140000Y-119730000D01*
X180159999Y-115919999D02*
X182140000Y-117900000D01*
X210430001Y-127410001D02*
X208870010Y-125850010D01*
X211290001Y-127410001D02*
X210430001Y-127410001D01*
X213900000Y-130020000D02*
X211290001Y-127410001D01*
X205509992Y-125850010D02*
X205110003Y-126249999D01*
X208870010Y-125850010D02*
X205509992Y-125850010D01*
X205110003Y-126249999D02*
X198809999Y-126249999D01*
X190980000Y-124700000D02*
X190765000Y-124485000D01*
X190980000Y-124970000D02*
X190980000Y-124700000D01*
X191245000Y-124965000D02*
X190765000Y-124485000D01*
X195759999Y-126249999D02*
X194770000Y-125260000D01*
X198809999Y-126249999D02*
X195759999Y-126249999D01*
X183345000Y-115285000D02*
X182645000Y-115285000D01*
X186020000Y-117960000D02*
X183345000Y-115285000D01*
X186720000Y-117960000D02*
X186020000Y-117960000D01*
X190550000Y-121790000D02*
X186720000Y-117960000D01*
X190550000Y-124270000D02*
X190550000Y-121790000D01*
X190765000Y-124485000D02*
X190550000Y-124270000D01*
X186512890Y-118460010D02*
X185862890Y-118460010D01*
X186550000Y-118540000D02*
X186550000Y-118497120D01*
X190049990Y-122039990D02*
X186550000Y-118540000D01*
X186550000Y-118497120D02*
X186512890Y-118460010D01*
X207360000Y-128270000D02*
X207320000Y-128310000D01*
X192010000Y-128310000D02*
X190049990Y-126349990D01*
X213740000Y-132560000D02*
X209450000Y-128270000D01*
X207320000Y-128310000D02*
X192010000Y-128310000D01*
X213900000Y-132560000D02*
X213740000Y-132560000D01*
X209450000Y-128270000D02*
X207360000Y-128270000D01*
X190049990Y-124299990D02*
X190049990Y-122039990D01*
X190049990Y-126349990D02*
X190049990Y-124299990D01*
X190049990Y-124477110D02*
X190049990Y-124299990D01*
X185862890Y-118460010D02*
X185600010Y-118460010D01*
X183750000Y-116610000D02*
X182700000Y-116610000D01*
X185600010Y-118460010D02*
X183750000Y-116610000D01*
X197169999Y-113430001D02*
X197300000Y-113300000D01*
X193910000Y-126540000D02*
X193910000Y-119430000D01*
X209820001Y-127750001D02*
X209470001Y-127400001D01*
X193910000Y-119430000D02*
X197169999Y-116170001D01*
X209853999Y-127750001D02*
X209820001Y-127750001D01*
X213463997Y-131359999D02*
X209853999Y-127750001D01*
X194770001Y-127400001D02*
X193910000Y-126540000D01*
X209470001Y-127400001D02*
X194770001Y-127400001D01*
X216399999Y-131359999D02*
X213463997Y-131359999D01*
X197169999Y-116170001D02*
X197169999Y-113430001D01*
X217600000Y-132560000D02*
X216399999Y-131359999D01*
X217600000Y-130020000D02*
X217170000Y-130020000D01*
X217170000Y-130020000D02*
X215810000Y-128660000D01*
X215810000Y-126880000D02*
X214930000Y-126000000D01*
X215810000Y-128660000D02*
X215810000Y-126880000D01*
X212200000Y-126000000D02*
X211900000Y-126300000D01*
X214930000Y-126000000D02*
X212200000Y-126000000D01*
X209170000Y-114100000D02*
X203300000Y-114100000D01*
X211330000Y-116260000D02*
X209170000Y-114100000D01*
X198460000Y-124110000D02*
X198660000Y-124310000D01*
X198660000Y-124310000D02*
X217660000Y-124310000D01*
X217660000Y-124310000D02*
X217730000Y-124310000D01*
X217660000Y-124310000D02*
X217900000Y-124310000D01*
X217900000Y-124310000D02*
X220140000Y-126550000D01*
X220140000Y-130410000D02*
X220770000Y-131040000D01*
X220140000Y-126550000D02*
X220140000Y-130410000D01*
X223840000Y-129830000D02*
X226540000Y-132530000D01*
X223840000Y-129450000D02*
X223840000Y-129830000D01*
X199480000Y-123610000D02*
X218000000Y-123610000D01*
X198860000Y-122990000D02*
X199480000Y-123610000D01*
X218000000Y-123610000D02*
X223840000Y-129450000D01*
X198330000Y-122990000D02*
X198860000Y-122990000D01*
D21*
X200700000Y-105280000D02*
X212730000Y-105280000D01*
X220250000Y-112800000D02*
X220350000Y-112800000D01*
X212730000Y-105280000D02*
X220250000Y-112800000D01*
D22*
X187275949Y-115007855D02*
X187275949Y-114714051D01*
X183550001Y-113760001D02*
X185170000Y-115380000D01*
X187275949Y-114714051D02*
X187385331Y-114604669D01*
X186903804Y-115380000D02*
X187275949Y-115007855D01*
X183550001Y-113709999D02*
X183550001Y-113760001D01*
X185170000Y-115380000D02*
X186903804Y-115380000D01*
X183160001Y-113319999D02*
X183550001Y-113709999D01*
X182439999Y-113319999D02*
X183160001Y-113319999D01*
X182270000Y-113150000D02*
X182439999Y-113319999D01*
X186750000Y-113740000D02*
X184620000Y-111610000D01*
X182140000Y-111610000D02*
X182134669Y-111604669D01*
X184620000Y-111610000D02*
X182140000Y-111610000D01*
X211769999Y-113349999D02*
X212435000Y-114015000D01*
X202250001Y-113349999D02*
X211769999Y-113349999D01*
X202250001Y-113349999D02*
X201399999Y-114200001D01*
X197920000Y-114950000D02*
X197920000Y-114790000D01*
X198509999Y-114200001D02*
X201399999Y-114200001D01*
X197920000Y-114790000D02*
X198509999Y-114200001D01*
X194200000Y-114200000D02*
X193200000Y-114200000D01*
X188399686Y-118579024D02*
X189140000Y-117838710D01*
X189140000Y-117838710D02*
X189140000Y-117367120D01*
X192307120Y-114200000D02*
X193200000Y-114200000D01*
X189140000Y-117367120D02*
X192307120Y-114200000D01*
X185800000Y-127900000D02*
X186160000Y-127540000D01*
X186160000Y-122430000D02*
X186230000Y-122360000D01*
X186160000Y-127540000D02*
X186160000Y-122430000D01*
X182900000Y-113970000D02*
X182800000Y-114070000D01*
X187483059Y-115507865D02*
X187100924Y-115890000D01*
X188120775Y-115507865D02*
X187483059Y-115507865D01*
X191200000Y-112428640D02*
X188120775Y-115507865D01*
X191200000Y-110000000D02*
X191200000Y-112428640D01*
X182887120Y-114070000D02*
X182800000Y-114070000D01*
X184707120Y-115890000D02*
X182887120Y-114070000D01*
X187100924Y-115890000D02*
X184707120Y-115890000D01*
X186394669Y-116905331D02*
X186394669Y-116944669D01*
X213250000Y-108300000D02*
X212849998Y-107899998D01*
X212849998Y-107899998D02*
X206600002Y-107899998D01*
X206600002Y-107899998D02*
X204400010Y-110099990D01*
X186753375Y-116944669D02*
X187690169Y-116007875D01*
X186394669Y-116944669D02*
X186753375Y-116944669D01*
X187690169Y-116007875D02*
X188327885Y-116007875D01*
X194235770Y-110099990D02*
X194420010Y-110099990D01*
X188327885Y-116007875D02*
X194235770Y-110099990D01*
X204400010Y-110099990D02*
X194420010Y-110099990D01*
X211050000Y-108449999D02*
X211250000Y-108649999D01*
X206939999Y-108449999D02*
X211050000Y-108449999D01*
X206549999Y-108839999D02*
X206549999Y-108850001D01*
X206939999Y-108449999D02*
X206549999Y-108839999D01*
X206549999Y-108850001D02*
X204800000Y-110600000D01*
X187500000Y-117308046D02*
X187314354Y-117493692D01*
X188013972Y-116600000D02*
X188442880Y-116600000D01*
X187314354Y-117299618D02*
X188013972Y-116600000D01*
X187314354Y-117493692D02*
X187314354Y-117299618D01*
X194442880Y-110600000D02*
X194700000Y-110600000D01*
X188442880Y-116600000D02*
X194442880Y-110600000D01*
X204800000Y-110600000D02*
X194700000Y-110600000D01*
X190700000Y-115050000D02*
X188650000Y-117100000D01*
X190750000Y-115050000D02*
X190700000Y-115050000D01*
X194350001Y-111449999D02*
X206450001Y-111449999D01*
X190750000Y-115050000D02*
X194350001Y-111449999D01*
X207300000Y-110600000D02*
X207300000Y-109200000D01*
X206450001Y-111449999D02*
X207300000Y-110600000D01*
X188623974Y-117100000D02*
X188311086Y-117412888D01*
X188650000Y-117100000D02*
X188623974Y-117100000D01*
D21*
X172309999Y-105530001D02*
X172309999Y-101150001D01*
X171950000Y-105890000D02*
X172309999Y-105530001D01*
X172600000Y-100590000D02*
X172600000Y-100330000D01*
X172309999Y-100880001D02*
X172600000Y-100590000D01*
X172309999Y-101150001D02*
X172309999Y-100880001D01*
D22*
X214900000Y-114700000D02*
X217100000Y-114700000D01*
X212794669Y-112594669D02*
X214900000Y-114700000D01*
M02*
