G04 #@! TF.GenerationSoftware,KiCad,Pcbnew,(5.1.7)-1*
G04 #@! TF.CreationDate,2020-11-22T23:18:21+01:00*
G04 #@! TF.ProjectId,lora,6c6f7261-2e6b-4696-9361-645f70636258,rev?*
G04 #@! TF.SameCoordinates,Original*
G04 #@! TF.FileFunction,Copper,L4,Bot*
G04 #@! TF.FilePolarity,Positive*
%FSLAX46Y46*%
G04 Gerber Fmt 4.6, Leading zero omitted, Abs format (unit mm)*
G04 Created by KiCad (PCBNEW (5.1.7)-1) date 2020-11-22 23:18:21*
%MOMM*%
%LPD*%
G01*
G04 APERTURE LIST*
G04 #@! TA.AperFunction,SMDPad,CuDef*
%ADD10R,0.890000X0.460000*%
G04 #@! TD*
G04 #@! TA.AperFunction,ComponentPad*
%ADD11C,0.970000*%
G04 #@! TD*
G04 #@! TA.AperFunction,SMDPad,CuDef*
%ADD12R,4.190000X2.665000*%
G04 #@! TD*
G04 #@! TA.AperFunction,ComponentPad*
%ADD13R,1.700000X1.700000*%
G04 #@! TD*
G04 #@! TA.AperFunction,ComponentPad*
%ADD14O,1.700000X1.700000*%
G04 #@! TD*
G04 #@! TA.AperFunction,SMDPad,CuDef*
%ADD15R,2.950000X4.500000*%
G04 #@! TD*
G04 #@! TA.AperFunction,ComponentPad*
%ADD16C,0.600000*%
G04 #@! TD*
G04 #@! TA.AperFunction,ComponentPad*
%ADD17C,1.530000*%
G04 #@! TD*
G04 #@! TA.AperFunction,ComponentPad*
%ADD18C,3.960000*%
G04 #@! TD*
G04 #@! TA.AperFunction,ComponentPad*
%ADD19C,3.800000*%
G04 #@! TD*
G04 #@! TA.AperFunction,ViaPad*
%ADD20C,0.800000*%
G04 #@! TD*
G04 #@! TA.AperFunction,Conductor*
%ADD21C,1.000000*%
G04 #@! TD*
G04 #@! TA.AperFunction,Conductor*
%ADD22C,0.300000*%
G04 #@! TD*
G04 APERTURE END LIST*
D10*
X225298000Y-96007500D03*
D11*
X224853000Y-96007500D03*
D12*
X227838000Y-102992500D03*
X227838000Y-96007500D03*
D11*
X224853000Y-102992500D03*
D10*
X225298000Y-102992500D03*
D13*
X173760000Y-94800000D03*
D14*
X176300000Y-94800000D03*
X223400000Y-135100000D03*
X223400000Y-132560000D03*
D13*
X223400000Y-130020000D03*
X227150000Y-130020000D03*
D14*
X227150000Y-132560000D03*
X227150000Y-135100000D03*
D13*
X172500000Y-134950000D03*
D14*
X172500000Y-132410000D03*
X178650000Y-123500000D03*
X176110000Y-123500000D03*
D13*
X173570000Y-123500000D03*
D14*
X209050000Y-132550000D03*
D13*
X209050000Y-135090000D03*
X213900000Y-127480000D03*
D14*
X213900000Y-130020000D03*
X213900000Y-132560000D03*
X213900000Y-135100000D03*
X217600000Y-135100000D03*
X217600000Y-132560000D03*
X217600000Y-130020000D03*
D13*
X217600000Y-127480000D03*
X176200000Y-127350000D03*
D14*
X176200000Y-129890000D03*
X176200000Y-132430000D03*
X176200000Y-134970000D03*
D13*
X200700000Y-100200000D03*
D14*
X200700000Y-102740000D03*
X200700000Y-105280000D03*
D15*
X180900000Y-102340000D03*
D16*
X181500000Y-104140000D03*
X181500000Y-102940000D03*
X180300000Y-102940000D03*
X180300000Y-104140000D03*
X181500000Y-100540000D03*
X181500000Y-101640000D03*
X180300000Y-101640000D03*
X180300000Y-100540000D03*
D17*
X225995000Y-111955000D03*
X174005000Y-111955000D03*
D18*
X176755000Y-117995000D03*
X223235000Y-106005000D03*
D19*
X222700000Y-94300000D03*
X180600000Y-128100000D03*
X222700000Y-124670000D03*
D20*
X229000000Y-104000000D03*
X229000000Y-103000000D03*
X227500000Y-102000000D03*
X229000000Y-97000000D03*
X227500000Y-96000000D03*
X229000000Y-95000000D03*
X195700000Y-119850000D03*
X195700000Y-123550000D03*
X192050000Y-123500000D03*
X192000000Y-119800000D03*
X209600000Y-117150000D03*
X209450000Y-122350000D03*
X199700000Y-129700000D03*
X186200000Y-129450000D03*
X198750000Y-113450000D03*
X217450000Y-96200000D03*
X219300000Y-108600000D03*
X203200000Y-96500000D03*
X205300000Y-112200000D03*
X174005000Y-109595000D03*
X226950000Y-108250000D03*
X219650000Y-119450000D03*
X203700000Y-129600000D03*
X180250000Y-115000000D03*
X185450000Y-103050000D03*
X172400000Y-96850000D03*
X227200000Y-115050000D03*
X174005000Y-110495000D03*
X180300000Y-97400000D03*
X180300000Y-98400000D03*
X176500000Y-99900000D03*
X171240000Y-93280000D03*
X173000000Y-93000000D03*
X175000000Y-93000000D03*
X177000000Y-93000000D03*
X179000000Y-93000000D03*
X181000000Y-93000000D03*
X183000000Y-93000000D03*
X181850000Y-106150000D03*
X177295000Y-101705000D03*
X185000000Y-93000000D03*
X187000000Y-93000000D03*
X189000000Y-93000000D03*
X183000000Y-106000000D03*
X227500000Y-106000000D03*
X229000000Y-108000000D03*
X229000000Y-110000000D03*
X228000000Y-112000000D03*
X229000000Y-114000000D03*
X229000000Y-116000000D03*
X228500000Y-118000000D03*
X229000000Y-120000000D03*
X229000000Y-124000000D03*
X229000000Y-130000000D03*
X229000000Y-132000000D03*
X228000000Y-134000000D03*
X229000000Y-136000000D03*
X220910000Y-135090000D03*
X210910000Y-135090000D03*
X172500000Y-118000000D03*
X172500000Y-115500000D03*
X172500000Y-113000000D03*
X172500000Y-111000000D03*
X172500000Y-109000000D03*
X171000000Y-103000000D03*
X197000000Y-93000000D03*
X199000000Y-93000000D03*
X201000000Y-93000000D03*
X226000000Y-93000000D03*
X217000000Y-93000000D03*
X206000000Y-97000000D03*
X215000000Y-97000000D03*
X221000000Y-97000000D03*
X218000000Y-98000000D03*
X219000000Y-100000000D03*
X221000000Y-101000000D03*
X223000000Y-101000000D03*
X225000000Y-101000000D03*
X225000000Y-98000000D03*
X222930250Y-97930250D03*
X189000000Y-126000000D03*
X187000000Y-122000000D03*
X188000000Y-130000000D03*
X191000000Y-130000000D03*
X194000000Y-130000000D03*
X197000000Y-130000000D03*
X211050000Y-126410000D03*
X208030000Y-126310000D03*
X224000000Y-122000000D03*
X220000000Y-122000000D03*
X220000000Y-118000000D03*
X190000000Y-99000000D03*
X192000000Y-99000000D03*
X194000000Y-99000000D03*
X196000000Y-99000000D03*
X197000000Y-101000000D03*
X193000000Y-101000000D03*
X189000000Y-101000000D03*
X198000000Y-104000000D03*
X198000000Y-106000000D03*
X207000000Y-101000000D03*
X204000000Y-101000000D03*
X204000000Y-99000000D03*
X229000000Y-127500000D03*
X229000000Y-122000000D03*
X224500000Y-127500000D03*
X221500000Y-127500000D03*
X172500000Y-120000000D03*
X223000000Y-103000000D03*
X215750000Y-125350000D03*
X204900000Y-125350000D03*
X211500000Y-96250000D03*
X173800000Y-116700000D03*
X176750000Y-114850000D03*
X171900000Y-125000000D03*
X212450000Y-123850000D03*
X227150000Y-118650000D03*
X198450000Y-130050000D03*
X205100000Y-126450000D03*
X208700000Y-130600000D03*
X172500000Y-129500000D03*
X225520000Y-125870000D03*
X226710000Y-125920000D03*
X225310000Y-122250000D03*
X198750000Y-116050000D03*
X203200000Y-112750000D03*
X181300000Y-121700000D03*
X197730325Y-127569664D03*
X190150000Y-128099999D03*
X182350000Y-122600000D03*
X194800000Y-113950000D03*
X196150000Y-113900000D03*
X182424669Y-123735331D03*
X220350000Y-112800000D03*
X226050000Y-121200000D03*
X213100000Y-116400000D03*
X187200000Y-114150000D03*
X177500000Y-112100000D03*
X204400000Y-124200000D03*
X199300000Y-126150000D03*
X213250000Y-108300000D03*
X186394669Y-116944669D03*
X211250000Y-108649999D03*
X187500000Y-116900000D03*
X207300000Y-109200000D03*
X188650000Y-117100000D03*
D21*
X227140000Y-135090000D02*
X227150000Y-135100000D01*
X209050000Y-135090000D02*
X210910000Y-135090000D01*
X227838000Y-96007500D02*
X224853000Y-96007500D01*
X227838000Y-102992500D02*
X224853000Y-102992500D01*
X220910000Y-135090000D02*
X227140000Y-135090000D01*
X210910000Y-135090000D02*
X220910000Y-135090000D01*
D22*
X215750000Y-125350000D02*
X204900000Y-125350000D01*
X223400000Y-132560000D02*
X222010000Y-132560000D01*
X222010000Y-132560000D02*
X219850000Y-130400000D01*
X219850000Y-130400000D02*
X219850000Y-125100000D01*
X219850000Y-125100000D02*
X217849999Y-123099999D01*
X217849999Y-123099999D02*
X210850000Y-116100000D01*
X210850000Y-116100000D02*
X198950000Y-116100000D01*
X225949999Y-131359999D02*
X222790001Y-131359999D01*
X227150000Y-132560000D02*
X225949999Y-131359999D01*
X222750000Y-131400000D02*
X221557120Y-131400000D01*
X222790001Y-131359999D02*
X222750000Y-131400000D01*
X220350010Y-124892890D02*
X211057110Y-115599990D01*
X220350010Y-130192890D02*
X220350010Y-124892890D01*
X221557120Y-131400000D02*
X220350010Y-130192890D01*
X206049990Y-115599990D02*
X203200000Y-112750000D01*
X211057110Y-115599990D02*
X206049990Y-115599990D01*
X182600000Y-121700000D02*
X189249989Y-128349989D01*
X181300000Y-121700000D02*
X182600000Y-121700000D01*
X189900010Y-128349989D02*
X189249989Y-128349989D01*
X190150000Y-128099999D02*
X189900010Y-128349989D01*
X211184240Y-130020000D02*
X213900000Y-130020000D01*
X209014219Y-127849979D02*
X211184240Y-130020000D01*
X198010640Y-127849979D02*
X209014219Y-127849979D01*
X197730325Y-127569664D02*
X198010640Y-127849979D01*
X213900000Y-132560000D02*
X212310000Y-132560000D01*
X212310000Y-132560000D02*
X210100000Y-130350000D01*
X208599999Y-128849999D02*
X200699999Y-128849999D01*
X210100000Y-130350000D02*
X208599999Y-128849999D01*
X188599999Y-128849999D02*
X182350000Y-122600000D01*
X200699999Y-128849999D02*
X188599999Y-128849999D01*
X211817119Y-131359999D02*
X216399999Y-131359999D01*
X208807109Y-128349989D02*
X211817119Y-131359999D01*
X197449989Y-128349989D02*
X208807109Y-128349989D01*
X216399999Y-131359999D02*
X217600000Y-132560000D01*
X196650000Y-127550000D02*
X197449989Y-128349989D01*
X196650000Y-115800000D02*
X196650000Y-127550000D01*
X194800000Y-113950000D02*
X196650000Y-115800000D01*
X210691359Y-128819999D02*
X209221331Y-127349971D01*
X214476001Y-128819999D02*
X210691359Y-128819999D01*
X215676002Y-130020000D02*
X214476001Y-128819999D01*
X217600000Y-130020000D02*
X215676002Y-130020000D01*
X209221331Y-127349971D02*
X209221329Y-127349969D01*
X209221329Y-127349969D02*
X204600000Y-127349969D01*
X204600000Y-127349969D02*
X198749969Y-127349969D01*
X198749969Y-127349969D02*
X198699969Y-127349969D01*
X198749969Y-127349969D02*
X197800000Y-126400000D01*
X197800000Y-126400000D02*
X197300000Y-125900000D01*
X197300000Y-115050000D02*
X196150000Y-113900000D01*
X197300000Y-125900000D02*
X197300000Y-115050000D01*
X182100000Y-124050000D02*
X180750000Y-125400000D01*
X180750000Y-125400000D02*
X174300000Y-125400000D01*
X174300000Y-125400000D02*
X173400000Y-126300000D01*
X173400000Y-129630000D02*
X176200000Y-132430000D01*
X173400000Y-126300000D02*
X173400000Y-129630000D01*
X182110000Y-124050000D02*
X182424669Y-123735331D01*
X182100000Y-124050000D02*
X182110000Y-124050000D01*
D21*
X200700000Y-105280000D02*
X212730000Y-105280000D01*
X220250000Y-112800000D02*
X220350000Y-112800000D01*
X212730000Y-105280000D02*
X220250000Y-112800000D01*
D22*
X225500000Y-121200000D02*
X226050000Y-121200000D01*
X213000000Y-116500000D02*
X213000000Y-116800000D01*
X213100000Y-116400000D02*
X213000000Y-116500000D01*
X213100000Y-116900000D02*
X213100000Y-116935760D01*
X213000000Y-116800000D02*
X213100000Y-116900000D01*
X217364240Y-121200000D02*
X226050000Y-121200000D01*
X213100000Y-116935760D02*
X217364240Y-121200000D01*
X184300000Y-114150000D02*
X187200000Y-114150000D01*
X179550000Y-114150000D02*
X177500000Y-112100000D01*
X184300000Y-114150000D02*
X179550000Y-114150000D01*
X204400000Y-124200000D02*
X201350000Y-124200000D01*
X199400000Y-126150000D02*
X199300000Y-126150000D01*
X201350000Y-124200000D02*
X199400000Y-126150000D01*
X188450000Y-114000000D02*
X188450000Y-111900000D01*
X212849999Y-107899999D02*
X213250000Y-108300000D01*
X192450001Y-107899999D02*
X212849999Y-107899999D01*
X188450000Y-111900000D02*
X192450001Y-107899999D01*
X188450000Y-114000000D02*
X188450000Y-114850000D01*
X186394669Y-116905331D02*
X186394669Y-116944669D01*
X188450000Y-114850000D02*
X186394669Y-116905331D01*
X189600000Y-114500000D02*
X189600000Y-111457120D01*
X189600000Y-111457120D02*
X192657111Y-108400009D01*
X211000010Y-108400009D02*
X211250000Y-108649999D01*
X192657111Y-108400009D02*
X211000010Y-108400009D01*
X189600000Y-114800000D02*
X187500000Y-116900000D01*
X189600000Y-114500000D02*
X189600000Y-114800000D01*
X190750000Y-115050000D02*
X190750000Y-111500000D01*
X190750000Y-111500000D02*
X190750000Y-111014240D01*
X190750000Y-111014240D02*
X192864221Y-108900019D01*
X207000019Y-108900019D02*
X207300000Y-109200000D01*
X192864221Y-108900019D02*
X207000019Y-108900019D01*
X190700000Y-115050000D02*
X188650000Y-117100000D01*
X190750000Y-115050000D02*
X190700000Y-115050000D01*
M02*
