G04 #@! TF.GenerationSoftware,KiCad,Pcbnew,(5.1.7)-1*
G04 #@! TF.CreationDate,2020-11-22T23:18:21+01:00*
G04 #@! TF.ProjectId,lora,6c6f7261-2e6b-4696-9361-645f70636258,rev?*
G04 #@! TF.SameCoordinates,Original*
G04 #@! TF.FileFunction,Copper,L2,Inr*
G04 #@! TF.FilePolarity,Positive*
%FSLAX46Y46*%
G04 Gerber Fmt 4.6, Leading zero omitted, Abs format (unit mm)*
G04 Created by KiCad (PCBNEW (5.1.7)-1) date 2020-11-22 23:18:21*
%MOMM*%
%LPD*%
G01*
G04 APERTURE LIST*
G04 #@! TA.AperFunction,ComponentPad*
%ADD10C,0.970000*%
G04 #@! TD*
G04 #@! TA.AperFunction,ComponentPad*
%ADD11R,1.700000X1.700000*%
G04 #@! TD*
G04 #@! TA.AperFunction,ComponentPad*
%ADD12O,1.700000X1.700000*%
G04 #@! TD*
G04 #@! TA.AperFunction,ComponentPad*
%ADD13C,0.600000*%
G04 #@! TD*
G04 #@! TA.AperFunction,ComponentPad*
%ADD14C,1.530000*%
G04 #@! TD*
G04 #@! TA.AperFunction,ComponentPad*
%ADD15C,3.960000*%
G04 #@! TD*
G04 #@! TA.AperFunction,ComponentPad*
%ADD16C,3.800000*%
G04 #@! TD*
G04 #@! TA.AperFunction,ViaPad*
%ADD17C,0.800000*%
G04 #@! TD*
G04 #@! TA.AperFunction,Conductor*
%ADD18C,0.254000*%
G04 #@! TD*
G04 #@! TA.AperFunction,Conductor*
%ADD19C,0.100000*%
G04 #@! TD*
G04 APERTURE END LIST*
D10*
X224853000Y-96007500D03*
X224853000Y-102992500D03*
D11*
X173760000Y-94800000D03*
D12*
X176300000Y-94800000D03*
X223400000Y-135100000D03*
X223400000Y-132560000D03*
D11*
X223400000Y-130020000D03*
X227150000Y-130020000D03*
D12*
X227150000Y-132560000D03*
X227150000Y-135100000D03*
D11*
X172500000Y-134950000D03*
D12*
X172500000Y-132410000D03*
X178650000Y-123500000D03*
X176110000Y-123500000D03*
D11*
X173570000Y-123500000D03*
D12*
X209050000Y-132550000D03*
D11*
X209050000Y-135090000D03*
X213900000Y-127480000D03*
D12*
X213900000Y-130020000D03*
X213900000Y-132560000D03*
X213900000Y-135100000D03*
X217600000Y-135100000D03*
X217600000Y-132560000D03*
X217600000Y-130020000D03*
D11*
X217600000Y-127480000D03*
X176200000Y-127350000D03*
D12*
X176200000Y-129890000D03*
X176200000Y-132430000D03*
X176200000Y-134970000D03*
D11*
X200700000Y-100200000D03*
D12*
X200700000Y-102740000D03*
X200700000Y-105280000D03*
D13*
X181500000Y-104140000D03*
X181500000Y-102940000D03*
X180300000Y-102940000D03*
X180300000Y-104140000D03*
X181500000Y-100540000D03*
X181500000Y-101640000D03*
X180300000Y-101640000D03*
X180300000Y-100540000D03*
D14*
X225995000Y-111955000D03*
X174005000Y-111955000D03*
D15*
X176755000Y-117995000D03*
X223235000Y-106005000D03*
D16*
X222700000Y-94300000D03*
X180600000Y-128100000D03*
X222700000Y-124670000D03*
D17*
X229000000Y-104000000D03*
X229000000Y-103000000D03*
X227500000Y-102000000D03*
X229000000Y-97000000D03*
X227500000Y-96000000D03*
X229000000Y-95000000D03*
X195700000Y-119850000D03*
X195700000Y-123550000D03*
X192050000Y-123500000D03*
X192000000Y-119800000D03*
X209600000Y-117150000D03*
X209450000Y-122350000D03*
X199700000Y-129700000D03*
X186200000Y-129450000D03*
X198750000Y-113450000D03*
X217450000Y-96200000D03*
X219300000Y-108600000D03*
X203200000Y-96500000D03*
X205300000Y-112200000D03*
X174005000Y-109595000D03*
X226950000Y-108250000D03*
X219650000Y-119450000D03*
X203700000Y-129600000D03*
X180250000Y-115000000D03*
X185450000Y-103050000D03*
X172400000Y-96850000D03*
X227200000Y-115050000D03*
X174005000Y-110495000D03*
X180300000Y-97400000D03*
X180300000Y-98400000D03*
X176500000Y-99900000D03*
X171240000Y-93280000D03*
X173000000Y-93000000D03*
X175000000Y-93000000D03*
X177000000Y-93000000D03*
X179000000Y-93000000D03*
X181000000Y-93000000D03*
X183000000Y-93000000D03*
X181850000Y-106150000D03*
X177295000Y-101705000D03*
X185000000Y-93000000D03*
X187000000Y-93000000D03*
X189000000Y-93000000D03*
X183000000Y-106000000D03*
X227500000Y-106000000D03*
X229000000Y-108000000D03*
X229000000Y-110000000D03*
X228000000Y-112000000D03*
X229000000Y-114000000D03*
X229000000Y-116000000D03*
X228500000Y-118000000D03*
X229000000Y-120000000D03*
X229000000Y-124000000D03*
X229000000Y-130000000D03*
X229000000Y-132000000D03*
X228000000Y-134000000D03*
X229000000Y-136000000D03*
X220910000Y-135090000D03*
X210910000Y-135090000D03*
X172500000Y-118000000D03*
X172500000Y-115500000D03*
X172500000Y-113000000D03*
X172500000Y-111000000D03*
X172500000Y-109000000D03*
X171000000Y-103000000D03*
X197000000Y-93000000D03*
X199000000Y-93000000D03*
X201000000Y-93000000D03*
X226000000Y-93000000D03*
X217000000Y-93000000D03*
X206000000Y-97000000D03*
X215000000Y-97000000D03*
X221000000Y-97000000D03*
X218000000Y-98000000D03*
X219000000Y-100000000D03*
X221000000Y-101000000D03*
X223000000Y-101000000D03*
X225000000Y-101000000D03*
X225000000Y-98000000D03*
X222930250Y-97930250D03*
X189000000Y-126000000D03*
X187000000Y-122000000D03*
X188000000Y-130000000D03*
X191000000Y-130000000D03*
X194000000Y-130000000D03*
X197000000Y-130000000D03*
X211050000Y-126410000D03*
X208030000Y-126310000D03*
X224000000Y-122000000D03*
X220000000Y-122000000D03*
X220000000Y-118000000D03*
X190000000Y-99000000D03*
X192000000Y-99000000D03*
X194000000Y-99000000D03*
X196000000Y-99000000D03*
X197000000Y-101000000D03*
X193000000Y-101000000D03*
X189000000Y-101000000D03*
X198000000Y-104000000D03*
X198000000Y-106000000D03*
X207000000Y-101000000D03*
X204000000Y-101000000D03*
X204000000Y-99000000D03*
X229000000Y-127500000D03*
X229000000Y-122000000D03*
X224500000Y-127500000D03*
X221500000Y-127500000D03*
X172500000Y-120000000D03*
X223000000Y-103000000D03*
X215750000Y-125350000D03*
X204900000Y-125350000D03*
X211500000Y-96250000D03*
X173800000Y-116700000D03*
X176750000Y-114850000D03*
X171900000Y-125000000D03*
X212450000Y-123850000D03*
X227150000Y-118650000D03*
X198450000Y-130050000D03*
X205100000Y-126450000D03*
X208700000Y-130600000D03*
X172500000Y-129500000D03*
X225520000Y-125870000D03*
X226710000Y-125920000D03*
X225310000Y-122250000D03*
X198750000Y-116050000D03*
X203200000Y-112750000D03*
X181300000Y-121700000D03*
X197730325Y-127569664D03*
X190150000Y-128099999D03*
X182350000Y-122600000D03*
X194800000Y-113950000D03*
X196150000Y-113900000D03*
X182424669Y-123735331D03*
X220350000Y-112800000D03*
X226050000Y-121200000D03*
X213100000Y-116400000D03*
X187200000Y-114150000D03*
X177500000Y-112100000D03*
X204400000Y-124200000D03*
X199300000Y-126150000D03*
X213250000Y-108300000D03*
X186394669Y-116944669D03*
X211250000Y-108649999D03*
X187500000Y-116900000D03*
X207300000Y-109200000D03*
X188650000Y-117100000D03*
D18*
X220923649Y-92703257D02*
X220567133Y-92907362D01*
X220336425Y-93350223D01*
X220196548Y-93829583D01*
X220152877Y-94327021D01*
X220207091Y-94823422D01*
X220357106Y-95299707D01*
X220567133Y-95692638D01*
X220923651Y-95896744D01*
X222520395Y-94300000D01*
X222506253Y-94285858D01*
X222685858Y-94106253D01*
X222700000Y-94120395D01*
X222714143Y-94106253D01*
X222893748Y-94285858D01*
X222879605Y-94300000D01*
X222893748Y-94314143D01*
X222714143Y-94493748D01*
X222700000Y-94479605D01*
X221103256Y-96076349D01*
X221307362Y-96432867D01*
X221750223Y-96663575D01*
X222229583Y-96803452D01*
X222727021Y-96847123D01*
X223223422Y-96792909D01*
X223280548Y-96774916D01*
X224265189Y-96774916D01*
X224298466Y-96986816D01*
X224500176Y-97076183D01*
X224715445Y-97124481D01*
X224936001Y-97129855D01*
X225153367Y-97092096D01*
X225359189Y-97012658D01*
X225407534Y-96986816D01*
X225440811Y-96774916D01*
X224853000Y-96187105D01*
X224265189Y-96774916D01*
X223280548Y-96774916D01*
X223699707Y-96642894D01*
X223868640Y-96552597D01*
X223873684Y-96562034D01*
X224085584Y-96595311D01*
X224673395Y-96007500D01*
X225032605Y-96007500D01*
X225620416Y-96595311D01*
X225832316Y-96562034D01*
X225921683Y-96360324D01*
X225969981Y-96145055D01*
X225975355Y-95924499D01*
X225937596Y-95707133D01*
X225858158Y-95501311D01*
X225832316Y-95452966D01*
X225620416Y-95419689D01*
X225032605Y-96007500D01*
X224673395Y-96007500D01*
X224659253Y-95993358D01*
X224838858Y-95813753D01*
X224853000Y-95827895D01*
X225440811Y-95240084D01*
X225407534Y-95028184D01*
X225205824Y-94938817D01*
X225157478Y-94927970D01*
X225203452Y-94770417D01*
X225247123Y-94272979D01*
X225192909Y-93776578D01*
X225042894Y-93300293D01*
X224832867Y-92907362D01*
X224476351Y-92703257D01*
X224519608Y-92660000D01*
X229353074Y-92660000D01*
X229355039Y-92677522D01*
X229367469Y-92736002D01*
X229379095Y-92794717D01*
X229381820Y-92803520D01*
X229411326Y-92896535D01*
X229434882Y-92951495D01*
X229457686Y-93006822D01*
X229462069Y-93014928D01*
X229509080Y-93100440D01*
X229542857Y-93149771D01*
X229575981Y-93199626D01*
X229581851Y-93206719D01*
X229581853Y-93206723D01*
X229581856Y-93206726D01*
X229644581Y-93281478D01*
X229687310Y-93323321D01*
X229691800Y-93327843D01*
X229693807Y-94670068D01*
X229682361Y-94681594D01*
X229639629Y-94723439D01*
X229633755Y-94730540D01*
X229572079Y-94806161D01*
X229538988Y-94855966D01*
X229505174Y-94905350D01*
X229500792Y-94913456D01*
X229454980Y-94999617D01*
X229432191Y-95054909D01*
X229408622Y-95109898D01*
X229405897Y-95118701D01*
X229377692Y-95212119D01*
X229366067Y-95270826D01*
X229353635Y-95329316D01*
X229352673Y-95338470D01*
X229352672Y-95338476D01*
X229352672Y-95338481D01*
X229343150Y-95435598D01*
X229343150Y-95435608D01*
X229340001Y-95467581D01*
X229340000Y-98532418D01*
X229343198Y-98564889D01*
X229343198Y-98571383D01*
X229344162Y-98580547D01*
X229348905Y-98622838D01*
X229349550Y-98629382D01*
X229349692Y-98629850D01*
X229355039Y-98677522D01*
X229367469Y-98736002D01*
X229379095Y-98794717D01*
X229381820Y-98803520D01*
X229411326Y-98896535D01*
X229434882Y-98951495D01*
X229457686Y-99006822D01*
X229462069Y-99014928D01*
X229509080Y-99100440D01*
X229542857Y-99149771D01*
X229575981Y-99199626D01*
X229581851Y-99206719D01*
X229581853Y-99206723D01*
X229581856Y-99206726D01*
X229644581Y-99281478D01*
X229687310Y-99323321D01*
X229700782Y-99336888D01*
X229702762Y-100661050D01*
X229682361Y-100681594D01*
X229639629Y-100723439D01*
X229633755Y-100730540D01*
X229572079Y-100806161D01*
X229538988Y-100855966D01*
X229505174Y-100905350D01*
X229500792Y-100913456D01*
X229454980Y-100999617D01*
X229432191Y-101054909D01*
X229408622Y-101109898D01*
X229405897Y-101118701D01*
X229377692Y-101212119D01*
X229366067Y-101270826D01*
X229353635Y-101329316D01*
X229352673Y-101338470D01*
X229352672Y-101338476D01*
X229352672Y-101338481D01*
X229343150Y-101435598D01*
X229340000Y-101467582D01*
X229340000Y-101967582D01*
X229340001Y-104967572D01*
X229340000Y-104967582D01*
X229340000Y-105532419D01*
X229343198Y-105564890D01*
X229343198Y-105571383D01*
X229344162Y-105580547D01*
X229348905Y-105622831D01*
X229349550Y-105629383D01*
X229349692Y-105629852D01*
X229355039Y-105677522D01*
X229367469Y-105736002D01*
X229379095Y-105794717D01*
X229381820Y-105803520D01*
X229411326Y-105896535D01*
X229434882Y-105951495D01*
X229457686Y-106006822D01*
X229462069Y-106014928D01*
X229509080Y-106100440D01*
X229542857Y-106149771D01*
X229575981Y-106199626D01*
X229581851Y-106206719D01*
X229581853Y-106206723D01*
X229581856Y-106206726D01*
X229644581Y-106281478D01*
X229687310Y-106323321D01*
X229711262Y-106347441D01*
X229714702Y-108649026D01*
X229682361Y-108681594D01*
X229639629Y-108723439D01*
X229633755Y-108730540D01*
X229572079Y-108806161D01*
X229538988Y-108855966D01*
X229505174Y-108905350D01*
X229500792Y-108913456D01*
X229454980Y-108999617D01*
X229432191Y-109054909D01*
X229408622Y-109109898D01*
X229405897Y-109118701D01*
X229377692Y-109212119D01*
X229366067Y-109270826D01*
X229353635Y-109329316D01*
X229352673Y-109338470D01*
X229352672Y-109338476D01*
X229352672Y-109338481D01*
X229343150Y-109435598D01*
X229340000Y-109467582D01*
X229340000Y-110032419D01*
X229340001Y-110032429D01*
X229340000Y-116032418D01*
X229343198Y-116064889D01*
X229343198Y-116071383D01*
X229344162Y-116080547D01*
X229348905Y-116122838D01*
X229349550Y-116129382D01*
X229349692Y-116129850D01*
X229355039Y-116177522D01*
X229367469Y-116236002D01*
X229379095Y-116294717D01*
X229381820Y-116303520D01*
X229411326Y-116396535D01*
X229434882Y-116451495D01*
X229457686Y-116506822D01*
X229462069Y-116514928D01*
X229509080Y-116600440D01*
X229542857Y-116649771D01*
X229575981Y-116699626D01*
X229581851Y-116706719D01*
X229581853Y-116706723D01*
X229581856Y-116706726D01*
X229644581Y-116781478D01*
X229687310Y-116823321D01*
X229726980Y-116863270D01*
X229728882Y-118135531D01*
X229724514Y-118139145D01*
X229682361Y-118181594D01*
X229639629Y-118223439D01*
X229633755Y-118230540D01*
X229572079Y-118306161D01*
X229538988Y-118355966D01*
X229505174Y-118405350D01*
X229500792Y-118413456D01*
X229454980Y-118499617D01*
X229432191Y-118554909D01*
X229408622Y-118609898D01*
X229405897Y-118618701D01*
X229377692Y-118712119D01*
X229366067Y-118770826D01*
X229353635Y-118829316D01*
X229352673Y-118838470D01*
X229352672Y-118838476D01*
X229352672Y-118838481D01*
X229343150Y-118935598D01*
X229340000Y-118967582D01*
X229340001Y-125532419D01*
X229343198Y-125564880D01*
X229343198Y-125571383D01*
X229344162Y-125580547D01*
X229348913Y-125622904D01*
X229349551Y-125629383D01*
X229349692Y-125629846D01*
X229355039Y-125677522D01*
X229367469Y-125736002D01*
X229379095Y-125794717D01*
X229381820Y-125803520D01*
X229411326Y-125896535D01*
X229434882Y-125951495D01*
X229457686Y-126006822D01*
X229462069Y-126014928D01*
X229509080Y-126100440D01*
X229542857Y-126149771D01*
X229575981Y-126199626D01*
X229581851Y-126206719D01*
X229581853Y-126206723D01*
X229581856Y-126206726D01*
X229644581Y-126281478D01*
X229687310Y-126323321D01*
X229729467Y-126365774D01*
X229736609Y-126371598D01*
X229736612Y-126371601D01*
X229736616Y-126371604D01*
X229741199Y-126375288D01*
X229744558Y-128622563D01*
X229724514Y-128639145D01*
X229682361Y-128681594D01*
X229639629Y-128723439D01*
X229633755Y-128730540D01*
X229572079Y-128806161D01*
X229538988Y-128855966D01*
X229505174Y-128905350D01*
X229500792Y-128913456D01*
X229454980Y-128999617D01*
X229432191Y-129054909D01*
X229408622Y-129109898D01*
X229405897Y-129118701D01*
X229377692Y-129212119D01*
X229366067Y-129270826D01*
X229353635Y-129329316D01*
X229352673Y-129338470D01*
X229352672Y-129338476D01*
X229352672Y-129338481D01*
X229343150Y-129435598D01*
X229340000Y-129467582D01*
X229340001Y-132967572D01*
X229340000Y-132967582D01*
X229340000Y-133532419D01*
X229343198Y-133564890D01*
X229343198Y-133571383D01*
X229344162Y-133580547D01*
X229348905Y-133622831D01*
X229349550Y-133629383D01*
X229349692Y-133629852D01*
X229355039Y-133677522D01*
X229367469Y-133736002D01*
X229379095Y-133794717D01*
X229381820Y-133803520D01*
X229411326Y-133896535D01*
X229434882Y-133951495D01*
X229457686Y-134006822D01*
X229462069Y-134014928D01*
X229509080Y-134100440D01*
X229542857Y-134149771D01*
X229575981Y-134199626D01*
X229581851Y-134206719D01*
X229581853Y-134206723D01*
X229581856Y-134206726D01*
X229644581Y-134281478D01*
X229687310Y-134323321D01*
X229729467Y-134365774D01*
X229736609Y-134371598D01*
X229736612Y-134371601D01*
X229736616Y-134371604D01*
X229753171Y-134384915D01*
X229755008Y-135613918D01*
X229724514Y-135639145D01*
X229682361Y-135681594D01*
X229639629Y-135723439D01*
X229633755Y-135730540D01*
X229572079Y-135806161D01*
X229538988Y-135855966D01*
X229505174Y-135905350D01*
X229500792Y-135913456D01*
X229454980Y-135999617D01*
X229432191Y-136054909D01*
X229408622Y-136109898D01*
X229405897Y-136118701D01*
X229377692Y-136212119D01*
X229366067Y-136270826D01*
X229353635Y-136329316D01*
X229352673Y-136338470D01*
X229352672Y-136338476D01*
X229352672Y-136338481D01*
X229352523Y-136340000D01*
X227956109Y-136340000D01*
X228031355Y-136295178D01*
X228247588Y-136100269D01*
X228421641Y-135866920D01*
X228546825Y-135604099D01*
X228591476Y-135456890D01*
X228470155Y-135227000D01*
X227277000Y-135227000D01*
X227277000Y-135247000D01*
X227023000Y-135247000D01*
X227023000Y-135227000D01*
X225829845Y-135227000D01*
X225708524Y-135456890D01*
X225753175Y-135604099D01*
X225878359Y-135866920D01*
X226052412Y-136100269D01*
X226268645Y-136295178D01*
X226343891Y-136340000D01*
X224206109Y-136340000D01*
X224281355Y-136295178D01*
X224497588Y-136100269D01*
X224671641Y-135866920D01*
X224796825Y-135604099D01*
X224841476Y-135456890D01*
X224720155Y-135227000D01*
X223527000Y-135227000D01*
X223527000Y-135247000D01*
X223273000Y-135247000D01*
X223273000Y-135227000D01*
X222079845Y-135227000D01*
X221958524Y-135456890D01*
X222003175Y-135604099D01*
X222128359Y-135866920D01*
X222302412Y-136100269D01*
X222518645Y-136295178D01*
X222593891Y-136340000D01*
X218406109Y-136340000D01*
X218481355Y-136295178D01*
X218697588Y-136100269D01*
X218871641Y-135866920D01*
X218996825Y-135604099D01*
X219041476Y-135456890D01*
X218920155Y-135227000D01*
X217727000Y-135227000D01*
X217727000Y-135247000D01*
X217473000Y-135247000D01*
X217473000Y-135227000D01*
X216279845Y-135227000D01*
X216158524Y-135456890D01*
X216203175Y-135604099D01*
X216328359Y-135866920D01*
X216502412Y-136100269D01*
X216718645Y-136295178D01*
X216793891Y-136340000D01*
X214706109Y-136340000D01*
X214781355Y-136295178D01*
X214997588Y-136100269D01*
X215171641Y-135866920D01*
X215296825Y-135604099D01*
X215341476Y-135456890D01*
X215220155Y-135227000D01*
X214027000Y-135227000D01*
X214027000Y-135247000D01*
X213773000Y-135247000D01*
X213773000Y-135227000D01*
X212579845Y-135227000D01*
X212458524Y-135456890D01*
X212503175Y-135604099D01*
X212628359Y-135866920D01*
X212802412Y-136100269D01*
X213018645Y-136295178D01*
X213093891Y-136340000D01*
X210393191Y-136340000D01*
X210430537Y-136294494D01*
X210489502Y-136184180D01*
X210525812Y-136064482D01*
X210538072Y-135940000D01*
X210535000Y-135375750D01*
X210376250Y-135217000D01*
X209177000Y-135217000D01*
X209177000Y-135237000D01*
X208923000Y-135237000D01*
X208923000Y-135217000D01*
X208903000Y-135217000D01*
X208903000Y-134963000D01*
X208923000Y-134963000D01*
X208923000Y-134943000D01*
X209177000Y-134943000D01*
X209177000Y-134963000D01*
X210376250Y-134963000D01*
X210535000Y-134804250D01*
X210538072Y-134240000D01*
X210525812Y-134115518D01*
X210489502Y-133995820D01*
X210430537Y-133885506D01*
X210351185Y-133788815D01*
X210254494Y-133709463D01*
X210144180Y-133650498D01*
X210071620Y-133628487D01*
X210203475Y-133496632D01*
X210365990Y-133253411D01*
X210477932Y-132983158D01*
X210535000Y-132696260D01*
X210535000Y-132403740D01*
X210477932Y-132116842D01*
X210365990Y-131846589D01*
X210203475Y-131603368D01*
X209996632Y-131396525D01*
X209753411Y-131234010D01*
X209571499Y-131158660D01*
X209617205Y-131090256D01*
X209695226Y-130901898D01*
X209735000Y-130701939D01*
X209735000Y-130498061D01*
X209695226Y-130298102D01*
X209617205Y-130109744D01*
X209503937Y-129940226D01*
X209359774Y-129796063D01*
X209190256Y-129682795D01*
X209001898Y-129604774D01*
X208801939Y-129565000D01*
X208598061Y-129565000D01*
X208398102Y-129604774D01*
X208209744Y-129682795D01*
X208040226Y-129796063D01*
X207896063Y-129940226D01*
X207782795Y-130109744D01*
X207704774Y-130298102D01*
X207665000Y-130498061D01*
X207665000Y-130701939D01*
X207704774Y-130901898D01*
X207782795Y-131090256D01*
X207896063Y-131259774D01*
X208040226Y-131403937D01*
X208073634Y-131426259D01*
X207896525Y-131603368D01*
X207734010Y-131846589D01*
X207722370Y-131874690D01*
X207716994Y-131338726D01*
X207711230Y-131302156D01*
X207701518Y-131279232D01*
X207687520Y-131258643D01*
X207669774Y-131241182D01*
X207648963Y-131227517D01*
X206408963Y-130577517D01*
X206375548Y-130565596D01*
X206350787Y-130563002D01*
X199375696Y-130519757D01*
X199445226Y-130351898D01*
X199485000Y-130151939D01*
X199485000Y-129948061D01*
X199445226Y-129748102D01*
X199367205Y-129559744D01*
X199253937Y-129390226D01*
X199109774Y-129246063D01*
X198940256Y-129132795D01*
X198751898Y-129054774D01*
X198551939Y-129015000D01*
X198348061Y-129015000D01*
X198148102Y-129054774D01*
X197959744Y-129132795D01*
X197790226Y-129246063D01*
X197646063Y-129390226D01*
X197532795Y-129559744D01*
X197454774Y-129748102D01*
X197415000Y-129948061D01*
X197415000Y-130151939D01*
X197454774Y-130351898D01*
X197519537Y-130508250D01*
X181661376Y-130409931D01*
X181992638Y-130232867D01*
X182196744Y-129876349D01*
X180600000Y-128279605D01*
X179003256Y-129876349D01*
X179207362Y-130232867D01*
X179521786Y-130396666D01*
X178930787Y-130393002D01*
X178894781Y-130397981D01*
X178871653Y-130407196D01*
X178291653Y-130707196D01*
X178280735Y-130713551D01*
X178261299Y-130729109D01*
X178245272Y-130748160D01*
X178233269Y-130769972D01*
X178225752Y-130793706D01*
X178223009Y-130818451D01*
X178155673Y-136340000D01*
X176758399Y-136340000D01*
X176831252Y-136314157D01*
X177081355Y-136165178D01*
X177297588Y-135970269D01*
X177471641Y-135736920D01*
X177596825Y-135474099D01*
X177641476Y-135326890D01*
X177520155Y-135097000D01*
X176327000Y-135097000D01*
X176327000Y-135117000D01*
X176073000Y-135117000D01*
X176073000Y-135097000D01*
X174879845Y-135097000D01*
X174758524Y-135326890D01*
X174803175Y-135474099D01*
X174928359Y-135736920D01*
X175102412Y-135970269D01*
X175318645Y-136165178D01*
X175568748Y-136314157D01*
X175641601Y-136340000D01*
X173686790Y-136340000D01*
X173704494Y-136330537D01*
X173801185Y-136251185D01*
X173880537Y-136154494D01*
X173939502Y-136044180D01*
X173975812Y-135924482D01*
X173988072Y-135800000D01*
X173985000Y-135235750D01*
X173826250Y-135077000D01*
X172627000Y-135077000D01*
X172627000Y-135097000D01*
X172373000Y-135097000D01*
X172373000Y-135077000D01*
X171173750Y-135077000D01*
X171015000Y-135235750D01*
X171011928Y-135800000D01*
X171022310Y-135905411D01*
X170891712Y-135747546D01*
X170767622Y-135518046D01*
X170690469Y-135268805D01*
X170660000Y-134978911D01*
X170660000Y-134100000D01*
X171011928Y-134100000D01*
X171015000Y-134664250D01*
X171173750Y-134823000D01*
X172373000Y-134823000D01*
X172373000Y-134803000D01*
X172627000Y-134803000D01*
X172627000Y-134823000D01*
X173826250Y-134823000D01*
X173985000Y-134664250D01*
X173988072Y-134100000D01*
X173975812Y-133975518D01*
X173939502Y-133855820D01*
X173880537Y-133745506D01*
X173801185Y-133648815D01*
X173704494Y-133569463D01*
X173594180Y-133510498D01*
X173521620Y-133488487D01*
X173653475Y-133356632D01*
X173815990Y-133113411D01*
X173927932Y-132843158D01*
X173985000Y-132556260D01*
X173985000Y-132263740D01*
X173927932Y-131976842D01*
X173815990Y-131706589D01*
X173653475Y-131463368D01*
X173446632Y-131256525D01*
X173203411Y-131094010D01*
X172933158Y-130982068D01*
X172646260Y-130925000D01*
X172353740Y-130925000D01*
X172066842Y-130982068D01*
X171796589Y-131094010D01*
X171553368Y-131256525D01*
X171346525Y-131463368D01*
X171184010Y-131706589D01*
X171072068Y-131976842D01*
X171015000Y-132263740D01*
X171015000Y-132556260D01*
X171072068Y-132843158D01*
X171184010Y-133113411D01*
X171346525Y-133356632D01*
X171478380Y-133488487D01*
X171405820Y-133510498D01*
X171295506Y-133569463D01*
X171198815Y-133648815D01*
X171119463Y-133745506D01*
X171060498Y-133855820D01*
X171024188Y-133975518D01*
X171011928Y-134100000D01*
X170660000Y-134100000D01*
X170660000Y-129398061D01*
X171465000Y-129398061D01*
X171465000Y-129601939D01*
X171504774Y-129801898D01*
X171582795Y-129990256D01*
X171696063Y-130159774D01*
X171840226Y-130303937D01*
X172009744Y-130417205D01*
X172198102Y-130495226D01*
X172398061Y-130535000D01*
X172601939Y-130535000D01*
X172801898Y-130495226D01*
X172990256Y-130417205D01*
X173159774Y-130303937D01*
X173303937Y-130159774D01*
X173417205Y-129990256D01*
X173495226Y-129801898D01*
X173535000Y-129601939D01*
X173535000Y-129398061D01*
X173495226Y-129198102D01*
X173417205Y-129009744D01*
X173303937Y-128840226D01*
X173159774Y-128696063D01*
X172990256Y-128582795D01*
X172801898Y-128504774D01*
X172601939Y-128465000D01*
X172398061Y-128465000D01*
X172198102Y-128504774D01*
X172009744Y-128582795D01*
X171840226Y-128696063D01*
X171696063Y-128840226D01*
X171582795Y-129009744D01*
X171504774Y-129198102D01*
X171465000Y-129398061D01*
X170660000Y-129398061D01*
X170660000Y-126500000D01*
X174711928Y-126500000D01*
X174711928Y-128200000D01*
X174724188Y-128324482D01*
X174760498Y-128444180D01*
X174819463Y-128554494D01*
X174898815Y-128651185D01*
X174995506Y-128730537D01*
X175105820Y-128789502D01*
X175178380Y-128811513D01*
X175046525Y-128943368D01*
X174884010Y-129186589D01*
X174772068Y-129456842D01*
X174715000Y-129743740D01*
X174715000Y-130036260D01*
X174772068Y-130323158D01*
X174884010Y-130593411D01*
X175046525Y-130836632D01*
X175253368Y-131043475D01*
X175427760Y-131160000D01*
X175253368Y-131276525D01*
X175046525Y-131483368D01*
X174884010Y-131726589D01*
X174772068Y-131996842D01*
X174715000Y-132283740D01*
X174715000Y-132576260D01*
X174772068Y-132863158D01*
X174884010Y-133133411D01*
X175046525Y-133376632D01*
X175253368Y-133583475D01*
X175435534Y-133705195D01*
X175318645Y-133774822D01*
X175102412Y-133969731D01*
X174928359Y-134203080D01*
X174803175Y-134465901D01*
X174758524Y-134613110D01*
X174879845Y-134843000D01*
X176073000Y-134843000D01*
X176073000Y-134823000D01*
X176327000Y-134823000D01*
X176327000Y-134843000D01*
X177520155Y-134843000D01*
X177641476Y-134613110D01*
X177596825Y-134465901D01*
X177471641Y-134203080D01*
X177297588Y-133969731D01*
X177081355Y-133774822D01*
X176964466Y-133705195D01*
X177146632Y-133583475D01*
X177353475Y-133376632D01*
X177515990Y-133133411D01*
X177627932Y-132863158D01*
X177685000Y-132576260D01*
X177685000Y-132283740D01*
X177627932Y-131996842D01*
X177515990Y-131726589D01*
X177353475Y-131483368D01*
X177146632Y-131276525D01*
X176972240Y-131160000D01*
X177146632Y-131043475D01*
X177353475Y-130836632D01*
X177515990Y-130593411D01*
X177627932Y-130323158D01*
X177685000Y-130036260D01*
X177685000Y-129743740D01*
X177627932Y-129456842D01*
X177515990Y-129186589D01*
X177353475Y-128943368D01*
X177221620Y-128811513D01*
X177294180Y-128789502D01*
X177404494Y-128730537D01*
X177501185Y-128651185D01*
X177580537Y-128554494D01*
X177639502Y-128444180D01*
X177675812Y-128324482D01*
X177688072Y-128200000D01*
X177688072Y-128127021D01*
X178052877Y-128127021D01*
X178107091Y-128623422D01*
X178257106Y-129099707D01*
X178467133Y-129492638D01*
X178823651Y-129696744D01*
X180420395Y-128100000D01*
X180779605Y-128100000D01*
X182376349Y-129696744D01*
X182732867Y-129492638D01*
X182963575Y-129049777D01*
X183103452Y-128570417D01*
X183147123Y-128072979D01*
X183138941Y-127998060D01*
X189115000Y-127998060D01*
X189115000Y-128201938D01*
X189154774Y-128401897D01*
X189232795Y-128590255D01*
X189346063Y-128759773D01*
X189490226Y-128903936D01*
X189659744Y-129017204D01*
X189848102Y-129095225D01*
X190048061Y-129134999D01*
X190251939Y-129134999D01*
X190451898Y-129095225D01*
X190640256Y-129017204D01*
X190809774Y-128903936D01*
X190953937Y-128759773D01*
X191067205Y-128590255D01*
X191145226Y-128401897D01*
X191185000Y-128201938D01*
X191185000Y-127998060D01*
X191145226Y-127798101D01*
X191067205Y-127609743D01*
X190972312Y-127467725D01*
X196695325Y-127467725D01*
X196695325Y-127671603D01*
X196735099Y-127871562D01*
X196813120Y-128059920D01*
X196926388Y-128229438D01*
X197070551Y-128373601D01*
X197240069Y-128486869D01*
X197428427Y-128564890D01*
X197628386Y-128604664D01*
X197832264Y-128604664D01*
X198032223Y-128564890D01*
X198220581Y-128486869D01*
X198390099Y-128373601D01*
X198534262Y-128229438D01*
X198647530Y-128059920D01*
X198725551Y-127871562D01*
X198765325Y-127671603D01*
X198765325Y-127467725D01*
X198725551Y-127267766D01*
X198647530Y-127079408D01*
X198534262Y-126909890D01*
X198390099Y-126765727D01*
X198220581Y-126652459D01*
X198032223Y-126574438D01*
X197832264Y-126534664D01*
X197628386Y-126534664D01*
X197428427Y-126574438D01*
X197240069Y-126652459D01*
X197070551Y-126765727D01*
X196926388Y-126909890D01*
X196813120Y-127079408D01*
X196735099Y-127267766D01*
X196695325Y-127467725D01*
X190972312Y-127467725D01*
X190953937Y-127440225D01*
X190809774Y-127296062D01*
X190640256Y-127182794D01*
X190451898Y-127104773D01*
X190251939Y-127064999D01*
X190048061Y-127064999D01*
X189848102Y-127104773D01*
X189659744Y-127182794D01*
X189490226Y-127296062D01*
X189346063Y-127440225D01*
X189232795Y-127609743D01*
X189154774Y-127798101D01*
X189115000Y-127998060D01*
X183138941Y-127998060D01*
X183092909Y-127576578D01*
X182942894Y-127100293D01*
X182732867Y-126707362D01*
X182376349Y-126503256D01*
X180779605Y-128100000D01*
X180420395Y-128100000D01*
X178823651Y-126503256D01*
X178467133Y-126707362D01*
X178236425Y-127150223D01*
X178096548Y-127629583D01*
X178052877Y-128127021D01*
X177688072Y-128127021D01*
X177688072Y-126500000D01*
X177675812Y-126375518D01*
X177660079Y-126323651D01*
X179003256Y-126323651D01*
X180600000Y-127920395D01*
X182196744Y-126323651D01*
X182038970Y-126048061D01*
X198265000Y-126048061D01*
X198265000Y-126251939D01*
X198304774Y-126451898D01*
X198382795Y-126640256D01*
X198496063Y-126809774D01*
X198640226Y-126953937D01*
X198809744Y-127067205D01*
X198998102Y-127145226D01*
X199198061Y-127185000D01*
X199401939Y-127185000D01*
X199601898Y-127145226D01*
X199790256Y-127067205D01*
X199959774Y-126953937D01*
X200103937Y-126809774D01*
X200217205Y-126640256D01*
X200295226Y-126451898D01*
X200335000Y-126251939D01*
X200335000Y-126048061D01*
X200295226Y-125848102D01*
X200217205Y-125659744D01*
X200103937Y-125490226D01*
X199959774Y-125346063D01*
X199790256Y-125232795D01*
X199601898Y-125154774D01*
X199401939Y-125115000D01*
X199198061Y-125115000D01*
X198998102Y-125154774D01*
X198809744Y-125232795D01*
X198640226Y-125346063D01*
X198496063Y-125490226D01*
X198382795Y-125659744D01*
X198304774Y-125848102D01*
X198265000Y-126048061D01*
X182038970Y-126048061D01*
X181992638Y-125967133D01*
X181549777Y-125736425D01*
X181070417Y-125596548D01*
X180572979Y-125552877D01*
X180076578Y-125607091D01*
X179600293Y-125757106D01*
X179207362Y-125967133D01*
X179003256Y-126323651D01*
X177660079Y-126323651D01*
X177639502Y-126255820D01*
X177580537Y-126145506D01*
X177501185Y-126048815D01*
X177404494Y-125969463D01*
X177294180Y-125910498D01*
X177174482Y-125874188D01*
X177050000Y-125861928D01*
X175350000Y-125861928D01*
X175225518Y-125874188D01*
X175105820Y-125910498D01*
X174995506Y-125969463D01*
X174898815Y-126048815D01*
X174819463Y-126145506D01*
X174760498Y-126255820D01*
X174724188Y-126375518D01*
X174711928Y-126500000D01*
X170660000Y-126500000D01*
X170660000Y-124898061D01*
X170865000Y-124898061D01*
X170865000Y-125101939D01*
X170904774Y-125301898D01*
X170982795Y-125490256D01*
X171096063Y-125659774D01*
X171240226Y-125803937D01*
X171409744Y-125917205D01*
X171598102Y-125995226D01*
X171798061Y-126035000D01*
X172001939Y-126035000D01*
X172201898Y-125995226D01*
X172390256Y-125917205D01*
X172559774Y-125803937D01*
X172703937Y-125659774D01*
X172817205Y-125490256D01*
X172895226Y-125301898D01*
X172935000Y-125101939D01*
X172935000Y-124988072D01*
X174420000Y-124988072D01*
X174544482Y-124975812D01*
X174664180Y-124939502D01*
X174774494Y-124880537D01*
X174871185Y-124801185D01*
X174950537Y-124704494D01*
X175009502Y-124594180D01*
X175031513Y-124521620D01*
X175163368Y-124653475D01*
X175406589Y-124815990D01*
X175676842Y-124927932D01*
X175963740Y-124985000D01*
X176256260Y-124985000D01*
X176543158Y-124927932D01*
X176813411Y-124815990D01*
X177056632Y-124653475D01*
X177263475Y-124446632D01*
X177385195Y-124264466D01*
X177454822Y-124381355D01*
X177649731Y-124597588D01*
X177883080Y-124771641D01*
X178145901Y-124896825D01*
X178293110Y-124941476D01*
X178523000Y-124820155D01*
X178523000Y-123627000D01*
X178777000Y-123627000D01*
X178777000Y-124820155D01*
X179006890Y-124941476D01*
X179154099Y-124896825D01*
X179416920Y-124771641D01*
X179650269Y-124597588D01*
X179845178Y-124381355D01*
X179994157Y-124131252D01*
X180091481Y-123856891D01*
X179970814Y-123627000D01*
X178777000Y-123627000D01*
X178523000Y-123627000D01*
X178503000Y-123627000D01*
X178503000Y-123373000D01*
X178523000Y-123373000D01*
X178523000Y-122179845D01*
X178777000Y-122179845D01*
X178777000Y-123373000D01*
X179970814Y-123373000D01*
X180091481Y-123143109D01*
X179994157Y-122868748D01*
X179845178Y-122618645D01*
X179650269Y-122402412D01*
X179416920Y-122228359D01*
X179154099Y-122103175D01*
X179006890Y-122058524D01*
X178777000Y-122179845D01*
X178523000Y-122179845D01*
X178293110Y-122058524D01*
X178145901Y-122103175D01*
X177883080Y-122228359D01*
X177649731Y-122402412D01*
X177454822Y-122618645D01*
X177385195Y-122735534D01*
X177263475Y-122553368D01*
X177056632Y-122346525D01*
X176813411Y-122184010D01*
X176543158Y-122072068D01*
X176256260Y-122015000D01*
X175963740Y-122015000D01*
X175676842Y-122072068D01*
X175406589Y-122184010D01*
X175163368Y-122346525D01*
X175031513Y-122478380D01*
X175009502Y-122405820D01*
X174950537Y-122295506D01*
X174871185Y-122198815D01*
X174774494Y-122119463D01*
X174664180Y-122060498D01*
X174544482Y-122024188D01*
X174420000Y-122011928D01*
X172720000Y-122011928D01*
X172595518Y-122024188D01*
X172475820Y-122060498D01*
X172365506Y-122119463D01*
X172268815Y-122198815D01*
X172189463Y-122295506D01*
X172130498Y-122405820D01*
X172094188Y-122525518D01*
X172081928Y-122650000D01*
X172081928Y-123980911D01*
X172001939Y-123965000D01*
X171798061Y-123965000D01*
X171598102Y-124004774D01*
X171409744Y-124082795D01*
X171240226Y-124196063D01*
X171096063Y-124340226D01*
X170982795Y-124509744D01*
X170904774Y-124698102D01*
X170865000Y-124898061D01*
X170660000Y-124898061D01*
X170660000Y-121598061D01*
X180265000Y-121598061D01*
X180265000Y-121801939D01*
X180304774Y-122001898D01*
X180382795Y-122190256D01*
X180496063Y-122359774D01*
X180640226Y-122503937D01*
X180809744Y-122617205D01*
X180998102Y-122695226D01*
X181198061Y-122735000D01*
X181321576Y-122735000D01*
X181354774Y-122901898D01*
X181432795Y-123090256D01*
X181521853Y-123223541D01*
X181507464Y-123245075D01*
X181429443Y-123433433D01*
X181389669Y-123633392D01*
X181389669Y-123837270D01*
X181429443Y-124037229D01*
X181507464Y-124225587D01*
X181620732Y-124395105D01*
X181764895Y-124539268D01*
X181934413Y-124652536D01*
X182122771Y-124730557D01*
X182322730Y-124770331D01*
X182526608Y-124770331D01*
X182726567Y-124730557D01*
X182914925Y-124652536D01*
X183084443Y-124539268D01*
X183228606Y-124395105D01*
X183341874Y-124225587D01*
X183394697Y-124098061D01*
X203365000Y-124098061D01*
X203365000Y-124301939D01*
X203404774Y-124501898D01*
X203482795Y-124690256D01*
X203596063Y-124859774D01*
X203740226Y-125003937D01*
X203893224Y-125106167D01*
X203865000Y-125248061D01*
X203865000Y-125451939D01*
X203904774Y-125651898D01*
X203982795Y-125840256D01*
X204096063Y-126009774D01*
X204142738Y-126056449D01*
X204104774Y-126148102D01*
X204065000Y-126348061D01*
X204065000Y-126551939D01*
X204104774Y-126751898D01*
X204182795Y-126940256D01*
X204296063Y-127109774D01*
X204440226Y-127253937D01*
X204609744Y-127367205D01*
X204798102Y-127445226D01*
X204998061Y-127485000D01*
X205201939Y-127485000D01*
X205401898Y-127445226D01*
X205590256Y-127367205D01*
X205759774Y-127253937D01*
X205903937Y-127109774D01*
X206017205Y-126940256D01*
X206095226Y-126751898D01*
X206119472Y-126630000D01*
X212411928Y-126630000D01*
X212411928Y-128330000D01*
X212424188Y-128454482D01*
X212460498Y-128574180D01*
X212519463Y-128684494D01*
X212598815Y-128781185D01*
X212695506Y-128860537D01*
X212805820Y-128919502D01*
X212878380Y-128941513D01*
X212746525Y-129073368D01*
X212584010Y-129316589D01*
X212472068Y-129586842D01*
X212415000Y-129873740D01*
X212415000Y-130166260D01*
X212472068Y-130453158D01*
X212584010Y-130723411D01*
X212746525Y-130966632D01*
X212953368Y-131173475D01*
X213127760Y-131290000D01*
X212953368Y-131406525D01*
X212746525Y-131613368D01*
X212584010Y-131856589D01*
X212472068Y-132126842D01*
X212415000Y-132413740D01*
X212415000Y-132706260D01*
X212472068Y-132993158D01*
X212584010Y-133263411D01*
X212746525Y-133506632D01*
X212953368Y-133713475D01*
X213135534Y-133835195D01*
X213018645Y-133904822D01*
X212802412Y-134099731D01*
X212628359Y-134333080D01*
X212503175Y-134595901D01*
X212458524Y-134743110D01*
X212579845Y-134973000D01*
X213773000Y-134973000D01*
X213773000Y-134953000D01*
X214027000Y-134953000D01*
X214027000Y-134973000D01*
X215220155Y-134973000D01*
X215341476Y-134743110D01*
X215296825Y-134595901D01*
X215171641Y-134333080D01*
X214997588Y-134099731D01*
X214781355Y-133904822D01*
X214664466Y-133835195D01*
X214846632Y-133713475D01*
X215053475Y-133506632D01*
X215215990Y-133263411D01*
X215327932Y-132993158D01*
X215385000Y-132706260D01*
X215385000Y-132413740D01*
X215327932Y-132126842D01*
X215215990Y-131856589D01*
X215053475Y-131613368D01*
X214846632Y-131406525D01*
X214672240Y-131290000D01*
X214846632Y-131173475D01*
X215053475Y-130966632D01*
X215215990Y-130723411D01*
X215327932Y-130453158D01*
X215385000Y-130166260D01*
X215385000Y-129873740D01*
X215327932Y-129586842D01*
X215215990Y-129316589D01*
X215053475Y-129073368D01*
X214921620Y-128941513D01*
X214994180Y-128919502D01*
X215104494Y-128860537D01*
X215201185Y-128781185D01*
X215280537Y-128684494D01*
X215339502Y-128574180D01*
X215375812Y-128454482D01*
X215388072Y-128330000D01*
X215388072Y-126630000D01*
X215375812Y-126505518D01*
X215339502Y-126385820D01*
X215280751Y-126275906D01*
X215448102Y-126345226D01*
X215648061Y-126385000D01*
X215851939Y-126385000D01*
X216051898Y-126345226D01*
X216219249Y-126275906D01*
X216160498Y-126385820D01*
X216124188Y-126505518D01*
X216111928Y-126630000D01*
X216111928Y-128330000D01*
X216124188Y-128454482D01*
X216160498Y-128574180D01*
X216219463Y-128684494D01*
X216298815Y-128781185D01*
X216395506Y-128860537D01*
X216505820Y-128919502D01*
X216578380Y-128941513D01*
X216446525Y-129073368D01*
X216284010Y-129316589D01*
X216172068Y-129586842D01*
X216115000Y-129873740D01*
X216115000Y-130166260D01*
X216172068Y-130453158D01*
X216284010Y-130723411D01*
X216446525Y-130966632D01*
X216653368Y-131173475D01*
X216827760Y-131290000D01*
X216653368Y-131406525D01*
X216446525Y-131613368D01*
X216284010Y-131856589D01*
X216172068Y-132126842D01*
X216115000Y-132413740D01*
X216115000Y-132706260D01*
X216172068Y-132993158D01*
X216284010Y-133263411D01*
X216446525Y-133506632D01*
X216653368Y-133713475D01*
X216835534Y-133835195D01*
X216718645Y-133904822D01*
X216502412Y-134099731D01*
X216328359Y-134333080D01*
X216203175Y-134595901D01*
X216158524Y-134743110D01*
X216279845Y-134973000D01*
X217473000Y-134973000D01*
X217473000Y-134953000D01*
X217727000Y-134953000D01*
X217727000Y-134973000D01*
X218920155Y-134973000D01*
X219041476Y-134743110D01*
X218996825Y-134595901D01*
X218871641Y-134333080D01*
X218697588Y-134099731D01*
X218481355Y-133904822D01*
X218364466Y-133835195D01*
X218546632Y-133713475D01*
X218753475Y-133506632D01*
X218915990Y-133263411D01*
X219027932Y-132993158D01*
X219085000Y-132706260D01*
X219085000Y-132413740D01*
X219027932Y-132126842D01*
X218915990Y-131856589D01*
X218753475Y-131613368D01*
X218546632Y-131406525D01*
X218372240Y-131290000D01*
X218546632Y-131173475D01*
X218753475Y-130966632D01*
X218915990Y-130723411D01*
X219027932Y-130453158D01*
X219085000Y-130166260D01*
X219085000Y-129873740D01*
X219027932Y-129586842D01*
X218915990Y-129316589D01*
X218818043Y-129170000D01*
X221911928Y-129170000D01*
X221911928Y-130870000D01*
X221924188Y-130994482D01*
X221960498Y-131114180D01*
X222019463Y-131224494D01*
X222098815Y-131321185D01*
X222195506Y-131400537D01*
X222305820Y-131459502D01*
X222378380Y-131481513D01*
X222246525Y-131613368D01*
X222084010Y-131856589D01*
X221972068Y-132126842D01*
X221915000Y-132413740D01*
X221915000Y-132706260D01*
X221972068Y-132993158D01*
X222084010Y-133263411D01*
X222246525Y-133506632D01*
X222453368Y-133713475D01*
X222635534Y-133835195D01*
X222518645Y-133904822D01*
X222302412Y-134099731D01*
X222128359Y-134333080D01*
X222003175Y-134595901D01*
X221958524Y-134743110D01*
X222079845Y-134973000D01*
X223273000Y-134973000D01*
X223273000Y-134953000D01*
X223527000Y-134953000D01*
X223527000Y-134973000D01*
X224720155Y-134973000D01*
X224841476Y-134743110D01*
X224796825Y-134595901D01*
X224671641Y-134333080D01*
X224497588Y-134099731D01*
X224281355Y-133904822D01*
X224164466Y-133835195D01*
X224346632Y-133713475D01*
X224553475Y-133506632D01*
X224715990Y-133263411D01*
X224827932Y-132993158D01*
X224885000Y-132706260D01*
X224885000Y-132413740D01*
X224827932Y-132126842D01*
X224715990Y-131856589D01*
X224553475Y-131613368D01*
X224421620Y-131481513D01*
X224494180Y-131459502D01*
X224604494Y-131400537D01*
X224701185Y-131321185D01*
X224780537Y-131224494D01*
X224839502Y-131114180D01*
X224875812Y-130994482D01*
X224888072Y-130870000D01*
X224888072Y-129170000D01*
X225661928Y-129170000D01*
X225661928Y-130870000D01*
X225674188Y-130994482D01*
X225710498Y-131114180D01*
X225769463Y-131224494D01*
X225848815Y-131321185D01*
X225945506Y-131400537D01*
X226055820Y-131459502D01*
X226128380Y-131481513D01*
X225996525Y-131613368D01*
X225834010Y-131856589D01*
X225722068Y-132126842D01*
X225665000Y-132413740D01*
X225665000Y-132706260D01*
X225722068Y-132993158D01*
X225834010Y-133263411D01*
X225996525Y-133506632D01*
X226203368Y-133713475D01*
X226385534Y-133835195D01*
X226268645Y-133904822D01*
X226052412Y-134099731D01*
X225878359Y-134333080D01*
X225753175Y-134595901D01*
X225708524Y-134743110D01*
X225829845Y-134973000D01*
X227023000Y-134973000D01*
X227023000Y-134953000D01*
X227277000Y-134953000D01*
X227277000Y-134973000D01*
X228470155Y-134973000D01*
X228591476Y-134743110D01*
X228546825Y-134595901D01*
X228421641Y-134333080D01*
X228247588Y-134099731D01*
X228031355Y-133904822D01*
X227914466Y-133835195D01*
X228096632Y-133713475D01*
X228303475Y-133506632D01*
X228465990Y-133263411D01*
X228577932Y-132993158D01*
X228635000Y-132706260D01*
X228635000Y-132413740D01*
X228577932Y-132126842D01*
X228465990Y-131856589D01*
X228303475Y-131613368D01*
X228171620Y-131481513D01*
X228244180Y-131459502D01*
X228354494Y-131400537D01*
X228451185Y-131321185D01*
X228530537Y-131224494D01*
X228589502Y-131114180D01*
X228625812Y-130994482D01*
X228638072Y-130870000D01*
X228638072Y-129170000D01*
X228625812Y-129045518D01*
X228589502Y-128925820D01*
X228530537Y-128815506D01*
X228451185Y-128718815D01*
X228354494Y-128639463D01*
X228244180Y-128580498D01*
X228124482Y-128544188D01*
X228000000Y-128531928D01*
X226300000Y-128531928D01*
X226175518Y-128544188D01*
X226055820Y-128580498D01*
X225945506Y-128639463D01*
X225848815Y-128718815D01*
X225769463Y-128815506D01*
X225710498Y-128925820D01*
X225674188Y-129045518D01*
X225661928Y-129170000D01*
X224888072Y-129170000D01*
X224875812Y-129045518D01*
X224839502Y-128925820D01*
X224780537Y-128815506D01*
X224701185Y-128718815D01*
X224604494Y-128639463D01*
X224494180Y-128580498D01*
X224374482Y-128544188D01*
X224250000Y-128531928D01*
X222550000Y-128531928D01*
X222425518Y-128544188D01*
X222305820Y-128580498D01*
X222195506Y-128639463D01*
X222098815Y-128718815D01*
X222019463Y-128815506D01*
X221960498Y-128925820D01*
X221924188Y-129045518D01*
X221911928Y-129170000D01*
X218818043Y-129170000D01*
X218753475Y-129073368D01*
X218621620Y-128941513D01*
X218694180Y-128919502D01*
X218804494Y-128860537D01*
X218901185Y-128781185D01*
X218980537Y-128684494D01*
X219039502Y-128574180D01*
X219075812Y-128454482D01*
X219088072Y-128330000D01*
X219088072Y-126630000D01*
X219075812Y-126505518D01*
X219057864Y-126446349D01*
X221103256Y-126446349D01*
X221307362Y-126802867D01*
X221750223Y-127033575D01*
X222229583Y-127173452D01*
X222727021Y-127217123D01*
X223223422Y-127162909D01*
X223699707Y-127012894D01*
X224092638Y-126802867D01*
X224296744Y-126446349D01*
X222700000Y-124849605D01*
X221103256Y-126446349D01*
X219057864Y-126446349D01*
X219039502Y-126385820D01*
X218980537Y-126275506D01*
X218901185Y-126178815D01*
X218804494Y-126099463D01*
X218694180Y-126040498D01*
X218574482Y-126004188D01*
X218450000Y-125991928D01*
X216750000Y-125991928D01*
X216625518Y-126004188D01*
X216530787Y-126032924D01*
X216553937Y-126009774D01*
X216667205Y-125840256D01*
X216745226Y-125651898D01*
X216785000Y-125451939D01*
X216785000Y-125248061D01*
X216745226Y-125048102D01*
X216667205Y-124859744D01*
X216558478Y-124697021D01*
X220152877Y-124697021D01*
X220207091Y-125193422D01*
X220357106Y-125669707D01*
X220567133Y-126062638D01*
X220923651Y-126266744D01*
X222520395Y-124670000D01*
X220923651Y-123073256D01*
X220567133Y-123277362D01*
X220336425Y-123720223D01*
X220196548Y-124199583D01*
X220152877Y-124697021D01*
X216558478Y-124697021D01*
X216553937Y-124690226D01*
X216409774Y-124546063D01*
X216240256Y-124432795D01*
X216051898Y-124354774D01*
X215851939Y-124315000D01*
X215648061Y-124315000D01*
X215448102Y-124354774D01*
X215259744Y-124432795D01*
X215090226Y-124546063D01*
X214946063Y-124690226D01*
X214832795Y-124859744D01*
X214754774Y-125048102D01*
X214715000Y-125248061D01*
X214715000Y-125451939D01*
X214754774Y-125651898D01*
X214832795Y-125840256D01*
X214946063Y-126009774D01*
X214969213Y-126032924D01*
X214874482Y-126004188D01*
X214750000Y-125991928D01*
X213050000Y-125991928D01*
X212925518Y-126004188D01*
X212805820Y-126040498D01*
X212695506Y-126099463D01*
X212598815Y-126178815D01*
X212519463Y-126275506D01*
X212460498Y-126385820D01*
X212424188Y-126505518D01*
X212411928Y-126630000D01*
X206119472Y-126630000D01*
X206135000Y-126551939D01*
X206135000Y-126348061D01*
X206095226Y-126148102D01*
X206017205Y-125959744D01*
X205903937Y-125790226D01*
X205857262Y-125743551D01*
X205895226Y-125651898D01*
X205935000Y-125451939D01*
X205935000Y-125248061D01*
X205895226Y-125048102D01*
X205817205Y-124859744D01*
X205703937Y-124690226D01*
X205559774Y-124546063D01*
X205406776Y-124443833D01*
X205435000Y-124301939D01*
X205435000Y-124098061D01*
X205395226Y-123898102D01*
X205333077Y-123748061D01*
X211415000Y-123748061D01*
X211415000Y-123951939D01*
X211454774Y-124151898D01*
X211532795Y-124340256D01*
X211646063Y-124509774D01*
X211790226Y-124653937D01*
X211959744Y-124767205D01*
X212148102Y-124845226D01*
X212348061Y-124885000D01*
X212551939Y-124885000D01*
X212751898Y-124845226D01*
X212940256Y-124767205D01*
X213109774Y-124653937D01*
X213253937Y-124509774D01*
X213367205Y-124340256D01*
X213445226Y-124151898D01*
X213485000Y-123951939D01*
X213485000Y-123748061D01*
X213445226Y-123548102D01*
X213367205Y-123359744D01*
X213253937Y-123190226D01*
X213109774Y-123046063D01*
X212940256Y-122932795D01*
X212845755Y-122893651D01*
X221103256Y-122893651D01*
X222700000Y-124490395D01*
X222714143Y-124476253D01*
X222893748Y-124655858D01*
X222879605Y-124670000D01*
X224476349Y-126266744D01*
X224547248Y-126226154D01*
X224602795Y-126360256D01*
X224716063Y-126529774D01*
X224860226Y-126673937D01*
X225029744Y-126787205D01*
X225218102Y-126865226D01*
X225418061Y-126905000D01*
X225621939Y-126905000D01*
X225821898Y-126865226D01*
X226010256Y-126787205D01*
X226077585Y-126742217D01*
X226219744Y-126837205D01*
X226408102Y-126915226D01*
X226608061Y-126955000D01*
X226811939Y-126955000D01*
X227011898Y-126915226D01*
X227200256Y-126837205D01*
X227369774Y-126723937D01*
X227513937Y-126579774D01*
X227627205Y-126410256D01*
X227705226Y-126221898D01*
X227745000Y-126021939D01*
X227745000Y-125818061D01*
X227705226Y-125618102D01*
X227627205Y-125429744D01*
X227513937Y-125260226D01*
X227369774Y-125116063D01*
X227200256Y-125002795D01*
X227011898Y-124924774D01*
X226811939Y-124885000D01*
X226608061Y-124885000D01*
X226408102Y-124924774D01*
X226219744Y-125002795D01*
X226152415Y-125047783D01*
X226010256Y-124952795D01*
X225821898Y-124874774D01*
X225621939Y-124835000D01*
X225418061Y-124835000D01*
X225226927Y-124873019D01*
X225247123Y-124642979D01*
X225192909Y-124146578D01*
X225042894Y-123670293D01*
X224832867Y-123277362D01*
X224476351Y-123073257D01*
X224572949Y-122976660D01*
X224650226Y-123053937D01*
X224819744Y-123167205D01*
X225008102Y-123245226D01*
X225208061Y-123285000D01*
X225411939Y-123285000D01*
X225611898Y-123245226D01*
X225800256Y-123167205D01*
X225969774Y-123053937D01*
X226113937Y-122909774D01*
X226227205Y-122740256D01*
X226305226Y-122551898D01*
X226345000Y-122351939D01*
X226345000Y-122196598D01*
X226351898Y-122195226D01*
X226540256Y-122117205D01*
X226709774Y-122003937D01*
X226853937Y-121859774D01*
X226967205Y-121690256D01*
X227045226Y-121501898D01*
X227085000Y-121301939D01*
X227085000Y-121098061D01*
X227045226Y-120898102D01*
X226967205Y-120709744D01*
X226853937Y-120540226D01*
X226709774Y-120396063D01*
X226540256Y-120282795D01*
X226351898Y-120204774D01*
X226151939Y-120165000D01*
X225948061Y-120165000D01*
X225748102Y-120204774D01*
X225559744Y-120282795D01*
X225390226Y-120396063D01*
X225246063Y-120540226D01*
X225132795Y-120709744D01*
X225054774Y-120898102D01*
X225015000Y-121098061D01*
X225015000Y-121253402D01*
X225008102Y-121254774D01*
X224819744Y-121332795D01*
X224650226Y-121446063D01*
X224506063Y-121590226D01*
X224392795Y-121759744D01*
X224314774Y-121948102D01*
X224275000Y-122148061D01*
X224275000Y-122351939D01*
X224314774Y-122551898D01*
X224392795Y-122740256D01*
X224435144Y-122803636D01*
X224410950Y-122779442D01*
X224296743Y-122893649D01*
X224092638Y-122537133D01*
X223649777Y-122306425D01*
X223170417Y-122166548D01*
X222672979Y-122122877D01*
X222176578Y-122177091D01*
X221700293Y-122327106D01*
X221307362Y-122537133D01*
X221103256Y-122893651D01*
X212845755Y-122893651D01*
X212751898Y-122854774D01*
X212551939Y-122815000D01*
X212348061Y-122815000D01*
X212148102Y-122854774D01*
X211959744Y-122932795D01*
X211790226Y-123046063D01*
X211646063Y-123190226D01*
X211532795Y-123359744D01*
X211454774Y-123548102D01*
X211415000Y-123748061D01*
X205333077Y-123748061D01*
X205317205Y-123709744D01*
X205203937Y-123540226D01*
X205059774Y-123396063D01*
X204890256Y-123282795D01*
X204701898Y-123204774D01*
X204501939Y-123165000D01*
X204298061Y-123165000D01*
X204098102Y-123204774D01*
X203909744Y-123282795D01*
X203740226Y-123396063D01*
X203596063Y-123540226D01*
X203482795Y-123709744D01*
X203404774Y-123898102D01*
X203365000Y-124098061D01*
X183394697Y-124098061D01*
X183419895Y-124037229D01*
X183459669Y-123837270D01*
X183459669Y-123633392D01*
X183419895Y-123433433D01*
X183341874Y-123245075D01*
X183252816Y-123111790D01*
X183267205Y-123090256D01*
X183345226Y-122901898D01*
X183385000Y-122701939D01*
X183385000Y-122498061D01*
X183345226Y-122298102D01*
X183267205Y-122109744D01*
X183153937Y-121940226D01*
X183009774Y-121796063D01*
X182840256Y-121682795D01*
X182651898Y-121604774D01*
X182451939Y-121565000D01*
X182328424Y-121565000D01*
X182295226Y-121398102D01*
X182217205Y-121209744D01*
X182103937Y-121040226D01*
X181959774Y-120896063D01*
X181790256Y-120782795D01*
X181601898Y-120704774D01*
X181401939Y-120665000D01*
X181198061Y-120665000D01*
X180998102Y-120704774D01*
X180809744Y-120782795D01*
X180640226Y-120896063D01*
X180496063Y-121040226D01*
X180382795Y-121209744D01*
X180304774Y-121398102D01*
X180265000Y-121598061D01*
X170660000Y-121598061D01*
X170660000Y-119828269D01*
X175101336Y-119828269D01*
X175315055Y-120192981D01*
X175771528Y-120431666D01*
X176265795Y-120576712D01*
X176778862Y-120622544D01*
X177291012Y-120567401D01*
X177782563Y-120413403D01*
X178194945Y-120192981D01*
X178408664Y-119828269D01*
X176755000Y-118174605D01*
X175101336Y-119828269D01*
X170660000Y-119828269D01*
X170660000Y-116598061D01*
X172765000Y-116598061D01*
X172765000Y-116801939D01*
X172804774Y-117001898D01*
X172882795Y-117190256D01*
X172996063Y-117359774D01*
X173140226Y-117503937D01*
X173309744Y-117617205D01*
X173498102Y-117695226D01*
X173698061Y-117735000D01*
X173901939Y-117735000D01*
X174101898Y-117695226D01*
X174158459Y-117671797D01*
X174127456Y-118018862D01*
X174182599Y-118531012D01*
X174336597Y-119022563D01*
X174557019Y-119434945D01*
X174921731Y-119648664D01*
X176575395Y-117995000D01*
X176934605Y-117995000D01*
X178588269Y-119648664D01*
X178952981Y-119434945D01*
X179191666Y-118978472D01*
X179317973Y-118548061D01*
X226115000Y-118548061D01*
X226115000Y-118751939D01*
X226154774Y-118951898D01*
X226232795Y-119140256D01*
X226346063Y-119309774D01*
X226490226Y-119453937D01*
X226659744Y-119567205D01*
X226848102Y-119645226D01*
X227048061Y-119685000D01*
X227251939Y-119685000D01*
X227451898Y-119645226D01*
X227640256Y-119567205D01*
X227809774Y-119453937D01*
X227953937Y-119309774D01*
X228067205Y-119140256D01*
X228145226Y-118951898D01*
X228185000Y-118751939D01*
X228185000Y-118548061D01*
X228145226Y-118348102D01*
X228067205Y-118159744D01*
X227953937Y-117990226D01*
X227809774Y-117846063D01*
X227640256Y-117732795D01*
X227451898Y-117654774D01*
X227251939Y-117615000D01*
X227048061Y-117615000D01*
X226848102Y-117654774D01*
X226659744Y-117732795D01*
X226490226Y-117846063D01*
X226346063Y-117990226D01*
X226232795Y-118159744D01*
X226154774Y-118348102D01*
X226115000Y-118548061D01*
X179317973Y-118548061D01*
X179336712Y-118484205D01*
X179382544Y-117971138D01*
X179327401Y-117458988D01*
X179173403Y-116967437D01*
X179106746Y-116842730D01*
X185359669Y-116842730D01*
X185359669Y-117046608D01*
X185399443Y-117246567D01*
X185477464Y-117434925D01*
X185590732Y-117604443D01*
X185734895Y-117748606D01*
X185904413Y-117861874D01*
X186092771Y-117939895D01*
X186292730Y-117979669D01*
X186496608Y-117979669D01*
X186696567Y-117939895D01*
X186884925Y-117861874D01*
X186980761Y-117797839D01*
X187009744Y-117817205D01*
X187198102Y-117895226D01*
X187398061Y-117935000D01*
X187601939Y-117935000D01*
X187801898Y-117895226D01*
X187928906Y-117842617D01*
X187990226Y-117903937D01*
X188159744Y-118017205D01*
X188348102Y-118095226D01*
X188548061Y-118135000D01*
X188751939Y-118135000D01*
X188951898Y-118095226D01*
X189140256Y-118017205D01*
X189309774Y-117903937D01*
X189453937Y-117759774D01*
X189567205Y-117590256D01*
X189645226Y-117401898D01*
X189685000Y-117201939D01*
X189685000Y-116998061D01*
X189645226Y-116798102D01*
X189567205Y-116609744D01*
X189453937Y-116440226D01*
X189309774Y-116296063D01*
X189140256Y-116182795D01*
X188951898Y-116104774D01*
X188751939Y-116065000D01*
X188548061Y-116065000D01*
X188348102Y-116104774D01*
X188221094Y-116157383D01*
X188159774Y-116096063D01*
X187990256Y-115982795D01*
X187906402Y-115948061D01*
X197715000Y-115948061D01*
X197715000Y-116151939D01*
X197754774Y-116351898D01*
X197832795Y-116540256D01*
X197946063Y-116709774D01*
X198090226Y-116853937D01*
X198259744Y-116967205D01*
X198448102Y-117045226D01*
X198648061Y-117085000D01*
X198851939Y-117085000D01*
X199051898Y-117045226D01*
X199240256Y-116967205D01*
X199409774Y-116853937D01*
X199553937Y-116709774D01*
X199667205Y-116540256D01*
X199745226Y-116351898D01*
X199755934Y-116298061D01*
X212065000Y-116298061D01*
X212065000Y-116501939D01*
X212104774Y-116701898D01*
X212182795Y-116890256D01*
X212296063Y-117059774D01*
X212440226Y-117203937D01*
X212609744Y-117317205D01*
X212798102Y-117395226D01*
X212998061Y-117435000D01*
X213201939Y-117435000D01*
X213401898Y-117395226D01*
X213590256Y-117317205D01*
X213759774Y-117203937D01*
X213903937Y-117059774D01*
X214017205Y-116890256D01*
X214095226Y-116701898D01*
X214135000Y-116501939D01*
X214135000Y-116298061D01*
X214095226Y-116098102D01*
X214017205Y-115909744D01*
X213903937Y-115740226D01*
X213759774Y-115596063D01*
X213590256Y-115482795D01*
X213401898Y-115404774D01*
X213201939Y-115365000D01*
X212998061Y-115365000D01*
X212798102Y-115404774D01*
X212609744Y-115482795D01*
X212440226Y-115596063D01*
X212296063Y-115740226D01*
X212182795Y-115909744D01*
X212104774Y-116098102D01*
X212065000Y-116298061D01*
X199755934Y-116298061D01*
X199785000Y-116151939D01*
X199785000Y-115948061D01*
X199745226Y-115748102D01*
X199667205Y-115559744D01*
X199553937Y-115390226D01*
X199409774Y-115246063D01*
X199240256Y-115132795D01*
X199051898Y-115054774D01*
X198851939Y-115015000D01*
X198648061Y-115015000D01*
X198448102Y-115054774D01*
X198259744Y-115132795D01*
X198090226Y-115246063D01*
X197946063Y-115390226D01*
X197832795Y-115559744D01*
X197754774Y-115748102D01*
X197715000Y-115948061D01*
X187906402Y-115948061D01*
X187801898Y-115904774D01*
X187601939Y-115865000D01*
X187398061Y-115865000D01*
X187198102Y-115904774D01*
X187009744Y-115982795D01*
X186913908Y-116046830D01*
X186884925Y-116027464D01*
X186696567Y-115949443D01*
X186496608Y-115909669D01*
X186292730Y-115909669D01*
X186092771Y-115949443D01*
X185904413Y-116027464D01*
X185734895Y-116140732D01*
X185590732Y-116284895D01*
X185477464Y-116454413D01*
X185399443Y-116642771D01*
X185359669Y-116842730D01*
X179106746Y-116842730D01*
X178952981Y-116555055D01*
X178588269Y-116341336D01*
X176934605Y-117995000D01*
X176575395Y-117995000D01*
X174921731Y-116341336D01*
X174798320Y-116413654D01*
X174795226Y-116398102D01*
X174717205Y-116209744D01*
X174685124Y-116161731D01*
X175101336Y-116161731D01*
X176755000Y-117815395D01*
X178408664Y-116161731D01*
X178194945Y-115797019D01*
X177738472Y-115558334D01*
X177557061Y-115505098D01*
X177667205Y-115340256D01*
X177745226Y-115151898D01*
X177785000Y-114951939D01*
X177785000Y-114748061D01*
X177745226Y-114548102D01*
X177667205Y-114359744D01*
X177553937Y-114190226D01*
X177411772Y-114048061D01*
X186165000Y-114048061D01*
X186165000Y-114251939D01*
X186204774Y-114451898D01*
X186282795Y-114640256D01*
X186396063Y-114809774D01*
X186540226Y-114953937D01*
X186709744Y-115067205D01*
X186898102Y-115145226D01*
X187098061Y-115185000D01*
X187301939Y-115185000D01*
X187501898Y-115145226D01*
X187690256Y-115067205D01*
X187859774Y-114953937D01*
X188003937Y-114809774D01*
X188117205Y-114640256D01*
X188195226Y-114451898D01*
X188235000Y-114251939D01*
X188235000Y-114048061D01*
X188195226Y-113848102D01*
X188195210Y-113848061D01*
X193765000Y-113848061D01*
X193765000Y-114051939D01*
X193804774Y-114251898D01*
X193882795Y-114440256D01*
X193996063Y-114609774D01*
X194140226Y-114753937D01*
X194309744Y-114867205D01*
X194498102Y-114945226D01*
X194698061Y-114985000D01*
X194901939Y-114985000D01*
X195101898Y-114945226D01*
X195290256Y-114867205D01*
X195459774Y-114753937D01*
X195501944Y-114711767D01*
X195659744Y-114817205D01*
X195848102Y-114895226D01*
X196048061Y-114935000D01*
X196251939Y-114935000D01*
X196451898Y-114895226D01*
X196640256Y-114817205D01*
X196809774Y-114703937D01*
X196953937Y-114559774D01*
X197067205Y-114390256D01*
X197145226Y-114201898D01*
X197185000Y-114001939D01*
X197185000Y-113798061D01*
X197145226Y-113598102D01*
X197067205Y-113409744D01*
X196953937Y-113240226D01*
X196809774Y-113096063D01*
X196640256Y-112982795D01*
X196451898Y-112904774D01*
X196251939Y-112865000D01*
X196048061Y-112865000D01*
X195848102Y-112904774D01*
X195659744Y-112982795D01*
X195490226Y-113096063D01*
X195448056Y-113138233D01*
X195290256Y-113032795D01*
X195101898Y-112954774D01*
X194901939Y-112915000D01*
X194698061Y-112915000D01*
X194498102Y-112954774D01*
X194309744Y-113032795D01*
X194140226Y-113146063D01*
X193996063Y-113290226D01*
X193882795Y-113459744D01*
X193804774Y-113648102D01*
X193765000Y-113848061D01*
X188195210Y-113848061D01*
X188117205Y-113659744D01*
X188003937Y-113490226D01*
X187859774Y-113346063D01*
X187690256Y-113232795D01*
X187501898Y-113154774D01*
X187301939Y-113115000D01*
X187098061Y-113115000D01*
X186898102Y-113154774D01*
X186709744Y-113232795D01*
X186540226Y-113346063D01*
X186396063Y-113490226D01*
X186282795Y-113659744D01*
X186204774Y-113848102D01*
X186165000Y-114048061D01*
X177411772Y-114048061D01*
X177409774Y-114046063D01*
X177240256Y-113932795D01*
X177051898Y-113854774D01*
X176851939Y-113815000D01*
X176648061Y-113815000D01*
X176448102Y-113854774D01*
X176259744Y-113932795D01*
X176090226Y-114046063D01*
X175946063Y-114190226D01*
X175832795Y-114359744D01*
X175754774Y-114548102D01*
X175715000Y-114748061D01*
X175715000Y-114951939D01*
X175754774Y-115151898D01*
X175832795Y-115340256D01*
X175945140Y-115508393D01*
X175727437Y-115576597D01*
X175315055Y-115797019D01*
X175101336Y-116161731D01*
X174685124Y-116161731D01*
X174603937Y-116040226D01*
X174459774Y-115896063D01*
X174290256Y-115782795D01*
X174101898Y-115704774D01*
X173901939Y-115665000D01*
X173698061Y-115665000D01*
X173498102Y-115704774D01*
X173309744Y-115782795D01*
X173140226Y-115896063D01*
X172996063Y-116040226D01*
X172882795Y-116209744D01*
X172804774Y-116398102D01*
X172765000Y-116598061D01*
X170660000Y-116598061D01*
X170660000Y-112922707D01*
X173216898Y-112922707D01*
X173284240Y-113163106D01*
X173533780Y-113280506D01*
X173801427Y-113346967D01*
X174076899Y-113359936D01*
X174349607Y-113318914D01*
X174609072Y-113225478D01*
X174725760Y-113163106D01*
X174793102Y-112922707D01*
X174005000Y-112134605D01*
X173216898Y-112922707D01*
X170660000Y-112922707D01*
X170660000Y-112026899D01*
X172600064Y-112026899D01*
X172641086Y-112299607D01*
X172734522Y-112559072D01*
X172796894Y-112675760D01*
X173037293Y-112743102D01*
X173825395Y-111955000D01*
X174184605Y-111955000D01*
X174972707Y-112743102D01*
X175213106Y-112675760D01*
X175330506Y-112426220D01*
X175396967Y-112158573D01*
X175404523Y-111998061D01*
X176465000Y-111998061D01*
X176465000Y-112201939D01*
X176504774Y-112401898D01*
X176582795Y-112590256D01*
X176696063Y-112759774D01*
X176840226Y-112903937D01*
X177009744Y-113017205D01*
X177198102Y-113095226D01*
X177398061Y-113135000D01*
X177601939Y-113135000D01*
X177801898Y-113095226D01*
X177990256Y-113017205D01*
X178159774Y-112903937D01*
X178303937Y-112759774D01*
X178378581Y-112648061D01*
X202165000Y-112648061D01*
X202165000Y-112851939D01*
X202204774Y-113051898D01*
X202282795Y-113240256D01*
X202396063Y-113409774D01*
X202540226Y-113553937D01*
X202709744Y-113667205D01*
X202898102Y-113745226D01*
X203098061Y-113785000D01*
X203301939Y-113785000D01*
X203501898Y-113745226D01*
X203690256Y-113667205D01*
X203859774Y-113553937D01*
X204003937Y-113409774D01*
X204117205Y-113240256D01*
X204195226Y-113051898D01*
X204235000Y-112851939D01*
X204235000Y-112698061D01*
X219315000Y-112698061D01*
X219315000Y-112901939D01*
X219354774Y-113101898D01*
X219432795Y-113290256D01*
X219546063Y-113459774D01*
X219690226Y-113603937D01*
X219859744Y-113717205D01*
X220048102Y-113795226D01*
X220248061Y-113835000D01*
X220451939Y-113835000D01*
X220651898Y-113795226D01*
X220840256Y-113717205D01*
X221009774Y-113603937D01*
X221153937Y-113459774D01*
X221267205Y-113290256D01*
X221345226Y-113101898D01*
X221385000Y-112901939D01*
X221385000Y-112698061D01*
X221345226Y-112498102D01*
X221267205Y-112309744D01*
X221153937Y-112140226D01*
X221009774Y-111996063D01*
X220840256Y-111882795D01*
X220681685Y-111817112D01*
X224595000Y-111817112D01*
X224595000Y-112092888D01*
X224648801Y-112363365D01*
X224754336Y-112618149D01*
X224907549Y-112847448D01*
X225102552Y-113042451D01*
X225331851Y-113195664D01*
X225586635Y-113301199D01*
X225857112Y-113355000D01*
X226132888Y-113355000D01*
X226403365Y-113301199D01*
X226658149Y-113195664D01*
X226887448Y-113042451D01*
X227082451Y-112847448D01*
X227235664Y-112618149D01*
X227341199Y-112363365D01*
X227395000Y-112092888D01*
X227395000Y-111817112D01*
X227341199Y-111546635D01*
X227235664Y-111291851D01*
X227082451Y-111062552D01*
X226887448Y-110867549D01*
X226658149Y-110714336D01*
X226403365Y-110608801D01*
X226132888Y-110555000D01*
X225857112Y-110555000D01*
X225586635Y-110608801D01*
X225331851Y-110714336D01*
X225102552Y-110867549D01*
X224907549Y-111062552D01*
X224754336Y-111291851D01*
X224648801Y-111546635D01*
X224595000Y-111817112D01*
X220681685Y-111817112D01*
X220651898Y-111804774D01*
X220451939Y-111765000D01*
X220248061Y-111765000D01*
X220048102Y-111804774D01*
X219859744Y-111882795D01*
X219690226Y-111996063D01*
X219546063Y-112140226D01*
X219432795Y-112309744D01*
X219354774Y-112498102D01*
X219315000Y-112698061D01*
X204235000Y-112698061D01*
X204235000Y-112648061D01*
X204195226Y-112448102D01*
X204117205Y-112259744D01*
X204003937Y-112090226D01*
X203859774Y-111946063D01*
X203690256Y-111832795D01*
X203501898Y-111754774D01*
X203301939Y-111715000D01*
X203098061Y-111715000D01*
X202898102Y-111754774D01*
X202709744Y-111832795D01*
X202540226Y-111946063D01*
X202396063Y-112090226D01*
X202282795Y-112259744D01*
X202204774Y-112448102D01*
X202165000Y-112648061D01*
X178378581Y-112648061D01*
X178417205Y-112590256D01*
X178495226Y-112401898D01*
X178535000Y-112201939D01*
X178535000Y-111998061D01*
X178495226Y-111798102D01*
X178417205Y-111609744D01*
X178303937Y-111440226D01*
X178159774Y-111296063D01*
X177990256Y-111182795D01*
X177801898Y-111104774D01*
X177601939Y-111065000D01*
X177398061Y-111065000D01*
X177198102Y-111104774D01*
X177009744Y-111182795D01*
X176840226Y-111296063D01*
X176696063Y-111440226D01*
X176582795Y-111609744D01*
X176504774Y-111798102D01*
X176465000Y-111998061D01*
X175404523Y-111998061D01*
X175409936Y-111883101D01*
X175368914Y-111610393D01*
X175275478Y-111350928D01*
X175213106Y-111234240D01*
X174972707Y-111166898D01*
X174184605Y-111955000D01*
X173825395Y-111955000D01*
X173037293Y-111166898D01*
X172796894Y-111234240D01*
X172679494Y-111483780D01*
X172613033Y-111751427D01*
X172600064Y-112026899D01*
X170660000Y-112026899D01*
X170660000Y-110987293D01*
X173216898Y-110987293D01*
X174005000Y-111775395D01*
X174793102Y-110987293D01*
X174725760Y-110746894D01*
X174476220Y-110629494D01*
X174208573Y-110563033D01*
X173933101Y-110550064D01*
X173660393Y-110591086D01*
X173400928Y-110684522D01*
X173284240Y-110746894D01*
X173216898Y-110987293D01*
X170660000Y-110987293D01*
X170660000Y-109098061D01*
X206265000Y-109098061D01*
X206265000Y-109301939D01*
X206304774Y-109501898D01*
X206382795Y-109690256D01*
X206496063Y-109859774D01*
X206640226Y-110003937D01*
X206809744Y-110117205D01*
X206998102Y-110195226D01*
X207198061Y-110235000D01*
X207401939Y-110235000D01*
X207601898Y-110195226D01*
X207790256Y-110117205D01*
X207959774Y-110003937D01*
X208103937Y-109859774D01*
X208217205Y-109690256D01*
X208295226Y-109501898D01*
X208335000Y-109301939D01*
X208335000Y-109098061D01*
X208295226Y-108898102D01*
X208217205Y-108709744D01*
X208109172Y-108548060D01*
X210215000Y-108548060D01*
X210215000Y-108751938D01*
X210254774Y-108951897D01*
X210332795Y-109140255D01*
X210446063Y-109309773D01*
X210590226Y-109453936D01*
X210759744Y-109567204D01*
X210948102Y-109645225D01*
X211148061Y-109684999D01*
X211351939Y-109684999D01*
X211551898Y-109645225D01*
X211740256Y-109567204D01*
X211909774Y-109453936D01*
X212053937Y-109309773D01*
X212167205Y-109140255D01*
X212245226Y-108951897D01*
X212285000Y-108751938D01*
X212285000Y-108674869D01*
X212332795Y-108790256D01*
X212446063Y-108959774D01*
X212590226Y-109103937D01*
X212759744Y-109217205D01*
X212948102Y-109295226D01*
X213148061Y-109335000D01*
X213351939Y-109335000D01*
X213551898Y-109295226D01*
X213740256Y-109217205D01*
X213909774Y-109103937D01*
X214053937Y-108959774D01*
X214167205Y-108790256D01*
X214245226Y-108601898D01*
X214285000Y-108401939D01*
X214285000Y-108198061D01*
X214245226Y-107998102D01*
X214179021Y-107838269D01*
X221581336Y-107838269D01*
X221795055Y-108202981D01*
X222251528Y-108441666D01*
X222745795Y-108586712D01*
X223258862Y-108632544D01*
X223771012Y-108577401D01*
X224262563Y-108423403D01*
X224674945Y-108202981D01*
X224888664Y-107838269D01*
X223235000Y-106184605D01*
X221581336Y-107838269D01*
X214179021Y-107838269D01*
X214167205Y-107809744D01*
X214053937Y-107640226D01*
X213909774Y-107496063D01*
X213740256Y-107382795D01*
X213551898Y-107304774D01*
X213351939Y-107265000D01*
X213148061Y-107265000D01*
X212948102Y-107304774D01*
X212759744Y-107382795D01*
X212590226Y-107496063D01*
X212446063Y-107640226D01*
X212332795Y-107809744D01*
X212254774Y-107998102D01*
X212215000Y-108198061D01*
X212215000Y-108275130D01*
X212167205Y-108159743D01*
X212053937Y-107990225D01*
X211909774Y-107846062D01*
X211740256Y-107732794D01*
X211551898Y-107654773D01*
X211351939Y-107614999D01*
X211148061Y-107614999D01*
X210948102Y-107654773D01*
X210759744Y-107732794D01*
X210590226Y-107846062D01*
X210446063Y-107990225D01*
X210332795Y-108159743D01*
X210254774Y-108348101D01*
X210215000Y-108548060D01*
X208109172Y-108548060D01*
X208103937Y-108540226D01*
X207959774Y-108396063D01*
X207790256Y-108282795D01*
X207601898Y-108204774D01*
X207401939Y-108165000D01*
X207198061Y-108165000D01*
X206998102Y-108204774D01*
X206809744Y-108282795D01*
X206640226Y-108396063D01*
X206496063Y-108540226D01*
X206382795Y-108709744D01*
X206304774Y-108898102D01*
X206265000Y-109098061D01*
X170660000Y-109098061D01*
X170660000Y-104774541D01*
X179845064Y-104774541D01*
X179855575Y-104967763D01*
X180025603Y-105038562D01*
X180206176Y-105074828D01*
X180390355Y-105075171D01*
X180571061Y-105039574D01*
X180741351Y-104969408D01*
X180744425Y-104967763D01*
X180754936Y-104774541D01*
X181045064Y-104774541D01*
X181055575Y-104967763D01*
X181225603Y-105038562D01*
X181406176Y-105074828D01*
X181590355Y-105075171D01*
X181771061Y-105039574D01*
X181941351Y-104969408D01*
X181944425Y-104967763D01*
X181954936Y-104774541D01*
X181500000Y-104319605D01*
X181045064Y-104774541D01*
X180754936Y-104774541D01*
X180300000Y-104319605D01*
X179845064Y-104774541D01*
X170660000Y-104774541D01*
X170660000Y-104230355D01*
X179364829Y-104230355D01*
X179400426Y-104411061D01*
X179470592Y-104581351D01*
X179472237Y-104584425D01*
X179665459Y-104594936D01*
X180120395Y-104140000D01*
X179665459Y-103685064D01*
X179472237Y-103695575D01*
X179401438Y-103865603D01*
X179365172Y-104046176D01*
X179364829Y-104230355D01*
X170660000Y-104230355D01*
X170660000Y-103030355D01*
X179364829Y-103030355D01*
X179400426Y-103211061D01*
X179470592Y-103381351D01*
X179472237Y-103384425D01*
X179665459Y-103394936D01*
X180120395Y-102940000D01*
X179665459Y-102485064D01*
X179472237Y-102495575D01*
X179401438Y-102665603D01*
X179365172Y-102846176D01*
X179364829Y-103030355D01*
X170660000Y-103030355D01*
X170660000Y-100630355D01*
X179364829Y-100630355D01*
X179400426Y-100811061D01*
X179470592Y-100981351D01*
X179472237Y-100984425D01*
X179619732Y-100992448D01*
X179546286Y-101065894D01*
X179570392Y-101090000D01*
X179546286Y-101114106D01*
X179619732Y-101187552D01*
X179472237Y-101195575D01*
X179401438Y-101365603D01*
X179365172Y-101546176D01*
X179364829Y-101730355D01*
X179400426Y-101911061D01*
X179470592Y-102081351D01*
X179472237Y-102084425D01*
X179665459Y-102094936D01*
X180120395Y-101640000D01*
X180106253Y-101625858D01*
X180257187Y-101474923D01*
X180342973Y-101475083D01*
X180493748Y-101625858D01*
X180479605Y-101640000D01*
X180564839Y-101725234D01*
X180564829Y-101730355D01*
X180600426Y-101911061D01*
X180670592Y-102081351D01*
X180670690Y-102081534D01*
X180574397Y-102041438D01*
X180508623Y-102028228D01*
X180300000Y-101819605D01*
X180091503Y-102028102D01*
X180028939Y-102040426D01*
X179858649Y-102110592D01*
X179855575Y-102112237D01*
X179846843Y-102272762D01*
X179845064Y-102274541D01*
X179845905Y-102290000D01*
X179845064Y-102305459D01*
X179846843Y-102307238D01*
X179855575Y-102467763D01*
X180025603Y-102538562D01*
X180091377Y-102551772D01*
X180300000Y-102760395D01*
X180508497Y-102551898D01*
X180571061Y-102539574D01*
X180671076Y-102498364D01*
X180601438Y-102665603D01*
X180565172Y-102846176D01*
X180565157Y-102854448D01*
X180479605Y-102940000D01*
X180564839Y-103025234D01*
X180564829Y-103030355D01*
X180600426Y-103211061D01*
X180620925Y-103260812D01*
X180574397Y-103241438D01*
X180393824Y-103205172D01*
X180385552Y-103205157D01*
X180300000Y-103119605D01*
X180214766Y-103204839D01*
X180209645Y-103204829D01*
X180028939Y-103240426D01*
X179858649Y-103310592D01*
X179855575Y-103312237D01*
X179845064Y-103505459D01*
X179879605Y-103540000D01*
X179845064Y-103574541D01*
X179855575Y-103767763D01*
X180025603Y-103838562D01*
X180206176Y-103874828D01*
X180214448Y-103874843D01*
X180300000Y-103960395D01*
X180385234Y-103875161D01*
X180390355Y-103875171D01*
X180571061Y-103839574D01*
X180620812Y-103819075D01*
X180601438Y-103865603D01*
X180565172Y-104046176D01*
X180565157Y-104054448D01*
X180479605Y-104140000D01*
X180564839Y-104225234D01*
X180564829Y-104230355D01*
X180600426Y-104411061D01*
X180670592Y-104581351D01*
X180672237Y-104584425D01*
X180865459Y-104594936D01*
X180900000Y-104560395D01*
X180934541Y-104594936D01*
X181127763Y-104584425D01*
X181198562Y-104414397D01*
X181234828Y-104233824D01*
X181234843Y-104225552D01*
X181320395Y-104140000D01*
X181679605Y-104140000D01*
X182134541Y-104594936D01*
X182327763Y-104584425D01*
X182398562Y-104414397D01*
X182434828Y-104233824D01*
X182435171Y-104049645D01*
X182399574Y-103868939D01*
X182329408Y-103698649D01*
X182327763Y-103695575D01*
X182134541Y-103685064D01*
X181679605Y-104140000D01*
X181320395Y-104140000D01*
X181235161Y-104054766D01*
X181235171Y-104049645D01*
X181199574Y-103868939D01*
X181179075Y-103819188D01*
X181225603Y-103838562D01*
X181406176Y-103874828D01*
X181414448Y-103874843D01*
X181500000Y-103960395D01*
X181585234Y-103875161D01*
X181590355Y-103875171D01*
X181771061Y-103839574D01*
X181941351Y-103769408D01*
X181944425Y-103767763D01*
X181954936Y-103574541D01*
X181920395Y-103540000D01*
X181954936Y-103505459D01*
X181944425Y-103312237D01*
X181774397Y-103241438D01*
X181593824Y-103205172D01*
X181585552Y-103205157D01*
X181500000Y-103119605D01*
X181414766Y-103204839D01*
X181409645Y-103204829D01*
X181228939Y-103240426D01*
X181179188Y-103260925D01*
X181198562Y-103214397D01*
X181234828Y-103033824D01*
X181234843Y-103025552D01*
X181320395Y-102940000D01*
X181679605Y-102940000D01*
X182134541Y-103394936D01*
X182327763Y-103384425D01*
X182398562Y-103214397D01*
X182434828Y-103033824D01*
X182435171Y-102849645D01*
X182399574Y-102668939D01*
X182329408Y-102498649D01*
X182327763Y-102495575D01*
X182134541Y-102485064D01*
X181679605Y-102940000D01*
X181320395Y-102940000D01*
X181235161Y-102854766D01*
X181235171Y-102849645D01*
X181199574Y-102668939D01*
X181129408Y-102498649D01*
X181129310Y-102498466D01*
X181225603Y-102538562D01*
X181291377Y-102551772D01*
X181500000Y-102760395D01*
X181708497Y-102551898D01*
X181771061Y-102539574D01*
X181941351Y-102469408D01*
X181944425Y-102467763D01*
X181953157Y-102307238D01*
X181954936Y-102305459D01*
X181954095Y-102290000D01*
X181954936Y-102274541D01*
X181953157Y-102272762D01*
X181944425Y-102112237D01*
X181774397Y-102041438D01*
X181708623Y-102028228D01*
X181500000Y-101819605D01*
X181291503Y-102028102D01*
X181228939Y-102040426D01*
X181128924Y-102081636D01*
X181198562Y-101914397D01*
X181234828Y-101733824D01*
X181234843Y-101725552D01*
X181320395Y-101640000D01*
X181306253Y-101625858D01*
X181457187Y-101474923D01*
X181542973Y-101475083D01*
X181693748Y-101625858D01*
X181679605Y-101640000D01*
X182134541Y-102094936D01*
X182327763Y-102084425D01*
X182398562Y-101914397D01*
X182434828Y-101733824D01*
X182435171Y-101549645D01*
X182399574Y-101368939D01*
X182329408Y-101198649D01*
X182327763Y-101195575D01*
X182180268Y-101187552D01*
X182253714Y-101114106D01*
X182229608Y-101090000D01*
X182253714Y-101065894D01*
X182180268Y-100992448D01*
X182327763Y-100984425D01*
X182398562Y-100814397D01*
X182434828Y-100633824D01*
X182435171Y-100449645D01*
X182399574Y-100268939D01*
X182329408Y-100098649D01*
X182327763Y-100095575D01*
X182134541Y-100085064D01*
X181679605Y-100540000D01*
X181693748Y-100554143D01*
X181542813Y-100705077D01*
X181457027Y-100704917D01*
X181306253Y-100554143D01*
X181320395Y-100540000D01*
X181235161Y-100454766D01*
X181235171Y-100449645D01*
X181199574Y-100268939D01*
X181129408Y-100098649D01*
X181127763Y-100095575D01*
X180934541Y-100085064D01*
X180900000Y-100119605D01*
X180865459Y-100085064D01*
X180672237Y-100095575D01*
X180601438Y-100265603D01*
X180565172Y-100446176D01*
X180565157Y-100454448D01*
X180479605Y-100540000D01*
X180493748Y-100554143D01*
X180342813Y-100705077D01*
X180257027Y-100704917D01*
X180106253Y-100554143D01*
X180120395Y-100540000D01*
X179665459Y-100085064D01*
X179472237Y-100095575D01*
X179401438Y-100265603D01*
X179365172Y-100446176D01*
X179364829Y-100630355D01*
X170660000Y-100630355D01*
X170660000Y-99905459D01*
X179845064Y-99905459D01*
X180300000Y-100360395D01*
X180754936Y-99905459D01*
X181045064Y-99905459D01*
X181500000Y-100360395D01*
X181954936Y-99905459D01*
X181944425Y-99712237D01*
X181774397Y-99641438D01*
X181593824Y-99605172D01*
X181409645Y-99604829D01*
X181228939Y-99640426D01*
X181058649Y-99710592D01*
X181055575Y-99712237D01*
X181045064Y-99905459D01*
X180754936Y-99905459D01*
X180744425Y-99712237D01*
X180574397Y-99641438D01*
X180393824Y-99605172D01*
X180209645Y-99604829D01*
X180028939Y-99640426D01*
X179858649Y-99710592D01*
X179855575Y-99712237D01*
X179845064Y-99905459D01*
X170660000Y-99905459D01*
X170660000Y-99350000D01*
X199211928Y-99350000D01*
X199211928Y-101050000D01*
X199224188Y-101174482D01*
X199260498Y-101294180D01*
X199319463Y-101404494D01*
X199398815Y-101501185D01*
X199495506Y-101580537D01*
X199605820Y-101639502D01*
X199678380Y-101661513D01*
X199546525Y-101793368D01*
X199384010Y-102036589D01*
X199272068Y-102306842D01*
X199215000Y-102593740D01*
X199215000Y-102886260D01*
X199272068Y-103173158D01*
X199384010Y-103443411D01*
X199546525Y-103686632D01*
X199753368Y-103893475D01*
X199927760Y-104010000D01*
X199753368Y-104126525D01*
X199546525Y-104333368D01*
X199384010Y-104576589D01*
X199272068Y-104846842D01*
X199215000Y-105133740D01*
X199215000Y-105426260D01*
X199272068Y-105713158D01*
X199384010Y-105983411D01*
X199546525Y-106226632D01*
X199753368Y-106433475D01*
X199996589Y-106595990D01*
X200266842Y-106707932D01*
X200553740Y-106765000D01*
X200846260Y-106765000D01*
X201133158Y-106707932D01*
X201403411Y-106595990D01*
X201646632Y-106433475D01*
X201853475Y-106226632D01*
X201985620Y-106028862D01*
X220607456Y-106028862D01*
X220662599Y-106541012D01*
X220816597Y-107032563D01*
X221037019Y-107444945D01*
X221401731Y-107658664D01*
X223055395Y-106005000D01*
X223414605Y-106005000D01*
X225068269Y-107658664D01*
X225432981Y-107444945D01*
X225671666Y-106988472D01*
X225816712Y-106494205D01*
X225862544Y-105981138D01*
X225807401Y-105468988D01*
X225653403Y-104977437D01*
X225432981Y-104565055D01*
X225068269Y-104351336D01*
X223414605Y-106005000D01*
X223055395Y-106005000D01*
X221401731Y-104351336D01*
X221037019Y-104565055D01*
X220798334Y-105021528D01*
X220653288Y-105515795D01*
X220607456Y-106028862D01*
X201985620Y-106028862D01*
X202015990Y-105983411D01*
X202127932Y-105713158D01*
X202185000Y-105426260D01*
X202185000Y-105133740D01*
X202127932Y-104846842D01*
X202015990Y-104576589D01*
X201853475Y-104333368D01*
X201691838Y-104171731D01*
X221581336Y-104171731D01*
X223235000Y-105825395D01*
X224888664Y-104171731D01*
X224854167Y-104112861D01*
X224936001Y-104114855D01*
X225153367Y-104077096D01*
X225359189Y-103997658D01*
X225407534Y-103971816D01*
X225440811Y-103759916D01*
X224853000Y-103172105D01*
X224838858Y-103186248D01*
X224659253Y-103006643D01*
X224673395Y-102992500D01*
X225032605Y-102992500D01*
X225620416Y-103580311D01*
X225832316Y-103547034D01*
X225921683Y-103345324D01*
X225969981Y-103130055D01*
X225975355Y-102909499D01*
X225937596Y-102692133D01*
X225858158Y-102486311D01*
X225832316Y-102437966D01*
X225620416Y-102404689D01*
X225032605Y-102992500D01*
X224673395Y-102992500D01*
X224085584Y-102404689D01*
X223873684Y-102437966D01*
X223784317Y-102639676D01*
X223736019Y-102854945D01*
X223730645Y-103075501D01*
X223768404Y-103292867D01*
X223830815Y-103454574D01*
X223724205Y-103423288D01*
X223211138Y-103377456D01*
X222698988Y-103432599D01*
X222207437Y-103586597D01*
X221795055Y-103807019D01*
X221581336Y-104171731D01*
X201691838Y-104171731D01*
X201646632Y-104126525D01*
X201472240Y-104010000D01*
X201646632Y-103893475D01*
X201853475Y-103686632D01*
X202015990Y-103443411D01*
X202127932Y-103173158D01*
X202185000Y-102886260D01*
X202185000Y-102593740D01*
X202127932Y-102306842D01*
X202094067Y-102225084D01*
X224265189Y-102225084D01*
X224853000Y-102812895D01*
X225440811Y-102225084D01*
X225407534Y-102013184D01*
X225205824Y-101923817D01*
X224990555Y-101875519D01*
X224769999Y-101870145D01*
X224552633Y-101907904D01*
X224346811Y-101987342D01*
X224298466Y-102013184D01*
X224265189Y-102225084D01*
X202094067Y-102225084D01*
X202015990Y-102036589D01*
X201853475Y-101793368D01*
X201721620Y-101661513D01*
X201794180Y-101639502D01*
X201904494Y-101580537D01*
X202001185Y-101501185D01*
X202080537Y-101404494D01*
X202139502Y-101294180D01*
X202175812Y-101174482D01*
X202188072Y-101050000D01*
X202188072Y-99350000D01*
X202175812Y-99225518D01*
X202139502Y-99105820D01*
X202080537Y-98995506D01*
X202001185Y-98898815D01*
X201904494Y-98819463D01*
X201794180Y-98760498D01*
X201674482Y-98724188D01*
X201550000Y-98711928D01*
X199850000Y-98711928D01*
X199725518Y-98724188D01*
X199605820Y-98760498D01*
X199495506Y-98819463D01*
X199398815Y-98898815D01*
X199319463Y-98995506D01*
X199260498Y-99105820D01*
X199224188Y-99225518D01*
X199211928Y-99350000D01*
X170660000Y-99350000D01*
X170660000Y-94032279D01*
X170668067Y-93950000D01*
X172271928Y-93950000D01*
X172271928Y-95650000D01*
X172284188Y-95774482D01*
X172320498Y-95894180D01*
X172379463Y-96004494D01*
X172458815Y-96101185D01*
X172555506Y-96180537D01*
X172665820Y-96239502D01*
X172785518Y-96275812D01*
X172910000Y-96288072D01*
X174610000Y-96288072D01*
X174734482Y-96275812D01*
X174854180Y-96239502D01*
X174964494Y-96180537D01*
X175061185Y-96101185D01*
X175140537Y-96004494D01*
X175199502Y-95894180D01*
X175221513Y-95821620D01*
X175353368Y-95953475D01*
X175596589Y-96115990D01*
X175866842Y-96227932D01*
X176153740Y-96285000D01*
X176446260Y-96285000D01*
X176733158Y-96227932D01*
X176925984Y-96148061D01*
X210465000Y-96148061D01*
X210465000Y-96351939D01*
X210504774Y-96551898D01*
X210582795Y-96740256D01*
X210696063Y-96909774D01*
X210840226Y-97053937D01*
X211009744Y-97167205D01*
X211198102Y-97245226D01*
X211398061Y-97285000D01*
X211601939Y-97285000D01*
X211801898Y-97245226D01*
X211990256Y-97167205D01*
X212159774Y-97053937D01*
X212303937Y-96909774D01*
X212417205Y-96740256D01*
X212495226Y-96551898D01*
X212535000Y-96351939D01*
X212535000Y-96148061D01*
X212495226Y-95948102D01*
X212417205Y-95759744D01*
X212303937Y-95590226D01*
X212159774Y-95446063D01*
X211990256Y-95332795D01*
X211801898Y-95254774D01*
X211601939Y-95215000D01*
X211398061Y-95215000D01*
X211198102Y-95254774D01*
X211009744Y-95332795D01*
X210840226Y-95446063D01*
X210696063Y-95590226D01*
X210582795Y-95759744D01*
X210504774Y-95948102D01*
X210465000Y-96148061D01*
X176925984Y-96148061D01*
X177003411Y-96115990D01*
X177246632Y-95953475D01*
X177453475Y-95746632D01*
X177615990Y-95503411D01*
X177727932Y-95233158D01*
X177785000Y-94946260D01*
X177785000Y-94653740D01*
X177727932Y-94366842D01*
X177615990Y-94096589D01*
X177453475Y-93853368D01*
X177246632Y-93646525D01*
X177003411Y-93484010D01*
X176733158Y-93372068D01*
X176446260Y-93315000D01*
X176153740Y-93315000D01*
X175866842Y-93372068D01*
X175596589Y-93484010D01*
X175353368Y-93646525D01*
X175221513Y-93778380D01*
X175199502Y-93705820D01*
X175140537Y-93595506D01*
X175061185Y-93498815D01*
X174964494Y-93419463D01*
X174854180Y-93360498D01*
X174734482Y-93324188D01*
X174610000Y-93311928D01*
X172910000Y-93311928D01*
X172785518Y-93324188D01*
X172665820Y-93360498D01*
X172555506Y-93419463D01*
X172458815Y-93498815D01*
X172379463Y-93595506D01*
X172320498Y-93705820D01*
X172284188Y-93825518D01*
X172271928Y-93950000D01*
X170668067Y-93950000D01*
X170688625Y-93740341D01*
X170764035Y-93490571D01*
X170886522Y-93260208D01*
X171051422Y-93058020D01*
X171252450Y-92891714D01*
X171481954Y-92767622D01*
X171731195Y-92690469D01*
X172021088Y-92660000D01*
X220880392Y-92660000D01*
X220923649Y-92703257D01*
G04 #@! TA.AperFunction,Conductor*
D19*
G36*
X220923649Y-92703257D02*
G01*
X220567133Y-92907362D01*
X220336425Y-93350223D01*
X220196548Y-93829583D01*
X220152877Y-94327021D01*
X220207091Y-94823422D01*
X220357106Y-95299707D01*
X220567133Y-95692638D01*
X220923651Y-95896744D01*
X222520395Y-94300000D01*
X222506253Y-94285858D01*
X222685858Y-94106253D01*
X222700000Y-94120395D01*
X222714143Y-94106253D01*
X222893748Y-94285858D01*
X222879605Y-94300000D01*
X222893748Y-94314143D01*
X222714143Y-94493748D01*
X222700000Y-94479605D01*
X221103256Y-96076349D01*
X221307362Y-96432867D01*
X221750223Y-96663575D01*
X222229583Y-96803452D01*
X222727021Y-96847123D01*
X223223422Y-96792909D01*
X223280548Y-96774916D01*
X224265189Y-96774916D01*
X224298466Y-96986816D01*
X224500176Y-97076183D01*
X224715445Y-97124481D01*
X224936001Y-97129855D01*
X225153367Y-97092096D01*
X225359189Y-97012658D01*
X225407534Y-96986816D01*
X225440811Y-96774916D01*
X224853000Y-96187105D01*
X224265189Y-96774916D01*
X223280548Y-96774916D01*
X223699707Y-96642894D01*
X223868640Y-96552597D01*
X223873684Y-96562034D01*
X224085584Y-96595311D01*
X224673395Y-96007500D01*
X225032605Y-96007500D01*
X225620416Y-96595311D01*
X225832316Y-96562034D01*
X225921683Y-96360324D01*
X225969981Y-96145055D01*
X225975355Y-95924499D01*
X225937596Y-95707133D01*
X225858158Y-95501311D01*
X225832316Y-95452966D01*
X225620416Y-95419689D01*
X225032605Y-96007500D01*
X224673395Y-96007500D01*
X224659253Y-95993358D01*
X224838858Y-95813753D01*
X224853000Y-95827895D01*
X225440811Y-95240084D01*
X225407534Y-95028184D01*
X225205824Y-94938817D01*
X225157478Y-94927970D01*
X225203452Y-94770417D01*
X225247123Y-94272979D01*
X225192909Y-93776578D01*
X225042894Y-93300293D01*
X224832867Y-92907362D01*
X224476351Y-92703257D01*
X224519608Y-92660000D01*
X229353074Y-92660000D01*
X229355039Y-92677522D01*
X229367469Y-92736002D01*
X229379095Y-92794717D01*
X229381820Y-92803520D01*
X229411326Y-92896535D01*
X229434882Y-92951495D01*
X229457686Y-93006822D01*
X229462069Y-93014928D01*
X229509080Y-93100440D01*
X229542857Y-93149771D01*
X229575981Y-93199626D01*
X229581851Y-93206719D01*
X229581853Y-93206723D01*
X229581856Y-93206726D01*
X229644581Y-93281478D01*
X229687310Y-93323321D01*
X229691800Y-93327843D01*
X229693807Y-94670068D01*
X229682361Y-94681594D01*
X229639629Y-94723439D01*
X229633755Y-94730540D01*
X229572079Y-94806161D01*
X229538988Y-94855966D01*
X229505174Y-94905350D01*
X229500792Y-94913456D01*
X229454980Y-94999617D01*
X229432191Y-95054909D01*
X229408622Y-95109898D01*
X229405897Y-95118701D01*
X229377692Y-95212119D01*
X229366067Y-95270826D01*
X229353635Y-95329316D01*
X229352673Y-95338470D01*
X229352672Y-95338476D01*
X229352672Y-95338481D01*
X229343150Y-95435598D01*
X229343150Y-95435608D01*
X229340001Y-95467581D01*
X229340000Y-98532418D01*
X229343198Y-98564889D01*
X229343198Y-98571383D01*
X229344162Y-98580547D01*
X229348905Y-98622838D01*
X229349550Y-98629382D01*
X229349692Y-98629850D01*
X229355039Y-98677522D01*
X229367469Y-98736002D01*
X229379095Y-98794717D01*
X229381820Y-98803520D01*
X229411326Y-98896535D01*
X229434882Y-98951495D01*
X229457686Y-99006822D01*
X229462069Y-99014928D01*
X229509080Y-99100440D01*
X229542857Y-99149771D01*
X229575981Y-99199626D01*
X229581851Y-99206719D01*
X229581853Y-99206723D01*
X229581856Y-99206726D01*
X229644581Y-99281478D01*
X229687310Y-99323321D01*
X229700782Y-99336888D01*
X229702762Y-100661050D01*
X229682361Y-100681594D01*
X229639629Y-100723439D01*
X229633755Y-100730540D01*
X229572079Y-100806161D01*
X229538988Y-100855966D01*
X229505174Y-100905350D01*
X229500792Y-100913456D01*
X229454980Y-100999617D01*
X229432191Y-101054909D01*
X229408622Y-101109898D01*
X229405897Y-101118701D01*
X229377692Y-101212119D01*
X229366067Y-101270826D01*
X229353635Y-101329316D01*
X229352673Y-101338470D01*
X229352672Y-101338476D01*
X229352672Y-101338481D01*
X229343150Y-101435598D01*
X229340000Y-101467582D01*
X229340000Y-101967582D01*
X229340001Y-104967572D01*
X229340000Y-104967582D01*
X229340000Y-105532419D01*
X229343198Y-105564890D01*
X229343198Y-105571383D01*
X229344162Y-105580547D01*
X229348905Y-105622831D01*
X229349550Y-105629383D01*
X229349692Y-105629852D01*
X229355039Y-105677522D01*
X229367469Y-105736002D01*
X229379095Y-105794717D01*
X229381820Y-105803520D01*
X229411326Y-105896535D01*
X229434882Y-105951495D01*
X229457686Y-106006822D01*
X229462069Y-106014928D01*
X229509080Y-106100440D01*
X229542857Y-106149771D01*
X229575981Y-106199626D01*
X229581851Y-106206719D01*
X229581853Y-106206723D01*
X229581856Y-106206726D01*
X229644581Y-106281478D01*
X229687310Y-106323321D01*
X229711262Y-106347441D01*
X229714702Y-108649026D01*
X229682361Y-108681594D01*
X229639629Y-108723439D01*
X229633755Y-108730540D01*
X229572079Y-108806161D01*
X229538988Y-108855966D01*
X229505174Y-108905350D01*
X229500792Y-108913456D01*
X229454980Y-108999617D01*
X229432191Y-109054909D01*
X229408622Y-109109898D01*
X229405897Y-109118701D01*
X229377692Y-109212119D01*
X229366067Y-109270826D01*
X229353635Y-109329316D01*
X229352673Y-109338470D01*
X229352672Y-109338476D01*
X229352672Y-109338481D01*
X229343150Y-109435598D01*
X229340000Y-109467582D01*
X229340000Y-110032419D01*
X229340001Y-110032429D01*
X229340000Y-116032418D01*
X229343198Y-116064889D01*
X229343198Y-116071383D01*
X229344162Y-116080547D01*
X229348905Y-116122838D01*
X229349550Y-116129382D01*
X229349692Y-116129850D01*
X229355039Y-116177522D01*
X229367469Y-116236002D01*
X229379095Y-116294717D01*
X229381820Y-116303520D01*
X229411326Y-116396535D01*
X229434882Y-116451495D01*
X229457686Y-116506822D01*
X229462069Y-116514928D01*
X229509080Y-116600440D01*
X229542857Y-116649771D01*
X229575981Y-116699626D01*
X229581851Y-116706719D01*
X229581853Y-116706723D01*
X229581856Y-116706726D01*
X229644581Y-116781478D01*
X229687310Y-116823321D01*
X229726980Y-116863270D01*
X229728882Y-118135531D01*
X229724514Y-118139145D01*
X229682361Y-118181594D01*
X229639629Y-118223439D01*
X229633755Y-118230540D01*
X229572079Y-118306161D01*
X229538988Y-118355966D01*
X229505174Y-118405350D01*
X229500792Y-118413456D01*
X229454980Y-118499617D01*
X229432191Y-118554909D01*
X229408622Y-118609898D01*
X229405897Y-118618701D01*
X229377692Y-118712119D01*
X229366067Y-118770826D01*
X229353635Y-118829316D01*
X229352673Y-118838470D01*
X229352672Y-118838476D01*
X229352672Y-118838481D01*
X229343150Y-118935598D01*
X229340000Y-118967582D01*
X229340001Y-125532419D01*
X229343198Y-125564880D01*
X229343198Y-125571383D01*
X229344162Y-125580547D01*
X229348913Y-125622904D01*
X229349551Y-125629383D01*
X229349692Y-125629846D01*
X229355039Y-125677522D01*
X229367469Y-125736002D01*
X229379095Y-125794717D01*
X229381820Y-125803520D01*
X229411326Y-125896535D01*
X229434882Y-125951495D01*
X229457686Y-126006822D01*
X229462069Y-126014928D01*
X229509080Y-126100440D01*
X229542857Y-126149771D01*
X229575981Y-126199626D01*
X229581851Y-126206719D01*
X229581853Y-126206723D01*
X229581856Y-126206726D01*
X229644581Y-126281478D01*
X229687310Y-126323321D01*
X229729467Y-126365774D01*
X229736609Y-126371598D01*
X229736612Y-126371601D01*
X229736616Y-126371604D01*
X229741199Y-126375288D01*
X229744558Y-128622563D01*
X229724514Y-128639145D01*
X229682361Y-128681594D01*
X229639629Y-128723439D01*
X229633755Y-128730540D01*
X229572079Y-128806161D01*
X229538988Y-128855966D01*
X229505174Y-128905350D01*
X229500792Y-128913456D01*
X229454980Y-128999617D01*
X229432191Y-129054909D01*
X229408622Y-129109898D01*
X229405897Y-129118701D01*
X229377692Y-129212119D01*
X229366067Y-129270826D01*
X229353635Y-129329316D01*
X229352673Y-129338470D01*
X229352672Y-129338476D01*
X229352672Y-129338481D01*
X229343150Y-129435598D01*
X229340000Y-129467582D01*
X229340001Y-132967572D01*
X229340000Y-132967582D01*
X229340000Y-133532419D01*
X229343198Y-133564890D01*
X229343198Y-133571383D01*
X229344162Y-133580547D01*
X229348905Y-133622831D01*
X229349550Y-133629383D01*
X229349692Y-133629852D01*
X229355039Y-133677522D01*
X229367469Y-133736002D01*
X229379095Y-133794717D01*
X229381820Y-133803520D01*
X229411326Y-133896535D01*
X229434882Y-133951495D01*
X229457686Y-134006822D01*
X229462069Y-134014928D01*
X229509080Y-134100440D01*
X229542857Y-134149771D01*
X229575981Y-134199626D01*
X229581851Y-134206719D01*
X229581853Y-134206723D01*
X229581856Y-134206726D01*
X229644581Y-134281478D01*
X229687310Y-134323321D01*
X229729467Y-134365774D01*
X229736609Y-134371598D01*
X229736612Y-134371601D01*
X229736616Y-134371604D01*
X229753171Y-134384915D01*
X229755008Y-135613918D01*
X229724514Y-135639145D01*
X229682361Y-135681594D01*
X229639629Y-135723439D01*
X229633755Y-135730540D01*
X229572079Y-135806161D01*
X229538988Y-135855966D01*
X229505174Y-135905350D01*
X229500792Y-135913456D01*
X229454980Y-135999617D01*
X229432191Y-136054909D01*
X229408622Y-136109898D01*
X229405897Y-136118701D01*
X229377692Y-136212119D01*
X229366067Y-136270826D01*
X229353635Y-136329316D01*
X229352673Y-136338470D01*
X229352672Y-136338476D01*
X229352672Y-136338481D01*
X229352523Y-136340000D01*
X227956109Y-136340000D01*
X228031355Y-136295178D01*
X228247588Y-136100269D01*
X228421641Y-135866920D01*
X228546825Y-135604099D01*
X228591476Y-135456890D01*
X228470155Y-135227000D01*
X227277000Y-135227000D01*
X227277000Y-135247000D01*
X227023000Y-135247000D01*
X227023000Y-135227000D01*
X225829845Y-135227000D01*
X225708524Y-135456890D01*
X225753175Y-135604099D01*
X225878359Y-135866920D01*
X226052412Y-136100269D01*
X226268645Y-136295178D01*
X226343891Y-136340000D01*
X224206109Y-136340000D01*
X224281355Y-136295178D01*
X224497588Y-136100269D01*
X224671641Y-135866920D01*
X224796825Y-135604099D01*
X224841476Y-135456890D01*
X224720155Y-135227000D01*
X223527000Y-135227000D01*
X223527000Y-135247000D01*
X223273000Y-135247000D01*
X223273000Y-135227000D01*
X222079845Y-135227000D01*
X221958524Y-135456890D01*
X222003175Y-135604099D01*
X222128359Y-135866920D01*
X222302412Y-136100269D01*
X222518645Y-136295178D01*
X222593891Y-136340000D01*
X218406109Y-136340000D01*
X218481355Y-136295178D01*
X218697588Y-136100269D01*
X218871641Y-135866920D01*
X218996825Y-135604099D01*
X219041476Y-135456890D01*
X218920155Y-135227000D01*
X217727000Y-135227000D01*
X217727000Y-135247000D01*
X217473000Y-135247000D01*
X217473000Y-135227000D01*
X216279845Y-135227000D01*
X216158524Y-135456890D01*
X216203175Y-135604099D01*
X216328359Y-135866920D01*
X216502412Y-136100269D01*
X216718645Y-136295178D01*
X216793891Y-136340000D01*
X214706109Y-136340000D01*
X214781355Y-136295178D01*
X214997588Y-136100269D01*
X215171641Y-135866920D01*
X215296825Y-135604099D01*
X215341476Y-135456890D01*
X215220155Y-135227000D01*
X214027000Y-135227000D01*
X214027000Y-135247000D01*
X213773000Y-135247000D01*
X213773000Y-135227000D01*
X212579845Y-135227000D01*
X212458524Y-135456890D01*
X212503175Y-135604099D01*
X212628359Y-135866920D01*
X212802412Y-136100269D01*
X213018645Y-136295178D01*
X213093891Y-136340000D01*
X210393191Y-136340000D01*
X210430537Y-136294494D01*
X210489502Y-136184180D01*
X210525812Y-136064482D01*
X210538072Y-135940000D01*
X210535000Y-135375750D01*
X210376250Y-135217000D01*
X209177000Y-135217000D01*
X209177000Y-135237000D01*
X208923000Y-135237000D01*
X208923000Y-135217000D01*
X208903000Y-135217000D01*
X208903000Y-134963000D01*
X208923000Y-134963000D01*
X208923000Y-134943000D01*
X209177000Y-134943000D01*
X209177000Y-134963000D01*
X210376250Y-134963000D01*
X210535000Y-134804250D01*
X210538072Y-134240000D01*
X210525812Y-134115518D01*
X210489502Y-133995820D01*
X210430537Y-133885506D01*
X210351185Y-133788815D01*
X210254494Y-133709463D01*
X210144180Y-133650498D01*
X210071620Y-133628487D01*
X210203475Y-133496632D01*
X210365990Y-133253411D01*
X210477932Y-132983158D01*
X210535000Y-132696260D01*
X210535000Y-132403740D01*
X210477932Y-132116842D01*
X210365990Y-131846589D01*
X210203475Y-131603368D01*
X209996632Y-131396525D01*
X209753411Y-131234010D01*
X209571499Y-131158660D01*
X209617205Y-131090256D01*
X209695226Y-130901898D01*
X209735000Y-130701939D01*
X209735000Y-130498061D01*
X209695226Y-130298102D01*
X209617205Y-130109744D01*
X209503937Y-129940226D01*
X209359774Y-129796063D01*
X209190256Y-129682795D01*
X209001898Y-129604774D01*
X208801939Y-129565000D01*
X208598061Y-129565000D01*
X208398102Y-129604774D01*
X208209744Y-129682795D01*
X208040226Y-129796063D01*
X207896063Y-129940226D01*
X207782795Y-130109744D01*
X207704774Y-130298102D01*
X207665000Y-130498061D01*
X207665000Y-130701939D01*
X207704774Y-130901898D01*
X207782795Y-131090256D01*
X207896063Y-131259774D01*
X208040226Y-131403937D01*
X208073634Y-131426259D01*
X207896525Y-131603368D01*
X207734010Y-131846589D01*
X207722370Y-131874690D01*
X207716994Y-131338726D01*
X207711230Y-131302156D01*
X207701518Y-131279232D01*
X207687520Y-131258643D01*
X207669774Y-131241182D01*
X207648963Y-131227517D01*
X206408963Y-130577517D01*
X206375548Y-130565596D01*
X206350787Y-130563002D01*
X199375696Y-130519757D01*
X199445226Y-130351898D01*
X199485000Y-130151939D01*
X199485000Y-129948061D01*
X199445226Y-129748102D01*
X199367205Y-129559744D01*
X199253937Y-129390226D01*
X199109774Y-129246063D01*
X198940256Y-129132795D01*
X198751898Y-129054774D01*
X198551939Y-129015000D01*
X198348061Y-129015000D01*
X198148102Y-129054774D01*
X197959744Y-129132795D01*
X197790226Y-129246063D01*
X197646063Y-129390226D01*
X197532795Y-129559744D01*
X197454774Y-129748102D01*
X197415000Y-129948061D01*
X197415000Y-130151939D01*
X197454774Y-130351898D01*
X197519537Y-130508250D01*
X181661376Y-130409931D01*
X181992638Y-130232867D01*
X182196744Y-129876349D01*
X180600000Y-128279605D01*
X179003256Y-129876349D01*
X179207362Y-130232867D01*
X179521786Y-130396666D01*
X178930787Y-130393002D01*
X178894781Y-130397981D01*
X178871653Y-130407196D01*
X178291653Y-130707196D01*
X178280735Y-130713551D01*
X178261299Y-130729109D01*
X178245272Y-130748160D01*
X178233269Y-130769972D01*
X178225752Y-130793706D01*
X178223009Y-130818451D01*
X178155673Y-136340000D01*
X176758399Y-136340000D01*
X176831252Y-136314157D01*
X177081355Y-136165178D01*
X177297588Y-135970269D01*
X177471641Y-135736920D01*
X177596825Y-135474099D01*
X177641476Y-135326890D01*
X177520155Y-135097000D01*
X176327000Y-135097000D01*
X176327000Y-135117000D01*
X176073000Y-135117000D01*
X176073000Y-135097000D01*
X174879845Y-135097000D01*
X174758524Y-135326890D01*
X174803175Y-135474099D01*
X174928359Y-135736920D01*
X175102412Y-135970269D01*
X175318645Y-136165178D01*
X175568748Y-136314157D01*
X175641601Y-136340000D01*
X173686790Y-136340000D01*
X173704494Y-136330537D01*
X173801185Y-136251185D01*
X173880537Y-136154494D01*
X173939502Y-136044180D01*
X173975812Y-135924482D01*
X173988072Y-135800000D01*
X173985000Y-135235750D01*
X173826250Y-135077000D01*
X172627000Y-135077000D01*
X172627000Y-135097000D01*
X172373000Y-135097000D01*
X172373000Y-135077000D01*
X171173750Y-135077000D01*
X171015000Y-135235750D01*
X171011928Y-135800000D01*
X171022310Y-135905411D01*
X170891712Y-135747546D01*
X170767622Y-135518046D01*
X170690469Y-135268805D01*
X170660000Y-134978911D01*
X170660000Y-134100000D01*
X171011928Y-134100000D01*
X171015000Y-134664250D01*
X171173750Y-134823000D01*
X172373000Y-134823000D01*
X172373000Y-134803000D01*
X172627000Y-134803000D01*
X172627000Y-134823000D01*
X173826250Y-134823000D01*
X173985000Y-134664250D01*
X173988072Y-134100000D01*
X173975812Y-133975518D01*
X173939502Y-133855820D01*
X173880537Y-133745506D01*
X173801185Y-133648815D01*
X173704494Y-133569463D01*
X173594180Y-133510498D01*
X173521620Y-133488487D01*
X173653475Y-133356632D01*
X173815990Y-133113411D01*
X173927932Y-132843158D01*
X173985000Y-132556260D01*
X173985000Y-132263740D01*
X173927932Y-131976842D01*
X173815990Y-131706589D01*
X173653475Y-131463368D01*
X173446632Y-131256525D01*
X173203411Y-131094010D01*
X172933158Y-130982068D01*
X172646260Y-130925000D01*
X172353740Y-130925000D01*
X172066842Y-130982068D01*
X171796589Y-131094010D01*
X171553368Y-131256525D01*
X171346525Y-131463368D01*
X171184010Y-131706589D01*
X171072068Y-131976842D01*
X171015000Y-132263740D01*
X171015000Y-132556260D01*
X171072068Y-132843158D01*
X171184010Y-133113411D01*
X171346525Y-133356632D01*
X171478380Y-133488487D01*
X171405820Y-133510498D01*
X171295506Y-133569463D01*
X171198815Y-133648815D01*
X171119463Y-133745506D01*
X171060498Y-133855820D01*
X171024188Y-133975518D01*
X171011928Y-134100000D01*
X170660000Y-134100000D01*
X170660000Y-129398061D01*
X171465000Y-129398061D01*
X171465000Y-129601939D01*
X171504774Y-129801898D01*
X171582795Y-129990256D01*
X171696063Y-130159774D01*
X171840226Y-130303937D01*
X172009744Y-130417205D01*
X172198102Y-130495226D01*
X172398061Y-130535000D01*
X172601939Y-130535000D01*
X172801898Y-130495226D01*
X172990256Y-130417205D01*
X173159774Y-130303937D01*
X173303937Y-130159774D01*
X173417205Y-129990256D01*
X173495226Y-129801898D01*
X173535000Y-129601939D01*
X173535000Y-129398061D01*
X173495226Y-129198102D01*
X173417205Y-129009744D01*
X173303937Y-128840226D01*
X173159774Y-128696063D01*
X172990256Y-128582795D01*
X172801898Y-128504774D01*
X172601939Y-128465000D01*
X172398061Y-128465000D01*
X172198102Y-128504774D01*
X172009744Y-128582795D01*
X171840226Y-128696063D01*
X171696063Y-128840226D01*
X171582795Y-129009744D01*
X171504774Y-129198102D01*
X171465000Y-129398061D01*
X170660000Y-129398061D01*
X170660000Y-126500000D01*
X174711928Y-126500000D01*
X174711928Y-128200000D01*
X174724188Y-128324482D01*
X174760498Y-128444180D01*
X174819463Y-128554494D01*
X174898815Y-128651185D01*
X174995506Y-128730537D01*
X175105820Y-128789502D01*
X175178380Y-128811513D01*
X175046525Y-128943368D01*
X174884010Y-129186589D01*
X174772068Y-129456842D01*
X174715000Y-129743740D01*
X174715000Y-130036260D01*
X174772068Y-130323158D01*
X174884010Y-130593411D01*
X175046525Y-130836632D01*
X175253368Y-131043475D01*
X175427760Y-131160000D01*
X175253368Y-131276525D01*
X175046525Y-131483368D01*
X174884010Y-131726589D01*
X174772068Y-131996842D01*
X174715000Y-132283740D01*
X174715000Y-132576260D01*
X174772068Y-132863158D01*
X174884010Y-133133411D01*
X175046525Y-133376632D01*
X175253368Y-133583475D01*
X175435534Y-133705195D01*
X175318645Y-133774822D01*
X175102412Y-133969731D01*
X174928359Y-134203080D01*
X174803175Y-134465901D01*
X174758524Y-134613110D01*
X174879845Y-134843000D01*
X176073000Y-134843000D01*
X176073000Y-134823000D01*
X176327000Y-134823000D01*
X176327000Y-134843000D01*
X177520155Y-134843000D01*
X177641476Y-134613110D01*
X177596825Y-134465901D01*
X177471641Y-134203080D01*
X177297588Y-133969731D01*
X177081355Y-133774822D01*
X176964466Y-133705195D01*
X177146632Y-133583475D01*
X177353475Y-133376632D01*
X177515990Y-133133411D01*
X177627932Y-132863158D01*
X177685000Y-132576260D01*
X177685000Y-132283740D01*
X177627932Y-131996842D01*
X177515990Y-131726589D01*
X177353475Y-131483368D01*
X177146632Y-131276525D01*
X176972240Y-131160000D01*
X177146632Y-131043475D01*
X177353475Y-130836632D01*
X177515990Y-130593411D01*
X177627932Y-130323158D01*
X177685000Y-130036260D01*
X177685000Y-129743740D01*
X177627932Y-129456842D01*
X177515990Y-129186589D01*
X177353475Y-128943368D01*
X177221620Y-128811513D01*
X177294180Y-128789502D01*
X177404494Y-128730537D01*
X177501185Y-128651185D01*
X177580537Y-128554494D01*
X177639502Y-128444180D01*
X177675812Y-128324482D01*
X177688072Y-128200000D01*
X177688072Y-128127021D01*
X178052877Y-128127021D01*
X178107091Y-128623422D01*
X178257106Y-129099707D01*
X178467133Y-129492638D01*
X178823651Y-129696744D01*
X180420395Y-128100000D01*
X180779605Y-128100000D01*
X182376349Y-129696744D01*
X182732867Y-129492638D01*
X182963575Y-129049777D01*
X183103452Y-128570417D01*
X183147123Y-128072979D01*
X183138941Y-127998060D01*
X189115000Y-127998060D01*
X189115000Y-128201938D01*
X189154774Y-128401897D01*
X189232795Y-128590255D01*
X189346063Y-128759773D01*
X189490226Y-128903936D01*
X189659744Y-129017204D01*
X189848102Y-129095225D01*
X190048061Y-129134999D01*
X190251939Y-129134999D01*
X190451898Y-129095225D01*
X190640256Y-129017204D01*
X190809774Y-128903936D01*
X190953937Y-128759773D01*
X191067205Y-128590255D01*
X191145226Y-128401897D01*
X191185000Y-128201938D01*
X191185000Y-127998060D01*
X191145226Y-127798101D01*
X191067205Y-127609743D01*
X190972312Y-127467725D01*
X196695325Y-127467725D01*
X196695325Y-127671603D01*
X196735099Y-127871562D01*
X196813120Y-128059920D01*
X196926388Y-128229438D01*
X197070551Y-128373601D01*
X197240069Y-128486869D01*
X197428427Y-128564890D01*
X197628386Y-128604664D01*
X197832264Y-128604664D01*
X198032223Y-128564890D01*
X198220581Y-128486869D01*
X198390099Y-128373601D01*
X198534262Y-128229438D01*
X198647530Y-128059920D01*
X198725551Y-127871562D01*
X198765325Y-127671603D01*
X198765325Y-127467725D01*
X198725551Y-127267766D01*
X198647530Y-127079408D01*
X198534262Y-126909890D01*
X198390099Y-126765727D01*
X198220581Y-126652459D01*
X198032223Y-126574438D01*
X197832264Y-126534664D01*
X197628386Y-126534664D01*
X197428427Y-126574438D01*
X197240069Y-126652459D01*
X197070551Y-126765727D01*
X196926388Y-126909890D01*
X196813120Y-127079408D01*
X196735099Y-127267766D01*
X196695325Y-127467725D01*
X190972312Y-127467725D01*
X190953937Y-127440225D01*
X190809774Y-127296062D01*
X190640256Y-127182794D01*
X190451898Y-127104773D01*
X190251939Y-127064999D01*
X190048061Y-127064999D01*
X189848102Y-127104773D01*
X189659744Y-127182794D01*
X189490226Y-127296062D01*
X189346063Y-127440225D01*
X189232795Y-127609743D01*
X189154774Y-127798101D01*
X189115000Y-127998060D01*
X183138941Y-127998060D01*
X183092909Y-127576578D01*
X182942894Y-127100293D01*
X182732867Y-126707362D01*
X182376349Y-126503256D01*
X180779605Y-128100000D01*
X180420395Y-128100000D01*
X178823651Y-126503256D01*
X178467133Y-126707362D01*
X178236425Y-127150223D01*
X178096548Y-127629583D01*
X178052877Y-128127021D01*
X177688072Y-128127021D01*
X177688072Y-126500000D01*
X177675812Y-126375518D01*
X177660079Y-126323651D01*
X179003256Y-126323651D01*
X180600000Y-127920395D01*
X182196744Y-126323651D01*
X182038970Y-126048061D01*
X198265000Y-126048061D01*
X198265000Y-126251939D01*
X198304774Y-126451898D01*
X198382795Y-126640256D01*
X198496063Y-126809774D01*
X198640226Y-126953937D01*
X198809744Y-127067205D01*
X198998102Y-127145226D01*
X199198061Y-127185000D01*
X199401939Y-127185000D01*
X199601898Y-127145226D01*
X199790256Y-127067205D01*
X199959774Y-126953937D01*
X200103937Y-126809774D01*
X200217205Y-126640256D01*
X200295226Y-126451898D01*
X200335000Y-126251939D01*
X200335000Y-126048061D01*
X200295226Y-125848102D01*
X200217205Y-125659744D01*
X200103937Y-125490226D01*
X199959774Y-125346063D01*
X199790256Y-125232795D01*
X199601898Y-125154774D01*
X199401939Y-125115000D01*
X199198061Y-125115000D01*
X198998102Y-125154774D01*
X198809744Y-125232795D01*
X198640226Y-125346063D01*
X198496063Y-125490226D01*
X198382795Y-125659744D01*
X198304774Y-125848102D01*
X198265000Y-126048061D01*
X182038970Y-126048061D01*
X181992638Y-125967133D01*
X181549777Y-125736425D01*
X181070417Y-125596548D01*
X180572979Y-125552877D01*
X180076578Y-125607091D01*
X179600293Y-125757106D01*
X179207362Y-125967133D01*
X179003256Y-126323651D01*
X177660079Y-126323651D01*
X177639502Y-126255820D01*
X177580537Y-126145506D01*
X177501185Y-126048815D01*
X177404494Y-125969463D01*
X177294180Y-125910498D01*
X177174482Y-125874188D01*
X177050000Y-125861928D01*
X175350000Y-125861928D01*
X175225518Y-125874188D01*
X175105820Y-125910498D01*
X174995506Y-125969463D01*
X174898815Y-126048815D01*
X174819463Y-126145506D01*
X174760498Y-126255820D01*
X174724188Y-126375518D01*
X174711928Y-126500000D01*
X170660000Y-126500000D01*
X170660000Y-124898061D01*
X170865000Y-124898061D01*
X170865000Y-125101939D01*
X170904774Y-125301898D01*
X170982795Y-125490256D01*
X171096063Y-125659774D01*
X171240226Y-125803937D01*
X171409744Y-125917205D01*
X171598102Y-125995226D01*
X171798061Y-126035000D01*
X172001939Y-126035000D01*
X172201898Y-125995226D01*
X172390256Y-125917205D01*
X172559774Y-125803937D01*
X172703937Y-125659774D01*
X172817205Y-125490256D01*
X172895226Y-125301898D01*
X172935000Y-125101939D01*
X172935000Y-124988072D01*
X174420000Y-124988072D01*
X174544482Y-124975812D01*
X174664180Y-124939502D01*
X174774494Y-124880537D01*
X174871185Y-124801185D01*
X174950537Y-124704494D01*
X175009502Y-124594180D01*
X175031513Y-124521620D01*
X175163368Y-124653475D01*
X175406589Y-124815990D01*
X175676842Y-124927932D01*
X175963740Y-124985000D01*
X176256260Y-124985000D01*
X176543158Y-124927932D01*
X176813411Y-124815990D01*
X177056632Y-124653475D01*
X177263475Y-124446632D01*
X177385195Y-124264466D01*
X177454822Y-124381355D01*
X177649731Y-124597588D01*
X177883080Y-124771641D01*
X178145901Y-124896825D01*
X178293110Y-124941476D01*
X178523000Y-124820155D01*
X178523000Y-123627000D01*
X178777000Y-123627000D01*
X178777000Y-124820155D01*
X179006890Y-124941476D01*
X179154099Y-124896825D01*
X179416920Y-124771641D01*
X179650269Y-124597588D01*
X179845178Y-124381355D01*
X179994157Y-124131252D01*
X180091481Y-123856891D01*
X179970814Y-123627000D01*
X178777000Y-123627000D01*
X178523000Y-123627000D01*
X178503000Y-123627000D01*
X178503000Y-123373000D01*
X178523000Y-123373000D01*
X178523000Y-122179845D01*
X178777000Y-122179845D01*
X178777000Y-123373000D01*
X179970814Y-123373000D01*
X180091481Y-123143109D01*
X179994157Y-122868748D01*
X179845178Y-122618645D01*
X179650269Y-122402412D01*
X179416920Y-122228359D01*
X179154099Y-122103175D01*
X179006890Y-122058524D01*
X178777000Y-122179845D01*
X178523000Y-122179845D01*
X178293110Y-122058524D01*
X178145901Y-122103175D01*
X177883080Y-122228359D01*
X177649731Y-122402412D01*
X177454822Y-122618645D01*
X177385195Y-122735534D01*
X177263475Y-122553368D01*
X177056632Y-122346525D01*
X176813411Y-122184010D01*
X176543158Y-122072068D01*
X176256260Y-122015000D01*
X175963740Y-122015000D01*
X175676842Y-122072068D01*
X175406589Y-122184010D01*
X175163368Y-122346525D01*
X175031513Y-122478380D01*
X175009502Y-122405820D01*
X174950537Y-122295506D01*
X174871185Y-122198815D01*
X174774494Y-122119463D01*
X174664180Y-122060498D01*
X174544482Y-122024188D01*
X174420000Y-122011928D01*
X172720000Y-122011928D01*
X172595518Y-122024188D01*
X172475820Y-122060498D01*
X172365506Y-122119463D01*
X172268815Y-122198815D01*
X172189463Y-122295506D01*
X172130498Y-122405820D01*
X172094188Y-122525518D01*
X172081928Y-122650000D01*
X172081928Y-123980911D01*
X172001939Y-123965000D01*
X171798061Y-123965000D01*
X171598102Y-124004774D01*
X171409744Y-124082795D01*
X171240226Y-124196063D01*
X171096063Y-124340226D01*
X170982795Y-124509744D01*
X170904774Y-124698102D01*
X170865000Y-124898061D01*
X170660000Y-124898061D01*
X170660000Y-121598061D01*
X180265000Y-121598061D01*
X180265000Y-121801939D01*
X180304774Y-122001898D01*
X180382795Y-122190256D01*
X180496063Y-122359774D01*
X180640226Y-122503937D01*
X180809744Y-122617205D01*
X180998102Y-122695226D01*
X181198061Y-122735000D01*
X181321576Y-122735000D01*
X181354774Y-122901898D01*
X181432795Y-123090256D01*
X181521853Y-123223541D01*
X181507464Y-123245075D01*
X181429443Y-123433433D01*
X181389669Y-123633392D01*
X181389669Y-123837270D01*
X181429443Y-124037229D01*
X181507464Y-124225587D01*
X181620732Y-124395105D01*
X181764895Y-124539268D01*
X181934413Y-124652536D01*
X182122771Y-124730557D01*
X182322730Y-124770331D01*
X182526608Y-124770331D01*
X182726567Y-124730557D01*
X182914925Y-124652536D01*
X183084443Y-124539268D01*
X183228606Y-124395105D01*
X183341874Y-124225587D01*
X183394697Y-124098061D01*
X203365000Y-124098061D01*
X203365000Y-124301939D01*
X203404774Y-124501898D01*
X203482795Y-124690256D01*
X203596063Y-124859774D01*
X203740226Y-125003937D01*
X203893224Y-125106167D01*
X203865000Y-125248061D01*
X203865000Y-125451939D01*
X203904774Y-125651898D01*
X203982795Y-125840256D01*
X204096063Y-126009774D01*
X204142738Y-126056449D01*
X204104774Y-126148102D01*
X204065000Y-126348061D01*
X204065000Y-126551939D01*
X204104774Y-126751898D01*
X204182795Y-126940256D01*
X204296063Y-127109774D01*
X204440226Y-127253937D01*
X204609744Y-127367205D01*
X204798102Y-127445226D01*
X204998061Y-127485000D01*
X205201939Y-127485000D01*
X205401898Y-127445226D01*
X205590256Y-127367205D01*
X205759774Y-127253937D01*
X205903937Y-127109774D01*
X206017205Y-126940256D01*
X206095226Y-126751898D01*
X206119472Y-126630000D01*
X212411928Y-126630000D01*
X212411928Y-128330000D01*
X212424188Y-128454482D01*
X212460498Y-128574180D01*
X212519463Y-128684494D01*
X212598815Y-128781185D01*
X212695506Y-128860537D01*
X212805820Y-128919502D01*
X212878380Y-128941513D01*
X212746525Y-129073368D01*
X212584010Y-129316589D01*
X212472068Y-129586842D01*
X212415000Y-129873740D01*
X212415000Y-130166260D01*
X212472068Y-130453158D01*
X212584010Y-130723411D01*
X212746525Y-130966632D01*
X212953368Y-131173475D01*
X213127760Y-131290000D01*
X212953368Y-131406525D01*
X212746525Y-131613368D01*
X212584010Y-131856589D01*
X212472068Y-132126842D01*
X212415000Y-132413740D01*
X212415000Y-132706260D01*
X212472068Y-132993158D01*
X212584010Y-133263411D01*
X212746525Y-133506632D01*
X212953368Y-133713475D01*
X213135534Y-133835195D01*
X213018645Y-133904822D01*
X212802412Y-134099731D01*
X212628359Y-134333080D01*
X212503175Y-134595901D01*
X212458524Y-134743110D01*
X212579845Y-134973000D01*
X213773000Y-134973000D01*
X213773000Y-134953000D01*
X214027000Y-134953000D01*
X214027000Y-134973000D01*
X215220155Y-134973000D01*
X215341476Y-134743110D01*
X215296825Y-134595901D01*
X215171641Y-134333080D01*
X214997588Y-134099731D01*
X214781355Y-133904822D01*
X214664466Y-133835195D01*
X214846632Y-133713475D01*
X215053475Y-133506632D01*
X215215990Y-133263411D01*
X215327932Y-132993158D01*
X215385000Y-132706260D01*
X215385000Y-132413740D01*
X215327932Y-132126842D01*
X215215990Y-131856589D01*
X215053475Y-131613368D01*
X214846632Y-131406525D01*
X214672240Y-131290000D01*
X214846632Y-131173475D01*
X215053475Y-130966632D01*
X215215990Y-130723411D01*
X215327932Y-130453158D01*
X215385000Y-130166260D01*
X215385000Y-129873740D01*
X215327932Y-129586842D01*
X215215990Y-129316589D01*
X215053475Y-129073368D01*
X214921620Y-128941513D01*
X214994180Y-128919502D01*
X215104494Y-128860537D01*
X215201185Y-128781185D01*
X215280537Y-128684494D01*
X215339502Y-128574180D01*
X215375812Y-128454482D01*
X215388072Y-128330000D01*
X215388072Y-126630000D01*
X215375812Y-126505518D01*
X215339502Y-126385820D01*
X215280751Y-126275906D01*
X215448102Y-126345226D01*
X215648061Y-126385000D01*
X215851939Y-126385000D01*
X216051898Y-126345226D01*
X216219249Y-126275906D01*
X216160498Y-126385820D01*
X216124188Y-126505518D01*
X216111928Y-126630000D01*
X216111928Y-128330000D01*
X216124188Y-128454482D01*
X216160498Y-128574180D01*
X216219463Y-128684494D01*
X216298815Y-128781185D01*
X216395506Y-128860537D01*
X216505820Y-128919502D01*
X216578380Y-128941513D01*
X216446525Y-129073368D01*
X216284010Y-129316589D01*
X216172068Y-129586842D01*
X216115000Y-129873740D01*
X216115000Y-130166260D01*
X216172068Y-130453158D01*
X216284010Y-130723411D01*
X216446525Y-130966632D01*
X216653368Y-131173475D01*
X216827760Y-131290000D01*
X216653368Y-131406525D01*
X216446525Y-131613368D01*
X216284010Y-131856589D01*
X216172068Y-132126842D01*
X216115000Y-132413740D01*
X216115000Y-132706260D01*
X216172068Y-132993158D01*
X216284010Y-133263411D01*
X216446525Y-133506632D01*
X216653368Y-133713475D01*
X216835534Y-133835195D01*
X216718645Y-133904822D01*
X216502412Y-134099731D01*
X216328359Y-134333080D01*
X216203175Y-134595901D01*
X216158524Y-134743110D01*
X216279845Y-134973000D01*
X217473000Y-134973000D01*
X217473000Y-134953000D01*
X217727000Y-134953000D01*
X217727000Y-134973000D01*
X218920155Y-134973000D01*
X219041476Y-134743110D01*
X218996825Y-134595901D01*
X218871641Y-134333080D01*
X218697588Y-134099731D01*
X218481355Y-133904822D01*
X218364466Y-133835195D01*
X218546632Y-133713475D01*
X218753475Y-133506632D01*
X218915990Y-133263411D01*
X219027932Y-132993158D01*
X219085000Y-132706260D01*
X219085000Y-132413740D01*
X219027932Y-132126842D01*
X218915990Y-131856589D01*
X218753475Y-131613368D01*
X218546632Y-131406525D01*
X218372240Y-131290000D01*
X218546632Y-131173475D01*
X218753475Y-130966632D01*
X218915990Y-130723411D01*
X219027932Y-130453158D01*
X219085000Y-130166260D01*
X219085000Y-129873740D01*
X219027932Y-129586842D01*
X218915990Y-129316589D01*
X218818043Y-129170000D01*
X221911928Y-129170000D01*
X221911928Y-130870000D01*
X221924188Y-130994482D01*
X221960498Y-131114180D01*
X222019463Y-131224494D01*
X222098815Y-131321185D01*
X222195506Y-131400537D01*
X222305820Y-131459502D01*
X222378380Y-131481513D01*
X222246525Y-131613368D01*
X222084010Y-131856589D01*
X221972068Y-132126842D01*
X221915000Y-132413740D01*
X221915000Y-132706260D01*
X221972068Y-132993158D01*
X222084010Y-133263411D01*
X222246525Y-133506632D01*
X222453368Y-133713475D01*
X222635534Y-133835195D01*
X222518645Y-133904822D01*
X222302412Y-134099731D01*
X222128359Y-134333080D01*
X222003175Y-134595901D01*
X221958524Y-134743110D01*
X222079845Y-134973000D01*
X223273000Y-134973000D01*
X223273000Y-134953000D01*
X223527000Y-134953000D01*
X223527000Y-134973000D01*
X224720155Y-134973000D01*
X224841476Y-134743110D01*
X224796825Y-134595901D01*
X224671641Y-134333080D01*
X224497588Y-134099731D01*
X224281355Y-133904822D01*
X224164466Y-133835195D01*
X224346632Y-133713475D01*
X224553475Y-133506632D01*
X224715990Y-133263411D01*
X224827932Y-132993158D01*
X224885000Y-132706260D01*
X224885000Y-132413740D01*
X224827932Y-132126842D01*
X224715990Y-131856589D01*
X224553475Y-131613368D01*
X224421620Y-131481513D01*
X224494180Y-131459502D01*
X224604494Y-131400537D01*
X224701185Y-131321185D01*
X224780537Y-131224494D01*
X224839502Y-131114180D01*
X224875812Y-130994482D01*
X224888072Y-130870000D01*
X224888072Y-129170000D01*
X225661928Y-129170000D01*
X225661928Y-130870000D01*
X225674188Y-130994482D01*
X225710498Y-131114180D01*
X225769463Y-131224494D01*
X225848815Y-131321185D01*
X225945506Y-131400537D01*
X226055820Y-131459502D01*
X226128380Y-131481513D01*
X225996525Y-131613368D01*
X225834010Y-131856589D01*
X225722068Y-132126842D01*
X225665000Y-132413740D01*
X225665000Y-132706260D01*
X225722068Y-132993158D01*
X225834010Y-133263411D01*
X225996525Y-133506632D01*
X226203368Y-133713475D01*
X226385534Y-133835195D01*
X226268645Y-133904822D01*
X226052412Y-134099731D01*
X225878359Y-134333080D01*
X225753175Y-134595901D01*
X225708524Y-134743110D01*
X225829845Y-134973000D01*
X227023000Y-134973000D01*
X227023000Y-134953000D01*
X227277000Y-134953000D01*
X227277000Y-134973000D01*
X228470155Y-134973000D01*
X228591476Y-134743110D01*
X228546825Y-134595901D01*
X228421641Y-134333080D01*
X228247588Y-134099731D01*
X228031355Y-133904822D01*
X227914466Y-133835195D01*
X228096632Y-133713475D01*
X228303475Y-133506632D01*
X228465990Y-133263411D01*
X228577932Y-132993158D01*
X228635000Y-132706260D01*
X228635000Y-132413740D01*
X228577932Y-132126842D01*
X228465990Y-131856589D01*
X228303475Y-131613368D01*
X228171620Y-131481513D01*
X228244180Y-131459502D01*
X228354494Y-131400537D01*
X228451185Y-131321185D01*
X228530537Y-131224494D01*
X228589502Y-131114180D01*
X228625812Y-130994482D01*
X228638072Y-130870000D01*
X228638072Y-129170000D01*
X228625812Y-129045518D01*
X228589502Y-128925820D01*
X228530537Y-128815506D01*
X228451185Y-128718815D01*
X228354494Y-128639463D01*
X228244180Y-128580498D01*
X228124482Y-128544188D01*
X228000000Y-128531928D01*
X226300000Y-128531928D01*
X226175518Y-128544188D01*
X226055820Y-128580498D01*
X225945506Y-128639463D01*
X225848815Y-128718815D01*
X225769463Y-128815506D01*
X225710498Y-128925820D01*
X225674188Y-129045518D01*
X225661928Y-129170000D01*
X224888072Y-129170000D01*
X224875812Y-129045518D01*
X224839502Y-128925820D01*
X224780537Y-128815506D01*
X224701185Y-128718815D01*
X224604494Y-128639463D01*
X224494180Y-128580498D01*
X224374482Y-128544188D01*
X224250000Y-128531928D01*
X222550000Y-128531928D01*
X222425518Y-128544188D01*
X222305820Y-128580498D01*
X222195506Y-128639463D01*
X222098815Y-128718815D01*
X222019463Y-128815506D01*
X221960498Y-128925820D01*
X221924188Y-129045518D01*
X221911928Y-129170000D01*
X218818043Y-129170000D01*
X218753475Y-129073368D01*
X218621620Y-128941513D01*
X218694180Y-128919502D01*
X218804494Y-128860537D01*
X218901185Y-128781185D01*
X218980537Y-128684494D01*
X219039502Y-128574180D01*
X219075812Y-128454482D01*
X219088072Y-128330000D01*
X219088072Y-126630000D01*
X219075812Y-126505518D01*
X219057864Y-126446349D01*
X221103256Y-126446349D01*
X221307362Y-126802867D01*
X221750223Y-127033575D01*
X222229583Y-127173452D01*
X222727021Y-127217123D01*
X223223422Y-127162909D01*
X223699707Y-127012894D01*
X224092638Y-126802867D01*
X224296744Y-126446349D01*
X222700000Y-124849605D01*
X221103256Y-126446349D01*
X219057864Y-126446349D01*
X219039502Y-126385820D01*
X218980537Y-126275506D01*
X218901185Y-126178815D01*
X218804494Y-126099463D01*
X218694180Y-126040498D01*
X218574482Y-126004188D01*
X218450000Y-125991928D01*
X216750000Y-125991928D01*
X216625518Y-126004188D01*
X216530787Y-126032924D01*
X216553937Y-126009774D01*
X216667205Y-125840256D01*
X216745226Y-125651898D01*
X216785000Y-125451939D01*
X216785000Y-125248061D01*
X216745226Y-125048102D01*
X216667205Y-124859744D01*
X216558478Y-124697021D01*
X220152877Y-124697021D01*
X220207091Y-125193422D01*
X220357106Y-125669707D01*
X220567133Y-126062638D01*
X220923651Y-126266744D01*
X222520395Y-124670000D01*
X220923651Y-123073256D01*
X220567133Y-123277362D01*
X220336425Y-123720223D01*
X220196548Y-124199583D01*
X220152877Y-124697021D01*
X216558478Y-124697021D01*
X216553937Y-124690226D01*
X216409774Y-124546063D01*
X216240256Y-124432795D01*
X216051898Y-124354774D01*
X215851939Y-124315000D01*
X215648061Y-124315000D01*
X215448102Y-124354774D01*
X215259744Y-124432795D01*
X215090226Y-124546063D01*
X214946063Y-124690226D01*
X214832795Y-124859744D01*
X214754774Y-125048102D01*
X214715000Y-125248061D01*
X214715000Y-125451939D01*
X214754774Y-125651898D01*
X214832795Y-125840256D01*
X214946063Y-126009774D01*
X214969213Y-126032924D01*
X214874482Y-126004188D01*
X214750000Y-125991928D01*
X213050000Y-125991928D01*
X212925518Y-126004188D01*
X212805820Y-126040498D01*
X212695506Y-126099463D01*
X212598815Y-126178815D01*
X212519463Y-126275506D01*
X212460498Y-126385820D01*
X212424188Y-126505518D01*
X212411928Y-126630000D01*
X206119472Y-126630000D01*
X206135000Y-126551939D01*
X206135000Y-126348061D01*
X206095226Y-126148102D01*
X206017205Y-125959744D01*
X205903937Y-125790226D01*
X205857262Y-125743551D01*
X205895226Y-125651898D01*
X205935000Y-125451939D01*
X205935000Y-125248061D01*
X205895226Y-125048102D01*
X205817205Y-124859744D01*
X205703937Y-124690226D01*
X205559774Y-124546063D01*
X205406776Y-124443833D01*
X205435000Y-124301939D01*
X205435000Y-124098061D01*
X205395226Y-123898102D01*
X205333077Y-123748061D01*
X211415000Y-123748061D01*
X211415000Y-123951939D01*
X211454774Y-124151898D01*
X211532795Y-124340256D01*
X211646063Y-124509774D01*
X211790226Y-124653937D01*
X211959744Y-124767205D01*
X212148102Y-124845226D01*
X212348061Y-124885000D01*
X212551939Y-124885000D01*
X212751898Y-124845226D01*
X212940256Y-124767205D01*
X213109774Y-124653937D01*
X213253937Y-124509774D01*
X213367205Y-124340256D01*
X213445226Y-124151898D01*
X213485000Y-123951939D01*
X213485000Y-123748061D01*
X213445226Y-123548102D01*
X213367205Y-123359744D01*
X213253937Y-123190226D01*
X213109774Y-123046063D01*
X212940256Y-122932795D01*
X212845755Y-122893651D01*
X221103256Y-122893651D01*
X222700000Y-124490395D01*
X222714143Y-124476253D01*
X222893748Y-124655858D01*
X222879605Y-124670000D01*
X224476349Y-126266744D01*
X224547248Y-126226154D01*
X224602795Y-126360256D01*
X224716063Y-126529774D01*
X224860226Y-126673937D01*
X225029744Y-126787205D01*
X225218102Y-126865226D01*
X225418061Y-126905000D01*
X225621939Y-126905000D01*
X225821898Y-126865226D01*
X226010256Y-126787205D01*
X226077585Y-126742217D01*
X226219744Y-126837205D01*
X226408102Y-126915226D01*
X226608061Y-126955000D01*
X226811939Y-126955000D01*
X227011898Y-126915226D01*
X227200256Y-126837205D01*
X227369774Y-126723937D01*
X227513937Y-126579774D01*
X227627205Y-126410256D01*
X227705226Y-126221898D01*
X227745000Y-126021939D01*
X227745000Y-125818061D01*
X227705226Y-125618102D01*
X227627205Y-125429744D01*
X227513937Y-125260226D01*
X227369774Y-125116063D01*
X227200256Y-125002795D01*
X227011898Y-124924774D01*
X226811939Y-124885000D01*
X226608061Y-124885000D01*
X226408102Y-124924774D01*
X226219744Y-125002795D01*
X226152415Y-125047783D01*
X226010256Y-124952795D01*
X225821898Y-124874774D01*
X225621939Y-124835000D01*
X225418061Y-124835000D01*
X225226927Y-124873019D01*
X225247123Y-124642979D01*
X225192909Y-124146578D01*
X225042894Y-123670293D01*
X224832867Y-123277362D01*
X224476351Y-123073257D01*
X224572949Y-122976660D01*
X224650226Y-123053937D01*
X224819744Y-123167205D01*
X225008102Y-123245226D01*
X225208061Y-123285000D01*
X225411939Y-123285000D01*
X225611898Y-123245226D01*
X225800256Y-123167205D01*
X225969774Y-123053937D01*
X226113937Y-122909774D01*
X226227205Y-122740256D01*
X226305226Y-122551898D01*
X226345000Y-122351939D01*
X226345000Y-122196598D01*
X226351898Y-122195226D01*
X226540256Y-122117205D01*
X226709774Y-122003937D01*
X226853937Y-121859774D01*
X226967205Y-121690256D01*
X227045226Y-121501898D01*
X227085000Y-121301939D01*
X227085000Y-121098061D01*
X227045226Y-120898102D01*
X226967205Y-120709744D01*
X226853937Y-120540226D01*
X226709774Y-120396063D01*
X226540256Y-120282795D01*
X226351898Y-120204774D01*
X226151939Y-120165000D01*
X225948061Y-120165000D01*
X225748102Y-120204774D01*
X225559744Y-120282795D01*
X225390226Y-120396063D01*
X225246063Y-120540226D01*
X225132795Y-120709744D01*
X225054774Y-120898102D01*
X225015000Y-121098061D01*
X225015000Y-121253402D01*
X225008102Y-121254774D01*
X224819744Y-121332795D01*
X224650226Y-121446063D01*
X224506063Y-121590226D01*
X224392795Y-121759744D01*
X224314774Y-121948102D01*
X224275000Y-122148061D01*
X224275000Y-122351939D01*
X224314774Y-122551898D01*
X224392795Y-122740256D01*
X224435144Y-122803636D01*
X224410950Y-122779442D01*
X224296743Y-122893649D01*
X224092638Y-122537133D01*
X223649777Y-122306425D01*
X223170417Y-122166548D01*
X222672979Y-122122877D01*
X222176578Y-122177091D01*
X221700293Y-122327106D01*
X221307362Y-122537133D01*
X221103256Y-122893651D01*
X212845755Y-122893651D01*
X212751898Y-122854774D01*
X212551939Y-122815000D01*
X212348061Y-122815000D01*
X212148102Y-122854774D01*
X211959744Y-122932795D01*
X211790226Y-123046063D01*
X211646063Y-123190226D01*
X211532795Y-123359744D01*
X211454774Y-123548102D01*
X211415000Y-123748061D01*
X205333077Y-123748061D01*
X205317205Y-123709744D01*
X205203937Y-123540226D01*
X205059774Y-123396063D01*
X204890256Y-123282795D01*
X204701898Y-123204774D01*
X204501939Y-123165000D01*
X204298061Y-123165000D01*
X204098102Y-123204774D01*
X203909744Y-123282795D01*
X203740226Y-123396063D01*
X203596063Y-123540226D01*
X203482795Y-123709744D01*
X203404774Y-123898102D01*
X203365000Y-124098061D01*
X183394697Y-124098061D01*
X183419895Y-124037229D01*
X183459669Y-123837270D01*
X183459669Y-123633392D01*
X183419895Y-123433433D01*
X183341874Y-123245075D01*
X183252816Y-123111790D01*
X183267205Y-123090256D01*
X183345226Y-122901898D01*
X183385000Y-122701939D01*
X183385000Y-122498061D01*
X183345226Y-122298102D01*
X183267205Y-122109744D01*
X183153937Y-121940226D01*
X183009774Y-121796063D01*
X182840256Y-121682795D01*
X182651898Y-121604774D01*
X182451939Y-121565000D01*
X182328424Y-121565000D01*
X182295226Y-121398102D01*
X182217205Y-121209744D01*
X182103937Y-121040226D01*
X181959774Y-120896063D01*
X181790256Y-120782795D01*
X181601898Y-120704774D01*
X181401939Y-120665000D01*
X181198061Y-120665000D01*
X180998102Y-120704774D01*
X180809744Y-120782795D01*
X180640226Y-120896063D01*
X180496063Y-121040226D01*
X180382795Y-121209744D01*
X180304774Y-121398102D01*
X180265000Y-121598061D01*
X170660000Y-121598061D01*
X170660000Y-119828269D01*
X175101336Y-119828269D01*
X175315055Y-120192981D01*
X175771528Y-120431666D01*
X176265795Y-120576712D01*
X176778862Y-120622544D01*
X177291012Y-120567401D01*
X177782563Y-120413403D01*
X178194945Y-120192981D01*
X178408664Y-119828269D01*
X176755000Y-118174605D01*
X175101336Y-119828269D01*
X170660000Y-119828269D01*
X170660000Y-116598061D01*
X172765000Y-116598061D01*
X172765000Y-116801939D01*
X172804774Y-117001898D01*
X172882795Y-117190256D01*
X172996063Y-117359774D01*
X173140226Y-117503937D01*
X173309744Y-117617205D01*
X173498102Y-117695226D01*
X173698061Y-117735000D01*
X173901939Y-117735000D01*
X174101898Y-117695226D01*
X174158459Y-117671797D01*
X174127456Y-118018862D01*
X174182599Y-118531012D01*
X174336597Y-119022563D01*
X174557019Y-119434945D01*
X174921731Y-119648664D01*
X176575395Y-117995000D01*
X176934605Y-117995000D01*
X178588269Y-119648664D01*
X178952981Y-119434945D01*
X179191666Y-118978472D01*
X179317973Y-118548061D01*
X226115000Y-118548061D01*
X226115000Y-118751939D01*
X226154774Y-118951898D01*
X226232795Y-119140256D01*
X226346063Y-119309774D01*
X226490226Y-119453937D01*
X226659744Y-119567205D01*
X226848102Y-119645226D01*
X227048061Y-119685000D01*
X227251939Y-119685000D01*
X227451898Y-119645226D01*
X227640256Y-119567205D01*
X227809774Y-119453937D01*
X227953937Y-119309774D01*
X228067205Y-119140256D01*
X228145226Y-118951898D01*
X228185000Y-118751939D01*
X228185000Y-118548061D01*
X228145226Y-118348102D01*
X228067205Y-118159744D01*
X227953937Y-117990226D01*
X227809774Y-117846063D01*
X227640256Y-117732795D01*
X227451898Y-117654774D01*
X227251939Y-117615000D01*
X227048061Y-117615000D01*
X226848102Y-117654774D01*
X226659744Y-117732795D01*
X226490226Y-117846063D01*
X226346063Y-117990226D01*
X226232795Y-118159744D01*
X226154774Y-118348102D01*
X226115000Y-118548061D01*
X179317973Y-118548061D01*
X179336712Y-118484205D01*
X179382544Y-117971138D01*
X179327401Y-117458988D01*
X179173403Y-116967437D01*
X179106746Y-116842730D01*
X185359669Y-116842730D01*
X185359669Y-117046608D01*
X185399443Y-117246567D01*
X185477464Y-117434925D01*
X185590732Y-117604443D01*
X185734895Y-117748606D01*
X185904413Y-117861874D01*
X186092771Y-117939895D01*
X186292730Y-117979669D01*
X186496608Y-117979669D01*
X186696567Y-117939895D01*
X186884925Y-117861874D01*
X186980761Y-117797839D01*
X187009744Y-117817205D01*
X187198102Y-117895226D01*
X187398061Y-117935000D01*
X187601939Y-117935000D01*
X187801898Y-117895226D01*
X187928906Y-117842617D01*
X187990226Y-117903937D01*
X188159744Y-118017205D01*
X188348102Y-118095226D01*
X188548061Y-118135000D01*
X188751939Y-118135000D01*
X188951898Y-118095226D01*
X189140256Y-118017205D01*
X189309774Y-117903937D01*
X189453937Y-117759774D01*
X189567205Y-117590256D01*
X189645226Y-117401898D01*
X189685000Y-117201939D01*
X189685000Y-116998061D01*
X189645226Y-116798102D01*
X189567205Y-116609744D01*
X189453937Y-116440226D01*
X189309774Y-116296063D01*
X189140256Y-116182795D01*
X188951898Y-116104774D01*
X188751939Y-116065000D01*
X188548061Y-116065000D01*
X188348102Y-116104774D01*
X188221094Y-116157383D01*
X188159774Y-116096063D01*
X187990256Y-115982795D01*
X187906402Y-115948061D01*
X197715000Y-115948061D01*
X197715000Y-116151939D01*
X197754774Y-116351898D01*
X197832795Y-116540256D01*
X197946063Y-116709774D01*
X198090226Y-116853937D01*
X198259744Y-116967205D01*
X198448102Y-117045226D01*
X198648061Y-117085000D01*
X198851939Y-117085000D01*
X199051898Y-117045226D01*
X199240256Y-116967205D01*
X199409774Y-116853937D01*
X199553937Y-116709774D01*
X199667205Y-116540256D01*
X199745226Y-116351898D01*
X199755934Y-116298061D01*
X212065000Y-116298061D01*
X212065000Y-116501939D01*
X212104774Y-116701898D01*
X212182795Y-116890256D01*
X212296063Y-117059774D01*
X212440226Y-117203937D01*
X212609744Y-117317205D01*
X212798102Y-117395226D01*
X212998061Y-117435000D01*
X213201939Y-117435000D01*
X213401898Y-117395226D01*
X213590256Y-117317205D01*
X213759774Y-117203937D01*
X213903937Y-117059774D01*
X214017205Y-116890256D01*
X214095226Y-116701898D01*
X214135000Y-116501939D01*
X214135000Y-116298061D01*
X214095226Y-116098102D01*
X214017205Y-115909744D01*
X213903937Y-115740226D01*
X213759774Y-115596063D01*
X213590256Y-115482795D01*
X213401898Y-115404774D01*
X213201939Y-115365000D01*
X212998061Y-115365000D01*
X212798102Y-115404774D01*
X212609744Y-115482795D01*
X212440226Y-115596063D01*
X212296063Y-115740226D01*
X212182795Y-115909744D01*
X212104774Y-116098102D01*
X212065000Y-116298061D01*
X199755934Y-116298061D01*
X199785000Y-116151939D01*
X199785000Y-115948061D01*
X199745226Y-115748102D01*
X199667205Y-115559744D01*
X199553937Y-115390226D01*
X199409774Y-115246063D01*
X199240256Y-115132795D01*
X199051898Y-115054774D01*
X198851939Y-115015000D01*
X198648061Y-115015000D01*
X198448102Y-115054774D01*
X198259744Y-115132795D01*
X198090226Y-115246063D01*
X197946063Y-115390226D01*
X197832795Y-115559744D01*
X197754774Y-115748102D01*
X197715000Y-115948061D01*
X187906402Y-115948061D01*
X187801898Y-115904774D01*
X187601939Y-115865000D01*
X187398061Y-115865000D01*
X187198102Y-115904774D01*
X187009744Y-115982795D01*
X186913908Y-116046830D01*
X186884925Y-116027464D01*
X186696567Y-115949443D01*
X186496608Y-115909669D01*
X186292730Y-115909669D01*
X186092771Y-115949443D01*
X185904413Y-116027464D01*
X185734895Y-116140732D01*
X185590732Y-116284895D01*
X185477464Y-116454413D01*
X185399443Y-116642771D01*
X185359669Y-116842730D01*
X179106746Y-116842730D01*
X178952981Y-116555055D01*
X178588269Y-116341336D01*
X176934605Y-117995000D01*
X176575395Y-117995000D01*
X174921731Y-116341336D01*
X174798320Y-116413654D01*
X174795226Y-116398102D01*
X174717205Y-116209744D01*
X174685124Y-116161731D01*
X175101336Y-116161731D01*
X176755000Y-117815395D01*
X178408664Y-116161731D01*
X178194945Y-115797019D01*
X177738472Y-115558334D01*
X177557061Y-115505098D01*
X177667205Y-115340256D01*
X177745226Y-115151898D01*
X177785000Y-114951939D01*
X177785000Y-114748061D01*
X177745226Y-114548102D01*
X177667205Y-114359744D01*
X177553937Y-114190226D01*
X177411772Y-114048061D01*
X186165000Y-114048061D01*
X186165000Y-114251939D01*
X186204774Y-114451898D01*
X186282795Y-114640256D01*
X186396063Y-114809774D01*
X186540226Y-114953937D01*
X186709744Y-115067205D01*
X186898102Y-115145226D01*
X187098061Y-115185000D01*
X187301939Y-115185000D01*
X187501898Y-115145226D01*
X187690256Y-115067205D01*
X187859774Y-114953937D01*
X188003937Y-114809774D01*
X188117205Y-114640256D01*
X188195226Y-114451898D01*
X188235000Y-114251939D01*
X188235000Y-114048061D01*
X188195226Y-113848102D01*
X188195210Y-113848061D01*
X193765000Y-113848061D01*
X193765000Y-114051939D01*
X193804774Y-114251898D01*
X193882795Y-114440256D01*
X193996063Y-114609774D01*
X194140226Y-114753937D01*
X194309744Y-114867205D01*
X194498102Y-114945226D01*
X194698061Y-114985000D01*
X194901939Y-114985000D01*
X195101898Y-114945226D01*
X195290256Y-114867205D01*
X195459774Y-114753937D01*
X195501944Y-114711767D01*
X195659744Y-114817205D01*
X195848102Y-114895226D01*
X196048061Y-114935000D01*
X196251939Y-114935000D01*
X196451898Y-114895226D01*
X196640256Y-114817205D01*
X196809774Y-114703937D01*
X196953937Y-114559774D01*
X197067205Y-114390256D01*
X197145226Y-114201898D01*
X197185000Y-114001939D01*
X197185000Y-113798061D01*
X197145226Y-113598102D01*
X197067205Y-113409744D01*
X196953937Y-113240226D01*
X196809774Y-113096063D01*
X196640256Y-112982795D01*
X196451898Y-112904774D01*
X196251939Y-112865000D01*
X196048061Y-112865000D01*
X195848102Y-112904774D01*
X195659744Y-112982795D01*
X195490226Y-113096063D01*
X195448056Y-113138233D01*
X195290256Y-113032795D01*
X195101898Y-112954774D01*
X194901939Y-112915000D01*
X194698061Y-112915000D01*
X194498102Y-112954774D01*
X194309744Y-113032795D01*
X194140226Y-113146063D01*
X193996063Y-113290226D01*
X193882795Y-113459744D01*
X193804774Y-113648102D01*
X193765000Y-113848061D01*
X188195210Y-113848061D01*
X188117205Y-113659744D01*
X188003937Y-113490226D01*
X187859774Y-113346063D01*
X187690256Y-113232795D01*
X187501898Y-113154774D01*
X187301939Y-113115000D01*
X187098061Y-113115000D01*
X186898102Y-113154774D01*
X186709744Y-113232795D01*
X186540226Y-113346063D01*
X186396063Y-113490226D01*
X186282795Y-113659744D01*
X186204774Y-113848102D01*
X186165000Y-114048061D01*
X177411772Y-114048061D01*
X177409774Y-114046063D01*
X177240256Y-113932795D01*
X177051898Y-113854774D01*
X176851939Y-113815000D01*
X176648061Y-113815000D01*
X176448102Y-113854774D01*
X176259744Y-113932795D01*
X176090226Y-114046063D01*
X175946063Y-114190226D01*
X175832795Y-114359744D01*
X175754774Y-114548102D01*
X175715000Y-114748061D01*
X175715000Y-114951939D01*
X175754774Y-115151898D01*
X175832795Y-115340256D01*
X175945140Y-115508393D01*
X175727437Y-115576597D01*
X175315055Y-115797019D01*
X175101336Y-116161731D01*
X174685124Y-116161731D01*
X174603937Y-116040226D01*
X174459774Y-115896063D01*
X174290256Y-115782795D01*
X174101898Y-115704774D01*
X173901939Y-115665000D01*
X173698061Y-115665000D01*
X173498102Y-115704774D01*
X173309744Y-115782795D01*
X173140226Y-115896063D01*
X172996063Y-116040226D01*
X172882795Y-116209744D01*
X172804774Y-116398102D01*
X172765000Y-116598061D01*
X170660000Y-116598061D01*
X170660000Y-112922707D01*
X173216898Y-112922707D01*
X173284240Y-113163106D01*
X173533780Y-113280506D01*
X173801427Y-113346967D01*
X174076899Y-113359936D01*
X174349607Y-113318914D01*
X174609072Y-113225478D01*
X174725760Y-113163106D01*
X174793102Y-112922707D01*
X174005000Y-112134605D01*
X173216898Y-112922707D01*
X170660000Y-112922707D01*
X170660000Y-112026899D01*
X172600064Y-112026899D01*
X172641086Y-112299607D01*
X172734522Y-112559072D01*
X172796894Y-112675760D01*
X173037293Y-112743102D01*
X173825395Y-111955000D01*
X174184605Y-111955000D01*
X174972707Y-112743102D01*
X175213106Y-112675760D01*
X175330506Y-112426220D01*
X175396967Y-112158573D01*
X175404523Y-111998061D01*
X176465000Y-111998061D01*
X176465000Y-112201939D01*
X176504774Y-112401898D01*
X176582795Y-112590256D01*
X176696063Y-112759774D01*
X176840226Y-112903937D01*
X177009744Y-113017205D01*
X177198102Y-113095226D01*
X177398061Y-113135000D01*
X177601939Y-113135000D01*
X177801898Y-113095226D01*
X177990256Y-113017205D01*
X178159774Y-112903937D01*
X178303937Y-112759774D01*
X178378581Y-112648061D01*
X202165000Y-112648061D01*
X202165000Y-112851939D01*
X202204774Y-113051898D01*
X202282795Y-113240256D01*
X202396063Y-113409774D01*
X202540226Y-113553937D01*
X202709744Y-113667205D01*
X202898102Y-113745226D01*
X203098061Y-113785000D01*
X203301939Y-113785000D01*
X203501898Y-113745226D01*
X203690256Y-113667205D01*
X203859774Y-113553937D01*
X204003937Y-113409774D01*
X204117205Y-113240256D01*
X204195226Y-113051898D01*
X204235000Y-112851939D01*
X204235000Y-112698061D01*
X219315000Y-112698061D01*
X219315000Y-112901939D01*
X219354774Y-113101898D01*
X219432795Y-113290256D01*
X219546063Y-113459774D01*
X219690226Y-113603937D01*
X219859744Y-113717205D01*
X220048102Y-113795226D01*
X220248061Y-113835000D01*
X220451939Y-113835000D01*
X220651898Y-113795226D01*
X220840256Y-113717205D01*
X221009774Y-113603937D01*
X221153937Y-113459774D01*
X221267205Y-113290256D01*
X221345226Y-113101898D01*
X221385000Y-112901939D01*
X221385000Y-112698061D01*
X221345226Y-112498102D01*
X221267205Y-112309744D01*
X221153937Y-112140226D01*
X221009774Y-111996063D01*
X220840256Y-111882795D01*
X220681685Y-111817112D01*
X224595000Y-111817112D01*
X224595000Y-112092888D01*
X224648801Y-112363365D01*
X224754336Y-112618149D01*
X224907549Y-112847448D01*
X225102552Y-113042451D01*
X225331851Y-113195664D01*
X225586635Y-113301199D01*
X225857112Y-113355000D01*
X226132888Y-113355000D01*
X226403365Y-113301199D01*
X226658149Y-113195664D01*
X226887448Y-113042451D01*
X227082451Y-112847448D01*
X227235664Y-112618149D01*
X227341199Y-112363365D01*
X227395000Y-112092888D01*
X227395000Y-111817112D01*
X227341199Y-111546635D01*
X227235664Y-111291851D01*
X227082451Y-111062552D01*
X226887448Y-110867549D01*
X226658149Y-110714336D01*
X226403365Y-110608801D01*
X226132888Y-110555000D01*
X225857112Y-110555000D01*
X225586635Y-110608801D01*
X225331851Y-110714336D01*
X225102552Y-110867549D01*
X224907549Y-111062552D01*
X224754336Y-111291851D01*
X224648801Y-111546635D01*
X224595000Y-111817112D01*
X220681685Y-111817112D01*
X220651898Y-111804774D01*
X220451939Y-111765000D01*
X220248061Y-111765000D01*
X220048102Y-111804774D01*
X219859744Y-111882795D01*
X219690226Y-111996063D01*
X219546063Y-112140226D01*
X219432795Y-112309744D01*
X219354774Y-112498102D01*
X219315000Y-112698061D01*
X204235000Y-112698061D01*
X204235000Y-112648061D01*
X204195226Y-112448102D01*
X204117205Y-112259744D01*
X204003937Y-112090226D01*
X203859774Y-111946063D01*
X203690256Y-111832795D01*
X203501898Y-111754774D01*
X203301939Y-111715000D01*
X203098061Y-111715000D01*
X202898102Y-111754774D01*
X202709744Y-111832795D01*
X202540226Y-111946063D01*
X202396063Y-112090226D01*
X202282795Y-112259744D01*
X202204774Y-112448102D01*
X202165000Y-112648061D01*
X178378581Y-112648061D01*
X178417205Y-112590256D01*
X178495226Y-112401898D01*
X178535000Y-112201939D01*
X178535000Y-111998061D01*
X178495226Y-111798102D01*
X178417205Y-111609744D01*
X178303937Y-111440226D01*
X178159774Y-111296063D01*
X177990256Y-111182795D01*
X177801898Y-111104774D01*
X177601939Y-111065000D01*
X177398061Y-111065000D01*
X177198102Y-111104774D01*
X177009744Y-111182795D01*
X176840226Y-111296063D01*
X176696063Y-111440226D01*
X176582795Y-111609744D01*
X176504774Y-111798102D01*
X176465000Y-111998061D01*
X175404523Y-111998061D01*
X175409936Y-111883101D01*
X175368914Y-111610393D01*
X175275478Y-111350928D01*
X175213106Y-111234240D01*
X174972707Y-111166898D01*
X174184605Y-111955000D01*
X173825395Y-111955000D01*
X173037293Y-111166898D01*
X172796894Y-111234240D01*
X172679494Y-111483780D01*
X172613033Y-111751427D01*
X172600064Y-112026899D01*
X170660000Y-112026899D01*
X170660000Y-110987293D01*
X173216898Y-110987293D01*
X174005000Y-111775395D01*
X174793102Y-110987293D01*
X174725760Y-110746894D01*
X174476220Y-110629494D01*
X174208573Y-110563033D01*
X173933101Y-110550064D01*
X173660393Y-110591086D01*
X173400928Y-110684522D01*
X173284240Y-110746894D01*
X173216898Y-110987293D01*
X170660000Y-110987293D01*
X170660000Y-109098061D01*
X206265000Y-109098061D01*
X206265000Y-109301939D01*
X206304774Y-109501898D01*
X206382795Y-109690256D01*
X206496063Y-109859774D01*
X206640226Y-110003937D01*
X206809744Y-110117205D01*
X206998102Y-110195226D01*
X207198061Y-110235000D01*
X207401939Y-110235000D01*
X207601898Y-110195226D01*
X207790256Y-110117205D01*
X207959774Y-110003937D01*
X208103937Y-109859774D01*
X208217205Y-109690256D01*
X208295226Y-109501898D01*
X208335000Y-109301939D01*
X208335000Y-109098061D01*
X208295226Y-108898102D01*
X208217205Y-108709744D01*
X208109172Y-108548060D01*
X210215000Y-108548060D01*
X210215000Y-108751938D01*
X210254774Y-108951897D01*
X210332795Y-109140255D01*
X210446063Y-109309773D01*
X210590226Y-109453936D01*
X210759744Y-109567204D01*
X210948102Y-109645225D01*
X211148061Y-109684999D01*
X211351939Y-109684999D01*
X211551898Y-109645225D01*
X211740256Y-109567204D01*
X211909774Y-109453936D01*
X212053937Y-109309773D01*
X212167205Y-109140255D01*
X212245226Y-108951897D01*
X212285000Y-108751938D01*
X212285000Y-108674869D01*
X212332795Y-108790256D01*
X212446063Y-108959774D01*
X212590226Y-109103937D01*
X212759744Y-109217205D01*
X212948102Y-109295226D01*
X213148061Y-109335000D01*
X213351939Y-109335000D01*
X213551898Y-109295226D01*
X213740256Y-109217205D01*
X213909774Y-109103937D01*
X214053937Y-108959774D01*
X214167205Y-108790256D01*
X214245226Y-108601898D01*
X214285000Y-108401939D01*
X214285000Y-108198061D01*
X214245226Y-107998102D01*
X214179021Y-107838269D01*
X221581336Y-107838269D01*
X221795055Y-108202981D01*
X222251528Y-108441666D01*
X222745795Y-108586712D01*
X223258862Y-108632544D01*
X223771012Y-108577401D01*
X224262563Y-108423403D01*
X224674945Y-108202981D01*
X224888664Y-107838269D01*
X223235000Y-106184605D01*
X221581336Y-107838269D01*
X214179021Y-107838269D01*
X214167205Y-107809744D01*
X214053937Y-107640226D01*
X213909774Y-107496063D01*
X213740256Y-107382795D01*
X213551898Y-107304774D01*
X213351939Y-107265000D01*
X213148061Y-107265000D01*
X212948102Y-107304774D01*
X212759744Y-107382795D01*
X212590226Y-107496063D01*
X212446063Y-107640226D01*
X212332795Y-107809744D01*
X212254774Y-107998102D01*
X212215000Y-108198061D01*
X212215000Y-108275130D01*
X212167205Y-108159743D01*
X212053937Y-107990225D01*
X211909774Y-107846062D01*
X211740256Y-107732794D01*
X211551898Y-107654773D01*
X211351939Y-107614999D01*
X211148061Y-107614999D01*
X210948102Y-107654773D01*
X210759744Y-107732794D01*
X210590226Y-107846062D01*
X210446063Y-107990225D01*
X210332795Y-108159743D01*
X210254774Y-108348101D01*
X210215000Y-108548060D01*
X208109172Y-108548060D01*
X208103937Y-108540226D01*
X207959774Y-108396063D01*
X207790256Y-108282795D01*
X207601898Y-108204774D01*
X207401939Y-108165000D01*
X207198061Y-108165000D01*
X206998102Y-108204774D01*
X206809744Y-108282795D01*
X206640226Y-108396063D01*
X206496063Y-108540226D01*
X206382795Y-108709744D01*
X206304774Y-108898102D01*
X206265000Y-109098061D01*
X170660000Y-109098061D01*
X170660000Y-104774541D01*
X179845064Y-104774541D01*
X179855575Y-104967763D01*
X180025603Y-105038562D01*
X180206176Y-105074828D01*
X180390355Y-105075171D01*
X180571061Y-105039574D01*
X180741351Y-104969408D01*
X180744425Y-104967763D01*
X180754936Y-104774541D01*
X181045064Y-104774541D01*
X181055575Y-104967763D01*
X181225603Y-105038562D01*
X181406176Y-105074828D01*
X181590355Y-105075171D01*
X181771061Y-105039574D01*
X181941351Y-104969408D01*
X181944425Y-104967763D01*
X181954936Y-104774541D01*
X181500000Y-104319605D01*
X181045064Y-104774541D01*
X180754936Y-104774541D01*
X180300000Y-104319605D01*
X179845064Y-104774541D01*
X170660000Y-104774541D01*
X170660000Y-104230355D01*
X179364829Y-104230355D01*
X179400426Y-104411061D01*
X179470592Y-104581351D01*
X179472237Y-104584425D01*
X179665459Y-104594936D01*
X180120395Y-104140000D01*
X179665459Y-103685064D01*
X179472237Y-103695575D01*
X179401438Y-103865603D01*
X179365172Y-104046176D01*
X179364829Y-104230355D01*
X170660000Y-104230355D01*
X170660000Y-103030355D01*
X179364829Y-103030355D01*
X179400426Y-103211061D01*
X179470592Y-103381351D01*
X179472237Y-103384425D01*
X179665459Y-103394936D01*
X180120395Y-102940000D01*
X179665459Y-102485064D01*
X179472237Y-102495575D01*
X179401438Y-102665603D01*
X179365172Y-102846176D01*
X179364829Y-103030355D01*
X170660000Y-103030355D01*
X170660000Y-100630355D01*
X179364829Y-100630355D01*
X179400426Y-100811061D01*
X179470592Y-100981351D01*
X179472237Y-100984425D01*
X179619732Y-100992448D01*
X179546286Y-101065894D01*
X179570392Y-101090000D01*
X179546286Y-101114106D01*
X179619732Y-101187552D01*
X179472237Y-101195575D01*
X179401438Y-101365603D01*
X179365172Y-101546176D01*
X179364829Y-101730355D01*
X179400426Y-101911061D01*
X179470592Y-102081351D01*
X179472237Y-102084425D01*
X179665459Y-102094936D01*
X180120395Y-101640000D01*
X180106253Y-101625858D01*
X180257187Y-101474923D01*
X180342973Y-101475083D01*
X180493748Y-101625858D01*
X180479605Y-101640000D01*
X180564839Y-101725234D01*
X180564829Y-101730355D01*
X180600426Y-101911061D01*
X180670592Y-102081351D01*
X180670690Y-102081534D01*
X180574397Y-102041438D01*
X180508623Y-102028228D01*
X180300000Y-101819605D01*
X180091503Y-102028102D01*
X180028939Y-102040426D01*
X179858649Y-102110592D01*
X179855575Y-102112237D01*
X179846843Y-102272762D01*
X179845064Y-102274541D01*
X179845905Y-102290000D01*
X179845064Y-102305459D01*
X179846843Y-102307238D01*
X179855575Y-102467763D01*
X180025603Y-102538562D01*
X180091377Y-102551772D01*
X180300000Y-102760395D01*
X180508497Y-102551898D01*
X180571061Y-102539574D01*
X180671076Y-102498364D01*
X180601438Y-102665603D01*
X180565172Y-102846176D01*
X180565157Y-102854448D01*
X180479605Y-102940000D01*
X180564839Y-103025234D01*
X180564829Y-103030355D01*
X180600426Y-103211061D01*
X180620925Y-103260812D01*
X180574397Y-103241438D01*
X180393824Y-103205172D01*
X180385552Y-103205157D01*
X180300000Y-103119605D01*
X180214766Y-103204839D01*
X180209645Y-103204829D01*
X180028939Y-103240426D01*
X179858649Y-103310592D01*
X179855575Y-103312237D01*
X179845064Y-103505459D01*
X179879605Y-103540000D01*
X179845064Y-103574541D01*
X179855575Y-103767763D01*
X180025603Y-103838562D01*
X180206176Y-103874828D01*
X180214448Y-103874843D01*
X180300000Y-103960395D01*
X180385234Y-103875161D01*
X180390355Y-103875171D01*
X180571061Y-103839574D01*
X180620812Y-103819075D01*
X180601438Y-103865603D01*
X180565172Y-104046176D01*
X180565157Y-104054448D01*
X180479605Y-104140000D01*
X180564839Y-104225234D01*
X180564829Y-104230355D01*
X180600426Y-104411061D01*
X180670592Y-104581351D01*
X180672237Y-104584425D01*
X180865459Y-104594936D01*
X180900000Y-104560395D01*
X180934541Y-104594936D01*
X181127763Y-104584425D01*
X181198562Y-104414397D01*
X181234828Y-104233824D01*
X181234843Y-104225552D01*
X181320395Y-104140000D01*
X181679605Y-104140000D01*
X182134541Y-104594936D01*
X182327763Y-104584425D01*
X182398562Y-104414397D01*
X182434828Y-104233824D01*
X182435171Y-104049645D01*
X182399574Y-103868939D01*
X182329408Y-103698649D01*
X182327763Y-103695575D01*
X182134541Y-103685064D01*
X181679605Y-104140000D01*
X181320395Y-104140000D01*
X181235161Y-104054766D01*
X181235171Y-104049645D01*
X181199574Y-103868939D01*
X181179075Y-103819188D01*
X181225603Y-103838562D01*
X181406176Y-103874828D01*
X181414448Y-103874843D01*
X181500000Y-103960395D01*
X181585234Y-103875161D01*
X181590355Y-103875171D01*
X181771061Y-103839574D01*
X181941351Y-103769408D01*
X181944425Y-103767763D01*
X181954936Y-103574541D01*
X181920395Y-103540000D01*
X181954936Y-103505459D01*
X181944425Y-103312237D01*
X181774397Y-103241438D01*
X181593824Y-103205172D01*
X181585552Y-103205157D01*
X181500000Y-103119605D01*
X181414766Y-103204839D01*
X181409645Y-103204829D01*
X181228939Y-103240426D01*
X181179188Y-103260925D01*
X181198562Y-103214397D01*
X181234828Y-103033824D01*
X181234843Y-103025552D01*
X181320395Y-102940000D01*
X181679605Y-102940000D01*
X182134541Y-103394936D01*
X182327763Y-103384425D01*
X182398562Y-103214397D01*
X182434828Y-103033824D01*
X182435171Y-102849645D01*
X182399574Y-102668939D01*
X182329408Y-102498649D01*
X182327763Y-102495575D01*
X182134541Y-102485064D01*
X181679605Y-102940000D01*
X181320395Y-102940000D01*
X181235161Y-102854766D01*
X181235171Y-102849645D01*
X181199574Y-102668939D01*
X181129408Y-102498649D01*
X181129310Y-102498466D01*
X181225603Y-102538562D01*
X181291377Y-102551772D01*
X181500000Y-102760395D01*
X181708497Y-102551898D01*
X181771061Y-102539574D01*
X181941351Y-102469408D01*
X181944425Y-102467763D01*
X181953157Y-102307238D01*
X181954936Y-102305459D01*
X181954095Y-102290000D01*
X181954936Y-102274541D01*
X181953157Y-102272762D01*
X181944425Y-102112237D01*
X181774397Y-102041438D01*
X181708623Y-102028228D01*
X181500000Y-101819605D01*
X181291503Y-102028102D01*
X181228939Y-102040426D01*
X181128924Y-102081636D01*
X181198562Y-101914397D01*
X181234828Y-101733824D01*
X181234843Y-101725552D01*
X181320395Y-101640000D01*
X181306253Y-101625858D01*
X181457187Y-101474923D01*
X181542973Y-101475083D01*
X181693748Y-101625858D01*
X181679605Y-101640000D01*
X182134541Y-102094936D01*
X182327763Y-102084425D01*
X182398562Y-101914397D01*
X182434828Y-101733824D01*
X182435171Y-101549645D01*
X182399574Y-101368939D01*
X182329408Y-101198649D01*
X182327763Y-101195575D01*
X182180268Y-101187552D01*
X182253714Y-101114106D01*
X182229608Y-101090000D01*
X182253714Y-101065894D01*
X182180268Y-100992448D01*
X182327763Y-100984425D01*
X182398562Y-100814397D01*
X182434828Y-100633824D01*
X182435171Y-100449645D01*
X182399574Y-100268939D01*
X182329408Y-100098649D01*
X182327763Y-100095575D01*
X182134541Y-100085064D01*
X181679605Y-100540000D01*
X181693748Y-100554143D01*
X181542813Y-100705077D01*
X181457027Y-100704917D01*
X181306253Y-100554143D01*
X181320395Y-100540000D01*
X181235161Y-100454766D01*
X181235171Y-100449645D01*
X181199574Y-100268939D01*
X181129408Y-100098649D01*
X181127763Y-100095575D01*
X180934541Y-100085064D01*
X180900000Y-100119605D01*
X180865459Y-100085064D01*
X180672237Y-100095575D01*
X180601438Y-100265603D01*
X180565172Y-100446176D01*
X180565157Y-100454448D01*
X180479605Y-100540000D01*
X180493748Y-100554143D01*
X180342813Y-100705077D01*
X180257027Y-100704917D01*
X180106253Y-100554143D01*
X180120395Y-100540000D01*
X179665459Y-100085064D01*
X179472237Y-100095575D01*
X179401438Y-100265603D01*
X179365172Y-100446176D01*
X179364829Y-100630355D01*
X170660000Y-100630355D01*
X170660000Y-99905459D01*
X179845064Y-99905459D01*
X180300000Y-100360395D01*
X180754936Y-99905459D01*
X181045064Y-99905459D01*
X181500000Y-100360395D01*
X181954936Y-99905459D01*
X181944425Y-99712237D01*
X181774397Y-99641438D01*
X181593824Y-99605172D01*
X181409645Y-99604829D01*
X181228939Y-99640426D01*
X181058649Y-99710592D01*
X181055575Y-99712237D01*
X181045064Y-99905459D01*
X180754936Y-99905459D01*
X180744425Y-99712237D01*
X180574397Y-99641438D01*
X180393824Y-99605172D01*
X180209645Y-99604829D01*
X180028939Y-99640426D01*
X179858649Y-99710592D01*
X179855575Y-99712237D01*
X179845064Y-99905459D01*
X170660000Y-99905459D01*
X170660000Y-99350000D01*
X199211928Y-99350000D01*
X199211928Y-101050000D01*
X199224188Y-101174482D01*
X199260498Y-101294180D01*
X199319463Y-101404494D01*
X199398815Y-101501185D01*
X199495506Y-101580537D01*
X199605820Y-101639502D01*
X199678380Y-101661513D01*
X199546525Y-101793368D01*
X199384010Y-102036589D01*
X199272068Y-102306842D01*
X199215000Y-102593740D01*
X199215000Y-102886260D01*
X199272068Y-103173158D01*
X199384010Y-103443411D01*
X199546525Y-103686632D01*
X199753368Y-103893475D01*
X199927760Y-104010000D01*
X199753368Y-104126525D01*
X199546525Y-104333368D01*
X199384010Y-104576589D01*
X199272068Y-104846842D01*
X199215000Y-105133740D01*
X199215000Y-105426260D01*
X199272068Y-105713158D01*
X199384010Y-105983411D01*
X199546525Y-106226632D01*
X199753368Y-106433475D01*
X199996589Y-106595990D01*
X200266842Y-106707932D01*
X200553740Y-106765000D01*
X200846260Y-106765000D01*
X201133158Y-106707932D01*
X201403411Y-106595990D01*
X201646632Y-106433475D01*
X201853475Y-106226632D01*
X201985620Y-106028862D01*
X220607456Y-106028862D01*
X220662599Y-106541012D01*
X220816597Y-107032563D01*
X221037019Y-107444945D01*
X221401731Y-107658664D01*
X223055395Y-106005000D01*
X223414605Y-106005000D01*
X225068269Y-107658664D01*
X225432981Y-107444945D01*
X225671666Y-106988472D01*
X225816712Y-106494205D01*
X225862544Y-105981138D01*
X225807401Y-105468988D01*
X225653403Y-104977437D01*
X225432981Y-104565055D01*
X225068269Y-104351336D01*
X223414605Y-106005000D01*
X223055395Y-106005000D01*
X221401731Y-104351336D01*
X221037019Y-104565055D01*
X220798334Y-105021528D01*
X220653288Y-105515795D01*
X220607456Y-106028862D01*
X201985620Y-106028862D01*
X202015990Y-105983411D01*
X202127932Y-105713158D01*
X202185000Y-105426260D01*
X202185000Y-105133740D01*
X202127932Y-104846842D01*
X202015990Y-104576589D01*
X201853475Y-104333368D01*
X201691838Y-104171731D01*
X221581336Y-104171731D01*
X223235000Y-105825395D01*
X224888664Y-104171731D01*
X224854167Y-104112861D01*
X224936001Y-104114855D01*
X225153367Y-104077096D01*
X225359189Y-103997658D01*
X225407534Y-103971816D01*
X225440811Y-103759916D01*
X224853000Y-103172105D01*
X224838858Y-103186248D01*
X224659253Y-103006643D01*
X224673395Y-102992500D01*
X225032605Y-102992500D01*
X225620416Y-103580311D01*
X225832316Y-103547034D01*
X225921683Y-103345324D01*
X225969981Y-103130055D01*
X225975355Y-102909499D01*
X225937596Y-102692133D01*
X225858158Y-102486311D01*
X225832316Y-102437966D01*
X225620416Y-102404689D01*
X225032605Y-102992500D01*
X224673395Y-102992500D01*
X224085584Y-102404689D01*
X223873684Y-102437966D01*
X223784317Y-102639676D01*
X223736019Y-102854945D01*
X223730645Y-103075501D01*
X223768404Y-103292867D01*
X223830815Y-103454574D01*
X223724205Y-103423288D01*
X223211138Y-103377456D01*
X222698988Y-103432599D01*
X222207437Y-103586597D01*
X221795055Y-103807019D01*
X221581336Y-104171731D01*
X201691838Y-104171731D01*
X201646632Y-104126525D01*
X201472240Y-104010000D01*
X201646632Y-103893475D01*
X201853475Y-103686632D01*
X202015990Y-103443411D01*
X202127932Y-103173158D01*
X202185000Y-102886260D01*
X202185000Y-102593740D01*
X202127932Y-102306842D01*
X202094067Y-102225084D01*
X224265189Y-102225084D01*
X224853000Y-102812895D01*
X225440811Y-102225084D01*
X225407534Y-102013184D01*
X225205824Y-101923817D01*
X224990555Y-101875519D01*
X224769999Y-101870145D01*
X224552633Y-101907904D01*
X224346811Y-101987342D01*
X224298466Y-102013184D01*
X224265189Y-102225084D01*
X202094067Y-102225084D01*
X202015990Y-102036589D01*
X201853475Y-101793368D01*
X201721620Y-101661513D01*
X201794180Y-101639502D01*
X201904494Y-101580537D01*
X202001185Y-101501185D01*
X202080537Y-101404494D01*
X202139502Y-101294180D01*
X202175812Y-101174482D01*
X202188072Y-101050000D01*
X202188072Y-99350000D01*
X202175812Y-99225518D01*
X202139502Y-99105820D01*
X202080537Y-98995506D01*
X202001185Y-98898815D01*
X201904494Y-98819463D01*
X201794180Y-98760498D01*
X201674482Y-98724188D01*
X201550000Y-98711928D01*
X199850000Y-98711928D01*
X199725518Y-98724188D01*
X199605820Y-98760498D01*
X199495506Y-98819463D01*
X199398815Y-98898815D01*
X199319463Y-98995506D01*
X199260498Y-99105820D01*
X199224188Y-99225518D01*
X199211928Y-99350000D01*
X170660000Y-99350000D01*
X170660000Y-94032279D01*
X170668067Y-93950000D01*
X172271928Y-93950000D01*
X172271928Y-95650000D01*
X172284188Y-95774482D01*
X172320498Y-95894180D01*
X172379463Y-96004494D01*
X172458815Y-96101185D01*
X172555506Y-96180537D01*
X172665820Y-96239502D01*
X172785518Y-96275812D01*
X172910000Y-96288072D01*
X174610000Y-96288072D01*
X174734482Y-96275812D01*
X174854180Y-96239502D01*
X174964494Y-96180537D01*
X175061185Y-96101185D01*
X175140537Y-96004494D01*
X175199502Y-95894180D01*
X175221513Y-95821620D01*
X175353368Y-95953475D01*
X175596589Y-96115990D01*
X175866842Y-96227932D01*
X176153740Y-96285000D01*
X176446260Y-96285000D01*
X176733158Y-96227932D01*
X176925984Y-96148061D01*
X210465000Y-96148061D01*
X210465000Y-96351939D01*
X210504774Y-96551898D01*
X210582795Y-96740256D01*
X210696063Y-96909774D01*
X210840226Y-97053937D01*
X211009744Y-97167205D01*
X211198102Y-97245226D01*
X211398061Y-97285000D01*
X211601939Y-97285000D01*
X211801898Y-97245226D01*
X211990256Y-97167205D01*
X212159774Y-97053937D01*
X212303937Y-96909774D01*
X212417205Y-96740256D01*
X212495226Y-96551898D01*
X212535000Y-96351939D01*
X212535000Y-96148061D01*
X212495226Y-95948102D01*
X212417205Y-95759744D01*
X212303937Y-95590226D01*
X212159774Y-95446063D01*
X211990256Y-95332795D01*
X211801898Y-95254774D01*
X211601939Y-95215000D01*
X211398061Y-95215000D01*
X211198102Y-95254774D01*
X211009744Y-95332795D01*
X210840226Y-95446063D01*
X210696063Y-95590226D01*
X210582795Y-95759744D01*
X210504774Y-95948102D01*
X210465000Y-96148061D01*
X176925984Y-96148061D01*
X177003411Y-96115990D01*
X177246632Y-95953475D01*
X177453475Y-95746632D01*
X177615990Y-95503411D01*
X177727932Y-95233158D01*
X177785000Y-94946260D01*
X177785000Y-94653740D01*
X177727932Y-94366842D01*
X177615990Y-94096589D01*
X177453475Y-93853368D01*
X177246632Y-93646525D01*
X177003411Y-93484010D01*
X176733158Y-93372068D01*
X176446260Y-93315000D01*
X176153740Y-93315000D01*
X175866842Y-93372068D01*
X175596589Y-93484010D01*
X175353368Y-93646525D01*
X175221513Y-93778380D01*
X175199502Y-93705820D01*
X175140537Y-93595506D01*
X175061185Y-93498815D01*
X174964494Y-93419463D01*
X174854180Y-93360498D01*
X174734482Y-93324188D01*
X174610000Y-93311928D01*
X172910000Y-93311928D01*
X172785518Y-93324188D01*
X172665820Y-93360498D01*
X172555506Y-93419463D01*
X172458815Y-93498815D01*
X172379463Y-93595506D01*
X172320498Y-93705820D01*
X172284188Y-93825518D01*
X172271928Y-93950000D01*
X170668067Y-93950000D01*
X170688625Y-93740341D01*
X170764035Y-93490571D01*
X170886522Y-93260208D01*
X171051422Y-93058020D01*
X171252450Y-92891714D01*
X171481954Y-92767622D01*
X171731195Y-92690469D01*
X172021088Y-92660000D01*
X220880392Y-92660000D01*
X220923649Y-92703257D01*
G37*
G04 #@! TD.AperFunction*
M02*
