M48
; DRILL file {KiCad (5.1.7)-1} date 11/22/20 23:18:42
; FORMAT={-:-/ absolute / inch / decimal}
; #@! TF.CreationDate,2020-11-22T23:18:42+01:00
; #@! TF.GenerationSoftware,Kicad,Pcbnew,(5.1.7)-1
; #@! TF.FileFunction,Plated,1,4,PTH
FMAT,2
INCH
T1C0.0118
T2C0.0177
T3C0.0181
T4C0.0394
T5C0.0402
T6C0.0866
T7C0.1039
%
G90
G05
T1
X7.0984Y-3.9583
X7.0984Y-4.0016
X7.0984Y-4.0528
X7.0984Y-4.1
X7.1457Y-3.9583
X7.1457Y-4.0016
X7.1457Y-4.0528
X7.1457Y-4.1
T2
X6.7323Y-4.0551
X6.7417Y-3.6724
X6.7677Y-4.9213
X6.7874Y-3.813
X6.7913Y-4.2913
X6.7913Y-4.3701
X6.7913Y-4.4488
X6.7913Y-4.5472
X6.7913Y-4.6457
X6.7913Y-4.7244
X6.7913Y-5.0984
X6.811Y-3.6614
X6.8425Y-4.5945
X6.8506Y-4.3148
X6.8506Y-4.3502
X6.8898Y-3.6614
X6.9488Y-3.9331
X6.9587Y-4.5217
X6.9685Y-3.6614
X6.9801Y-4.0041
X6.9882Y-4.4134
X7.0472Y-3.6614
X7.0965Y-4.5276
X7.0984Y-3.8346
X7.0984Y-3.874
X7.126Y-3.6614
X7.1378Y-4.7913
X7.1594Y-4.1791
X7.1791Y-4.8268
X7.1821Y-4.8715
X7.2047Y-3.6614
X7.2047Y-4.1732
X7.2835Y-3.6614
X7.3012Y-4.0571
X7.3307Y-5.0965
X7.3384Y-4.6041
X7.3622Y-3.6614
X7.3622Y-4.8031
X7.3701Y-4.4941
X7.3819Y-4.6024
X7.4016Y-5.1181
X7.4272Y-4.6102
X7.4409Y-3.6614
X7.4409Y-3.9764
X7.4409Y-4.9606
X7.4803Y-3.8976
X7.4862Y-5.0433
X7.5197Y-5.1181
X7.5591Y-3.8976
X7.5591Y-4.7165
X7.561Y-4.8622
X7.5984Y-3.9764
X7.6378Y-3.8976
X7.6378Y-5.1181
X7.6693Y-4.4862
X7.7047Y-4.7185
X7.7047Y-4.8642
X7.7165Y-3.8976
X7.7224Y-4.4843
X7.7559Y-3.6614
X7.7559Y-3.9764
X7.7559Y-5.1181
X7.7847Y-5.0224
X7.7953Y-4.0945
X7.7953Y-4.1732
X7.813Y-5.1201
X7.8248Y-4.4665
X7.8248Y-4.5689
X7.8346Y-3.6614
X7.8465Y-4.9665
X7.8622Y-5.1063
X7.9134Y-3.6614
X8.0Y-3.7992
X8.0Y-4.439
X8.0197Y-5.1024
X8.0315Y-3.8976
X8.0315Y-3.9764
X8.0472Y-4.8898
X8.0669Y-4.935
X8.0748Y-4.9783
X8.0827Y-4.4173
X8.1102Y-3.8189
X8.1496Y-3.9764
X8.1614Y-4.2992
X8.1902Y-4.9728
X8.2165Y-5.1417
X8.2461Y-4.8169
X8.252Y-4.6122
X8.3035Y-5.3185
X8.3091Y-4.9768
X8.3169Y-4.2776
X8.3268Y-3.7894
X8.3642Y-4.876
X8.3898Y-4.5827
X8.3957Y-4.2638
X8.4646Y-3.8189
X8.4941Y-4.935
X8.5433Y-3.6614
X8.561Y-3.7874
X8.5827Y-3.8583
X8.622Y-3.937
X8.6339Y-4.2756
X8.6476Y-4.7028
X8.6614Y-4.6457
X8.6614Y-4.8031
X8.6752Y-4.4409
X8.6972Y-5.3185
X8.7008Y-3.8189
X8.7008Y-3.9764
X8.7205Y-5.0197
X8.7768Y-3.8555
X8.7795Y-3.9764
X8.7795Y-4.0551
X8.8189Y-4.8031
X8.8386Y-5.0197
X8.8583Y-3.8583
X8.8583Y-3.9764
X8.8705Y-4.813
X8.8787Y-4.9555
X8.8976Y-3.6614
X8.8996Y-4.7717
X8.9256Y-4.9575
X8.935Y-4.2618
X8.9429Y-4.6713
X8.9449Y-4.5295
X8.9567Y-3.7795
X8.9567Y-4.0157
X8.9567Y-4.1732
X8.9764Y-4.4094
X8.9764Y-5.2756
X8.9961Y-4.6457
X9.0157Y-3.7402
X9.0157Y-3.8189
X9.0157Y-4.0551
X9.0157Y-4.0945
X9.0157Y-4.252
X9.0157Y-4.3307
X9.0157Y-4.4882
X9.0157Y-4.5669
X9.0157Y-4.7244
X9.0157Y-4.8031
X9.0157Y-4.8819
X9.0157Y-5.0197
X9.0157Y-5.1181
X9.0157Y-5.1969
X9.0157Y-5.3543
T3
X8.8525Y-3.7798
X8.8525Y-4.0548
T4
X8.9429Y-5.1189
X8.9429Y-5.2189
X8.9429Y-5.3189
X6.937Y-5.0138
X6.937Y-5.1138
X6.937Y-5.2138
X6.937Y-5.3138
X8.4213Y-5.0189
X8.4213Y-5.1189
X8.4213Y-5.2189
X8.4213Y-5.3189
X8.7953Y-5.1189
X8.7953Y-5.2189
X8.7953Y-5.3189
X6.8409Y-3.7323
X6.9409Y-3.7323
X8.5669Y-5.0189
X8.5669Y-5.1189
X8.5669Y-5.2189
X8.5669Y-5.3189
X8.2303Y-5.2185
X8.2303Y-5.3185
X7.9016Y-3.9449
X7.9016Y-4.0449
X7.9016Y-4.1449
X6.7913Y-5.213
X6.7913Y-5.313
X6.8335Y-4.8622
X6.9335Y-4.8622
X7.0335Y-4.8622
T5
X6.8506Y-4.4077
X8.8974Y-4.4077
T6
X8.7677Y-3.7126
X7.1102Y-5.0433
X8.7677Y-4.9083
T7
X6.9589Y-4.6455
X8.7888Y-4.1734
T0
M30
