G04 #@! TF.GenerationSoftware,KiCad,Pcbnew,(6.0.0)*
G04 #@! TF.CreationDate,2022-01-31T09:48:03+01:00*
G04 #@! TF.ProjectId,lora,6c6f7261-2e6b-4696-9361-645f70636258,v2.0*
G04 #@! TF.SameCoordinates,Original*
G04 #@! TF.FileFunction,Legend,Top*
G04 #@! TF.FilePolarity,Positive*
%FSLAX46Y46*%
G04 Gerber Fmt 4.6, Leading zero omitted, Abs format (unit mm)*
G04 Created by KiCad (PCBNEW (6.0.0)) date 2022-01-31 09:48:03*
%MOMM*%
%LPD*%
G01*
G04 APERTURE LIST*
G04 Aperture macros list*
%AMRoundRect*
0 Rectangle with rounded corners*
0 $1 Rounding radius*
0 $2 $3 $4 $5 $6 $7 $8 $9 X,Y pos of 4 corners*
0 Add a 4 corners polygon primitive as box body*
4,1,4,$2,$3,$4,$5,$6,$7,$8,$9,$2,$3,0*
0 Add four circle primitives for the rounded corners*
1,1,$1+$1,$2,$3*
1,1,$1+$1,$4,$5*
1,1,$1+$1,$6,$7*
1,1,$1+$1,$8,$9*
0 Add four rect primitives between the rounded corners*
20,1,$1+$1,$2,$3,$4,$5,0*
20,1,$1+$1,$4,$5,$6,$7,0*
20,1,$1+$1,$6,$7,$8,$9,0*
20,1,$1+$1,$8,$9,$2,$3,0*%
%AMFreePoly0*
4,1,22,0.500000,-0.750000,0.000000,-0.750000,0.000000,-0.745033,-0.079941,-0.743568,-0.215256,-0.701293,-0.333266,-0.622738,-0.424486,-0.514219,-0.481581,-0.384460,-0.499164,-0.250000,-0.500000,-0.250000,-0.500000,0.250000,-0.499164,0.250000,-0.499963,0.256109,-0.478152,0.396186,-0.417904,0.524511,-0.324060,0.630769,-0.204165,0.706417,-0.067858,0.745374,0.000000,0.744959,0.000000,0.750000,
0.500000,0.750000,0.500000,-0.750000,0.500000,-0.750000,$1*%
%AMFreePoly1*
4,1,20,0.000000,0.744959,0.073905,0.744508,0.209726,0.703889,0.328688,0.626782,0.421226,0.519385,0.479903,0.390333,0.500000,0.250000,0.500000,-0.250000,0.499851,-0.262216,0.476331,-0.402017,0.414519,-0.529596,0.319384,-0.634700,0.198574,-0.708877,0.061801,-0.746166,0.000000,-0.745033,0.000000,-0.750000,-0.500000,-0.750000,-0.500000,0.750000,0.000000,0.750000,0.000000,0.744959,
0.000000,0.744959,$1*%
G04 Aperture macros list end*
%ADD10C,0.120000*%
%ADD11C,0.150000*%
%ADD12C,0.080000*%
%ADD13C,0.500000*%
%ADD14C,0.100000*%
%ADD15R,1.700000X1.700000*%
%ADD16O,1.700000X1.700000*%
%ADD17RoundRect,0.225000X0.225000X0.250000X-0.225000X0.250000X-0.225000X-0.250000X0.225000X-0.250000X0*%
%ADD18RoundRect,0.225000X0.250000X-0.225000X0.250000X0.225000X-0.250000X0.225000X-0.250000X-0.225000X0*%
%ADD19RoundRect,0.250000X0.475000X-0.250000X0.475000X0.250000X-0.475000X0.250000X-0.475000X-0.250000X0*%
%ADD20R,2.100000X2.100000*%
%ADD21C,2.100000*%
%ADD22RoundRect,0.381000X-1.619000X-0.381000X1.619000X-0.381000X1.619000X0.381000X-1.619000X0.381000X0*%
%ADD23R,0.900000X0.800000*%
%ADD24R,0.800000X0.900000*%
%ADD25RoundRect,0.200000X-0.275000X0.200000X-0.275000X-0.200000X0.275000X-0.200000X0.275000X0.200000X0*%
%ADD26RoundRect,0.200000X0.275000X-0.200000X0.275000X0.200000X-0.275000X0.200000X-0.275000X-0.200000X0*%
%ADD27RoundRect,0.200000X0.200000X0.275000X-0.200000X0.275000X-0.200000X-0.275000X0.200000X-0.275000X0*%
%ADD28RoundRect,0.200000X-0.200000X-0.275000X0.200000X-0.275000X0.200000X0.275000X-0.200000X0.275000X0*%
%ADD29R,1.000000X1.500000*%
%ADD30R,2.000000X0.900000*%
%ADD31R,0.900000X2.000000*%
%ADD32R,5.000000X5.000000*%
%ADD33R,1.000000X2.000000*%
%ADD34R,4.190000X1.780000*%
%ADD35R,4.190000X2.665000*%
%ADD36RoundRect,0.250000X0.650000X-0.325000X0.650000X0.325000X-0.650000X0.325000X-0.650000X-0.325000X0*%
%ADD37RoundRect,0.225000X-0.225000X-0.250000X0.225000X-0.250000X0.225000X0.250000X-0.225000X0.250000X0*%
%ADD38C,0.650000*%
%ADD39R,1.450000X0.600000*%
%ADD40R,1.450000X0.300000*%
%ADD41O,2.100000X1.000000*%
%ADD42O,1.600000X1.000000*%
%ADD43RoundRect,0.381000X0.381000X-1.619000X0.381000X1.619000X-0.381000X1.619000X-0.381000X-1.619000X0*%
%ADD44RoundRect,0.147500X0.172500X-0.147500X0.172500X0.147500X-0.172500X0.147500X-0.172500X-0.147500X0*%
%ADD45R,1.100000X3.700000*%
%ADD46R,0.650000X1.560000*%
%ADD47RoundRect,0.250000X-0.650000X0.325000X-0.650000X-0.325000X0.650000X-0.325000X0.650000X0.325000X0*%
%ADD48R,1.200000X0.900000*%
%ADD49RoundRect,0.250000X0.250000X0.475000X-0.250000X0.475000X-0.250000X-0.475000X0.250000X-0.475000X0*%
%ADD50RoundRect,0.250000X-0.475000X0.250000X-0.475000X-0.250000X0.475000X-0.250000X0.475000X0.250000X0*%
%ADD51RoundRect,0.225000X-0.250000X0.225000X-0.250000X-0.225000X0.250000X-0.225000X0.250000X0.225000X0*%
%ADD52R,1.950000X3.000000*%
%ADD53R,0.600000X0.450000*%
%ADD54RoundRect,0.150000X0.587500X0.150000X-0.587500X0.150000X-0.587500X-0.150000X0.587500X-0.150000X0*%
%ADD55RoundRect,0.218750X-0.218750X-0.381250X0.218750X-0.381250X0.218750X0.381250X-0.218750X0.381250X0*%
%ADD56RoundRect,0.147500X-0.172500X0.147500X-0.172500X-0.147500X0.172500X-0.147500X0.172500X0.147500X0*%
%ADD57RoundRect,0.147500X0.147500X0.172500X-0.147500X0.172500X-0.147500X-0.172500X0.147500X-0.172500X0*%
%ADD58C,0.900000*%
%ADD59R,0.900000X1.250000*%
%ADD60R,1.250000X0.900000*%
%ADD61FreePoly0,180.000000*%
%ADD62FreePoly1,180.000000*%
%ADD63R,1.400000X0.300000*%
%ADD64RoundRect,0.250000X-0.250000X-0.475000X0.250000X-0.475000X0.250000X0.475000X-0.250000X0.475000X0*%
%ADD65RoundRect,0.150000X-0.150000X0.512500X-0.150000X-0.512500X0.150000X-0.512500X0.150000X0.512500X0*%
%ADD66RoundRect,0.218750X-0.256250X0.218750X-0.256250X-0.218750X0.256250X-0.218750X0.256250X0.218750X0*%
%ADD67C,1.530000*%
%ADD68C,3.960000*%
G04 APERTURE END LIST*
D10*
X244500000Y-131500000D02*
X244000000Y-131000000D01*
X244500000Y-131250000D02*
X244500000Y-131000000D01*
X237990000Y-128950000D02*
X237990000Y-129470000D01*
X248190000Y-129220000D02*
X247505000Y-129730000D01*
X248200000Y-129670000D02*
X248200000Y-129420000D01*
X248200000Y-130180000D02*
X248200000Y-129930000D01*
X237990000Y-129210000D02*
X237990000Y-128950000D01*
X244500000Y-130750000D02*
X244500000Y-130500000D01*
X238000000Y-131500000D02*
X244500000Y-131500000D01*
X238000000Y-129210000D02*
X248190000Y-129210000D01*
X248180000Y-129200000D02*
X247600000Y-128680000D01*
X238000000Y-131250000D02*
X238000000Y-131750000D01*
X244500000Y-131500000D02*
X244000000Y-132000000D01*
X244500000Y-130250000D02*
X244500000Y-130000000D01*
D11*
X188166952Y-127976380D02*
X188166952Y-128690666D01*
X188119333Y-128833523D01*
X188024095Y-128928761D01*
X187881238Y-128976380D01*
X187786000Y-128976380D01*
X189119333Y-128976380D02*
X188643142Y-128976380D01*
X188643142Y-127976380D01*
X190024095Y-128881142D02*
X189976476Y-128928761D01*
X189833619Y-128976380D01*
X189738380Y-128976380D01*
X189595523Y-128928761D01*
X189500285Y-128833523D01*
X189452666Y-128738285D01*
X189405047Y-128547809D01*
X189405047Y-128404952D01*
X189452666Y-128214476D01*
X189500285Y-128119238D01*
X189595523Y-128024000D01*
X189738380Y-127976380D01*
X189833619Y-127976380D01*
X189976476Y-128024000D01*
X190024095Y-128071619D01*
X190738380Y-127976380D02*
X190738380Y-128690666D01*
X190690761Y-128833523D01*
X190595523Y-128928761D01*
X190452666Y-128976380D01*
X190357428Y-128976380D01*
X191690761Y-128976380D02*
X191214571Y-128976380D01*
X191214571Y-127976380D01*
X192595523Y-128881142D02*
X192547904Y-128928761D01*
X192405047Y-128976380D01*
X192309809Y-128976380D01*
X192166952Y-128928761D01*
X192071714Y-128833523D01*
X192024095Y-128738285D01*
X191976476Y-128547809D01*
X191976476Y-128404952D01*
X192024095Y-128214476D01*
X192071714Y-128119238D01*
X192166952Y-128024000D01*
X192309809Y-127976380D01*
X192405047Y-127976380D01*
X192547904Y-128024000D01*
X192595523Y-128071619D01*
X193309809Y-127976380D02*
X193309809Y-128690666D01*
X193262190Y-128833523D01*
X193166952Y-128928761D01*
X193024095Y-128976380D01*
X192928857Y-128976380D01*
X194262190Y-128976380D02*
X193786000Y-128976380D01*
X193786000Y-127976380D01*
X195166952Y-128881142D02*
X195119333Y-128928761D01*
X194976476Y-128976380D01*
X194881238Y-128976380D01*
X194738380Y-128928761D01*
X194643142Y-128833523D01*
X194595523Y-128738285D01*
X194547904Y-128547809D01*
X194547904Y-128404952D01*
X194595523Y-128214476D01*
X194643142Y-128119238D01*
X194738380Y-128024000D01*
X194881238Y-127976380D01*
X194976476Y-127976380D01*
X195119333Y-128024000D01*
X195166952Y-128071619D01*
X195881238Y-127976380D02*
X195881238Y-128690666D01*
X195833619Y-128833523D01*
X195738380Y-128928761D01*
X195595523Y-128976380D01*
X195500285Y-128976380D01*
X196833619Y-128976380D02*
X196357428Y-128976380D01*
X196357428Y-127976380D01*
X197738380Y-128881142D02*
X197690761Y-128928761D01*
X197547904Y-128976380D01*
X197452666Y-128976380D01*
X197309809Y-128928761D01*
X197214571Y-128833523D01*
X197166952Y-128738285D01*
X197119333Y-128547809D01*
X197119333Y-128404952D01*
X197166952Y-128214476D01*
X197214571Y-128119238D01*
X197309809Y-128024000D01*
X197452666Y-127976380D01*
X197547904Y-127976380D01*
X197690761Y-128024000D01*
X197738380Y-128071619D01*
X159131000Y-127738142D02*
X159178619Y-127785761D01*
X159131000Y-127833380D01*
X159083380Y-127785761D01*
X159131000Y-127738142D01*
X159131000Y-127833380D01*
X202731714Y-109981238D02*
X203398380Y-109743142D01*
X202731714Y-109505047D01*
X202493619Y-109171714D02*
X202446000Y-109124095D01*
X202398380Y-109028857D01*
X202398380Y-108790761D01*
X202446000Y-108695523D01*
X202493619Y-108647904D01*
X202588857Y-108600285D01*
X202684095Y-108600285D01*
X202826952Y-108647904D01*
X203398380Y-109219333D01*
X203398380Y-108600285D01*
X203303142Y-108171714D02*
X203350761Y-108124095D01*
X203398380Y-108171714D01*
X203350761Y-108219333D01*
X203303142Y-108171714D01*
X203398380Y-108171714D01*
X203398380Y-107171714D02*
X203398380Y-107743142D01*
X203398380Y-107457428D02*
X202398380Y-107457428D01*
X202541238Y-107552666D01*
X202636476Y-107647904D01*
X202684095Y-107743142D01*
X202493619Y-106028857D02*
X202446000Y-105981238D01*
X202398380Y-105886000D01*
X202398380Y-105647904D01*
X202446000Y-105552666D01*
X202493619Y-105505047D01*
X202588857Y-105457428D01*
X202684095Y-105457428D01*
X202826952Y-105505047D01*
X203398380Y-106076476D01*
X203398380Y-105457428D01*
X202398380Y-104838380D02*
X202398380Y-104743142D01*
X202446000Y-104647904D01*
X202493619Y-104600285D01*
X202588857Y-104552666D01*
X202779333Y-104505047D01*
X203017428Y-104505047D01*
X203207904Y-104552666D01*
X203303142Y-104600285D01*
X203350761Y-104647904D01*
X203398380Y-104743142D01*
X203398380Y-104838380D01*
X203350761Y-104933619D01*
X203303142Y-104981238D01*
X203207904Y-105028857D01*
X203017428Y-105076476D01*
X202779333Y-105076476D01*
X202588857Y-105028857D01*
X202493619Y-104981238D01*
X202446000Y-104933619D01*
X202398380Y-104838380D01*
X202493619Y-104124095D02*
X202446000Y-104076476D01*
X202398380Y-103981238D01*
X202398380Y-103743142D01*
X202446000Y-103647904D01*
X202493619Y-103600285D01*
X202588857Y-103552666D01*
X202684095Y-103552666D01*
X202826952Y-103600285D01*
X203398380Y-104171714D01*
X203398380Y-103552666D01*
X202493619Y-103171714D02*
X202446000Y-103124095D01*
X202398380Y-103028857D01*
X202398380Y-102790761D01*
X202446000Y-102695523D01*
X202493619Y-102647904D01*
X202588857Y-102600285D01*
X202684095Y-102600285D01*
X202826952Y-102647904D01*
X203398380Y-103219333D01*
X203398380Y-102600285D01*
X203303142Y-102171714D02*
X203350761Y-102124095D01*
X203398380Y-102171714D01*
X203350761Y-102219333D01*
X203303142Y-102171714D01*
X203398380Y-102171714D01*
X202398380Y-101505047D02*
X202398380Y-101409809D01*
X202446000Y-101314571D01*
X202493619Y-101266952D01*
X202588857Y-101219333D01*
X202779333Y-101171714D01*
X203017428Y-101171714D01*
X203207904Y-101219333D01*
X203303142Y-101266952D01*
X203350761Y-101314571D01*
X203398380Y-101409809D01*
X203398380Y-101505047D01*
X203350761Y-101600285D01*
X203303142Y-101647904D01*
X203207904Y-101695523D01*
X203017428Y-101743142D01*
X202779333Y-101743142D01*
X202588857Y-101695523D01*
X202493619Y-101647904D01*
X202446000Y-101600285D01*
X202398380Y-101505047D01*
X203398380Y-100219333D02*
X203398380Y-100790761D01*
X203398380Y-100505047D02*
X202398380Y-100505047D01*
X202541238Y-100600285D01*
X202636476Y-100695523D01*
X202684095Y-100790761D01*
X203303142Y-99790761D02*
X203350761Y-99743142D01*
X203398380Y-99790761D01*
X203350761Y-99838380D01*
X203303142Y-99790761D01*
X203398380Y-99790761D01*
X202398380Y-99409809D02*
X202398380Y-98790761D01*
X202779333Y-99124095D01*
X202779333Y-98981238D01*
X202826952Y-98886000D01*
X202874571Y-98838380D01*
X202969809Y-98790761D01*
X203207904Y-98790761D01*
X203303142Y-98838380D01*
X203350761Y-98886000D01*
X203398380Y-98981238D01*
X203398380Y-99266952D01*
X203350761Y-99362190D01*
X203303142Y-99409809D01*
X203398380Y-97838380D02*
X203398380Y-98409809D01*
X203398380Y-98124095D02*
X202398380Y-98124095D01*
X202541238Y-98219333D01*
X202636476Y-98314571D01*
X202684095Y-98409809D01*
D12*
X241807142Y-128911428D02*
X241464285Y-128911428D01*
X241635714Y-128911428D02*
X241635714Y-128311428D01*
X241578571Y-128397142D01*
X241521428Y-128454285D01*
X241464285Y-128482857D01*
X242178571Y-128311428D02*
X242235714Y-128311428D01*
X242292857Y-128340000D01*
X242321428Y-128368571D01*
X242350000Y-128425714D01*
X242378571Y-128540000D01*
X242378571Y-128682857D01*
X242350000Y-128797142D01*
X242321428Y-128854285D01*
X242292857Y-128882857D01*
X242235714Y-128911428D01*
X242178571Y-128911428D01*
X242121428Y-128882857D01*
X242092857Y-128854285D01*
X242064285Y-128797142D01*
X242035714Y-128682857D01*
X242035714Y-128540000D01*
X242064285Y-128425714D01*
X242092857Y-128368571D01*
X242121428Y-128340000D01*
X242178571Y-128311428D01*
X242635714Y-128854285D02*
X242664285Y-128882857D01*
X242635714Y-128911428D01*
X242607142Y-128882857D01*
X242635714Y-128854285D01*
X242635714Y-128911428D01*
X242892857Y-128368571D02*
X242921428Y-128340000D01*
X242978571Y-128311428D01*
X243121428Y-128311428D01*
X243178571Y-128340000D01*
X243207142Y-128368571D01*
X243235714Y-128425714D01*
X243235714Y-128482857D01*
X243207142Y-128568571D01*
X242864285Y-128911428D01*
X243235714Y-128911428D01*
X243492857Y-128911428D02*
X243492857Y-128511428D01*
X243492857Y-128568571D02*
X243521428Y-128540000D01*
X243578571Y-128511428D01*
X243664285Y-128511428D01*
X243721428Y-128540000D01*
X243750000Y-128597142D01*
X243750000Y-128911428D01*
X243750000Y-128597142D02*
X243778571Y-128540000D01*
X243835714Y-128511428D01*
X243921428Y-128511428D01*
X243978571Y-128540000D01*
X244007142Y-128597142D01*
X244007142Y-128911428D01*
X244292857Y-128911428D02*
X244292857Y-128511428D01*
X244292857Y-128568571D02*
X244321428Y-128540000D01*
X244378571Y-128511428D01*
X244464285Y-128511428D01*
X244521428Y-128540000D01*
X244550000Y-128597142D01*
X244550000Y-128911428D01*
X244550000Y-128597142D02*
X244578571Y-128540000D01*
X244635714Y-128511428D01*
X244721428Y-128511428D01*
X244778571Y-128540000D01*
X244807142Y-128597142D01*
X244807142Y-128911428D01*
D10*
X216147714Y-126498304D02*
X216147714Y-125698304D01*
X216452476Y-125698304D01*
X216528666Y-125736400D01*
X216566761Y-125774495D01*
X216604857Y-125850685D01*
X216604857Y-125964971D01*
X216566761Y-126041161D01*
X216528666Y-126079257D01*
X216452476Y-126117352D01*
X216147714Y-126117352D01*
X217176285Y-125698304D02*
X217176285Y-126269733D01*
X217138190Y-126384019D01*
X217062000Y-126460209D01*
X216947714Y-126498304D01*
X216871523Y-126498304D01*
D11*
X190119000Y-101322142D02*
X190166619Y-101369761D01*
X190119000Y-101417380D01*
X190071380Y-101369761D01*
X190119000Y-101322142D01*
X190119000Y-101417380D01*
D12*
X236971428Y-133231285D02*
X236942857Y-133259857D01*
X236857142Y-133288428D01*
X236800000Y-133288428D01*
X236714285Y-133259857D01*
X236657142Y-133202714D01*
X236628571Y-133145571D01*
X236600000Y-133031285D01*
X236600000Y-132945571D01*
X236628571Y-132831285D01*
X236657142Y-132774142D01*
X236714285Y-132717000D01*
X236800000Y-132688428D01*
X236857142Y-132688428D01*
X236942857Y-132717000D01*
X236971428Y-132745571D01*
X237485714Y-132888428D02*
X237485714Y-133288428D01*
X237228571Y-132888428D02*
X237228571Y-133202714D01*
X237257142Y-133259857D01*
X237314285Y-133288428D01*
X237400000Y-133288428D01*
X237457142Y-133259857D01*
X237485714Y-133231285D01*
X237685714Y-132888428D02*
X237914285Y-132888428D01*
X237771428Y-132688428D02*
X237771428Y-133202714D01*
X237800000Y-133259857D01*
X237857142Y-133288428D01*
X237914285Y-133288428D01*
X238571428Y-133288428D02*
X238571428Y-132688428D01*
X238828571Y-133288428D02*
X238828571Y-132974142D01*
X238800000Y-132917000D01*
X238742857Y-132888428D01*
X238657142Y-132888428D01*
X238600000Y-132917000D01*
X238571428Y-132945571D01*
X239342857Y-133259857D02*
X239285714Y-133288428D01*
X239171428Y-133288428D01*
X239114285Y-133259857D01*
X239085714Y-133202714D01*
X239085714Y-132974142D01*
X239114285Y-132917000D01*
X239171428Y-132888428D01*
X239285714Y-132888428D01*
X239342857Y-132917000D01*
X239371428Y-132974142D01*
X239371428Y-133031285D01*
X239085714Y-133088428D01*
X239628571Y-133288428D02*
X239628571Y-132888428D01*
X239628571Y-133002714D02*
X239657142Y-132945571D01*
X239685714Y-132917000D01*
X239742857Y-132888428D01*
X239800000Y-132888428D01*
X240228571Y-133259857D02*
X240171428Y-133288428D01*
X240057142Y-133288428D01*
X240000000Y-133259857D01*
X239971428Y-133202714D01*
X239971428Y-132974142D01*
X240000000Y-132917000D01*
X240057142Y-132888428D01*
X240171428Y-132888428D01*
X240228571Y-132917000D01*
X240257142Y-132974142D01*
X240257142Y-133031285D01*
X239971428Y-133088428D01*
X240885714Y-132888428D02*
X241114285Y-132888428D01*
X240971428Y-133288428D02*
X240971428Y-132774142D01*
X241000000Y-132717000D01*
X241057142Y-132688428D01*
X241114285Y-132688428D01*
X241400000Y-133288428D02*
X241342857Y-133259857D01*
X241314285Y-133231285D01*
X241285714Y-133174142D01*
X241285714Y-133002714D01*
X241314285Y-132945571D01*
X241342857Y-132917000D01*
X241400000Y-132888428D01*
X241485714Y-132888428D01*
X241542857Y-132917000D01*
X241571428Y-132945571D01*
X241600000Y-133002714D01*
X241600000Y-133174142D01*
X241571428Y-133231285D01*
X241542857Y-133259857D01*
X241485714Y-133288428D01*
X241400000Y-133288428D01*
X241857142Y-133288428D02*
X241857142Y-132888428D01*
X241857142Y-133002714D02*
X241885714Y-132945571D01*
X241914285Y-132917000D01*
X241971428Y-132888428D01*
X242028571Y-132888428D01*
X242771428Y-132945571D02*
X242714285Y-132917000D01*
X242685714Y-132888428D01*
X242657142Y-132831285D01*
X242657142Y-132802714D01*
X242685714Y-132745571D01*
X242714285Y-132717000D01*
X242771428Y-132688428D01*
X242885714Y-132688428D01*
X242942857Y-132717000D01*
X242971428Y-132745571D01*
X243000000Y-132802714D01*
X243000000Y-132831285D01*
X242971428Y-132888428D01*
X242942857Y-132917000D01*
X242885714Y-132945571D01*
X242771428Y-132945571D01*
X242714285Y-132974142D01*
X242685714Y-133002714D01*
X242657142Y-133059857D01*
X242657142Y-133174142D01*
X242685714Y-133231285D01*
X242714285Y-133259857D01*
X242771428Y-133288428D01*
X242885714Y-133288428D01*
X242942857Y-133259857D01*
X242971428Y-133231285D01*
X243000000Y-133174142D01*
X243000000Y-133059857D01*
X242971428Y-133002714D01*
X242942857Y-132974142D01*
X242885714Y-132945571D01*
X243514285Y-132688428D02*
X243400000Y-132688428D01*
X243342857Y-132717000D01*
X243314285Y-132745571D01*
X243257142Y-132831285D01*
X243228571Y-132945571D01*
X243228571Y-133174142D01*
X243257142Y-133231285D01*
X243285714Y-133259857D01*
X243342857Y-133288428D01*
X243457142Y-133288428D01*
X243514285Y-133259857D01*
X243542857Y-133231285D01*
X243571428Y-133174142D01*
X243571428Y-133031285D01*
X243542857Y-132974142D01*
X243514285Y-132945571D01*
X243457142Y-132917000D01*
X243342857Y-132917000D01*
X243285714Y-132945571D01*
X243257142Y-132974142D01*
X243228571Y-133031285D01*
X243914285Y-132945571D02*
X243857142Y-132917000D01*
X243828571Y-132888428D01*
X243800000Y-132831285D01*
X243800000Y-132802714D01*
X243828571Y-132745571D01*
X243857142Y-132717000D01*
X243914285Y-132688428D01*
X244028571Y-132688428D01*
X244085714Y-132717000D01*
X244114285Y-132745571D01*
X244142857Y-132802714D01*
X244142857Y-132831285D01*
X244114285Y-132888428D01*
X244085714Y-132917000D01*
X244028571Y-132945571D01*
X243914285Y-132945571D01*
X243857142Y-132974142D01*
X243828571Y-133002714D01*
X243800000Y-133059857D01*
X243800000Y-133174142D01*
X243828571Y-133231285D01*
X243857142Y-133259857D01*
X243914285Y-133288428D01*
X244028571Y-133288428D01*
X244085714Y-133259857D01*
X244114285Y-133231285D01*
X244142857Y-133174142D01*
X244142857Y-133059857D01*
X244114285Y-133002714D01*
X244085714Y-132974142D01*
X244028571Y-132945571D01*
X244400000Y-133288428D02*
X244400000Y-132688428D01*
X244600000Y-133117000D01*
X244800000Y-132688428D01*
X244800000Y-133288428D01*
X245085714Y-133288428D02*
X245085714Y-132688428D01*
X245085714Y-132974142D02*
X245428571Y-132974142D01*
X245428571Y-133288428D02*
X245428571Y-132688428D01*
X245657142Y-132888428D02*
X245971428Y-132888428D01*
X245657142Y-133288428D01*
X245971428Y-133288428D01*
X234757142Y-134254428D02*
X234757142Y-133854428D01*
X234757142Y-133654428D02*
X234728571Y-133683000D01*
X234757142Y-133711571D01*
X234785714Y-133683000D01*
X234757142Y-133654428D01*
X234757142Y-133711571D01*
X235042857Y-133854428D02*
X235042857Y-134254428D01*
X235042857Y-133911571D02*
X235071428Y-133883000D01*
X235128571Y-133854428D01*
X235214285Y-133854428D01*
X235271428Y-133883000D01*
X235300000Y-133940142D01*
X235300000Y-134254428D01*
X236300000Y-134254428D02*
X236300000Y-133940142D01*
X236271428Y-133883000D01*
X236214285Y-133854428D01*
X236100000Y-133854428D01*
X236042857Y-133883000D01*
X236300000Y-134225857D02*
X236242857Y-134254428D01*
X236100000Y-134254428D01*
X236042857Y-134225857D01*
X236014285Y-134168714D01*
X236014285Y-134111571D01*
X236042857Y-134054428D01*
X236100000Y-134025857D01*
X236242857Y-134025857D01*
X236300000Y-133997285D01*
X236957142Y-133854428D02*
X237185714Y-133854428D01*
X237042857Y-133654428D02*
X237042857Y-134168714D01*
X237071428Y-134225857D01*
X237128571Y-134254428D01*
X237185714Y-134254428D01*
X237385714Y-134254428D02*
X237385714Y-133654428D01*
X237642857Y-134254428D02*
X237642857Y-133940142D01*
X237614285Y-133883000D01*
X237557142Y-133854428D01*
X237471428Y-133854428D01*
X237414285Y-133883000D01*
X237385714Y-133911571D01*
X237928571Y-134254428D02*
X237928571Y-133854428D01*
X237928571Y-133654428D02*
X237900000Y-133683000D01*
X237928571Y-133711571D01*
X237957142Y-133683000D01*
X237928571Y-133654428D01*
X237928571Y-133711571D01*
X238471428Y-134225857D02*
X238414285Y-134254428D01*
X238300000Y-134254428D01*
X238242857Y-134225857D01*
X238214285Y-134197285D01*
X238185714Y-134140142D01*
X238185714Y-133968714D01*
X238214285Y-133911571D01*
X238242857Y-133883000D01*
X238300000Y-133854428D01*
X238414285Y-133854428D01*
X238471428Y-133883000D01*
X238728571Y-134254428D02*
X238728571Y-133654428D01*
X238785714Y-134025857D02*
X238957142Y-134254428D01*
X238957142Y-133854428D02*
X238728571Y-134083000D01*
X239671428Y-134254428D02*
X239671428Y-133654428D01*
X239900000Y-133654428D01*
X239957142Y-133683000D01*
X239985714Y-133711571D01*
X240014285Y-133768714D01*
X240014285Y-133854428D01*
X239985714Y-133911571D01*
X239957142Y-133940142D01*
X239900000Y-133968714D01*
X239671428Y-133968714D01*
X240185714Y-133654428D02*
X240385714Y-134254428D01*
X240585714Y-133654428D01*
X241128571Y-134197285D02*
X241100000Y-134225857D01*
X241014285Y-134254428D01*
X240957142Y-134254428D01*
X240871428Y-134225857D01*
X240814285Y-134168714D01*
X240785714Y-134111571D01*
X240757142Y-133997285D01*
X240757142Y-133911571D01*
X240785714Y-133797285D01*
X240814285Y-133740142D01*
X240871428Y-133683000D01*
X240957142Y-133654428D01*
X241014285Y-133654428D01*
X241100000Y-133683000D01*
X241128571Y-133711571D01*
X241842857Y-133854428D02*
X241842857Y-134454428D01*
X241842857Y-133883000D02*
X241900000Y-133854428D01*
X242014285Y-133854428D01*
X242071428Y-133883000D01*
X242100000Y-133911571D01*
X242128571Y-133968714D01*
X242128571Y-134140142D01*
X242100000Y-134197285D01*
X242071428Y-134225857D01*
X242014285Y-134254428D01*
X241900000Y-134254428D01*
X241842857Y-134225857D01*
X242385714Y-134254428D02*
X242385714Y-133854428D01*
X242385714Y-133654428D02*
X242357142Y-133683000D01*
X242385714Y-133711571D01*
X242414285Y-133683000D01*
X242385714Y-133654428D01*
X242385714Y-133711571D01*
X242671428Y-133854428D02*
X242671428Y-134454428D01*
X242671428Y-133883000D02*
X242728571Y-133854428D01*
X242842857Y-133854428D01*
X242900000Y-133883000D01*
X242928571Y-133911571D01*
X242957142Y-133968714D01*
X242957142Y-134140142D01*
X242928571Y-134197285D01*
X242900000Y-134225857D01*
X242842857Y-134254428D01*
X242728571Y-134254428D01*
X242671428Y-134225857D01*
X243442857Y-134225857D02*
X243385714Y-134254428D01*
X243271428Y-134254428D01*
X243214285Y-134225857D01*
X243185714Y-134168714D01*
X243185714Y-133940142D01*
X243214285Y-133883000D01*
X243271428Y-133854428D01*
X243385714Y-133854428D01*
X243442857Y-133883000D01*
X243471428Y-133940142D01*
X243471428Y-133997285D01*
X243185714Y-134054428D01*
X244414285Y-134225857D02*
X244357142Y-134254428D01*
X244242857Y-134254428D01*
X244185714Y-134225857D01*
X244157142Y-134168714D01*
X244157142Y-133940142D01*
X244185714Y-133883000D01*
X244242857Y-133854428D01*
X244357142Y-133854428D01*
X244414285Y-133883000D01*
X244442857Y-133940142D01*
X244442857Y-133997285D01*
X244157142Y-134054428D01*
X244700000Y-133854428D02*
X244700000Y-134254428D01*
X244700000Y-133911571D02*
X244728571Y-133883000D01*
X244785714Y-133854428D01*
X244871428Y-133854428D01*
X244928571Y-133883000D01*
X244957142Y-133940142D01*
X244957142Y-134254428D01*
X245500000Y-134225857D02*
X245442857Y-134254428D01*
X245328571Y-134254428D01*
X245271428Y-134225857D01*
X245242857Y-134197285D01*
X245214285Y-134140142D01*
X245214285Y-133968714D01*
X245242857Y-133911571D01*
X245271428Y-133883000D01*
X245328571Y-133854428D01*
X245442857Y-133854428D01*
X245500000Y-133883000D01*
X245842857Y-134254428D02*
X245785714Y-134225857D01*
X245757142Y-134168714D01*
X245757142Y-133654428D01*
X246157142Y-134254428D02*
X246100000Y-134225857D01*
X246071428Y-134197285D01*
X246042857Y-134140142D01*
X246042857Y-133968714D01*
X246071428Y-133911571D01*
X246100000Y-133883000D01*
X246157142Y-133854428D01*
X246242857Y-133854428D01*
X246300000Y-133883000D01*
X246328571Y-133911571D01*
X246357142Y-133968714D01*
X246357142Y-134140142D01*
X246328571Y-134197285D01*
X246300000Y-134225857D01*
X246242857Y-134254428D01*
X246157142Y-134254428D01*
X246585714Y-134225857D02*
X246642857Y-134254428D01*
X246757142Y-134254428D01*
X246814285Y-134225857D01*
X246842857Y-134168714D01*
X246842857Y-134140142D01*
X246814285Y-134083000D01*
X246757142Y-134054428D01*
X246671428Y-134054428D01*
X246614285Y-134025857D01*
X246585714Y-133968714D01*
X246585714Y-133940142D01*
X246614285Y-133883000D01*
X246671428Y-133854428D01*
X246757142Y-133854428D01*
X246814285Y-133883000D01*
X247357142Y-133854428D02*
X247357142Y-134254428D01*
X247100000Y-133854428D02*
X247100000Y-134168714D01*
X247128571Y-134225857D01*
X247185714Y-134254428D01*
X247271428Y-134254428D01*
X247328571Y-134225857D01*
X247357142Y-134197285D01*
X247642857Y-134254428D02*
X247642857Y-133854428D01*
X247642857Y-133968714D02*
X247671428Y-133911571D01*
X247700000Y-133883000D01*
X247757142Y-133854428D01*
X247814285Y-133854428D01*
X248242857Y-134225857D02*
X248185714Y-134254428D01*
X248071428Y-134254428D01*
X248014285Y-134225857D01*
X247985714Y-134168714D01*
X247985714Y-133940142D01*
X248014285Y-133883000D01*
X248071428Y-133854428D01*
X248185714Y-133854428D01*
X248242857Y-133883000D01*
X248271428Y-133940142D01*
X248271428Y-133997285D01*
X247985714Y-134054428D01*
D13*
X211576666Y-119084666D02*
X212910000Y-119084666D01*
X211310000Y-119884666D02*
X212243333Y-117084666D01*
X213176666Y-119884666D01*
X215310000Y-119751333D02*
X215043333Y-119884666D01*
X214510000Y-119884666D01*
X214243333Y-119751333D01*
X214110000Y-119618000D01*
X213976666Y-119351333D01*
X213976666Y-118551333D01*
X214110000Y-118284666D01*
X214243333Y-118151333D01*
X214510000Y-118018000D01*
X215043333Y-118018000D01*
X215310000Y-118151333D01*
X216510000Y-119884666D02*
X216510000Y-118018000D01*
X216510000Y-118551333D02*
X216643333Y-118284666D01*
X216776666Y-118151333D01*
X217043333Y-118018000D01*
X217310000Y-118018000D01*
X219310000Y-119751333D02*
X219043333Y-119884666D01*
X218510000Y-119884666D01*
X218243333Y-119751333D01*
X218110000Y-119484666D01*
X218110000Y-118418000D01*
X218243333Y-118151333D01*
X218510000Y-118018000D01*
X219043333Y-118018000D01*
X219310000Y-118151333D01*
X219443333Y-118418000D01*
X219443333Y-118684666D01*
X218110000Y-118951333D01*
X221976666Y-119884666D02*
X220643333Y-119884666D01*
X220643333Y-117084666D01*
X222910000Y-119884666D02*
X222910000Y-118018000D01*
X222910000Y-117084666D02*
X222776666Y-117218000D01*
X222910000Y-117351333D01*
X223043333Y-117218000D01*
X222910000Y-117084666D01*
X222910000Y-117351333D01*
X224243333Y-118018000D02*
X224243333Y-119884666D01*
X224243333Y-118284666D02*
X224376666Y-118151333D01*
X224643333Y-118018000D01*
X225043333Y-118018000D01*
X225310000Y-118151333D01*
X225443333Y-118418000D01*
X225443333Y-119884666D01*
X226776666Y-119884666D02*
X226776666Y-117084666D01*
X227043333Y-118818000D02*
X227843333Y-119884666D01*
X227843333Y-118018000D02*
X226776666Y-119084666D01*
D10*
X208940476Y-135236000D02*
X208864285Y-135197904D01*
X208750000Y-135197904D01*
X208635714Y-135236000D01*
X208559523Y-135312190D01*
X208521428Y-135388380D01*
X208483333Y-135540761D01*
X208483333Y-135655047D01*
X208521428Y-135807428D01*
X208559523Y-135883619D01*
X208635714Y-135959809D01*
X208750000Y-135997904D01*
X208826190Y-135997904D01*
X208940476Y-135959809D01*
X208978571Y-135921714D01*
X208978571Y-135655047D01*
X208826190Y-135655047D01*
X209321428Y-135997904D02*
X209321428Y-135197904D01*
X209778571Y-135997904D01*
X209778571Y-135197904D01*
X210159523Y-135997904D02*
X210159523Y-135197904D01*
X210350000Y-135197904D01*
X210464285Y-135236000D01*
X210540476Y-135312190D01*
X210578571Y-135388380D01*
X210616666Y-135540761D01*
X210616666Y-135655047D01*
X210578571Y-135807428D01*
X210540476Y-135883619D01*
X210464285Y-135959809D01*
X210350000Y-135997904D01*
X210159523Y-135997904D01*
D12*
X239885714Y-131671428D02*
X239771428Y-131671428D01*
X239714285Y-131700000D01*
X239685714Y-131728571D01*
X239628571Y-131814285D01*
X239600000Y-131928571D01*
X239600000Y-132157142D01*
X239628571Y-132214285D01*
X239657142Y-132242857D01*
X239714285Y-132271428D01*
X239828571Y-132271428D01*
X239885714Y-132242857D01*
X239914285Y-132214285D01*
X239942857Y-132157142D01*
X239942857Y-132014285D01*
X239914285Y-131957142D01*
X239885714Y-131928571D01*
X239828571Y-131900000D01*
X239714285Y-131900000D01*
X239657142Y-131928571D01*
X239628571Y-131957142D01*
X239600000Y-132014285D01*
X240200000Y-132214285D02*
X240228571Y-132242857D01*
X240200000Y-132271428D01*
X240171428Y-132242857D01*
X240200000Y-132214285D01*
X240200000Y-132271428D01*
X240771428Y-131671428D02*
X240485714Y-131671428D01*
X240457142Y-131957142D01*
X240485714Y-131928571D01*
X240542857Y-131900000D01*
X240685714Y-131900000D01*
X240742857Y-131928571D01*
X240771428Y-131957142D01*
X240800000Y-132014285D01*
X240800000Y-132157142D01*
X240771428Y-132214285D01*
X240742857Y-132242857D01*
X240685714Y-132271428D01*
X240542857Y-132271428D01*
X240485714Y-132242857D01*
X240457142Y-132214285D01*
X241057142Y-132271428D02*
X241057142Y-131871428D01*
X241057142Y-131928571D02*
X241085714Y-131900000D01*
X241142857Y-131871428D01*
X241228571Y-131871428D01*
X241285714Y-131900000D01*
X241314285Y-131957142D01*
X241314285Y-132271428D01*
X241314285Y-131957142D02*
X241342857Y-131900000D01*
X241400000Y-131871428D01*
X241485714Y-131871428D01*
X241542857Y-131900000D01*
X241571428Y-131957142D01*
X241571428Y-132271428D01*
X241857142Y-132271428D02*
X241857142Y-131871428D01*
X241857142Y-131928571D02*
X241885714Y-131900000D01*
X241942857Y-131871428D01*
X242028571Y-131871428D01*
X242085714Y-131900000D01*
X242114285Y-131957142D01*
X242114285Y-132271428D01*
X242114285Y-131957142D02*
X242142857Y-131900000D01*
X242200000Y-131871428D01*
X242285714Y-131871428D01*
X242342857Y-131900000D01*
X242371428Y-131957142D01*
X242371428Y-132271428D01*
D11*
X204597000Y-112117142D02*
X204644619Y-112164761D01*
X204597000Y-112212380D01*
X204549380Y-112164761D01*
X204597000Y-112117142D01*
X204597000Y-112212380D01*
D10*
X174371276Y-107791304D02*
X174637942Y-108591304D01*
X174904609Y-107791304D01*
X175171276Y-108591304D02*
X175171276Y-107791304D01*
X175361752Y-107791304D01*
X175476038Y-107829400D01*
X175552228Y-107905590D01*
X175590323Y-107981780D01*
X175628419Y-108134161D01*
X175628419Y-108248447D01*
X175590323Y-108400828D01*
X175552228Y-108477019D01*
X175476038Y-108553209D01*
X175361752Y-108591304D01*
X175171276Y-108591304D01*
X175971276Y-108591304D02*
X175971276Y-107791304D01*
X176161752Y-107791304D01*
X176276038Y-107829400D01*
X176352228Y-107905590D01*
X176390323Y-107981780D01*
X176428419Y-108134161D01*
X176428419Y-108248447D01*
X176390323Y-108400828D01*
X176352228Y-108477019D01*
X176276038Y-108553209D01*
X176161752Y-108591304D01*
X175971276Y-108591304D01*
X176580800Y-108667495D02*
X177190323Y-108667495D01*
X177342704Y-108553209D02*
X177456990Y-108591304D01*
X177647466Y-108591304D01*
X177723657Y-108553209D01*
X177761752Y-108515114D01*
X177799847Y-108438923D01*
X177799847Y-108362733D01*
X177761752Y-108286542D01*
X177723657Y-108248447D01*
X177647466Y-108210352D01*
X177495085Y-108172257D01*
X177418895Y-108134161D01*
X177380800Y-108096066D01*
X177342704Y-108019876D01*
X177342704Y-107943685D01*
X177380800Y-107867495D01*
X177418895Y-107829400D01*
X177495085Y-107791304D01*
X177685561Y-107791304D01*
X177799847Y-107829400D01*
X178066514Y-107791304D02*
X178256990Y-108591304D01*
X178409371Y-108019876D01*
X178561752Y-108591304D01*
X178752228Y-107791304D01*
D11*
X210485714Y-101452380D02*
X210152380Y-100976190D01*
X209914285Y-101452380D02*
X209914285Y-100452380D01*
X210295238Y-100452380D01*
X210390476Y-100500000D01*
X210438095Y-100547619D01*
X210485714Y-100642857D01*
X210485714Y-100785714D01*
X210438095Y-100880952D01*
X210390476Y-100928571D01*
X210295238Y-100976190D01*
X209914285Y-100976190D01*
X211247619Y-100928571D02*
X210914285Y-100928571D01*
X210914285Y-101452380D02*
X210914285Y-100452380D01*
X211390476Y-100452380D01*
X211771428Y-101452380D02*
X211771428Y-100452380D01*
X212104761Y-101166666D01*
X212438095Y-100452380D01*
X212438095Y-101452380D01*
X212961904Y-101452380D02*
X213152380Y-101452380D01*
X213247619Y-101404761D01*
X213295238Y-101357142D01*
X213390476Y-101214285D01*
X213438095Y-101023809D01*
X213438095Y-100642857D01*
X213390476Y-100547619D01*
X213342857Y-100500000D01*
X213247619Y-100452380D01*
X213057142Y-100452380D01*
X212961904Y-100500000D01*
X212914285Y-100547619D01*
X212866666Y-100642857D01*
X212866666Y-100880952D01*
X212914285Y-100976190D01*
X212961904Y-101023809D01*
X213057142Y-101071428D01*
X213247619Y-101071428D01*
X213342857Y-101023809D01*
X213390476Y-100976190D01*
X213438095Y-100880952D01*
X214342857Y-100452380D02*
X213866666Y-100452380D01*
X213819047Y-100928571D01*
X213866666Y-100880952D01*
X213961904Y-100833333D01*
X214200000Y-100833333D01*
X214295238Y-100880952D01*
X214342857Y-100928571D01*
X214390476Y-101023809D01*
X214390476Y-101261904D01*
X214342857Y-101357142D01*
X214295238Y-101404761D01*
X214200000Y-101452380D01*
X213961904Y-101452380D01*
X213866666Y-101404761D01*
X213819047Y-101357142D01*
X214723809Y-100452380D02*
X214961904Y-101452380D01*
X215152380Y-100738095D01*
X215342857Y-101452380D01*
X215580952Y-100452380D01*
X199572571Y-97131047D02*
X199620190Y-96988190D01*
X199667809Y-96940571D01*
X199763047Y-96892952D01*
X199905904Y-96892952D01*
X200001142Y-96940571D01*
X200048761Y-96988190D01*
X200096380Y-97083428D01*
X200096380Y-97464380D01*
X199096380Y-97464380D01*
X199096380Y-97131047D01*
X199144000Y-97035809D01*
X199191619Y-96988190D01*
X199286857Y-96940571D01*
X199382095Y-96940571D01*
X199477333Y-96988190D01*
X199524952Y-97035809D01*
X199572571Y-97131047D01*
X199572571Y-97464380D01*
X199810666Y-96512000D02*
X199810666Y-96035809D01*
X200096380Y-96607238D02*
X199096380Y-96273904D01*
X200096380Y-95940571D01*
X199096380Y-95750095D02*
X199096380Y-95178666D01*
X200096380Y-95464380D02*
X199096380Y-95464380D01*
X199096380Y-94988190D02*
X199096380Y-94416761D01*
X200096380Y-94702476D02*
X199096380Y-94702476D01*
X187158380Y-98289809D02*
X188158380Y-97956476D01*
X187158380Y-97623142D01*
X188253619Y-97527904D02*
X188253619Y-96766000D01*
X187634571Y-96527904D02*
X187634571Y-96194571D01*
X188158380Y-96051714D02*
X188158380Y-96527904D01*
X187158380Y-96527904D01*
X187158380Y-96051714D01*
X187158380Y-95718380D02*
X188158380Y-95051714D01*
X187158380Y-95051714D02*
X188158380Y-95718380D01*
X187158380Y-94813619D02*
X187158380Y-94242190D01*
X188158380Y-94527904D02*
X187158380Y-94527904D01*
D10*
X156406952Y-101669904D02*
X156673619Y-102469904D01*
X156940285Y-101669904D01*
X157206952Y-102469904D02*
X157206952Y-101936571D01*
X157206952Y-101669904D02*
X157168857Y-101708000D01*
X157206952Y-101746095D01*
X157245047Y-101708000D01*
X157206952Y-101669904D01*
X157206952Y-101746095D01*
X157587904Y-101936571D02*
X157587904Y-102469904D01*
X157587904Y-102012761D02*
X157626000Y-101974666D01*
X157702190Y-101936571D01*
X157816476Y-101936571D01*
X157892666Y-101974666D01*
X157930761Y-102050857D01*
X157930761Y-102469904D01*
X156870476Y-99422000D02*
X156794285Y-99383904D01*
X156680000Y-99383904D01*
X156565714Y-99422000D01*
X156489523Y-99498190D01*
X156451428Y-99574380D01*
X156413333Y-99726761D01*
X156413333Y-99841047D01*
X156451428Y-99993428D01*
X156489523Y-100069619D01*
X156565714Y-100145809D01*
X156680000Y-100183904D01*
X156756190Y-100183904D01*
X156870476Y-100145809D01*
X156908571Y-100107714D01*
X156908571Y-99841047D01*
X156756190Y-99841047D01*
X157251428Y-100183904D02*
X157251428Y-99383904D01*
X157708571Y-100183904D01*
X157708571Y-99383904D01*
X158089523Y-100183904D02*
X158089523Y-99383904D01*
X158280000Y-99383904D01*
X158394285Y-99422000D01*
X158470476Y-99498190D01*
X158508571Y-99574380D01*
X158546666Y-99726761D01*
X158546666Y-99841047D01*
X158508571Y-99993428D01*
X158470476Y-100069619D01*
X158394285Y-100145809D01*
X158280000Y-100183904D01*
X158089523Y-100183904D01*
D11*
X195834000Y-99671142D02*
X195881619Y-99718761D01*
X195834000Y-99766380D01*
X195786380Y-99718761D01*
X195834000Y-99671142D01*
X195834000Y-99766380D01*
X161850000Y-124447142D02*
X161897619Y-124494761D01*
X161850000Y-124542380D01*
X161802380Y-124494761D01*
X161850000Y-124447142D01*
X161850000Y-124542380D01*
D10*
X209416666Y-133711904D02*
X209150000Y-133330952D01*
X208959523Y-133711904D02*
X208959523Y-132911904D01*
X209264285Y-132911904D01*
X209340476Y-132950000D01*
X209378571Y-132988095D01*
X209416666Y-133064285D01*
X209416666Y-133178571D01*
X209378571Y-133254761D01*
X209340476Y-133292857D01*
X209264285Y-133330952D01*
X208959523Y-133330952D01*
X209683333Y-132911904D02*
X210216666Y-133711904D01*
X210216666Y-132911904D02*
X209683333Y-133711904D01*
D11*
X228981000Y-129516142D02*
X229028619Y-129563761D01*
X228981000Y-129611380D01*
X228933380Y-129563761D01*
X228981000Y-129516142D01*
X228981000Y-129611380D01*
D10*
X225621904Y-128123904D02*
X225355238Y-127742952D01*
X225164761Y-128123904D02*
X225164761Y-127323904D01*
X225469523Y-127323904D01*
X225545714Y-127362000D01*
X225583809Y-127400095D01*
X225621904Y-127476285D01*
X225621904Y-127590571D01*
X225583809Y-127666761D01*
X225545714Y-127704857D01*
X225469523Y-127742952D01*
X225164761Y-127742952D01*
X225926666Y-128085809D02*
X226040952Y-128123904D01*
X226231428Y-128123904D01*
X226307619Y-128085809D01*
X226345714Y-128047714D01*
X226383809Y-127971523D01*
X226383809Y-127895333D01*
X226345714Y-127819142D01*
X226307619Y-127781047D01*
X226231428Y-127742952D01*
X226079047Y-127704857D01*
X226002857Y-127666761D01*
X225964761Y-127628666D01*
X225926666Y-127552476D01*
X225926666Y-127476285D01*
X225964761Y-127400095D01*
X226002857Y-127362000D01*
X226079047Y-127323904D01*
X226269523Y-127323904D01*
X226383809Y-127362000D01*
X226612380Y-127323904D02*
X227069523Y-127323904D01*
X226840952Y-128123904D02*
X226840952Y-127323904D01*
X175412600Y-105911704D02*
X175412600Y-106559323D01*
X175450695Y-106635514D01*
X175488790Y-106673609D01*
X175564980Y-106711704D01*
X175717361Y-106711704D01*
X175793552Y-106673609D01*
X175831647Y-106635514D01*
X175869742Y-106559323D01*
X175869742Y-105911704D01*
X176212600Y-105987895D02*
X176250695Y-105949800D01*
X176326885Y-105911704D01*
X176517361Y-105911704D01*
X176593552Y-105949800D01*
X176631647Y-105987895D01*
X176669742Y-106064085D01*
X176669742Y-106140276D01*
X176631647Y-106254561D01*
X176174504Y-106711704D01*
X176669742Y-106711704D01*
X176822123Y-106787895D02*
X177431647Y-106787895D01*
X177507838Y-105911704D02*
X177964980Y-105911704D01*
X177736409Y-106711704D02*
X177736409Y-105911704D01*
X178155457Y-105911704D02*
X178688790Y-106711704D01*
X178688790Y-105911704D02*
X178155457Y-106711704D01*
D11*
X204890666Y-121888000D02*
X204890666Y-121411809D01*
X205176380Y-121983238D02*
X204176380Y-121649904D01*
X205176380Y-121316571D01*
X205128761Y-120554666D02*
X205176380Y-120649904D01*
X205176380Y-120840380D01*
X205128761Y-120935619D01*
X205081142Y-120983238D01*
X204985904Y-121030857D01*
X204700190Y-121030857D01*
X204604952Y-120983238D01*
X204557333Y-120935619D01*
X204509714Y-120840380D01*
X204509714Y-120649904D01*
X204557333Y-120554666D01*
X204509714Y-120268952D02*
X204509714Y-119888000D01*
X204176380Y-120126095D02*
X205033523Y-120126095D01*
X205128761Y-120078476D01*
X205176380Y-119983238D01*
X205176380Y-119888000D01*
X205176380Y-119554666D02*
X204509714Y-119554666D01*
X204176380Y-119554666D02*
X204224000Y-119602285D01*
X204271619Y-119554666D01*
X204224000Y-119507047D01*
X204176380Y-119554666D01*
X204271619Y-119554666D01*
X204509714Y-119173714D02*
X205176380Y-118935619D01*
X204509714Y-118697523D01*
X205128761Y-117935619D02*
X205176380Y-118030857D01*
X205176380Y-118221333D01*
X205128761Y-118316571D01*
X205033523Y-118364190D01*
X204652571Y-118364190D01*
X204557333Y-118316571D01*
X204509714Y-118221333D01*
X204509714Y-118030857D01*
X204557333Y-117935619D01*
X204652571Y-117888000D01*
X204747809Y-117888000D01*
X204843047Y-118364190D01*
X181603704Y-97739180D02*
X181603704Y-98120133D01*
X181984657Y-98158228D01*
X181946561Y-98120133D01*
X181908466Y-98043942D01*
X181908466Y-97853466D01*
X181946561Y-97777276D01*
X181984657Y-97739180D01*
X182060847Y-97701085D01*
X182251323Y-97701085D01*
X182327514Y-97739180D01*
X182365609Y-97777276D01*
X182403704Y-97853466D01*
X182403704Y-98043942D01*
X182365609Y-98120133D01*
X182327514Y-98158228D01*
X181603704Y-97472514D02*
X182403704Y-97205847D01*
X181603704Y-96939180D01*
X203230000Y-129177142D02*
X203277619Y-129224761D01*
X203230000Y-129272380D01*
X203182380Y-129224761D01*
X203230000Y-129177142D01*
X203230000Y-129272380D01*
D10*
X208940476Y-130371904D02*
X209397619Y-130371904D01*
X209169047Y-131171904D02*
X209169047Y-130371904D01*
X209588095Y-130371904D02*
X210121428Y-131171904D01*
X210121428Y-130371904D02*
X209588095Y-131171904D01*
D12*
X240280000Y-127428428D02*
X240280000Y-126828428D01*
X240537142Y-127428428D02*
X240537142Y-127114142D01*
X240508571Y-127057000D01*
X240451428Y-127028428D01*
X240365714Y-127028428D01*
X240308571Y-127057000D01*
X240280000Y-127085571D01*
X241051428Y-127399857D02*
X240994285Y-127428428D01*
X240880000Y-127428428D01*
X240822857Y-127399857D01*
X240794285Y-127342714D01*
X240794285Y-127114142D01*
X240822857Y-127057000D01*
X240880000Y-127028428D01*
X240994285Y-127028428D01*
X241051428Y-127057000D01*
X241080000Y-127114142D01*
X241080000Y-127171285D01*
X240794285Y-127228428D01*
X241337142Y-127428428D02*
X241337142Y-127028428D01*
X241337142Y-127142714D02*
X241365714Y-127085571D01*
X241394285Y-127057000D01*
X241451428Y-127028428D01*
X241508571Y-127028428D01*
X241937142Y-127399857D02*
X241880000Y-127428428D01*
X241765714Y-127428428D01*
X241708571Y-127399857D01*
X241680000Y-127342714D01*
X241680000Y-127114142D01*
X241708571Y-127057000D01*
X241765714Y-127028428D01*
X241880000Y-127028428D01*
X241937142Y-127057000D01*
X241965714Y-127114142D01*
X241965714Y-127171285D01*
X241680000Y-127228428D01*
X242594285Y-127028428D02*
X242822857Y-127028428D01*
X242680000Y-127428428D02*
X242680000Y-126914142D01*
X242708571Y-126857000D01*
X242765714Y-126828428D01*
X242822857Y-126828428D01*
X243108571Y-127428428D02*
X243051428Y-127399857D01*
X243022857Y-127371285D01*
X242994285Y-127314142D01*
X242994285Y-127142714D01*
X243022857Y-127085571D01*
X243051428Y-127057000D01*
X243108571Y-127028428D01*
X243194285Y-127028428D01*
X243251428Y-127057000D01*
X243280000Y-127085571D01*
X243308571Y-127142714D01*
X243308571Y-127314142D01*
X243280000Y-127371285D01*
X243251428Y-127399857D01*
X243194285Y-127428428D01*
X243108571Y-127428428D01*
X243565714Y-127428428D02*
X243565714Y-127028428D01*
X243565714Y-127142714D02*
X243594285Y-127085571D01*
X243622857Y-127057000D01*
X243680000Y-127028428D01*
X243737142Y-127028428D01*
X244480000Y-127085571D02*
X244422857Y-127057000D01*
X244394285Y-127028428D01*
X244365714Y-126971285D01*
X244365714Y-126942714D01*
X244394285Y-126885571D01*
X244422857Y-126857000D01*
X244480000Y-126828428D01*
X244594285Y-126828428D01*
X244651428Y-126857000D01*
X244680000Y-126885571D01*
X244708571Y-126942714D01*
X244708571Y-126971285D01*
X244680000Y-127028428D01*
X244651428Y-127057000D01*
X244594285Y-127085571D01*
X244480000Y-127085571D01*
X244422857Y-127114142D01*
X244394285Y-127142714D01*
X244365714Y-127199857D01*
X244365714Y-127314142D01*
X244394285Y-127371285D01*
X244422857Y-127399857D01*
X244480000Y-127428428D01*
X244594285Y-127428428D01*
X244651428Y-127399857D01*
X244680000Y-127371285D01*
X244708571Y-127314142D01*
X244708571Y-127199857D01*
X244680000Y-127142714D01*
X244651428Y-127114142D01*
X244594285Y-127085571D01*
X245222857Y-126828428D02*
X245108571Y-126828428D01*
X245051428Y-126857000D01*
X245022857Y-126885571D01*
X244965714Y-126971285D01*
X244937142Y-127085571D01*
X244937142Y-127314142D01*
X244965714Y-127371285D01*
X244994285Y-127399857D01*
X245051428Y-127428428D01*
X245165714Y-127428428D01*
X245222857Y-127399857D01*
X245251428Y-127371285D01*
X245280000Y-127314142D01*
X245280000Y-127171285D01*
X245251428Y-127114142D01*
X245222857Y-127085571D01*
X245165714Y-127057000D01*
X245051428Y-127057000D01*
X244994285Y-127085571D01*
X244965714Y-127114142D01*
X244937142Y-127171285D01*
X245622857Y-127085571D02*
X245565714Y-127057000D01*
X245537142Y-127028428D01*
X245508571Y-126971285D01*
X245508571Y-126942714D01*
X245537142Y-126885571D01*
X245565714Y-126857000D01*
X245622857Y-126828428D01*
X245737142Y-126828428D01*
X245794285Y-126857000D01*
X245822857Y-126885571D01*
X245851428Y-126942714D01*
X245851428Y-126971285D01*
X245822857Y-127028428D01*
X245794285Y-127057000D01*
X245737142Y-127085571D01*
X245622857Y-127085571D01*
X245565714Y-127114142D01*
X245537142Y-127142714D01*
X245508571Y-127199857D01*
X245508571Y-127314142D01*
X245537142Y-127371285D01*
X245565714Y-127399857D01*
X245622857Y-127428428D01*
X245737142Y-127428428D01*
X245794285Y-127399857D01*
X245822857Y-127371285D01*
X245851428Y-127314142D01*
X245851428Y-127199857D01*
X245822857Y-127142714D01*
X245794285Y-127114142D01*
X245737142Y-127085571D01*
X246565714Y-127428428D02*
X246565714Y-126828428D01*
X246765714Y-127257000D01*
X246965714Y-126828428D01*
X246965714Y-127428428D01*
X247251428Y-127428428D02*
X247251428Y-126828428D01*
X247251428Y-127114142D02*
X247594285Y-127114142D01*
X247594285Y-127428428D02*
X247594285Y-126828428D01*
X247822857Y-127028428D02*
X248137142Y-127028428D01*
X247822857Y-127428428D01*
X248137142Y-127428428D01*
X245180000Y-128394428D02*
X245180000Y-127994428D01*
X245180000Y-127794428D02*
X245151428Y-127823000D01*
X245180000Y-127851571D01*
X245208571Y-127823000D01*
X245180000Y-127794428D01*
X245180000Y-127851571D01*
X245465714Y-127994428D02*
X245465714Y-128394428D01*
X245465714Y-128051571D02*
X245494285Y-128023000D01*
X245551428Y-127994428D01*
X245637142Y-127994428D01*
X245694285Y-128023000D01*
X245722857Y-128080142D01*
X245722857Y-128394428D01*
X246380000Y-127994428D02*
X246608571Y-127994428D01*
X246465714Y-128394428D02*
X246465714Y-127880142D01*
X246494285Y-127823000D01*
X246551428Y-127794428D01*
X246608571Y-127794428D01*
X246808571Y-128394428D02*
X246808571Y-127994428D01*
X246808571Y-128108714D02*
X246837142Y-128051571D01*
X246865714Y-128023000D01*
X246922857Y-127994428D01*
X246980000Y-127994428D01*
X247408571Y-128365857D02*
X247351428Y-128394428D01*
X247237142Y-128394428D01*
X247180000Y-128365857D01*
X247151428Y-128308714D01*
X247151428Y-128080142D01*
X247180000Y-128023000D01*
X247237142Y-127994428D01*
X247351428Y-127994428D01*
X247408571Y-128023000D01*
X247437142Y-128080142D01*
X247437142Y-128137285D01*
X247151428Y-128194428D01*
X247922857Y-128365857D02*
X247865714Y-128394428D01*
X247751428Y-128394428D01*
X247694285Y-128365857D01*
X247665714Y-128308714D01*
X247665714Y-128080142D01*
X247694285Y-128023000D01*
X247751428Y-127994428D01*
X247865714Y-127994428D01*
X247922857Y-128023000D01*
X247951428Y-128080142D01*
X247951428Y-128137285D01*
X247665714Y-128194428D01*
X248922857Y-128394428D02*
X248922857Y-128080142D01*
X248894285Y-128023000D01*
X248837142Y-127994428D01*
X248722857Y-127994428D01*
X248665714Y-128023000D01*
X248922857Y-128365857D02*
X248865714Y-128394428D01*
X248722857Y-128394428D01*
X248665714Y-128365857D01*
X248637142Y-128308714D01*
X248637142Y-128251571D01*
X248665714Y-128194428D01*
X248722857Y-128165857D01*
X248865714Y-128165857D01*
X248922857Y-128137285D01*
X249208571Y-128394428D02*
X249208571Y-127994428D01*
X249208571Y-127794428D02*
X249180000Y-127823000D01*
X249208571Y-127851571D01*
X249237142Y-127823000D01*
X249208571Y-127794428D01*
X249208571Y-127851571D01*
X249494285Y-128394428D02*
X249494285Y-127994428D01*
X249494285Y-128108714D02*
X249522857Y-128051571D01*
X249551428Y-128023000D01*
X249608571Y-127994428D01*
X249665714Y-127994428D01*
D11*
X157480000Y-108561142D02*
X157527619Y-108608761D01*
X157480000Y-108656380D01*
X157432380Y-108608761D01*
X157480000Y-108561142D01*
X157480000Y-108656380D01*
X150638190Y-95972380D02*
X150162000Y-95972380D01*
X150114380Y-96448571D01*
X150162000Y-96400952D01*
X150257238Y-96353333D01*
X150495333Y-96353333D01*
X150590571Y-96400952D01*
X150638190Y-96448571D01*
X150685809Y-96543809D01*
X150685809Y-96781904D01*
X150638190Y-96877142D01*
X150590571Y-96924761D01*
X150495333Y-96972380D01*
X150257238Y-96972380D01*
X150162000Y-96924761D01*
X150114380Y-96877142D01*
X151876285Y-96591428D02*
X152638190Y-96591428D01*
X153828666Y-96067619D02*
X153876285Y-96020000D01*
X153971523Y-95972380D01*
X154209619Y-95972380D01*
X154304857Y-96020000D01*
X154352476Y-96067619D01*
X154400095Y-96162857D01*
X154400095Y-96258095D01*
X154352476Y-96400952D01*
X153781047Y-96972380D01*
X154400095Y-96972380D01*
X155304857Y-95972380D02*
X154828666Y-95972380D01*
X154781047Y-96448571D01*
X154828666Y-96400952D01*
X154923904Y-96353333D01*
X155162000Y-96353333D01*
X155257238Y-96400952D01*
X155304857Y-96448571D01*
X155352476Y-96543809D01*
X155352476Y-96781904D01*
X155304857Y-96877142D01*
X155257238Y-96924761D01*
X155162000Y-96972380D01*
X154923904Y-96972380D01*
X154828666Y-96924761D01*
X154781047Y-96877142D01*
X155638190Y-95972380D02*
X155971523Y-96972380D01*
X156304857Y-95972380D01*
X213868000Y-136120142D02*
X213915619Y-136167761D01*
X213868000Y-136215380D01*
X213820380Y-136167761D01*
X213868000Y-136120142D01*
X213868000Y-136215380D01*
D10*
X212680504Y-128326971D02*
X211880504Y-128326971D01*
X211880504Y-128022209D01*
X211918600Y-127946019D01*
X211956695Y-127907923D01*
X212032885Y-127869828D01*
X212147171Y-127869828D01*
X212223361Y-127907923D01*
X212261457Y-127946019D01*
X212299552Y-128022209D01*
X212299552Y-128326971D01*
X212680504Y-127069828D02*
X212299552Y-127336495D01*
X212680504Y-127526971D02*
X211880504Y-127526971D01*
X211880504Y-127222209D01*
X211918600Y-127146019D01*
X211956695Y-127107923D01*
X212032885Y-127069828D01*
X212147171Y-127069828D01*
X212223361Y-127107923D01*
X212261457Y-127146019D01*
X212299552Y-127222209D01*
X212299552Y-127526971D01*
X211880504Y-126574590D02*
X211880504Y-126422209D01*
X211918600Y-126346019D01*
X211994790Y-126269828D01*
X212147171Y-126231733D01*
X212413838Y-126231733D01*
X212566219Y-126269828D01*
X212642409Y-126346019D01*
X212680504Y-126422209D01*
X212680504Y-126574590D01*
X212642409Y-126650780D01*
X212566219Y-126726971D01*
X212413838Y-126765066D01*
X212147171Y-126765066D01*
X211994790Y-126726971D01*
X211918600Y-126650780D01*
X211880504Y-126574590D01*
X211918600Y-125469828D02*
X211880504Y-125546019D01*
X211880504Y-125660304D01*
X211918600Y-125774590D01*
X211994790Y-125850780D01*
X212070980Y-125888876D01*
X212223361Y-125926971D01*
X212337647Y-125926971D01*
X212490028Y-125888876D01*
X212566219Y-125850780D01*
X212642409Y-125774590D01*
X212680504Y-125660304D01*
X212680504Y-125584114D01*
X212642409Y-125469828D01*
X212604314Y-125431733D01*
X212337647Y-125431733D01*
X212337647Y-125584114D01*
X209998000Y-121860000D02*
X209998000Y-124520000D01*
X225298000Y-121860000D02*
X209998000Y-121860000D01*
X225298000Y-124520000D02*
X209998000Y-124520000D01*
X225298000Y-121860000D02*
X225298000Y-124520000D01*
X226568000Y-121860000D02*
X227898000Y-121860000D01*
X227898000Y-121860000D02*
X227898000Y-123190000D01*
X221615580Y-128145000D02*
X221334420Y-128145000D01*
X221615580Y-127125000D02*
X221334420Y-127125000D01*
X204710000Y-128865580D02*
X204710000Y-128584420D01*
X203690000Y-128865580D02*
X203690000Y-128584420D01*
X205265000Y-128911252D02*
X205265000Y-128388748D01*
X206735000Y-128911252D02*
X206735000Y-128388748D01*
X202639200Y-96190380D02*
X202639200Y-95909220D01*
X203659200Y-96190380D02*
X203659200Y-95909220D01*
X211014000Y-131587000D02*
X213674000Y-131587000D01*
X213674000Y-131587000D02*
X213674000Y-136727000D01*
X211014000Y-130317000D02*
X211014000Y-128987000D01*
X211014000Y-128987000D02*
X212344000Y-128987000D01*
X211014000Y-131587000D02*
X211014000Y-136727000D01*
X211014000Y-136727000D02*
X213674000Y-136727000D01*
X149284000Y-98202000D02*
X149284000Y-103982000D01*
X149804000Y-98202000D02*
X149804000Y-103982000D01*
X156024000Y-98202000D02*
X156024000Y-103982000D01*
X156024000Y-103982000D02*
X149284000Y-103982000D01*
X156024000Y-98202000D02*
X149284000Y-98202000D01*
X154904000Y-98202000D02*
X154904000Y-103982000D01*
X149044000Y-97962000D02*
X149044000Y-98362000D01*
X149684000Y-97962000D02*
X149044000Y-97962000D01*
X177560000Y-115130000D02*
X177560000Y-114200000D01*
X177560000Y-111970000D02*
X175400000Y-111970000D01*
X177560000Y-115130000D02*
X176100000Y-115130000D01*
X177560000Y-111970000D02*
X177560000Y-112900000D01*
X199192000Y-104900000D02*
X198262000Y-104900000D01*
X196032000Y-104900000D02*
X196962000Y-104900000D01*
X196032000Y-104900000D02*
X196032000Y-103440000D01*
X199192000Y-104900000D02*
X199192000Y-102740000D01*
X223460000Y-109270000D02*
X221300000Y-109270000D01*
X223460000Y-112430000D02*
X222000000Y-112430000D01*
X223460000Y-112430000D02*
X223460000Y-111500000D01*
X223460000Y-109270000D02*
X223460000Y-110200000D01*
X222772500Y-130077742D02*
X222772500Y-130552258D01*
X221727500Y-130077742D02*
X221727500Y-130552258D01*
X178827500Y-113092742D02*
X178827500Y-113567258D01*
X179872500Y-113092742D02*
X179872500Y-113567258D01*
X180377500Y-113577258D02*
X180377500Y-113102742D01*
X181422500Y-113577258D02*
X181422500Y-113102742D01*
X173527500Y-115062258D02*
X173527500Y-114587742D01*
X174572500Y-115062258D02*
X174572500Y-114587742D01*
X176837258Y-111222500D02*
X176362742Y-111222500D01*
X176837258Y-110177500D02*
X176362742Y-110177500D01*
X199279742Y-102122500D02*
X199754258Y-102122500D01*
X199279742Y-101077500D02*
X199754258Y-101077500D01*
X199756500Y-104631258D02*
X199756500Y-104156742D01*
X200801500Y-104631258D02*
X200801500Y-104156742D01*
X181593258Y-129808500D02*
X181118742Y-129808500D01*
X181593258Y-128763500D02*
X181118742Y-128763500D01*
X180354500Y-126762742D02*
X180354500Y-127237258D01*
X179309500Y-126762742D02*
X179309500Y-127237258D01*
X225887742Y-109722500D02*
X226362258Y-109722500D01*
X225887742Y-108677500D02*
X226362258Y-108677500D01*
X223306000Y-128488000D02*
X228606000Y-128488000D01*
X228606000Y-136688000D02*
X223306000Y-136688000D01*
X228606000Y-128488000D02*
X228606000Y-136688000D01*
X223306000Y-136688000D02*
X223306000Y-128488000D01*
X183730000Y-111900000D02*
X183730000Y-111120000D01*
X201970000Y-111120000D02*
X200970000Y-111120000D01*
X201970000Y-130445000D02*
X202350000Y-130445000D01*
X183730000Y-111120000D02*
X184730000Y-111120000D01*
X201970000Y-136865000D02*
X183730000Y-136865000D01*
X201970000Y-111900000D02*
X201970000Y-111120000D01*
X201970000Y-136865000D02*
X201970000Y-130445000D01*
X183730000Y-136865000D02*
X183730000Y-130445000D01*
X220400000Y-110500000D02*
X220400000Y-94300000D01*
X204200000Y-94300000D02*
X204600000Y-94300000D01*
X204200000Y-110500000D02*
X204200000Y-94300000D01*
X204550000Y-110500000D02*
X204550000Y-111400000D01*
X220000000Y-110500000D02*
X220400000Y-110500000D01*
X220400000Y-94300000D02*
X220000000Y-94300000D01*
X204200000Y-110500000D02*
X204550000Y-110500000D01*
X222072742Y-98957500D02*
X222547258Y-98957500D01*
X222072742Y-100002500D02*
X222547258Y-100002500D01*
X225438000Y-99500000D02*
X224938000Y-99250000D01*
X224938000Y-99750000D02*
X225438000Y-99500000D01*
X224938000Y-99250000D02*
X224938000Y-99750000D01*
X229740000Y-93010000D02*
X229740000Y-93610000D01*
X227640000Y-92310000D02*
X229040000Y-92310000D01*
X229040000Y-94310000D02*
X227640000Y-94310000D01*
X226940000Y-93610000D02*
X226940000Y-93010000D01*
X227640000Y-92310000D02*
G75*
G03*
X226940000Y-93010000I-1J-699999D01*
G01*
X226940000Y-93610000D02*
G75*
G03*
X227640000Y-94310000I699999J-1D01*
G01*
X229040000Y-94310000D02*
G75*
G03*
X229740000Y-93610000I1J699999D01*
G01*
X229740000Y-93010000D02*
G75*
G03*
X229040000Y-92310000I-699999J1D01*
G01*
X209910000Y-128386252D02*
X209910000Y-126963748D01*
X208090000Y-128386252D02*
X208090000Y-126963748D01*
X218299420Y-128018000D02*
X218580580Y-128018000D01*
X218299420Y-126998000D02*
X218580580Y-126998000D01*
X215616258Y-128030500D02*
X215141742Y-128030500D01*
X215616258Y-126985500D02*
X215141742Y-126985500D01*
X210805500Y-113902258D02*
X210805500Y-113427742D01*
X211850500Y-113902258D02*
X211850500Y-113427742D01*
X209818500Y-113902258D02*
X209818500Y-113427742D01*
X208773500Y-113902258D02*
X208773500Y-113427742D01*
X206868500Y-113889258D02*
X206868500Y-113414742D01*
X207913500Y-113889258D02*
X207913500Y-113414742D01*
X212837500Y-113902258D02*
X212837500Y-113427742D01*
X213882500Y-113902258D02*
X213882500Y-113427742D01*
X214116000Y-128488000D02*
X219416000Y-128488000D01*
X219416000Y-128488000D02*
X219416000Y-136688000D01*
X214116000Y-136688000D02*
X214116000Y-128488000D01*
X219416000Y-136688000D02*
X214116000Y-136688000D01*
X163435420Y-124204000D02*
X163716580Y-124204000D01*
X163435420Y-125224000D02*
X163716580Y-125224000D01*
X154756000Y-133986000D02*
X152756000Y-133986000D01*
X150856000Y-124586000D02*
X148956000Y-124586000D01*
X148956000Y-124586000D02*
X148956000Y-133986000D01*
X150856000Y-133986000D02*
X148956000Y-133986000D01*
X154756000Y-124586000D02*
X152756000Y-124586000D01*
D14*
X178358000Y-126289000D02*
G75*
G03*
X178358000Y-126289000I-50000J0D01*
G01*
D10*
X190782000Y-102223000D02*
X190782000Y-103248000D01*
X195552000Y-102223000D02*
X195552000Y-103248000D01*
X190782000Y-106443000D02*
X190782000Y-105418000D01*
X195552000Y-102223000D02*
X194527000Y-102223000D01*
X195552000Y-106443000D02*
X194527000Y-106443000D01*
X195552000Y-106443000D02*
X195552000Y-105418000D01*
X190782000Y-106443000D02*
X191807000Y-106443000D01*
X190782000Y-102223000D02*
X191807000Y-102223000D01*
X190393000Y-104979000D02*
X190393000Y-102529000D01*
X187173000Y-103179000D02*
X187173000Y-104979000D01*
X159779580Y-107490800D02*
X159498420Y-107490800D01*
X159779580Y-108510800D02*
X159498420Y-108510800D01*
X155939258Y-106694500D02*
X155464742Y-106694500D01*
X155939258Y-105649500D02*
X155464742Y-105649500D01*
X179561258Y-96251500D02*
X179086742Y-96251500D01*
X179561258Y-97296500D02*
X179086742Y-97296500D01*
X153776000Y-116687548D02*
X153776000Y-118110052D01*
X155596000Y-116687548D02*
X155596000Y-118110052D01*
X164322000Y-95794000D02*
X162322000Y-95794000D01*
X162322000Y-95794000D02*
X162322000Y-99694000D01*
X164322000Y-95794000D02*
X164322000Y-99694000D01*
X214869500Y-113427742D02*
X214869500Y-113902258D01*
X215914500Y-113427742D02*
X215914500Y-113902258D01*
X164345252Y-116282800D02*
X163822748Y-116282800D01*
X164345252Y-117752800D02*
X163822748Y-117752800D01*
D14*
X178358000Y-101928000D02*
G75*
G03*
X178358000Y-101928000I-50000J0D01*
G01*
D10*
X162435000Y-106744380D02*
X162435000Y-106463220D01*
X161415000Y-106744380D02*
X161415000Y-106463220D01*
X159866000Y-117518548D02*
X159866000Y-118041052D01*
X158396000Y-117518548D02*
X158396000Y-118041052D01*
X165294000Y-128778000D02*
X165294000Y-136458000D01*
X165294000Y-126178000D02*
X166624000Y-126178000D01*
X165294000Y-136458000D02*
X167954000Y-136458000D01*
X167954000Y-128778000D02*
X167954000Y-136458000D01*
X165294000Y-128778000D02*
X167954000Y-128778000D01*
X165294000Y-127508000D02*
X165294000Y-126178000D01*
X153051742Y-111796300D02*
X153526258Y-111796300D01*
X153051742Y-112841300D02*
X153526258Y-112841300D01*
X160341542Y-99451900D02*
X160816058Y-99451900D01*
X160341542Y-100496900D02*
X160816058Y-100496900D01*
X157707000Y-116502548D02*
X157707000Y-117025052D01*
X156237000Y-116502548D02*
X156237000Y-117025052D01*
X189613000Y-99935420D02*
X189613000Y-100216580D01*
X188593000Y-99935420D02*
X188593000Y-100216580D01*
X166283000Y-115768800D02*
X158583000Y-115768800D01*
X166283000Y-108868800D02*
X166283000Y-115768800D01*
X158583000Y-108868800D02*
X166283000Y-108868800D01*
X159708000Y-108868800D02*
X159708000Y-108868800D01*
X158583000Y-108868800D02*
X158583000Y-115768800D01*
X161520000Y-125310000D02*
X161520000Y-123610000D01*
X161520000Y-123610000D02*
X158970000Y-123610000D01*
X161520000Y-125310000D02*
X158970000Y-125310000D01*
X171020000Y-120314000D02*
X170380000Y-120314000D01*
X171140000Y-120554000D02*
X171140000Y-136494000D01*
X170620000Y-120554000D02*
X170620000Y-136494000D01*
X176240000Y-120554000D02*
X176240000Y-136494000D01*
X177360000Y-120554000D02*
X170620000Y-120554000D01*
X177360000Y-120554000D02*
X177360000Y-136494000D01*
X170380000Y-120314000D02*
X170380000Y-120714000D01*
X177360000Y-136494000D02*
X170620000Y-136494000D01*
X160121600Y-95823600D02*
X160771600Y-95823600D01*
X160121600Y-95823600D02*
X159471600Y-95823600D01*
X160121600Y-98943600D02*
X159471600Y-98943600D01*
X160121600Y-98943600D02*
X161796600Y-98943600D01*
X186758252Y-99788000D02*
X186235748Y-99788000D01*
X186758252Y-101258000D02*
X186235748Y-101258000D01*
X151238378Y-116434800D02*
X152037622Y-116434800D01*
X151238378Y-115314800D02*
X152037622Y-115314800D01*
D14*
X178358000Y-93652000D02*
G75*
G03*
X178358000Y-93652000I-50000J0D01*
G01*
X176804000Y-109220000D02*
G75*
G03*
X176804000Y-109220000I-50000J0D01*
G01*
D10*
X158735500Y-134857258D02*
X158735500Y-134382742D01*
X159780500Y-134857258D02*
X159780500Y-134382742D01*
X188299000Y-108485000D02*
X190849000Y-108485000D01*
X188299000Y-106785000D02*
X188299000Y-108485000D01*
X188299000Y-106785000D02*
X190849000Y-106785000D01*
X180453420Y-116330000D02*
X180734580Y-116330000D01*
X180453420Y-117350000D02*
X180734580Y-117350000D01*
X152828258Y-105649500D02*
X152353742Y-105649500D01*
X152828258Y-106694500D02*
X152353742Y-106694500D01*
X193148000Y-94112000D02*
X193148000Y-93812000D01*
X188722000Y-94112000D02*
X190648000Y-94112000D01*
X190348000Y-97912000D02*
X188722000Y-97912000D01*
X194248000Y-92212000D02*
X194248000Y-92212000D01*
X193506000Y-97912000D02*
X195072000Y-97912000D01*
X198374000Y-97912000D02*
X196342000Y-97912000D01*
X195548000Y-92212000D02*
X195548000Y-92712000D01*
X193948000Y-92212000D02*
X193948000Y-92212000D01*
X196448000Y-93812000D02*
X196448000Y-94112000D01*
X188722000Y-97912000D02*
X188722000Y-94112000D01*
X195548000Y-92712000D02*
X195548000Y-92712000D01*
X195648000Y-94112000D02*
X195648000Y-93812000D01*
X195548000Y-93512000D02*
X195548000Y-93512000D01*
X193948000Y-93812000D02*
X193948000Y-94112000D01*
X190648000Y-93812000D02*
X191448000Y-93812000D01*
X191818000Y-97912000D02*
X192278000Y-97912000D01*
X195548000Y-92212000D02*
X195048000Y-92212000D01*
X198374000Y-94112000D02*
X198374000Y-97912000D01*
X191448000Y-94112000D02*
X193148000Y-94112000D01*
X196448000Y-94112000D02*
X198374000Y-94112000D01*
X191548000Y-93012000D02*
X191548000Y-93512000D01*
X193948000Y-94112000D02*
X195648000Y-94112000D01*
X193148000Y-93812000D02*
X193948000Y-93812000D01*
X194748000Y-92212000D02*
X194248000Y-92212000D01*
X192848000Y-92212000D02*
X192848000Y-92212000D01*
X193148000Y-92212000D02*
X193948000Y-92212000D01*
X191548000Y-92212000D02*
X191548000Y-92712000D01*
X191548000Y-92712000D02*
X191548000Y-92712000D01*
X192048000Y-92212000D02*
X192048000Y-92212000D01*
X195648000Y-93812000D02*
X196448000Y-93812000D01*
X195048000Y-92212000D02*
X195048000Y-92212000D01*
X190648000Y-94112000D02*
X190648000Y-93812000D01*
X191548000Y-93512000D02*
X191548000Y-93512000D01*
X195548000Y-93012000D02*
X195548000Y-93512000D01*
X192348000Y-92212000D02*
X192848000Y-92212000D01*
X191548000Y-92212000D02*
X192048000Y-92212000D01*
X191448000Y-93812000D02*
X191448000Y-94112000D01*
X155815420Y-114606800D02*
X156096580Y-114606800D01*
X155815420Y-113586800D02*
X156096580Y-113586800D01*
X205979500Y-124062258D02*
X205979500Y-123587742D01*
X207024500Y-124062258D02*
X207024500Y-123587742D01*
X163082500Y-133841258D02*
X163082500Y-133366742D01*
X162037500Y-133841258D02*
X162037500Y-133366742D01*
X179561258Y-99582500D02*
X179086742Y-99582500D01*
X179561258Y-98537500D02*
X179086742Y-98537500D01*
X186515200Y-95508800D02*
X186515200Y-96108800D01*
X184415200Y-94808800D02*
X185815200Y-94808800D01*
X185815200Y-96808800D02*
X184415200Y-96808800D01*
X183715200Y-96108800D02*
X183715200Y-95508800D01*
X186515200Y-95508800D02*
G75*
G03*
X185815200Y-94808800I-699999J1D01*
G01*
X184415200Y-94808800D02*
G75*
G03*
X183715200Y-95508800I-1J-699999D01*
G01*
X183715200Y-96108800D02*
G75*
G03*
X184415200Y-96808800I699999J-1D01*
G01*
X185815200Y-96808800D02*
G75*
G03*
X186515200Y-96108800I1J699999D01*
G01*
X164571000Y-107061052D02*
X164571000Y-105638548D01*
X166391000Y-107061052D02*
X166391000Y-105638548D01*
D11*
X163219000Y-131723000D02*
X163219000Y-131423000D01*
X159869000Y-128373000D02*
X163219000Y-128373000D01*
X163219000Y-128373000D02*
X163219000Y-128673000D01*
X159869000Y-128598000D02*
X158644000Y-128598000D01*
X159869000Y-131723000D02*
X159869000Y-131423000D01*
X159869000Y-128373000D02*
X159869000Y-128598000D01*
X159869000Y-131723000D02*
X163219000Y-131723000D01*
D10*
X184904748Y-104113000D02*
X185427252Y-104113000D01*
X184904748Y-102643000D02*
X185427252Y-102643000D01*
X153556580Y-108383800D02*
X153275420Y-108383800D01*
X153556580Y-107363800D02*
X153275420Y-107363800D01*
X170620000Y-93117000D02*
X170620000Y-103978000D01*
X176240000Y-93117000D02*
X176240000Y-103978000D01*
X171020000Y-92877000D02*
X170380000Y-92877000D01*
X177360000Y-93117000D02*
X170620000Y-93117000D01*
X171140000Y-93117000D02*
X171140000Y-103978000D01*
X177360000Y-103978000D02*
X170620000Y-103978000D01*
X177360000Y-93117000D02*
X177360000Y-103978000D01*
X170380000Y-92877000D02*
X170380000Y-93277000D01*
X158151000Y-110921800D02*
X158151000Y-111721800D01*
X155031000Y-110921800D02*
X155031000Y-111721800D01*
X158151000Y-110921800D02*
X158151000Y-109121800D01*
X155031000Y-110921800D02*
X155031000Y-110121800D01*
X160513500Y-133841258D02*
X160513500Y-133366742D01*
X161558500Y-133841258D02*
X161558500Y-133366742D01*
X225936000Y-114254000D02*
X225936000Y-114854000D01*
X223836000Y-113554000D02*
X225236000Y-113554000D01*
X223136000Y-114854000D02*
X223136000Y-114254000D01*
X225236000Y-115554000D02*
X223836000Y-115554000D01*
X223136000Y-114854000D02*
G75*
G03*
X223836000Y-115554000I699999J-1D01*
G01*
X225236000Y-115554000D02*
G75*
G03*
X225936000Y-114854000I1J699999D01*
G01*
X223836000Y-113554000D02*
G75*
G03*
X223136000Y-114254000I-1J-699999D01*
G01*
X225936000Y-114254000D02*
G75*
G03*
X225236000Y-113554000I-699999J1D01*
G01*
D14*
X178728000Y-128219000D02*
G75*
G03*
X178728000Y-128219000I-50000J0D01*
G01*
D10*
X166292200Y-98443148D02*
X166292200Y-98965652D01*
X164822200Y-98443148D02*
X164822200Y-98965652D01*
X179084500Y-122457742D02*
X179084500Y-122932258D01*
X178039500Y-122457742D02*
X178039500Y-122932258D01*
D14*
X178748000Y-126281000D02*
G75*
G03*
X178748000Y-126281000I-50000J0D01*
G01*
D10*
X162939000Y-107098220D02*
X162939000Y-107379380D01*
X163959000Y-107098220D02*
X163959000Y-107379380D01*
X207237000Y-118403000D02*
X205767000Y-118403000D01*
X205767000Y-118403000D02*
X205767000Y-120688000D01*
X207237000Y-120688000D02*
X207237000Y-118403000D01*
D14*
X176504000Y-104902000D02*
G75*
G03*
X176504000Y-104902000I-50000J0D01*
G01*
%LPC*%
D15*
X226568000Y-123190000D03*
D16*
X224028000Y-123190000D03*
X221488000Y-123190000D03*
X218948000Y-123190000D03*
X216408000Y-123190000D03*
X213868000Y-123190000D03*
X211328000Y-123190000D03*
D17*
X222250000Y-127635000D03*
X220700000Y-127635000D03*
D18*
X204200000Y-129500000D03*
X204200000Y-127950000D03*
D19*
X206000000Y-129600000D03*
X206000000Y-127700000D03*
D18*
X203149200Y-96824800D03*
X203149200Y-95274800D03*
D15*
X212344000Y-130317000D03*
D16*
X212344000Y-132857000D03*
X212344000Y-135397000D03*
D20*
X152654000Y-99822000D03*
D21*
X152654000Y-102362000D03*
D22*
X172135800Y-108686600D03*
X172135800Y-106146600D03*
D23*
X175800000Y-112600000D03*
X175800000Y-114500000D03*
X177800000Y-113550000D03*
D24*
X198562000Y-103140000D03*
X196662000Y-103140000D03*
X197612000Y-105140000D03*
D23*
X221700000Y-109900000D03*
X221700000Y-111800000D03*
X223700000Y-110850000D03*
D25*
X222250000Y-129490000D03*
X222250000Y-131140000D03*
X179350000Y-112505000D03*
X179350000Y-114155000D03*
D26*
X180900000Y-114165000D03*
X180900000Y-112515000D03*
X174050000Y-115650000D03*
X174050000Y-114000000D03*
D27*
X177425000Y-110700000D03*
X175775000Y-110700000D03*
D28*
X198692000Y-101600000D03*
X200342000Y-101600000D03*
D26*
X200279000Y-105219000D03*
X200279000Y-103569000D03*
D27*
X182181000Y-129286000D03*
X180531000Y-129286000D03*
D25*
X179832000Y-126175000D03*
X179832000Y-127825000D03*
D28*
X225300000Y-109200000D03*
X226950000Y-109200000D03*
D29*
X227806000Y-129588000D03*
X227806000Y-135588000D03*
X224106000Y-129588000D03*
X224106000Y-135588000D03*
D30*
X201350000Y-129255000D03*
X201350000Y-127985000D03*
X201350000Y-126715000D03*
X201350000Y-125445000D03*
X201350000Y-124175000D03*
X201350000Y-122905000D03*
X201350000Y-121635000D03*
X201350000Y-120365000D03*
X201350000Y-119095000D03*
X201350000Y-117825000D03*
X201350000Y-116555000D03*
X201350000Y-115285000D03*
X201350000Y-114015000D03*
X201350000Y-112745000D03*
D31*
X198565000Y-111745000D03*
X197295000Y-111745000D03*
X196025000Y-111745000D03*
X194755000Y-111745000D03*
X193485000Y-111745000D03*
X192215000Y-111745000D03*
X190945000Y-111745000D03*
X189675000Y-111745000D03*
X188405000Y-111745000D03*
X187135000Y-111745000D03*
D30*
X184350000Y-112745000D03*
X184350000Y-114015000D03*
X184350000Y-115285000D03*
X184350000Y-116555000D03*
X184350000Y-117825000D03*
X184350000Y-119095000D03*
X184350000Y-120365000D03*
X184350000Y-121635000D03*
X184350000Y-122905000D03*
X184350000Y-124175000D03*
X184350000Y-125445000D03*
X184350000Y-126715000D03*
X184350000Y-127985000D03*
X184350000Y-129255000D03*
D32*
X193850000Y-121755000D03*
D33*
X205300000Y-110400000D03*
X207300000Y-110400000D03*
X209300000Y-110400000D03*
X211300000Y-110400000D03*
X213300000Y-110400000D03*
X215300000Y-110400000D03*
X217300000Y-110400000D03*
X219300000Y-110400000D03*
X219300000Y-94400000D03*
X217300000Y-94400000D03*
X215300000Y-94400000D03*
X213300000Y-94400000D03*
X211300000Y-94400000D03*
X209300000Y-94400000D03*
X207300000Y-94400000D03*
X205300000Y-94400000D03*
D28*
X221485000Y-99480000D03*
X223135000Y-99480000D03*
D34*
X227838000Y-99500000D03*
D35*
X227838000Y-102992500D03*
X227838000Y-96007500D03*
D36*
X209000000Y-129150000D03*
X209000000Y-126200000D03*
D37*
X217665000Y-127508000D03*
X219215000Y-127508000D03*
D27*
X216204000Y-127508000D03*
X214554000Y-127508000D03*
D26*
X211328000Y-114490000D03*
X211328000Y-112840000D03*
X209296000Y-114490000D03*
X209296000Y-112840000D03*
X207391000Y-114477000D03*
X207391000Y-112827000D03*
X213360000Y-114490000D03*
X213360000Y-112840000D03*
D29*
X214916000Y-135588000D03*
X214916000Y-129588000D03*
X218616000Y-135588000D03*
X218616000Y-129588000D03*
D37*
X162801000Y-124714000D03*
X164351000Y-124714000D03*
D38*
X155456000Y-126396000D03*
X155456000Y-132176000D03*
D39*
X156901000Y-126036000D03*
X156901000Y-126836000D03*
D40*
X156901000Y-128036000D03*
X156901000Y-129036000D03*
X156901000Y-129536000D03*
X156901000Y-130536000D03*
D39*
X156901000Y-131736000D03*
X156901000Y-132536000D03*
X156901000Y-132536000D03*
X156901000Y-131736000D03*
D40*
X156901000Y-131036000D03*
X156901000Y-130036000D03*
X156901000Y-128536000D03*
X156901000Y-127536000D03*
D39*
X156901000Y-126836000D03*
X156901000Y-126036000D03*
D41*
X155986000Y-124966000D03*
D42*
X151806000Y-124966000D03*
X151806000Y-133606000D03*
D41*
X155986000Y-133606000D03*
D43*
X181864000Y-94234000D03*
D44*
X178308000Y-125684000D03*
X178308000Y-124714000D03*
D45*
X194667000Y-104333000D03*
X191667000Y-104333000D03*
D46*
X189733000Y-102729000D03*
X188783000Y-102729000D03*
X187833000Y-102729000D03*
X187833000Y-105429000D03*
X189733000Y-105429000D03*
D17*
X160414000Y-108000800D03*
X158864000Y-108000800D03*
D27*
X156527000Y-106172000D03*
X154877000Y-106172000D03*
X180149000Y-96774000D03*
X178499000Y-96774000D03*
D47*
X154686000Y-115923800D03*
X154686000Y-118873800D03*
D48*
X163322000Y-96394000D03*
X163322000Y-99694000D03*
D25*
X215392000Y-112840000D03*
X215392000Y-114490000D03*
D49*
X165034000Y-117017800D03*
X163134000Y-117017800D03*
D44*
X178308000Y-101323000D03*
X178308000Y-100353000D03*
D18*
X161925000Y-107378800D03*
X161925000Y-105828800D03*
D50*
X159131000Y-116829800D03*
X159131000Y-118729800D03*
D15*
X166624000Y-127508000D03*
D16*
X166624000Y-130048000D03*
X166624000Y-132588000D03*
X166624000Y-135128000D03*
D28*
X152464000Y-112318800D03*
X154114000Y-112318800D03*
X159753800Y-99974400D03*
X161403800Y-99974400D03*
D50*
X156972000Y-115813800D03*
X156972000Y-117713800D03*
D51*
X189103000Y-99301000D03*
X189103000Y-100851000D03*
D52*
X159658000Y-112318800D03*
X165208000Y-112318800D03*
D53*
X161070000Y-124460000D03*
X158970000Y-124460000D03*
D20*
X173990000Y-122174000D03*
D21*
X173990000Y-124714000D03*
X173990000Y-127254000D03*
X173990000Y-129794000D03*
X173990000Y-132334000D03*
X173990000Y-134874000D03*
D54*
X161059100Y-98333600D03*
X161059100Y-96433600D03*
X159184100Y-97383600D03*
D49*
X187447000Y-100523000D03*
X185547000Y-100523000D03*
D55*
X150575500Y-115874800D03*
X152700500Y-115874800D03*
D56*
X178308000Y-94257000D03*
X178308000Y-95227000D03*
D57*
X176149000Y-109220000D03*
X175179000Y-109220000D03*
D26*
X159258000Y-135445000D03*
X159258000Y-133795000D03*
D53*
X188749000Y-107635000D03*
X190849000Y-107635000D03*
D37*
X179819000Y-116840000D03*
X181369000Y-116840000D03*
D27*
X153416000Y-106172000D03*
X151766000Y-106172000D03*
D58*
X192048000Y-96012000D03*
X195048000Y-96012000D03*
D59*
X195748000Y-98087000D03*
X192798000Y-98087000D03*
X191298000Y-98087000D03*
D60*
X189523000Y-94912000D03*
X189523000Y-97112000D03*
X197573000Y-97112000D03*
X197573000Y-94912000D03*
D37*
X155181000Y-114096800D03*
X156731000Y-114096800D03*
D26*
X206502000Y-124650000D03*
X206502000Y-123000000D03*
X162560000Y-134429000D03*
X162560000Y-132779000D03*
D27*
X180149000Y-99060000D03*
X178499000Y-99060000D03*
D61*
X185765200Y-95808800D03*
D62*
X184465200Y-95808800D03*
D36*
X165481000Y-107824800D03*
X165481000Y-104874800D03*
D63*
X159344000Y-129048000D03*
X159344000Y-129548000D03*
X159344000Y-130048000D03*
X159344000Y-130548000D03*
X159344000Y-131048000D03*
X163744000Y-131048000D03*
X163744000Y-130548000D03*
X163744000Y-130048000D03*
X163744000Y-129548000D03*
X163744000Y-129048000D03*
D64*
X184216000Y-103378000D03*
X186116000Y-103378000D03*
D17*
X154191000Y-107873800D03*
X152641000Y-107873800D03*
D20*
X173990000Y-94737000D03*
D21*
X173990000Y-97277000D03*
X173990000Y-99817000D03*
X173990000Y-102357000D03*
D65*
X157541000Y-109784300D03*
X156591000Y-109784300D03*
X155641000Y-109784300D03*
X155641000Y-112059300D03*
X156591000Y-112059300D03*
X157541000Y-112059300D03*
D26*
X161036000Y-134429000D03*
X161036000Y-132779000D03*
D61*
X225186000Y-114554000D03*
D62*
X223886000Y-114554000D03*
D56*
X178308000Y-128824000D03*
X178308000Y-129794000D03*
D50*
X165557200Y-97754400D03*
X165557200Y-99654400D03*
D25*
X178562000Y-121870000D03*
X178562000Y-123520000D03*
D56*
X178308000Y-126896000D03*
X178308000Y-127866000D03*
D51*
X163449000Y-106463800D03*
X163449000Y-108013800D03*
D66*
X206502000Y-119100500D03*
X206502000Y-120675500D03*
D57*
X175849000Y-104902000D03*
X174879000Y-104902000D03*
D67*
X225893000Y-112172200D03*
X173903000Y-112172200D03*
D68*
X176653000Y-118212200D03*
X223133000Y-106222200D03*
M02*
