G04 #@! TF.GenerationSoftware,KiCad,Pcbnew,(6.0.0)*
G04 #@! TF.CreationDate,2022-01-31T09:48:03+01:00*
G04 #@! TF.ProjectId,lora,6c6f7261-2e6b-4696-9361-645f70636258,v2.0*
G04 #@! TF.SameCoordinates,Original*
G04 #@! TF.FileFunction,Soldermask,Bot*
G04 #@! TF.FilePolarity,Negative*
%FSLAX46Y46*%
G04 Gerber Fmt 4.6, Leading zero omitted, Abs format (unit mm)*
G04 Created by KiCad (PCBNEW (6.0.0)) date 2022-01-31 09:48:03*
%MOMM*%
%LPD*%
G01*
G04 APERTURE LIST*
G04 Aperture macros list*
%AMRoundRect*
0 Rectangle with rounded corners*
0 $1 Rounding radius*
0 $2 $3 $4 $5 $6 $7 $8 $9 X,Y pos of 4 corners*
0 Add a 4 corners polygon primitive as box body*
4,1,4,$2,$3,$4,$5,$6,$7,$8,$9,$2,$3,0*
0 Add four circle primitives for the rounded corners*
1,1,$1+$1,$2,$3*
1,1,$1+$1,$4,$5*
1,1,$1+$1,$6,$7*
1,1,$1+$1,$8,$9*
0 Add four rect primitives between the rounded corners*
20,1,$1+$1,$2,$3,$4,$5,0*
20,1,$1+$1,$4,$5,$6,$7,0*
20,1,$1+$1,$6,$7,$8,$9,0*
20,1,$1+$1,$8,$9,$2,$3,0*%
G04 Aperture macros list end*
%ADD10R,1.700000X1.700000*%
%ADD11O,1.700000X1.700000*%
%ADD12R,2.100000X2.100000*%
%ADD13C,2.100000*%
%ADD14RoundRect,0.381000X-1.619000X-0.381000X1.619000X-0.381000X1.619000X0.381000X-1.619000X0.381000X0*%
%ADD15R,4.190000X2.665000*%
%ADD16C,0.650000*%
%ADD17O,2.100000X1.000000*%
%ADD18O,1.600000X1.000000*%
%ADD19RoundRect,0.381000X0.381000X-1.619000X0.381000X1.619000X-0.381000X1.619000X-0.381000X-1.619000X0*%
%ADD20C,0.900000*%
%ADD21C,1.530000*%
%ADD22C,3.960000*%
G04 APERTURE END LIST*
D10*
X226568000Y-123190000D03*
D11*
X224028000Y-123190000D03*
X221488000Y-123190000D03*
X218948000Y-123190000D03*
X216408000Y-123190000D03*
X213868000Y-123190000D03*
X211328000Y-123190000D03*
D10*
X212344000Y-130317000D03*
D11*
X212344000Y-132857000D03*
X212344000Y-135397000D03*
D12*
X152654000Y-99822000D03*
D13*
X152654000Y-102362000D03*
D14*
X172135800Y-108686600D03*
X172135800Y-106146600D03*
D15*
X227838000Y-96007500D03*
X227838000Y-102992500D03*
D16*
X155456000Y-126396000D03*
X155456000Y-132176000D03*
D17*
X155986000Y-124966000D03*
D18*
X151806000Y-124966000D03*
X151806000Y-133606000D03*
D17*
X155986000Y-133606000D03*
D19*
X181864000Y-94234000D03*
D10*
X166624000Y-127508000D03*
D11*
X166624000Y-130048000D03*
X166624000Y-132588000D03*
X166624000Y-135128000D03*
D12*
X173990000Y-122174000D03*
D13*
X173990000Y-124714000D03*
X173990000Y-127254000D03*
X173990000Y-129794000D03*
X173990000Y-132334000D03*
X173990000Y-134874000D03*
D20*
X192048000Y-96012000D03*
X195048000Y-96012000D03*
D12*
X173990000Y-94737000D03*
D13*
X173990000Y-97277000D03*
X173990000Y-99817000D03*
X173990000Y-102357000D03*
D21*
X225893000Y-112172200D03*
X173903000Y-112172200D03*
D22*
X176653000Y-118212200D03*
X223133000Y-106222200D03*
M02*
