G04 #@! TF.GenerationSoftware,KiCad,Pcbnew,(6.0.0)*
G04 #@! TF.CreationDate,2022-01-31T09:48:03+01:00*
G04 #@! TF.ProjectId,lora,6c6f7261-2e6b-4696-9361-645f70636258,v2.0*
G04 #@! TF.SameCoordinates,Original*
G04 #@! TF.FileFunction,Profile,NP*
%FSLAX46Y46*%
G04 Gerber Fmt 4.6, Leading zero omitted, Abs format (unit mm)*
G04 Created by KiCad (PCBNEW (6.0.0)) date 2022-01-31 09:48:03*
%MOMM*%
%LPD*%
G01*
G04 APERTURE LIST*
G04 #@! TA.AperFunction,Profile*
%ADD10C,0.050000*%
G04 #@! TD*
G04 APERTURE END LIST*
D10*
X222064000Y-135890000D02*
G75*
G03*
X222064000Y-135890000I-576000J0D01*
G01*
X250500000Y-94000000D02*
X250500000Y-135000000D01*
X231000000Y-94988000D02*
G75*
G03*
X230000000Y-94988000I-500000J0D01*
G01*
X248500000Y-92000000D02*
X231499210Y-92002410D01*
X229510790Y-92002410D02*
X203914810Y-91951610D01*
X248500000Y-137000000D02*
X231499210Y-136956800D01*
X229510790Y-136953190D02*
X209314233Y-136873113D01*
X230000000Y-101500000D02*
X230000000Y-102000000D01*
X231000000Y-102000000D02*
X231000000Y-101500000D01*
X231000000Y-101500000D02*
G75*
G03*
X230000000Y-101500000I-500000J0D01*
G01*
X230000000Y-105000000D02*
X230000000Y-106180000D01*
X231000000Y-106180000D02*
X231000000Y-105000000D01*
X230000000Y-106180000D02*
G75*
G03*
X231000000Y-106180000I500000J0D01*
G01*
X230000000Y-108704000D02*
X230000000Y-110000000D01*
X231000000Y-110000000D02*
X231000000Y-108704000D01*
X231000000Y-108704000D02*
G75*
G03*
X230000000Y-108704000I-500000J0D01*
G01*
X230000000Y-116594000D02*
G75*
G03*
X231000000Y-116594000I500000J0D01*
G01*
X230000000Y-118610000D02*
X230000000Y-126246000D01*
X231000000Y-126246000D02*
X231000000Y-118610000D01*
X231000000Y-118610000D02*
G75*
G03*
X230000000Y-118610000I-500000J0D01*
G01*
X230000000Y-126246000D02*
G75*
G03*
X231000000Y-126246000I500000J0D01*
G01*
X230000000Y-128770000D02*
X230000000Y-133000000D01*
X231000000Y-133000000D02*
X231000000Y-128770000D01*
X231000000Y-128770000D02*
G75*
G03*
X230000000Y-128770000I-500000J0D01*
G01*
X230000000Y-133000000D02*
X230000000Y-134628000D01*
X231000000Y-134628000D02*
X231000000Y-133000000D01*
X230000000Y-134628000D02*
G75*
G03*
X231000000Y-134628000I500000J0D01*
G01*
X231000000Y-94988000D02*
X231000000Y-98500000D01*
X230000000Y-98500000D02*
X230000000Y-94988000D01*
X231000000Y-105000000D02*
X231000000Y-102000000D01*
X230000000Y-102000000D02*
X230000000Y-105000000D01*
X231000000Y-110000000D02*
X231000000Y-116594000D01*
X230000000Y-116594000D02*
X230000000Y-110000000D01*
X169910000Y-117348000D02*
X169910000Y-123942000D01*
X200914000Y-92811600D02*
G75*
G03*
X201168000Y-93065600I254000J0D01*
G01*
X186944000Y-92202000D02*
G75*
G03*
X186690000Y-91948000I-254000J0D01*
G01*
X200660000Y-91948000D02*
X199898000Y-91948000D01*
X248500000Y-137000000D02*
G75*
G03*
X250500000Y-135000000I1J1999999D01*
G01*
X206738131Y-134369215D02*
G75*
G03*
X204198131Y-131829215I-2540001J-1D01*
G01*
X168402001Y-136906001D02*
G75*
G03*
X168910001Y-136398001I-1J508001D01*
G01*
X168910000Y-116052000D02*
X168910000Y-107696000D01*
X203914810Y-91951610D02*
G75*
G03*
X203660810Y-92205610I0J-254000D01*
G01*
X200914000Y-92202000D02*
X200914000Y-92811600D01*
X200914000Y-92202000D02*
G75*
G03*
X200660000Y-91948000I-254000J0D01*
G01*
X168918000Y-94226000D02*
X168918000Y-95522000D01*
X168910000Y-134882000D02*
G75*
G03*
X169910000Y-134882000I500000J0D01*
G01*
X168918000Y-105148000D02*
X168910000Y-107696000D01*
X168891216Y-92464303D02*
G75*
G03*
X169891216Y-92464303I500000J4516D01*
G01*
X169918000Y-95522000D02*
X169918000Y-103132000D01*
X186944000Y-92202000D02*
G75*
G03*
X188722000Y-93726000I1750816J243452D01*
G01*
X201091189Y-132323589D02*
G75*
G03*
X202082399Y-132333999I495706J4432D01*
G01*
X231499210Y-92002410D02*
G75*
G03*
X230991210Y-92510410I1J-508001D01*
G01*
X178543949Y-136887949D02*
X170390421Y-136909611D01*
X206738131Y-134369215D02*
G75*
G03*
X209314233Y-136873113I2576098J73241D01*
G01*
X202590399Y-131825999D02*
X204198131Y-131829215D01*
X206316000Y-102108000D02*
G75*
G03*
X206316000Y-102108000I-576000J0D01*
G01*
X203406810Y-93065600D02*
G75*
G03*
X203660810Y-92811600I0J254000D01*
G01*
X200601979Y-131825999D02*
X183660051Y-131844051D01*
X148590000Y-134366000D02*
G75*
G03*
X151130000Y-136906000I2540001J1D01*
G01*
X169910000Y-128534000D02*
X169910000Y-134882000D01*
X231000000Y-136500000D02*
G75*
G03*
X231499210Y-136956800I458601J0D01*
G01*
X178543949Y-136887949D02*
G75*
G03*
X181120051Y-134384051I-3J2577146D01*
G01*
X230000000Y-98500000D02*
G75*
G03*
X231000000Y-98500000I500000J0D01*
G01*
X231000000Y-92500000D02*
X231000000Y-92500000D01*
X168910000Y-134882000D02*
X168910000Y-128534000D01*
X174166000Y-119060000D02*
G75*
G03*
X174166000Y-119060000I-576000J0D01*
G01*
X168910000Y-116052000D02*
X168910000Y-117348000D01*
X169918000Y-105148000D02*
G75*
G03*
X168918000Y-105148000I-500000J0D01*
G01*
X169910000Y-126738000D02*
G75*
G03*
X168910000Y-126738000I-500000J0D01*
G01*
X188722000Y-93726000D02*
X197866000Y-93726000D01*
X250500000Y-94000000D02*
G75*
G03*
X248500000Y-92000000I-1999999J1D01*
G01*
X199898000Y-91948000D02*
G75*
G03*
X199644000Y-92202000I0J-254000D01*
G01*
X186690000Y-91948000D02*
X170390426Y-91966713D01*
X168910000Y-123942000D02*
X168910000Y-117348000D01*
X170390426Y-91966712D02*
G75*
G03*
X169891216Y-92464303I-2J-499211D01*
G01*
X203660810Y-92205610D02*
X203660810Y-92811600D01*
X183660051Y-131844051D02*
G75*
G03*
X181120051Y-134384051I1J-2540001D01*
G01*
X201091189Y-132323589D02*
G75*
G03*
X200601979Y-131825999I-489223J8297D01*
G01*
X151148051Y-91966051D02*
G75*
G03*
X148608051Y-94506051I1J-2540001D01*
G01*
X197866000Y-93726000D02*
G75*
G03*
X199644000Y-92202000I-1J1799168D01*
G01*
X168891216Y-92464303D02*
G75*
G03*
X168402006Y-91966713I-489253J8267D01*
G01*
X148590000Y-134366000D02*
X148608051Y-94506051D01*
X169910000Y-107696000D02*
X169918000Y-105148000D01*
X230000000Y-92500000D02*
G75*
G03*
X230991210Y-92510410I495706J4432D01*
G01*
X203406810Y-93065600D02*
X201168000Y-93065600D01*
X169891211Y-136452811D02*
G75*
G03*
X170390421Y-136909611I458601J0D01*
G01*
X169918000Y-94226000D02*
G75*
G03*
X168918000Y-94226000I-500000J0D01*
G01*
X169918000Y-95522000D02*
X169918000Y-94226000D01*
X229510790Y-136953190D02*
G75*
G03*
X230018790Y-136445190I-1J508001D01*
G01*
X168918000Y-103132000D02*
G75*
G03*
X169918000Y-103132000I500000J0D01*
G01*
X169891211Y-136452811D02*
G75*
G03*
X168910001Y-136398001I-492136J0D01*
G01*
X169910000Y-117348000D02*
X169910000Y-116052000D01*
X168402001Y-136906001D02*
X151130000Y-136906000D01*
X168910000Y-123942000D02*
G75*
G03*
X169910000Y-123942000I500000J0D01*
G01*
X169910000Y-128534000D02*
X169910000Y-126738000D01*
X230000001Y-92500000D02*
G75*
G03*
X229510790Y-92002410I-489217J8303D01*
G01*
X202590399Y-131825999D02*
G75*
G03*
X202082399Y-132333999I1J-508001D01*
G01*
X168918000Y-103132000D02*
X168918000Y-95522000D01*
X168910000Y-126738000D02*
X168910000Y-128534000D01*
X169891216Y-92464303D02*
X169891216Y-92464303D01*
X231000000Y-136500000D02*
G75*
G03*
X230018790Y-136445190I-492136J0D01*
G01*
X168402006Y-91966713D02*
X151148051Y-91966051D01*
X169910000Y-107696000D02*
X169910000Y-116052000D01*
M02*
