M48
; DRILL file {KiCad (6.0.0)} date Mon Jan 31 09:48:49 2022
; FORMAT={-:-/ absolute / metric / decimal}
; #@! TF.CreationDate,2022-01-31T09:48:49+01:00
; #@! TF.GenerationSoftware,Kicad,Pcbnew,(6.0.0)
; #@! TF.FileFunction,Plated,1,4,PTH
FMAT,2
METRIC
; #@! TA.AperFunction,Plated,PTH,ViaDrill
T1C0.450
; #@! TA.AperFunction,Plated,PTH,ComponentDrill
T2C0.460
; #@! TA.AperFunction,Plated,PTH,ComponentDrill
T3C0.600
; #@! TA.AperFunction,Plated,PTH,ComponentDrill
T4C1.000
; #@! TA.AperFunction,Plated,PTH,ComponentDrill
T5C1.020
; #@! TA.AperFunction,Plated,PTH,ComponentDrill
T6C1.100
; #@! TA.AperFunction,Plated,PTH,ComponentDrill
T7C2.640
%
G90
G05
T1
X149.86Y-95.25
X149.86Y-97.79
X149.86Y-100.33
X149.86Y-102.87
X149.86Y-120.65
X149.86Y-123.19
X149.86Y-125.73
X149.86Y-128.27
X149.86Y-130.81
X149.86Y-133.35
X151.13Y-135.89
X152.4Y-92.71
X153.67Y-120.396
X153.67Y-135.89
X153.949Y-110.541
X154.846Y-110.737
X154.94Y-92.71
X156.21Y-135.89
X156.369Y-110.774
X156.591Y-108.661
X156.718Y-120.396
X156.934Y-107.785
X157.48Y-92.71
X157.734Y-124.968
X157.988Y-133.096
X158.75Y-100.584
X159.766Y-100.838
X160.02Y-92.71
X160.02Y-120.396
X160.632Y-130.281
X162.56Y-92.71
X162.56Y-125.476
X162.56Y-135.89
X163.068Y-120.396
X163.576Y-134.62
X165.1Y-92.71
X167.64Y-92.71
X167.64Y-95.25
X167.64Y-101.6
X167.64Y-118.364
X167.64Y-121.92
X168.148Y-114.3
X171.45Y-92.71
X171.45Y-95.25
X171.45Y-97.79
X171.45Y-100.33
X171.45Y-102.87
X171.45Y-111.76
X171.45Y-114.3
X171.45Y-116.84
X171.45Y-128.27
X171.45Y-130.81
X171.45Y-133.35
X171.45Y-135.89
X174.879Y-109.728
X174.929Y-106.692
X175.789Y-113.813
X176.022Y-105.41
X176.53Y-109.474
X176.53Y-114.046
X177.546Y-128.905
X177.8Y-121.412
X177.8Y-126.238
X178.054Y-101.981
X178.435Y-107.442
X178.435Y-111.506
X178.816Y-94.234
X179.578Y-100.203
X179.578Y-108.712
X179.705Y-106.299
X179.832Y-125.476
X180.086Y-97.282
X180.594Y-128.778
X180.91Y-113.62
X180.922Y-115.623
X180.975Y-126.873
X181.391Y-120.528
X181.483Y-103.378
X181.864Y-99.06
X181.864Y-129.794
X182.118Y-122.174
X182.118Y-125.984
X182.14Y-119.73
X182.372Y-124.714
X182.887Y-114.07
X182.97Y-96.513
X183.642Y-92.837
X183.74Y-112.79
X183.896Y-95.758
X184.15Y-96.52
X184.404Y-94.996
X185.166Y-107.696
X185.293Y-115.316
X185.674Y-129.159
X185.8Y-127.9
X186.182Y-123.317
X186.243Y-105.603
X186.395Y-116.945
X186.436Y-96.012
X186.436Y-114.935
X187.132Y-105.603
X187.314Y-117.494
X187.579Y-106.68
X187.833Y-104.521
X187.833Y-125.73
X187.96Y-129.54
X188.153Y-100.777
X188.214Y-113.792
X188.311Y-117.413
X188.4Y-118.579
X188.52Y-121.71
X188.722Y-94.869
X188.722Y-97.155
X189.26Y-119.31
X190.246Y-94.869
X190.5Y-129.54
X191.2Y-110.0
X192.0Y-119.8
X192.05Y-123.5
X193.04Y-129.54
X193.167Y-97.155
X193.421Y-117.729
X194.13Y-115.7
X194.2Y-114.2
X195.072Y-97.409
X195.199Y-107.569
X195.58Y-129.54
X195.7Y-119.85
X195.7Y-123.55
X196.596Y-94.869
X197.104Y-103.632
X197.231Y-113.411
X197.612Y-107.061
X197.739Y-101.6
X197.92Y-114.95
X198.374Y-97.155
X198.374Y-126.619
X198.501Y-94.869
X198.75Y-113.45
X198.75Y-117.89
X198.882Y-107.315
X199.66Y-116.59
X199.7Y-129.7
X199.898Y-98.552
X200.025Y-128.016
X201.803Y-109.22
X202.184Y-108.077
X202.438Y-96.926
X203.098Y-94.539
X203.454Y-117.856
X203.454Y-120.396
X204.216Y-108.458
X204.47Y-116.84
X204.9Y-125.35
X205.3Y-112.2
X205.486Y-114.808
X206.502Y-124.099
X206.629Y-114.427
X206.756Y-103.124
X207.01Y-116.84
X207.05Y-126.65
X207.3Y-109.2
X207.3Y-129.9
X207.518Y-113.284
X207.899Y-123.063
X208.153Y-132.207
X208.153Y-134.366
X209.296Y-113.284
X210.312Y-112.268
X210.6Y-126.4
X210.75Y-92.65
X210.82Y-116.84
X210.82Y-118.364
X211.25Y-108.65
X211.328Y-113.284
X211.5Y-96.25
X213.25Y-108.3
X213.36Y-118.11
X213.36Y-120.65
X214.643Y-114.44
X215.138Y-127.762
X215.75Y-125.35
X215.773Y-135.636
X215.852Y-129.588
X215.9Y-120.65
X217.0Y-93.0
X217.45Y-96.2
X218.44Y-120.65
X219.0Y-100.0
X219.3Y-108.6
X219.71Y-116.84
X220.35Y-112.8
X220.98Y-120.65
X221.0Y-96.5
X221.0Y-101.0
X222.504Y-128.016
X222.504Y-131.572
X222.93Y-97.93
X223.0Y-101.0
X223.0Y-103.0
X223.52Y-120.65
X225.0Y-98.0
X225.0Y-101.0
X226.0Y-93.0
X226.06Y-120.65
X227.076Y-129.54
X227.076Y-135.89
X227.42Y-108.23
X227.5Y-96.0
X227.5Y-102.0
X227.78Y-105.98
X228.6Y-107.95
X228.6Y-110.49
X228.6Y-113.03
X228.6Y-115.57
X228.6Y-118.11
X228.6Y-120.65
X228.6Y-123.19
X228.6Y-125.73
X228.6Y-128.27
X228.6Y-130.81
X228.6Y-133.35
X228.6Y-135.89
X229.0Y-95.0
X229.0Y-97.0
X229.0Y-103.0
X229.0Y-104.0
T2
X224.853Y-96.007
X224.853Y-102.992
T4
X166.624Y-127.508
X166.624Y-130.048
X166.624Y-132.588
X166.624Y-135.128
X211.328Y-123.19
X212.344Y-130.317
X212.344Y-132.857
X212.344Y-135.397
X213.868Y-123.19
X216.408Y-123.19
X218.948Y-123.19
X221.488Y-123.19
X224.028Y-123.19
X226.568Y-123.19
T5
X173.903Y-112.172
X225.893Y-112.172
T6
X152.654Y-99.822
X152.654Y-102.362
X173.99Y-94.737
X173.99Y-97.277
X173.99Y-99.817
X173.99Y-102.357
X173.99Y-122.174
X173.99Y-124.714
X173.99Y-127.254
X173.99Y-129.794
X173.99Y-132.334
X173.99Y-134.874
T7
X176.653Y-118.212
X223.133Y-106.222
T3
X152.106Y-124.966G85X151.506Y-124.966
G05
X152.106Y-133.606G85X151.506Y-133.606
G05
X156.536Y-124.966G85X155.436Y-124.966
G05
X156.536Y-133.606G85X155.436Y-133.606
G05
T0
M30
