G04 #@! TF.GenerationSoftware,KiCad,Pcbnew,(6.0.0)*
G04 #@! TF.CreationDate,2022-01-31T09:48:03+01:00*
G04 #@! TF.ProjectId,lora,6c6f7261-2e6b-4696-9361-645f70636258,v2.0*
G04 #@! TF.SameCoordinates,Original*
G04 #@! TF.FileFunction,Legend,Bot*
G04 #@! TF.FilePolarity,Positive*
%FSLAX46Y46*%
G04 Gerber Fmt 4.6, Leading zero omitted, Abs format (unit mm)*
G04 Created by KiCad (PCBNEW (6.0.0)) date 2022-01-31 09:48:03*
%MOMM*%
%LPD*%
G01*
G04 APERTURE LIST*
G04 Aperture macros list*
%AMRoundRect*
0 Rectangle with rounded corners*
0 $1 Rounding radius*
0 $2 $3 $4 $5 $6 $7 $8 $9 X,Y pos of 4 corners*
0 Add a 4 corners polygon primitive as box body*
4,1,4,$2,$3,$4,$5,$6,$7,$8,$9,$2,$3,0*
0 Add four circle primitives for the rounded corners*
1,1,$1+$1,$2,$3*
1,1,$1+$1,$4,$5*
1,1,$1+$1,$6,$7*
1,1,$1+$1,$8,$9*
0 Add four rect primitives between the rounded corners*
20,1,$1+$1,$2,$3,$4,$5,0*
20,1,$1+$1,$4,$5,$6,$7,0*
20,1,$1+$1,$6,$7,$8,$9,0*
20,1,$1+$1,$8,$9,$2,$3,0*%
G04 Aperture macros list end*
%ADD10C,0.120000*%
%ADD11C,0.150000*%
%ADD12C,0.300000*%
%ADD13C,0.200000*%
%ADD14C,0.254000*%
%ADD15C,0.100000*%
%ADD16R,1.700000X1.700000*%
%ADD17O,1.700000X1.700000*%
%ADD18R,2.100000X2.100000*%
%ADD19C,2.100000*%
%ADD20RoundRect,0.381000X-1.619000X-0.381000X1.619000X-0.381000X1.619000X0.381000X-1.619000X0.381000X0*%
%ADD21R,4.190000X2.665000*%
%ADD22C,0.650000*%
%ADD23O,2.100000X1.000000*%
%ADD24O,1.600000X1.000000*%
%ADD25RoundRect,0.381000X0.381000X-1.619000X0.381000X1.619000X-0.381000X1.619000X-0.381000X-1.619000X0*%
%ADD26C,0.900000*%
%ADD27C,1.530000*%
%ADD28C,3.960000*%
G04 APERTURE END LIST*
D10*
X211613714Y-125596666D02*
X211651809Y-125558571D01*
X211689904Y-125444285D01*
X211689904Y-125368095D01*
X211651809Y-125253809D01*
X211575619Y-125177619D01*
X211499428Y-125139523D01*
X211347047Y-125101428D01*
X211232761Y-125101428D01*
X211080380Y-125139523D01*
X211004190Y-125177619D01*
X210928000Y-125253809D01*
X210889904Y-125368095D01*
X210889904Y-125444285D01*
X210928000Y-125558571D01*
X210966095Y-125596666D01*
X211651809Y-125901428D02*
X211689904Y-126015714D01*
X211689904Y-126206190D01*
X211651809Y-126282380D01*
X211613714Y-126320476D01*
X211537523Y-126358571D01*
X211461333Y-126358571D01*
X211385142Y-126320476D01*
X211347047Y-126282380D01*
X211308952Y-126206190D01*
X211270857Y-126053809D01*
X211232761Y-125977619D01*
X211194666Y-125939523D01*
X211118476Y-125901428D01*
X211042285Y-125901428D01*
X210966095Y-125939523D01*
X210928000Y-125977619D01*
X210889904Y-126053809D01*
X210889904Y-126244285D01*
X210928000Y-126358571D01*
X214229904Y-125234857D02*
X213429904Y-125234857D01*
X214001333Y-125501523D01*
X213429904Y-125768190D01*
X214229904Y-125768190D01*
X213429904Y-126301523D02*
X213429904Y-126453904D01*
X213468000Y-126530095D01*
X213544190Y-126606285D01*
X213696571Y-126644380D01*
X213963238Y-126644380D01*
X214115619Y-126606285D01*
X214191809Y-126530095D01*
X214229904Y-126453904D01*
X214229904Y-126301523D01*
X214191809Y-126225333D01*
X214115619Y-126149142D01*
X213963238Y-126111047D01*
X213696571Y-126111047D01*
X213544190Y-126149142D01*
X213468000Y-126225333D01*
X213429904Y-126301523D01*
X214191809Y-126949142D02*
X214229904Y-127063428D01*
X214229904Y-127253904D01*
X214191809Y-127330095D01*
X214153714Y-127368190D01*
X214077523Y-127406285D01*
X214001333Y-127406285D01*
X213925142Y-127368190D01*
X213887047Y-127330095D01*
X213848952Y-127253904D01*
X213810857Y-127101523D01*
X213772761Y-127025333D01*
X213734666Y-126987238D01*
X213658476Y-126949142D01*
X213582285Y-126949142D01*
X213506095Y-126987238D01*
X213468000Y-127025333D01*
X213429904Y-127101523D01*
X213429904Y-127292000D01*
X213468000Y-127406285D01*
X214229904Y-127749142D02*
X213429904Y-127749142D01*
X215969904Y-125171333D02*
X216769904Y-125438000D01*
X215969904Y-125704666D01*
X216769904Y-125971333D02*
X215969904Y-125971333D01*
X215969904Y-126161809D01*
X216008000Y-126276095D01*
X216084190Y-126352285D01*
X216160380Y-126390380D01*
X216312761Y-126428476D01*
X216427047Y-126428476D01*
X216579428Y-126390380D01*
X216655619Y-126352285D01*
X216731809Y-126276095D01*
X216769904Y-126161809D01*
X216769904Y-125971333D01*
X216769904Y-126771333D02*
X215969904Y-126771333D01*
X215969904Y-126961809D01*
X216008000Y-127076095D01*
X216084190Y-127152285D01*
X216160380Y-127190380D01*
X216312761Y-127228476D01*
X216427047Y-127228476D01*
X216579428Y-127190380D01*
X216655619Y-127152285D01*
X216731809Y-127076095D01*
X216769904Y-126961809D01*
X216769904Y-126771333D01*
X219271809Y-125209428D02*
X219309904Y-125323714D01*
X219309904Y-125514190D01*
X219271809Y-125590380D01*
X219233714Y-125628476D01*
X219157523Y-125666571D01*
X219081333Y-125666571D01*
X219005142Y-125628476D01*
X218967047Y-125590380D01*
X218928952Y-125514190D01*
X218890857Y-125361809D01*
X218852761Y-125285619D01*
X218814666Y-125247523D01*
X218738476Y-125209428D01*
X218662285Y-125209428D01*
X218586095Y-125247523D01*
X218548000Y-125285619D01*
X218509904Y-125361809D01*
X218509904Y-125552285D01*
X218548000Y-125666571D01*
X219233714Y-126466571D02*
X219271809Y-126428476D01*
X219309904Y-126314190D01*
X219309904Y-126238000D01*
X219271809Y-126123714D01*
X219195619Y-126047523D01*
X219119428Y-126009428D01*
X218967047Y-125971333D01*
X218852761Y-125971333D01*
X218700380Y-126009428D01*
X218624190Y-126047523D01*
X218548000Y-126123714D01*
X218509904Y-126238000D01*
X218509904Y-126314190D01*
X218548000Y-126428476D01*
X218586095Y-126466571D01*
X219309904Y-126809428D02*
X218509904Y-126809428D01*
X219309904Y-127266571D02*
X218852761Y-126923714D01*
X218509904Y-127266571D02*
X218967047Y-126809428D01*
X221088000Y-125628476D02*
X221049904Y-125552285D01*
X221049904Y-125438000D01*
X221088000Y-125323714D01*
X221164190Y-125247523D01*
X221240380Y-125209428D01*
X221392761Y-125171333D01*
X221507047Y-125171333D01*
X221659428Y-125209428D01*
X221735619Y-125247523D01*
X221811809Y-125323714D01*
X221849904Y-125438000D01*
X221849904Y-125514190D01*
X221811809Y-125628476D01*
X221773714Y-125666571D01*
X221507047Y-125666571D01*
X221507047Y-125514190D01*
X221849904Y-126009428D02*
X221049904Y-126009428D01*
X221849904Y-126466571D01*
X221049904Y-126466571D01*
X221849904Y-126847523D02*
X221049904Y-126847523D01*
X221049904Y-127038000D01*
X221088000Y-127152285D01*
X221164190Y-127228476D01*
X221240380Y-127266571D01*
X221392761Y-127304666D01*
X221507047Y-127304666D01*
X221659428Y-127266571D01*
X221735619Y-127228476D01*
X221811809Y-127152285D01*
X221849904Y-127038000D01*
X221849904Y-126847523D01*
X224389904Y-125234857D02*
X223589904Y-125234857D01*
X224161333Y-125501523D01*
X223589904Y-125768190D01*
X224389904Y-125768190D01*
X224389904Y-126149142D02*
X223589904Y-126149142D01*
X224351809Y-126492000D02*
X224389904Y-126606285D01*
X224389904Y-126796761D01*
X224351809Y-126872952D01*
X224313714Y-126911047D01*
X224237523Y-126949142D01*
X224161333Y-126949142D01*
X224085142Y-126911047D01*
X224047047Y-126872952D01*
X224008952Y-126796761D01*
X223970857Y-126644380D01*
X223932761Y-126568190D01*
X223894666Y-126530095D01*
X223818476Y-126492000D01*
X223742285Y-126492000D01*
X223666095Y-126530095D01*
X223628000Y-126568190D01*
X223589904Y-126644380D01*
X223589904Y-126834857D01*
X223628000Y-126949142D01*
X223589904Y-127444380D02*
X223589904Y-127596761D01*
X223628000Y-127672952D01*
X223704190Y-127749142D01*
X223856571Y-127787238D01*
X224123238Y-127787238D01*
X224275619Y-127749142D01*
X224351809Y-127672952D01*
X224389904Y-127596761D01*
X224389904Y-127444380D01*
X224351809Y-127368190D01*
X224275619Y-127292000D01*
X224123238Y-127253904D01*
X223856571Y-127253904D01*
X223704190Y-127292000D01*
X223628000Y-127368190D01*
X223589904Y-127444380D01*
D11*
X197373428Y-124420380D02*
X196754380Y-124420380D01*
X197087714Y-124801333D01*
X196944857Y-124801333D01*
X196849619Y-124848952D01*
X196802000Y-124896571D01*
X196754380Y-124991809D01*
X196754380Y-125229904D01*
X196802000Y-125325142D01*
X196849619Y-125372761D01*
X196944857Y-125420380D01*
X197230571Y-125420380D01*
X197325809Y-125372761D01*
X197373428Y-125325142D01*
X196325809Y-125325142D02*
X196278190Y-125372761D01*
X196325809Y-125420380D01*
X196373428Y-125372761D01*
X196325809Y-125325142D01*
X196325809Y-125420380D01*
X195421047Y-124420380D02*
X195611523Y-124420380D01*
X195706761Y-124468000D01*
X195754380Y-124515619D01*
X195849619Y-124658476D01*
X195897238Y-124848952D01*
X195897238Y-125229904D01*
X195849619Y-125325142D01*
X195802000Y-125372761D01*
X195706761Y-125420380D01*
X195516285Y-125420380D01*
X195421047Y-125372761D01*
X195373428Y-125325142D01*
X195325809Y-125229904D01*
X195325809Y-124991809D01*
X195373428Y-124896571D01*
X195421047Y-124848952D01*
X195516285Y-124801333D01*
X195706761Y-124801333D01*
X195802000Y-124848952D01*
X195849619Y-124896571D01*
X195897238Y-124991809D01*
X195040095Y-124420380D02*
X194706761Y-125420380D01*
X194373428Y-124420380D01*
X193278190Y-125420380D02*
X193278190Y-124420380D01*
X192944857Y-125134666D01*
X192611523Y-124420380D01*
X192611523Y-125420380D01*
X192182952Y-125134666D02*
X191706761Y-125134666D01*
X192278190Y-125420380D02*
X191944857Y-124420380D01*
X191611523Y-125420380D01*
X191373428Y-124420380D02*
X190706761Y-125420380D01*
X190706761Y-124420380D02*
X191373428Y-125420380D01*
X190325809Y-125325142D02*
X190278190Y-125372761D01*
X190325809Y-125420380D01*
X190373428Y-125372761D01*
X190325809Y-125325142D01*
X190325809Y-125420380D01*
X190325809Y-125039428D02*
X190373428Y-124468000D01*
X190325809Y-124420380D01*
X190278190Y-124468000D01*
X190325809Y-125039428D01*
X190325809Y-124420380D01*
X171424580Y-93694304D02*
X171805533Y-93694304D01*
X171843628Y-94075257D01*
X171805533Y-94037161D01*
X171729342Y-93999066D01*
X171538866Y-93999066D01*
X171462676Y-94037161D01*
X171424580Y-94075257D01*
X171386485Y-94151447D01*
X171386485Y-94341923D01*
X171424580Y-94418114D01*
X171462676Y-94456209D01*
X171538866Y-94494304D01*
X171729342Y-94494304D01*
X171805533Y-94456209D01*
X171843628Y-94418114D01*
X171157914Y-93694304D02*
X170891247Y-94494304D01*
X170624580Y-93694304D01*
D10*
X164902857Y-126815904D02*
X164407619Y-126815904D01*
X164674285Y-127120666D01*
X164560000Y-127120666D01*
X164483809Y-127158761D01*
X164445714Y-127196857D01*
X164407619Y-127273047D01*
X164407619Y-127463523D01*
X164445714Y-127539714D01*
X164483809Y-127577809D01*
X164560000Y-127615904D01*
X164788571Y-127615904D01*
X164864761Y-127577809D01*
X164902857Y-127539714D01*
X164179047Y-126815904D02*
X163912380Y-127615904D01*
X163645714Y-126815904D01*
X163455238Y-126815904D02*
X162960000Y-126815904D01*
X163226666Y-127120666D01*
X163112380Y-127120666D01*
X163036190Y-127158761D01*
X162998095Y-127196857D01*
X162960000Y-127273047D01*
X162960000Y-127463523D01*
X162998095Y-127539714D01*
X163036190Y-127577809D01*
X163112380Y-127615904D01*
X163340952Y-127615904D01*
X163417142Y-127577809D01*
X163455238Y-127539714D01*
X162807619Y-127692095D02*
X162198095Y-127692095D01*
X162007619Y-127196857D02*
X161740952Y-127196857D01*
X161626666Y-127615904D02*
X162007619Y-127615904D01*
X162007619Y-126815904D01*
X161626666Y-126815904D01*
X161360000Y-126815904D02*
X160826666Y-127615904D01*
X160826666Y-126815904D02*
X161360000Y-127615904D01*
X160636190Y-126815904D02*
X160179047Y-126815904D01*
X160407619Y-127615904D02*
X160407619Y-126815904D01*
D11*
X172211904Y-99244133D02*
X171830952Y-99244133D01*
X172288095Y-99472704D02*
X172021428Y-98672704D01*
X171754761Y-99472704D01*
X171488095Y-99472704D02*
X171488095Y-98672704D01*
X171145238Y-98748895D02*
X171107142Y-98710800D01*
X171030952Y-98672704D01*
X170840476Y-98672704D01*
X170764285Y-98710800D01*
X170726190Y-98748895D01*
X170688095Y-98825085D01*
X170688095Y-98901276D01*
X170726190Y-99015561D01*
X171183333Y-99472704D01*
X170688095Y-99472704D01*
X190409580Y-95562990D02*
X191409580Y-95896323D01*
X190409580Y-96229657D01*
X191504819Y-96324895D02*
X191504819Y-97086800D01*
X190885771Y-97324895D02*
X190885771Y-97658228D01*
X191409580Y-97801085D02*
X191409580Y-97324895D01*
X190409580Y-97324895D01*
X190409580Y-97801085D01*
X190409580Y-98134419D02*
X191409580Y-98801085D01*
X190409580Y-98801085D02*
X191409580Y-98134419D01*
X190409580Y-99039180D02*
X190409580Y-99610609D01*
X191409580Y-99324895D02*
X190409580Y-99324895D01*
X172135704Y-96831133D02*
X171754752Y-96831133D01*
X172211895Y-97059704D02*
X171945228Y-96259704D01*
X171678561Y-97059704D01*
X171411895Y-97059704D02*
X171411895Y-96259704D01*
X170611895Y-97059704D02*
X171069038Y-97059704D01*
X170840466Y-97059704D02*
X170840466Y-96259704D01*
X170916657Y-96373990D01*
X170992847Y-96450180D01*
X171069038Y-96488276D01*
D10*
X170173704Y-109836161D02*
X170821323Y-109836161D01*
X170897514Y-109874257D01*
X170935609Y-109912352D01*
X170973704Y-109988542D01*
X170973704Y-110140923D01*
X170935609Y-110217114D01*
X170897514Y-110255209D01*
X170821323Y-110293304D01*
X170173704Y-110293304D01*
X170249895Y-110636161D02*
X170211800Y-110674257D01*
X170173704Y-110750447D01*
X170173704Y-110940923D01*
X170211800Y-111017114D01*
X170249895Y-111055209D01*
X170326085Y-111093304D01*
X170402276Y-111093304D01*
X170516561Y-111055209D01*
X170973704Y-110598066D01*
X170973704Y-111093304D01*
X171049895Y-111245685D02*
X171049895Y-111855209D01*
X170973704Y-112502828D02*
X170592752Y-112236161D01*
X170973704Y-112045685D02*
X170173704Y-112045685D01*
X170173704Y-112350447D01*
X170211800Y-112426638D01*
X170249895Y-112464733D01*
X170326085Y-112502828D01*
X170440371Y-112502828D01*
X170516561Y-112464733D01*
X170554657Y-112426638D01*
X170592752Y-112350447D01*
X170592752Y-112045685D01*
X170173704Y-112769495D02*
X170973704Y-113302828D01*
X170173704Y-113302828D02*
X170973704Y-112769495D01*
D11*
X172402380Y-130092409D02*
X172288095Y-130130504D01*
X172097619Y-130130504D01*
X172021428Y-130092409D01*
X171983333Y-130054314D01*
X171945238Y-129978123D01*
X171945238Y-129901933D01*
X171983333Y-129825742D01*
X172021428Y-129787647D01*
X172097619Y-129749552D01*
X172250000Y-129711457D01*
X172326190Y-129673361D01*
X172364285Y-129635266D01*
X172402380Y-129559076D01*
X172402380Y-129482885D01*
X172364285Y-129406695D01*
X172326190Y-129368600D01*
X172250000Y-129330504D01*
X172059523Y-129330504D01*
X171945238Y-129368600D01*
X171145238Y-130054314D02*
X171183333Y-130092409D01*
X171297619Y-130130504D01*
X171373809Y-130130504D01*
X171488095Y-130092409D01*
X171564285Y-130016219D01*
X171602380Y-129940028D01*
X171640476Y-129787647D01*
X171640476Y-129673361D01*
X171602380Y-129520980D01*
X171564285Y-129444790D01*
X171488095Y-129368600D01*
X171373809Y-129330504D01*
X171297619Y-129330504D01*
X171183333Y-129368600D01*
X171145238Y-129406695D01*
X170421428Y-130130504D02*
X170802380Y-130130504D01*
X170802380Y-129330504D01*
D10*
X150723523Y-98914000D02*
X150799714Y-98875904D01*
X150914000Y-98875904D01*
X151028285Y-98914000D01*
X151104476Y-98990190D01*
X151142571Y-99066380D01*
X151180666Y-99218761D01*
X151180666Y-99333047D01*
X151142571Y-99485428D01*
X151104476Y-99561619D01*
X151028285Y-99637809D01*
X150914000Y-99675904D01*
X150837809Y-99675904D01*
X150723523Y-99637809D01*
X150685428Y-99599714D01*
X150685428Y-99333047D01*
X150837809Y-99333047D01*
X150342571Y-99675904D02*
X150342571Y-98875904D01*
X149885428Y-99675904D01*
X149885428Y-98875904D01*
X149504476Y-99675904D02*
X149504476Y-98875904D01*
X149314000Y-98875904D01*
X149199714Y-98914000D01*
X149123523Y-98990190D01*
X149085428Y-99066380D01*
X149047333Y-99218761D01*
X149047333Y-99333047D01*
X149085428Y-99485428D01*
X149123523Y-99561619D01*
X149199714Y-99637809D01*
X149314000Y-99675904D01*
X149504476Y-99675904D01*
D11*
X172542066Y-121786704D02*
X172275400Y-122586704D01*
X172008733Y-121786704D01*
X171742066Y-122586704D02*
X171742066Y-121786704D01*
X171551590Y-121786704D01*
X171437304Y-121824800D01*
X171361114Y-121900990D01*
X171323019Y-121977180D01*
X171284923Y-122129561D01*
X171284923Y-122243847D01*
X171323019Y-122396228D01*
X171361114Y-122472419D01*
X171437304Y-122548609D01*
X171551590Y-122586704D01*
X171742066Y-122586704D01*
X170942066Y-122586704D02*
X170942066Y-121786704D01*
X170751590Y-121786704D01*
X170637304Y-121824800D01*
X170561114Y-121900990D01*
X170523019Y-121977180D01*
X170484923Y-122129561D01*
X170484923Y-122243847D01*
X170523019Y-122396228D01*
X170561114Y-122472419D01*
X170637304Y-122548609D01*
X170751590Y-122586704D01*
X170942066Y-122586704D01*
X227329523Y-132627714D02*
X227329523Y-133627714D01*
X227329523Y-132675333D02*
X227234285Y-132627714D01*
X227043809Y-132627714D01*
X226948571Y-132675333D01*
X226900952Y-132722952D01*
X226853333Y-132818190D01*
X226853333Y-133103904D01*
X226900952Y-133199142D01*
X226948571Y-133246761D01*
X227043809Y-133294380D01*
X227234285Y-133294380D01*
X227329523Y-133246761D01*
X225996190Y-133246761D02*
X226091428Y-133294380D01*
X226281904Y-133294380D01*
X226377142Y-133246761D01*
X226424761Y-133199142D01*
X226472380Y-133103904D01*
X226472380Y-132818190D01*
X226424761Y-132722952D01*
X226377142Y-132675333D01*
X226281904Y-132627714D01*
X226091428Y-132627714D01*
X225996190Y-132675333D01*
X225567619Y-133294380D02*
X225567619Y-132294380D01*
X225567619Y-132675333D02*
X225472380Y-132627714D01*
X225281904Y-132627714D01*
X225186666Y-132675333D01*
X225139047Y-132722952D01*
X225091428Y-132818190D01*
X225091428Y-133103904D01*
X225139047Y-133199142D01*
X225186666Y-133246761D01*
X225281904Y-133294380D01*
X225472380Y-133294380D01*
X225567619Y-133246761D01*
X224662857Y-133294380D02*
X224662857Y-132294380D01*
X224424761Y-132294380D01*
X224281904Y-132342000D01*
X224186666Y-132437238D01*
X224139047Y-132532476D01*
X224091428Y-132722952D01*
X224091428Y-132865809D01*
X224139047Y-133056285D01*
X224186666Y-133151523D01*
X224281904Y-133246761D01*
X224424761Y-133294380D01*
X224662857Y-133294380D01*
X223281904Y-133246761D02*
X223377142Y-133294380D01*
X223567619Y-133294380D01*
X223662857Y-133246761D01*
X223710476Y-133151523D01*
X223710476Y-132770571D01*
X223662857Y-132675333D01*
X223567619Y-132627714D01*
X223377142Y-132627714D01*
X223281904Y-132675333D01*
X223234285Y-132770571D01*
X223234285Y-132865809D01*
X223710476Y-132961047D01*
X222853333Y-133246761D02*
X222758095Y-133294380D01*
X222567619Y-133294380D01*
X222472380Y-133246761D01*
X222424761Y-133151523D01*
X222424761Y-133103904D01*
X222472380Y-133008666D01*
X222567619Y-132961047D01*
X222710476Y-132961047D01*
X222805714Y-132913428D01*
X222853333Y-132818190D01*
X222853333Y-132770571D01*
X222805714Y-132675333D01*
X222710476Y-132627714D01*
X222567619Y-132627714D01*
X222472380Y-132675333D01*
X221996190Y-133294380D02*
X221996190Y-132627714D01*
X221996190Y-132294380D02*
X222043809Y-132342000D01*
X221996190Y-132389619D01*
X221948571Y-132342000D01*
X221996190Y-132294380D01*
X221996190Y-132389619D01*
X221091428Y-132627714D02*
X221091428Y-133437238D01*
X221139047Y-133532476D01*
X221186666Y-133580095D01*
X221281904Y-133627714D01*
X221424761Y-133627714D01*
X221520000Y-133580095D01*
X221091428Y-133246761D02*
X221186666Y-133294380D01*
X221377142Y-133294380D01*
X221472380Y-133246761D01*
X221520000Y-133199142D01*
X221567619Y-133103904D01*
X221567619Y-132818190D01*
X221520000Y-132722952D01*
X221472380Y-132675333D01*
X221377142Y-132627714D01*
X221186666Y-132627714D01*
X221091428Y-132675333D01*
X220615238Y-132627714D02*
X220615238Y-133294380D01*
X220615238Y-132722952D02*
X220567619Y-132675333D01*
X220472380Y-132627714D01*
X220329523Y-132627714D01*
X220234285Y-132675333D01*
X220186666Y-132770571D01*
X220186666Y-133294380D01*
X219710476Y-133199142D02*
X219662857Y-133246761D01*
X219710476Y-133294380D01*
X219758095Y-133246761D01*
X219710476Y-133199142D01*
X219710476Y-133294380D01*
X219710476Y-132675333D02*
X219662857Y-132722952D01*
X219710476Y-132770571D01*
X219758095Y-132722952D01*
X219710476Y-132675333D01*
X219710476Y-132770571D01*
D10*
X170186400Y-103378076D02*
X170148304Y-103301885D01*
X170148304Y-103187600D01*
X170186400Y-103073314D01*
X170262590Y-102997123D01*
X170338780Y-102959028D01*
X170491161Y-102920933D01*
X170605447Y-102920933D01*
X170757828Y-102959028D01*
X170834019Y-102997123D01*
X170910209Y-103073314D01*
X170948304Y-103187600D01*
X170948304Y-103263790D01*
X170910209Y-103378076D01*
X170872114Y-103416171D01*
X170605447Y-103416171D01*
X170605447Y-103263790D01*
X170948304Y-103759028D02*
X170148304Y-103759028D01*
X170948304Y-104216171D01*
X170148304Y-104216171D01*
X170948304Y-104597123D02*
X170148304Y-104597123D01*
X170148304Y-104787600D01*
X170186400Y-104901885D01*
X170262590Y-104978076D01*
X170338780Y-105016171D01*
X170491161Y-105054266D01*
X170605447Y-105054266D01*
X170757828Y-105016171D01*
X170834019Y-104978076D01*
X170910209Y-104901885D01*
X170948304Y-104787600D01*
X170948304Y-104597123D01*
D11*
X172446828Y-132607009D02*
X172332542Y-132645104D01*
X172142066Y-132645104D01*
X172065876Y-132607009D01*
X172027780Y-132568914D01*
X171989685Y-132492723D01*
X171989685Y-132416533D01*
X172027780Y-132340342D01*
X172065876Y-132302247D01*
X172142066Y-132264152D01*
X172294447Y-132226057D01*
X172370638Y-132187961D01*
X172408733Y-132149866D01*
X172446828Y-132073676D01*
X172446828Y-131997485D01*
X172408733Y-131921295D01*
X172370638Y-131883200D01*
X172294447Y-131845104D01*
X172103971Y-131845104D01*
X171989685Y-131883200D01*
X171646828Y-132645104D02*
X171646828Y-131845104D01*
X171456352Y-131845104D01*
X171342066Y-131883200D01*
X171265876Y-131959390D01*
X171227780Y-132035580D01*
X171189685Y-132187961D01*
X171189685Y-132302247D01*
X171227780Y-132454628D01*
X171265876Y-132530819D01*
X171342066Y-132607009D01*
X171456352Y-132645104D01*
X171646828Y-132645104D01*
X170884923Y-132416533D02*
X170503971Y-132416533D01*
X170961114Y-132645104D02*
X170694447Y-131845104D01*
X170427780Y-132645104D01*
D10*
X164947523Y-132657904D02*
X164490380Y-132657904D01*
X164718952Y-133457904D02*
X164718952Y-132657904D01*
X164299904Y-132657904D02*
X163766571Y-133457904D01*
X163766571Y-132657904D02*
X164299904Y-133457904D01*
D11*
X172084923Y-126727000D02*
X172161114Y-126688904D01*
X172275400Y-126688904D01*
X172389685Y-126727000D01*
X172465876Y-126803190D01*
X172503971Y-126879380D01*
X172542066Y-127031761D01*
X172542066Y-127146047D01*
X172503971Y-127298428D01*
X172465876Y-127374619D01*
X172389685Y-127450809D01*
X172275400Y-127488904D01*
X172199209Y-127488904D01*
X172084923Y-127450809D01*
X172046828Y-127412714D01*
X172046828Y-127146047D01*
X172199209Y-127146047D01*
X171703971Y-127488904D02*
X171703971Y-126688904D01*
X171246828Y-127488904D01*
X171246828Y-126688904D01*
X170865876Y-127488904D02*
X170865876Y-126688904D01*
X170675400Y-126688904D01*
X170561114Y-126727000D01*
X170484923Y-126803190D01*
X170446828Y-126879380D01*
X170408733Y-127031761D01*
X170408733Y-127146047D01*
X170446828Y-127298428D01*
X170484923Y-127374619D01*
X170561114Y-127450809D01*
X170675400Y-127488904D01*
X170865876Y-127488904D01*
X172516666Y-134410504D02*
X172250000Y-135210504D01*
X171983333Y-134410504D01*
X171716666Y-135210504D02*
X171716666Y-134410504D01*
X171526190Y-134410504D01*
X171411904Y-134448600D01*
X171335714Y-134524790D01*
X171297619Y-134600980D01*
X171259523Y-134753361D01*
X171259523Y-134867647D01*
X171297619Y-135020028D01*
X171335714Y-135096219D01*
X171411904Y-135172409D01*
X171526190Y-135210504D01*
X171716666Y-135210504D01*
X170916666Y-135210504D02*
X170916666Y-134410504D01*
X170726190Y-134410504D01*
X170611904Y-134448600D01*
X170535714Y-134524790D01*
X170497619Y-134600980D01*
X170459523Y-134753361D01*
X170459523Y-134867647D01*
X170497619Y-135020028D01*
X170535714Y-135096219D01*
X170611904Y-135172409D01*
X170726190Y-135210504D01*
X170916666Y-135210504D01*
D10*
X150933047Y-101415904D02*
X150666380Y-102215904D01*
X150399714Y-101415904D01*
X150133047Y-102215904D02*
X150133047Y-101682571D01*
X150133047Y-101415904D02*
X150171142Y-101454000D01*
X150133047Y-101492095D01*
X150094952Y-101454000D01*
X150133047Y-101415904D01*
X150133047Y-101492095D01*
X149752095Y-101682571D02*
X149752095Y-102215904D01*
X149752095Y-101758761D02*
X149714000Y-101720666D01*
X149637809Y-101682571D01*
X149523523Y-101682571D01*
X149447333Y-101720666D01*
X149409238Y-101796857D01*
X149409238Y-102215904D01*
D12*
X219677523Y-94821333D02*
X218725142Y-94821333D01*
X219868000Y-95392761D02*
X219201333Y-93392761D01*
X218534666Y-95392761D01*
X217010857Y-95297523D02*
X217201333Y-95392761D01*
X217582285Y-95392761D01*
X217772761Y-95297523D01*
X217868000Y-95202285D01*
X217963238Y-95011809D01*
X217963238Y-94440380D01*
X217868000Y-94249904D01*
X217772761Y-94154666D01*
X217582285Y-94059428D01*
X217201333Y-94059428D01*
X217010857Y-94154666D01*
X216153714Y-95392761D02*
X216153714Y-94059428D01*
X216153714Y-94440380D02*
X216058476Y-94249904D01*
X215963238Y-94154666D01*
X215772761Y-94059428D01*
X215582285Y-94059428D01*
X214153714Y-95297523D02*
X214344190Y-95392761D01*
X214725142Y-95392761D01*
X214915619Y-95297523D01*
X215010857Y-95107047D01*
X215010857Y-94345142D01*
X214915619Y-94154666D01*
X214725142Y-94059428D01*
X214344190Y-94059428D01*
X214153714Y-94154666D01*
X214058476Y-94345142D01*
X214058476Y-94535619D01*
X215010857Y-94726095D01*
X212248952Y-95392761D02*
X213201333Y-95392761D01*
X213201333Y-93392761D01*
X211582285Y-95392761D02*
X211582285Y-94059428D01*
X211582285Y-93392761D02*
X211677523Y-93488000D01*
X211582285Y-93583238D01*
X211487047Y-93488000D01*
X211582285Y-93392761D01*
X211582285Y-93583238D01*
X210629904Y-94059428D02*
X210629904Y-95392761D01*
X210629904Y-94249904D02*
X210534666Y-94154666D01*
X210344190Y-94059428D01*
X210058476Y-94059428D01*
X209868000Y-94154666D01*
X209772761Y-94345142D01*
X209772761Y-95392761D01*
X208820380Y-95392761D02*
X208820380Y-93392761D01*
X208629904Y-94630857D02*
X208058476Y-95392761D01*
X208058476Y-94059428D02*
X208820380Y-94821333D01*
D11*
X172262685Y-124352104D02*
X172110304Y-124352104D01*
X172034114Y-124390200D01*
X171957923Y-124466390D01*
X171919828Y-124618771D01*
X171919828Y-124885438D01*
X171957923Y-125037819D01*
X172034114Y-125114009D01*
X172110304Y-125152104D01*
X172262685Y-125152104D01*
X172338876Y-125114009D01*
X172415066Y-125037819D01*
X172453161Y-124885438D01*
X172453161Y-124618771D01*
X172415066Y-124466390D01*
X172338876Y-124390200D01*
X172262685Y-124352104D01*
X171653161Y-124352104D02*
X171462685Y-125152104D01*
X171310304Y-124580676D01*
X171157923Y-125152104D01*
X170967447Y-124352104D01*
X170243638Y-125152104D02*
X170700780Y-125152104D01*
X170472209Y-125152104D02*
X170472209Y-124352104D01*
X170548400Y-124466390D01*
X170624590Y-124542580D01*
X170700780Y-124580676D01*
X196270571Y-95908952D02*
X196318190Y-96051809D01*
X196365809Y-96099428D01*
X196461047Y-96147047D01*
X196603904Y-96147047D01*
X196699142Y-96099428D01*
X196746761Y-96051809D01*
X196794380Y-95956571D01*
X196794380Y-95575619D01*
X195794380Y-95575619D01*
X195794380Y-95908952D01*
X195842000Y-96004190D01*
X195889619Y-96051809D01*
X195984857Y-96099428D01*
X196080095Y-96099428D01*
X196175333Y-96051809D01*
X196222952Y-96004190D01*
X196270571Y-95908952D01*
X196270571Y-95575619D01*
X196508666Y-96528000D02*
X196508666Y-97004190D01*
X196794380Y-96432761D02*
X195794380Y-96766095D01*
X196794380Y-97099428D01*
X195794380Y-97289904D02*
X195794380Y-97861333D01*
X196794380Y-97575619D02*
X195794380Y-97575619D01*
X195794380Y-98051809D02*
X195794380Y-98623238D01*
X196794380Y-98337523D02*
X195794380Y-98337523D01*
D13*
X222529333Y-102208000D02*
X221462666Y-102208000D01*
X221996000Y-102741333D02*
X221996000Y-101674666D01*
X227226095Y-135072380D02*
X227226095Y-134072380D01*
X226892761Y-134786666D01*
X226559428Y-134072380D01*
X226559428Y-135072380D01*
X225654666Y-135072380D02*
X225654666Y-134548571D01*
X225702285Y-134453333D01*
X225797523Y-134405714D01*
X225988000Y-134405714D01*
X226083238Y-134453333D01*
X225654666Y-135024761D02*
X225749904Y-135072380D01*
X225988000Y-135072380D01*
X226083238Y-135024761D01*
X226130857Y-134929523D01*
X226130857Y-134834285D01*
X226083238Y-134739047D01*
X225988000Y-134691428D01*
X225749904Y-134691428D01*
X225654666Y-134643809D01*
X225273714Y-135072380D02*
X224749904Y-134405714D01*
X225273714Y-134405714D02*
X224749904Y-135072380D01*
X224368952Y-135072380D02*
X224368952Y-134405714D01*
X224368952Y-134072380D02*
X224416571Y-134120000D01*
X224368952Y-134167619D01*
X224321333Y-134120000D01*
X224368952Y-134072380D01*
X224368952Y-134167619D01*
X223892761Y-135072380D02*
X223892761Y-134405714D01*
X223892761Y-134500952D02*
X223845142Y-134453333D01*
X223749904Y-134405714D01*
X223607047Y-134405714D01*
X223511809Y-134453333D01*
X223464190Y-134548571D01*
X223464190Y-135072380D01*
X223464190Y-134548571D02*
X223416571Y-134453333D01*
X223321333Y-134405714D01*
X223178476Y-134405714D01*
X223083238Y-134453333D01*
X223035619Y-134548571D01*
X223035619Y-135072380D01*
X222559428Y-135072380D02*
X222559428Y-134405714D01*
X222559428Y-134072380D02*
X222607047Y-134120000D01*
X222559428Y-134167619D01*
X222511809Y-134120000D01*
X222559428Y-134072380D01*
X222559428Y-134167619D01*
X221940380Y-135072380D02*
X222035619Y-135024761D01*
X222083238Y-134929523D01*
X222083238Y-134072380D01*
X221559428Y-135072380D02*
X221559428Y-134405714D01*
X221559428Y-134072380D02*
X221607047Y-134120000D01*
X221559428Y-134167619D01*
X221511809Y-134120000D01*
X221559428Y-134072380D01*
X221559428Y-134167619D01*
X220654666Y-135072380D02*
X220654666Y-134548571D01*
X220702285Y-134453333D01*
X220797523Y-134405714D01*
X220988000Y-134405714D01*
X221083238Y-134453333D01*
X220654666Y-135024761D02*
X220749904Y-135072380D01*
X220988000Y-135072380D01*
X221083238Y-135024761D01*
X221130857Y-134929523D01*
X221130857Y-134834285D01*
X221083238Y-134739047D01*
X220988000Y-134691428D01*
X220749904Y-134691428D01*
X220654666Y-134643809D01*
X220178476Y-134405714D02*
X220178476Y-135072380D01*
X220178476Y-134500952D02*
X220130857Y-134453333D01*
X220035619Y-134405714D01*
X219892761Y-134405714D01*
X219797523Y-134453333D01*
X219749904Y-134548571D01*
X219749904Y-135072380D01*
X218178476Y-134548571D02*
X218035619Y-134596190D01*
X217988000Y-134643809D01*
X217940380Y-134739047D01*
X217940380Y-134881904D01*
X217988000Y-134977142D01*
X218035619Y-135024761D01*
X218130857Y-135072380D01*
X218511809Y-135072380D01*
X218511809Y-134072380D01*
X218178476Y-134072380D01*
X218083238Y-134120000D01*
X218035619Y-134167619D01*
X217988000Y-134262857D01*
X217988000Y-134358095D01*
X218035619Y-134453333D01*
X218083238Y-134500952D01*
X218178476Y-134548571D01*
X218511809Y-134548571D01*
X217130857Y-135024761D02*
X217226095Y-135072380D01*
X217416571Y-135072380D01*
X217511809Y-135024761D01*
X217559428Y-134929523D01*
X217559428Y-134548571D01*
X217511809Y-134453333D01*
X217416571Y-134405714D01*
X217226095Y-134405714D01*
X217130857Y-134453333D01*
X217083238Y-134548571D01*
X217083238Y-134643809D01*
X217559428Y-134739047D01*
X216797523Y-134405714D02*
X216416571Y-134405714D01*
X216654666Y-134072380D02*
X216654666Y-134929523D01*
X216607047Y-135024761D01*
X216511809Y-135072380D01*
X216416571Y-135072380D01*
X216178476Y-134405714D02*
X215654666Y-134405714D01*
X216178476Y-135072380D01*
X215654666Y-135072380D01*
D11*
X181464000Y-96951876D02*
X181425904Y-96875685D01*
X181425904Y-96761400D01*
X181464000Y-96647114D01*
X181540190Y-96570923D01*
X181616380Y-96532828D01*
X181768761Y-96494733D01*
X181883047Y-96494733D01*
X182035428Y-96532828D01*
X182111619Y-96570923D01*
X182187809Y-96647114D01*
X182225904Y-96761400D01*
X182225904Y-96837590D01*
X182187809Y-96951876D01*
X182149714Y-96989971D01*
X181883047Y-96989971D01*
X181883047Y-96837590D01*
X182225904Y-97332828D02*
X181425904Y-97332828D01*
X182225904Y-97789971D01*
X181425904Y-97789971D01*
X182225904Y-98170923D02*
X181425904Y-98170923D01*
X181425904Y-98361400D01*
X181464000Y-98475685D01*
X181540190Y-98551876D01*
X181616380Y-98589971D01*
X181768761Y-98628066D01*
X181883047Y-98628066D01*
X182035428Y-98589971D01*
X182111619Y-98551876D01*
X182187809Y-98475685D01*
X182225904Y-98361400D01*
X182225904Y-98170923D01*
X206405142Y-123388380D02*
X206881333Y-123388380D01*
X206881333Y-122388380D01*
X206071809Y-123388380D02*
X206071809Y-122721714D01*
X206071809Y-122388380D02*
X206119428Y-122436000D01*
X206071809Y-122483619D01*
X206024190Y-122436000D01*
X206071809Y-122388380D01*
X206071809Y-122483619D01*
X205738476Y-122721714D02*
X205357523Y-122721714D01*
X205595619Y-123388380D02*
X205595619Y-122531238D01*
X205548000Y-122436000D01*
X205452761Y-122388380D01*
X205357523Y-122388380D01*
X204643238Y-123340761D02*
X204738476Y-123388380D01*
X204928952Y-123388380D01*
X205024190Y-123340761D01*
X205071809Y-123245523D01*
X205071809Y-122864571D01*
X205024190Y-122769333D01*
X204928952Y-122721714D01*
X204738476Y-122721714D01*
X204643238Y-122769333D01*
X204595619Y-122864571D01*
X204595619Y-122959809D01*
X205071809Y-123055047D01*
X204167047Y-123388380D02*
X204167047Y-122388380D01*
X203786095Y-122388380D01*
X203690857Y-122436000D01*
X203643238Y-122483619D01*
X203595619Y-122578857D01*
X203595619Y-122721714D01*
X203643238Y-122816952D01*
X203690857Y-122864571D01*
X203786095Y-122912190D01*
X204167047Y-122912190D01*
X203024190Y-123388380D02*
X203119428Y-123340761D01*
X203167047Y-123293142D01*
X203214666Y-123197904D01*
X203214666Y-122912190D01*
X203167047Y-122816952D01*
X203119428Y-122769333D01*
X203024190Y-122721714D01*
X202881333Y-122721714D01*
X202786095Y-122769333D01*
X202738476Y-122816952D01*
X202690857Y-122912190D01*
X202690857Y-123197904D01*
X202738476Y-123293142D01*
X202786095Y-123340761D01*
X202881333Y-123388380D01*
X203024190Y-123388380D01*
X201833714Y-122721714D02*
X201833714Y-123388380D01*
X202071809Y-122340761D02*
X202309904Y-123055047D01*
X201690857Y-123055047D01*
X200405142Y-123388380D02*
X200500380Y-123340761D01*
X200548000Y-123293142D01*
X200595619Y-123197904D01*
X200595619Y-122912190D01*
X200548000Y-122816952D01*
X200500380Y-122769333D01*
X200405142Y-122721714D01*
X200262285Y-122721714D01*
X200167047Y-122769333D01*
X200119428Y-122816952D01*
X200071809Y-122912190D01*
X200071809Y-123197904D01*
X200119428Y-123293142D01*
X200167047Y-123340761D01*
X200262285Y-123388380D01*
X200405142Y-123388380D01*
X199643238Y-123388380D02*
X199643238Y-122721714D01*
X199643238Y-122912190D02*
X199595619Y-122816952D01*
X199548000Y-122769333D01*
X199452761Y-122721714D01*
X199357523Y-122721714D01*
X197786095Y-123388380D02*
X198262285Y-123388380D01*
X198262285Y-122388380D01*
X197452761Y-123388380D02*
X197452761Y-122721714D01*
X197452761Y-122388380D02*
X197500380Y-122436000D01*
X197452761Y-122483619D01*
X197405142Y-122436000D01*
X197452761Y-122388380D01*
X197452761Y-122483619D01*
X197119428Y-122721714D02*
X196738476Y-122721714D01*
X196976571Y-122388380D02*
X196976571Y-123245523D01*
X196928952Y-123340761D01*
X196833714Y-123388380D01*
X196738476Y-123388380D01*
X196405142Y-123388380D02*
X196405142Y-122388380D01*
X195976571Y-123388380D02*
X195976571Y-122864571D01*
X196024190Y-122769333D01*
X196119428Y-122721714D01*
X196262285Y-122721714D01*
X196357523Y-122769333D01*
X196405142Y-122816952D01*
X195500380Y-123388380D02*
X195500380Y-122721714D01*
X195500380Y-122388380D02*
X195548000Y-122436000D01*
X195500380Y-122483619D01*
X195452761Y-122436000D01*
X195500380Y-122388380D01*
X195500380Y-122483619D01*
X194595619Y-122721714D02*
X194595619Y-123388380D01*
X195024190Y-122721714D02*
X195024190Y-123245523D01*
X194976571Y-123340761D01*
X194881333Y-123388380D01*
X194738476Y-123388380D01*
X194643238Y-123340761D01*
X194595619Y-123293142D01*
X194119428Y-123388380D02*
X194119428Y-122721714D01*
X194119428Y-122816952D02*
X194071809Y-122769333D01*
X193976571Y-122721714D01*
X193833714Y-122721714D01*
X193738476Y-122769333D01*
X193690857Y-122864571D01*
X193690857Y-123388380D01*
X193690857Y-122864571D02*
X193643238Y-122769333D01*
X193548000Y-122721714D01*
X193405142Y-122721714D01*
X193309904Y-122769333D01*
X193262285Y-122864571D01*
X193262285Y-123388380D01*
X192786095Y-123007428D02*
X192024190Y-123007428D01*
X191690857Y-122388380D02*
X191119428Y-122388380D01*
X191405142Y-123388380D02*
X191405142Y-122388380D01*
X190786095Y-123388380D02*
X190786095Y-122388380D01*
X190357523Y-123388380D02*
X190357523Y-122864571D01*
X190405142Y-122769333D01*
X190500380Y-122721714D01*
X190643238Y-122721714D01*
X190738476Y-122769333D01*
X190786095Y-122816952D01*
X189881333Y-123388380D02*
X189881333Y-122721714D01*
X189881333Y-122388380D02*
X189928952Y-122436000D01*
X189881333Y-122483619D01*
X189833714Y-122436000D01*
X189881333Y-122388380D01*
X189881333Y-122483619D01*
X189262285Y-123388380D02*
X189357523Y-123340761D01*
X189405142Y-123293142D01*
X189452761Y-123197904D01*
X189452761Y-122912190D01*
X189405142Y-122816952D01*
X189357523Y-122769333D01*
X189262285Y-122721714D01*
X189119428Y-122721714D01*
X189024190Y-122769333D01*
X188976571Y-122816952D01*
X188928952Y-122912190D01*
X188928952Y-123197904D01*
X188976571Y-123293142D01*
X189024190Y-123340761D01*
X189119428Y-123388380D01*
X189262285Y-123388380D01*
X188500380Y-122721714D02*
X188500380Y-123388380D01*
X188500380Y-122816952D02*
X188452761Y-122769333D01*
X188357523Y-122721714D01*
X188214666Y-122721714D01*
X188119428Y-122769333D01*
X188071809Y-122864571D01*
X188071809Y-123388380D01*
X187690857Y-122721714D02*
X187452761Y-123388380D01*
X187214666Y-122721714D02*
X187452761Y-123388380D01*
X187548000Y-123626476D01*
X187595619Y-123674095D01*
X187690857Y-123721714D01*
X186690857Y-123388380D02*
X186786095Y-123340761D01*
X186833714Y-123245523D01*
X186833714Y-122388380D01*
X186309904Y-123007428D02*
X185548000Y-123007428D01*
X184500380Y-123293142D02*
X184548000Y-123340761D01*
X184690857Y-123388380D01*
X184786095Y-123388380D01*
X184928952Y-123340761D01*
X185024190Y-123245523D01*
X185071809Y-123150285D01*
X185119428Y-122959809D01*
X185119428Y-122816952D01*
X185071809Y-122626476D01*
X185024190Y-122531238D01*
X184928952Y-122436000D01*
X184786095Y-122388380D01*
X184690857Y-122388380D01*
X184548000Y-122436000D01*
X184500380Y-122483619D01*
X184071809Y-123388380D02*
X184071809Y-122388380D01*
X183643238Y-123388380D02*
X183643238Y-122864571D01*
X183690857Y-122769333D01*
X183786095Y-122721714D01*
X183928952Y-122721714D01*
X184024190Y-122769333D01*
X184071809Y-122816952D01*
X183024190Y-123388380D02*
X183119428Y-123340761D01*
X183167047Y-123245523D01*
X183167047Y-122388380D01*
X182500380Y-123388380D02*
X182595619Y-123340761D01*
X182643238Y-123293142D01*
X182690857Y-123197904D01*
X182690857Y-122912190D01*
X182643238Y-122816952D01*
X182595619Y-122769333D01*
X182500380Y-122721714D01*
X182357523Y-122721714D01*
X182262285Y-122769333D01*
X182214666Y-122816952D01*
X182167047Y-122912190D01*
X182167047Y-123197904D01*
X182214666Y-123293142D01*
X182262285Y-123340761D01*
X182357523Y-123388380D01*
X182500380Y-123388380D01*
X181738476Y-123388380D02*
X181738476Y-122721714D01*
X181738476Y-122912190D02*
X181690857Y-122816952D01*
X181643238Y-122769333D01*
X181548000Y-122721714D01*
X181452761Y-122721714D01*
X181119428Y-123388380D02*
X181119428Y-122721714D01*
X181119428Y-122388380D02*
X181167047Y-122436000D01*
X181119428Y-122483619D01*
X181071809Y-122436000D01*
X181119428Y-122388380D01*
X181119428Y-122483619D01*
X180214666Y-123388380D02*
X180214666Y-122388380D01*
X180214666Y-123340761D02*
X180309904Y-123388380D01*
X180500380Y-123388380D01*
X180595619Y-123340761D01*
X180643238Y-123293142D01*
X180690857Y-123197904D01*
X180690857Y-122912190D01*
X180643238Y-122816952D01*
X180595619Y-122769333D01*
X180500380Y-122721714D01*
X180309904Y-122721714D01*
X180214666Y-122769333D01*
D10*
X164439523Y-134982000D02*
X164515714Y-134943904D01*
X164630000Y-134943904D01*
X164744285Y-134982000D01*
X164820476Y-135058190D01*
X164858571Y-135134380D01*
X164896666Y-135286761D01*
X164896666Y-135401047D01*
X164858571Y-135553428D01*
X164820476Y-135629619D01*
X164744285Y-135705809D01*
X164630000Y-135743904D01*
X164553809Y-135743904D01*
X164439523Y-135705809D01*
X164401428Y-135667714D01*
X164401428Y-135401047D01*
X164553809Y-135401047D01*
X164058571Y-135743904D02*
X164058571Y-134943904D01*
X163601428Y-135743904D01*
X163601428Y-134943904D01*
X163220476Y-135743904D02*
X163220476Y-134943904D01*
X163030000Y-134943904D01*
X162915714Y-134982000D01*
X162839523Y-135058190D01*
X162801428Y-135134380D01*
X162763333Y-135286761D01*
X162763333Y-135401047D01*
X162801428Y-135553428D01*
X162839523Y-135629619D01*
X162915714Y-135705809D01*
X163030000Y-135743904D01*
X163220476Y-135743904D01*
X164471333Y-130409904D02*
X164738000Y-130028952D01*
X164928476Y-130409904D02*
X164928476Y-129609904D01*
X164623714Y-129609904D01*
X164547523Y-129648000D01*
X164509428Y-129686095D01*
X164471333Y-129762285D01*
X164471333Y-129876571D01*
X164509428Y-129952761D01*
X164547523Y-129990857D01*
X164623714Y-130028952D01*
X164928476Y-130028952D01*
X164204666Y-129609904D02*
X163671333Y-130409904D01*
X163671333Y-129609904D02*
X164204666Y-130409904D01*
D11*
X219709238Y-97575714D02*
X219471142Y-98242380D01*
X219233047Y-97575714D01*
X218899714Y-97337619D02*
X218852095Y-97290000D01*
X218756857Y-97242380D01*
X218518761Y-97242380D01*
X218423523Y-97290000D01*
X218375904Y-97337619D01*
X218328285Y-97432857D01*
X218328285Y-97528095D01*
X218375904Y-97670952D01*
X218947333Y-98242380D01*
X218328285Y-98242380D01*
X217899714Y-98147142D02*
X217852095Y-98194761D01*
X217899714Y-98242380D01*
X217947333Y-98194761D01*
X217899714Y-98147142D01*
X217899714Y-98242380D01*
X216899714Y-98242380D02*
X217471142Y-98242380D01*
X217185428Y-98242380D02*
X217185428Y-97242380D01*
X217280666Y-97385238D01*
X217375904Y-97480476D01*
X217471142Y-97528095D01*
X215756857Y-97337619D02*
X215709238Y-97290000D01*
X215614000Y-97242380D01*
X215375904Y-97242380D01*
X215280666Y-97290000D01*
X215233047Y-97337619D01*
X215185428Y-97432857D01*
X215185428Y-97528095D01*
X215233047Y-97670952D01*
X215804476Y-98242380D01*
X215185428Y-98242380D01*
X214566380Y-97242380D02*
X214471142Y-97242380D01*
X214375904Y-97290000D01*
X214328285Y-97337619D01*
X214280666Y-97432857D01*
X214233047Y-97623333D01*
X214233047Y-97861428D01*
X214280666Y-98051904D01*
X214328285Y-98147142D01*
X214375904Y-98194761D01*
X214471142Y-98242380D01*
X214566380Y-98242380D01*
X214661619Y-98194761D01*
X214709238Y-98147142D01*
X214756857Y-98051904D01*
X214804476Y-97861428D01*
X214804476Y-97623333D01*
X214756857Y-97432857D01*
X214709238Y-97337619D01*
X214661619Y-97290000D01*
X214566380Y-97242380D01*
X213852095Y-97337619D02*
X213804476Y-97290000D01*
X213709238Y-97242380D01*
X213471142Y-97242380D01*
X213375904Y-97290000D01*
X213328285Y-97337619D01*
X213280666Y-97432857D01*
X213280666Y-97528095D01*
X213328285Y-97670952D01*
X213899714Y-98242380D01*
X213280666Y-98242380D01*
X212899714Y-97337619D02*
X212852095Y-97290000D01*
X212756857Y-97242380D01*
X212518761Y-97242380D01*
X212423523Y-97290000D01*
X212375904Y-97337619D01*
X212328285Y-97432857D01*
X212328285Y-97528095D01*
X212375904Y-97670952D01*
X212947333Y-98242380D01*
X212328285Y-98242380D01*
X211899714Y-98147142D02*
X211852095Y-98194761D01*
X211899714Y-98242380D01*
X211947333Y-98194761D01*
X211899714Y-98147142D01*
X211899714Y-98242380D01*
X211233047Y-97242380D02*
X211137809Y-97242380D01*
X211042571Y-97290000D01*
X210994952Y-97337619D01*
X210947333Y-97432857D01*
X210899714Y-97623333D01*
X210899714Y-97861428D01*
X210947333Y-98051904D01*
X210994952Y-98147142D01*
X211042571Y-98194761D01*
X211137809Y-98242380D01*
X211233047Y-98242380D01*
X211328285Y-98194761D01*
X211375904Y-98147142D01*
X211423523Y-98051904D01*
X211471142Y-97861428D01*
X211471142Y-97623333D01*
X211423523Y-97432857D01*
X211375904Y-97337619D01*
X211328285Y-97290000D01*
X211233047Y-97242380D01*
X209947333Y-98242380D02*
X210518761Y-98242380D01*
X210233047Y-98242380D02*
X210233047Y-97242380D01*
X210328285Y-97385238D01*
X210423523Y-97480476D01*
X210518761Y-97528095D01*
X209518761Y-98147142D02*
X209471142Y-98194761D01*
X209518761Y-98242380D01*
X209566380Y-98194761D01*
X209518761Y-98147142D01*
X209518761Y-98242380D01*
X209137809Y-97242380D02*
X208518761Y-97242380D01*
X208852095Y-97623333D01*
X208709238Y-97623333D01*
X208614000Y-97670952D01*
X208566380Y-97718571D01*
X208518761Y-97813809D01*
X208518761Y-98051904D01*
X208566380Y-98147142D01*
X208614000Y-98194761D01*
X208709238Y-98242380D01*
X208994952Y-98242380D01*
X209090190Y-98194761D01*
X209137809Y-98147142D01*
X207566380Y-98242380D02*
X208137809Y-98242380D01*
X207852095Y-98242380D02*
X207852095Y-97242380D01*
X207947333Y-97385238D01*
X208042571Y-97480476D01*
X208137809Y-97528095D01*
X172262723Y-101454000D02*
X172338914Y-101415904D01*
X172453200Y-101415904D01*
X172567485Y-101454000D01*
X172643676Y-101530190D01*
X172681771Y-101606380D01*
X172719866Y-101758761D01*
X172719866Y-101873047D01*
X172681771Y-102025428D01*
X172643676Y-102101619D01*
X172567485Y-102177809D01*
X172453200Y-102215904D01*
X172377009Y-102215904D01*
X172262723Y-102177809D01*
X172224628Y-102139714D01*
X172224628Y-101873047D01*
X172377009Y-101873047D01*
X171881771Y-102215904D02*
X171881771Y-101415904D01*
X171424628Y-102215904D01*
X171424628Y-101415904D01*
X171043676Y-102215904D02*
X171043676Y-101415904D01*
X170853200Y-101415904D01*
X170738914Y-101454000D01*
X170662723Y-101530190D01*
X170624628Y-101606380D01*
X170586533Y-101758761D01*
X170586533Y-101873047D01*
X170624628Y-102025428D01*
X170662723Y-102101619D01*
X170738914Y-102177809D01*
X170853200Y-102215904D01*
X171043676Y-102215904D01*
D14*
X200865619Y-111521723D02*
X200865619Y-112549819D01*
X200805142Y-112670771D01*
X200744666Y-112731247D01*
X200623714Y-112791723D01*
X200381809Y-112791723D01*
X200260857Y-112731247D01*
X200200380Y-112670771D01*
X200139904Y-112549819D01*
X200139904Y-111521723D01*
X199656095Y-111521723D02*
X198869904Y-111521723D01*
X199293238Y-112005533D01*
X199111809Y-112005533D01*
X198990857Y-112066009D01*
X198930380Y-112126485D01*
X198869904Y-112247438D01*
X198869904Y-112549819D01*
X198930380Y-112670771D01*
X198990857Y-112731247D01*
X199111809Y-112791723D01*
X199474666Y-112791723D01*
X199595619Y-112731247D01*
X199656095Y-112670771D01*
D15*
X228398000Y-103772200D02*
X171398000Y-103772200D01*
X171398000Y-103772200D02*
X171398000Y-120662200D01*
X228398000Y-120662200D02*
X228398000Y-103772200D01*
X171398000Y-120662200D02*
X228398000Y-120662200D01*
%LPC*%
D16*
X226568000Y-123190000D03*
D17*
X224028000Y-123190000D03*
X221488000Y-123190000D03*
X218948000Y-123190000D03*
X216408000Y-123190000D03*
X213868000Y-123190000D03*
X211328000Y-123190000D03*
D16*
X212344000Y-130317000D03*
D17*
X212344000Y-132857000D03*
X212344000Y-135397000D03*
D18*
X152654000Y-99822000D03*
D19*
X152654000Y-102362000D03*
D20*
X172135800Y-108686600D03*
X172135800Y-106146600D03*
D21*
X227838000Y-96007500D03*
X227838000Y-102992500D03*
D22*
X155456000Y-126396000D03*
X155456000Y-132176000D03*
D23*
X155986000Y-124966000D03*
D24*
X151806000Y-124966000D03*
X151806000Y-133606000D03*
D23*
X155986000Y-133606000D03*
D25*
X181864000Y-94234000D03*
D16*
X166624000Y-127508000D03*
D17*
X166624000Y-130048000D03*
X166624000Y-132588000D03*
X166624000Y-135128000D03*
D18*
X173990000Y-122174000D03*
D19*
X173990000Y-124714000D03*
X173990000Y-127254000D03*
X173990000Y-129794000D03*
X173990000Y-132334000D03*
X173990000Y-134874000D03*
D26*
X192048000Y-96012000D03*
X195048000Y-96012000D03*
D18*
X173990000Y-94737000D03*
D19*
X173990000Y-97277000D03*
X173990000Y-99817000D03*
X173990000Y-102357000D03*
D27*
X225893000Y-112172200D03*
X173903000Y-112172200D03*
D28*
X176653000Y-118212200D03*
X223133000Y-106222200D03*
M02*
