G04 #@! TF.GenerationSoftware,KiCad,Pcbnew,(5.1.7)-1*
G04 #@! TF.CreationDate,2020-12-10T21:45:52+01:00*
G04 #@! TF.ProjectId,lora,6c6f7261-2e6b-4696-9361-645f70636258,v1.0*
G04 #@! TF.SameCoordinates,Original*
G04 #@! TF.FileFunction,Legend,Top*
G04 #@! TF.FilePolarity,Positive*
%FSLAX46Y46*%
G04 Gerber Fmt 4.6, Leading zero omitted, Abs format (unit mm)*
G04 Created by KiCad (PCBNEW (5.1.7)-1) date 2020-12-10 21:45:52*
%MOMM*%
%LPD*%
G01*
G04 APERTURE LIST*
%ADD10C,0.150000*%
%ADD11C,0.120000*%
%ADD12C,0.200000*%
G04 APERTURE END LIST*
D10*
X224581904Y-135040000D02*
X224486666Y-134992380D01*
X224343809Y-134992380D01*
X224200952Y-135040000D01*
X224105714Y-135135238D01*
X224058095Y-135230476D01*
X224010476Y-135420952D01*
X224010476Y-135563809D01*
X224058095Y-135754285D01*
X224105714Y-135849523D01*
X224200952Y-135944761D01*
X224343809Y-135992380D01*
X224439047Y-135992380D01*
X224581904Y-135944761D01*
X224629523Y-135897142D01*
X224629523Y-135563809D01*
X224439047Y-135563809D01*
D11*
X176083333Y-92281904D02*
X176616666Y-92281904D01*
X176273809Y-93081904D01*
X177530952Y-92777142D02*
X178140476Y-92777142D01*
X176159523Y-93601904D02*
X176654761Y-93601904D01*
X176388095Y-93906666D01*
X176502380Y-93906666D01*
X176578571Y-93944761D01*
X176616666Y-93982857D01*
X176654761Y-94059047D01*
X176654761Y-94249523D01*
X176616666Y-94325714D01*
X176578571Y-94363809D01*
X176502380Y-94401904D01*
X176273809Y-94401904D01*
X176197619Y-94363809D01*
X176159523Y-94325714D01*
X177150000Y-93601904D02*
X177226190Y-93601904D01*
X177302380Y-93640000D01*
X177340476Y-93678095D01*
X177378571Y-93754285D01*
X177416666Y-93906666D01*
X177416666Y-94097142D01*
X177378571Y-94249523D01*
X177340476Y-94325714D01*
X177302380Y-94363809D01*
X177226190Y-94401904D01*
X177150000Y-94401904D01*
X177073809Y-94363809D01*
X177035714Y-94325714D01*
X176997619Y-94249523D01*
X176959523Y-94097142D01*
X176959523Y-93906666D01*
X176997619Y-93754285D01*
X177035714Y-93678095D01*
X177073809Y-93640000D01*
X177150000Y-93601904D01*
X177645238Y-93601904D02*
X177911904Y-94401904D01*
X178178571Y-93601904D01*
D10*
X188330952Y-117862380D02*
X188330952Y-118576666D01*
X188283333Y-118719523D01*
X188188095Y-118814761D01*
X188045238Y-118862380D01*
X187950000Y-118862380D01*
X189283333Y-118862380D02*
X188807142Y-118862380D01*
X188807142Y-117862380D01*
X190188095Y-118767142D02*
X190140476Y-118814761D01*
X189997619Y-118862380D01*
X189902380Y-118862380D01*
X189759523Y-118814761D01*
X189664285Y-118719523D01*
X189616666Y-118624285D01*
X189569047Y-118433809D01*
X189569047Y-118290952D01*
X189616666Y-118100476D01*
X189664285Y-118005238D01*
X189759523Y-117910000D01*
X189902380Y-117862380D01*
X189997619Y-117862380D01*
X190140476Y-117910000D01*
X190188095Y-117957619D01*
X190902380Y-117862380D02*
X190902380Y-118576666D01*
X190854761Y-118719523D01*
X190759523Y-118814761D01*
X190616666Y-118862380D01*
X190521428Y-118862380D01*
X191854761Y-118862380D02*
X191378571Y-118862380D01*
X191378571Y-117862380D01*
X192759523Y-118767142D02*
X192711904Y-118814761D01*
X192569047Y-118862380D01*
X192473809Y-118862380D01*
X192330952Y-118814761D01*
X192235714Y-118719523D01*
X192188095Y-118624285D01*
X192140476Y-118433809D01*
X192140476Y-118290952D01*
X192188095Y-118100476D01*
X192235714Y-118005238D01*
X192330952Y-117910000D01*
X192473809Y-117862380D01*
X192569047Y-117862380D01*
X192711904Y-117910000D01*
X192759523Y-117957619D01*
X193473809Y-117862380D02*
X193473809Y-118576666D01*
X193426190Y-118719523D01*
X193330952Y-118814761D01*
X193188095Y-118862380D01*
X193092857Y-118862380D01*
X194426190Y-118862380D02*
X193950000Y-118862380D01*
X193950000Y-117862380D01*
X195330952Y-118767142D02*
X195283333Y-118814761D01*
X195140476Y-118862380D01*
X195045238Y-118862380D01*
X194902380Y-118814761D01*
X194807142Y-118719523D01*
X194759523Y-118624285D01*
X194711904Y-118433809D01*
X194711904Y-118290952D01*
X194759523Y-118100476D01*
X194807142Y-118005238D01*
X194902380Y-117910000D01*
X195045238Y-117862380D01*
X195140476Y-117862380D01*
X195283333Y-117910000D01*
X195330952Y-117957619D01*
X196045238Y-117862380D02*
X196045238Y-118576666D01*
X195997619Y-118719523D01*
X195902380Y-118814761D01*
X195759523Y-118862380D01*
X195664285Y-118862380D01*
X196997619Y-118862380D02*
X196521428Y-118862380D01*
X196521428Y-117862380D01*
X197902380Y-118767142D02*
X197854761Y-118814761D01*
X197711904Y-118862380D01*
X197616666Y-118862380D01*
X197473809Y-118814761D01*
X197378571Y-118719523D01*
X197330952Y-118624285D01*
X197283333Y-118433809D01*
X197283333Y-118290952D01*
X197330952Y-118100476D01*
X197378571Y-118005238D01*
X197473809Y-117910000D01*
X197616666Y-117862380D01*
X197711904Y-117862380D01*
X197854761Y-117910000D01*
X197902380Y-117957619D01*
X223989047Y-127381428D02*
X224750952Y-127381428D01*
X224370000Y-127762380D02*
X224370000Y-127000476D01*
D12*
X171762857Y-117902857D02*
X171762857Y-118474285D01*
X170562857Y-118474285D01*
X171762857Y-117331428D02*
X171705714Y-117445714D01*
X171648571Y-117502857D01*
X171534285Y-117560000D01*
X171191428Y-117560000D01*
X171077142Y-117502857D01*
X171020000Y-117445714D01*
X170962857Y-117331428D01*
X170962857Y-117160000D01*
X171020000Y-117045714D01*
X171077142Y-116988571D01*
X171191428Y-116931428D01*
X171534285Y-116931428D01*
X171648571Y-116988571D01*
X171705714Y-117045714D01*
X171762857Y-117160000D01*
X171762857Y-117331428D01*
X171762857Y-116417142D02*
X170962857Y-116417142D01*
X171191428Y-116417142D02*
X171077142Y-116360000D01*
X171020000Y-116302857D01*
X170962857Y-116188571D01*
X170962857Y-116074285D01*
X171762857Y-115160000D02*
X171134285Y-115160000D01*
X171020000Y-115217142D01*
X170962857Y-115331428D01*
X170962857Y-115560000D01*
X171020000Y-115674285D01*
X171705714Y-115160000D02*
X171762857Y-115274285D01*
X171762857Y-115560000D01*
X171705714Y-115674285D01*
X171591428Y-115731428D01*
X171477142Y-115731428D01*
X171362857Y-115674285D01*
X171305714Y-115560000D01*
X171305714Y-115274285D01*
X171248571Y-115160000D01*
X170562857Y-114760000D02*
X171762857Y-114360000D01*
X170562857Y-113960000D01*
X171762857Y-113560000D02*
X170962857Y-113560000D01*
X170562857Y-113560000D02*
X170620000Y-113617142D01*
X170677142Y-113560000D01*
X170620000Y-113502857D01*
X170562857Y-113560000D01*
X170677142Y-113560000D01*
X171705714Y-113045714D02*
X171762857Y-112931428D01*
X171762857Y-112702857D01*
X171705714Y-112588571D01*
X171591428Y-112531428D01*
X171534285Y-112531428D01*
X171420000Y-112588571D01*
X171362857Y-112702857D01*
X171362857Y-112874285D01*
X171305714Y-112988571D01*
X171191428Y-113045714D01*
X171134285Y-113045714D01*
X171020000Y-112988571D01*
X170962857Y-112874285D01*
X170962857Y-112702857D01*
X171020000Y-112588571D01*
X171762857Y-112017142D02*
X170962857Y-112017142D01*
X170562857Y-112017142D02*
X170620000Y-112074285D01*
X170677142Y-112017142D01*
X170620000Y-111960000D01*
X170562857Y-112017142D01*
X170677142Y-112017142D01*
X171762857Y-111274285D02*
X171705714Y-111388571D01*
X171648571Y-111445714D01*
X171534285Y-111502857D01*
X171191428Y-111502857D01*
X171077142Y-111445714D01*
X171020000Y-111388571D01*
X170962857Y-111274285D01*
X170962857Y-111102857D01*
X171020000Y-110988571D01*
X171077142Y-110931428D01*
X171191428Y-110874285D01*
X171534285Y-110874285D01*
X171648571Y-110931428D01*
X171705714Y-110988571D01*
X171762857Y-111102857D01*
X171762857Y-111274285D01*
X170962857Y-110360000D02*
X171762857Y-110360000D01*
X171077142Y-110360000D02*
X171020000Y-110302857D01*
X170962857Y-110188571D01*
X170962857Y-110017142D01*
X171020000Y-109902857D01*
X171134285Y-109845714D01*
X171762857Y-109845714D01*
D10*
X187834761Y-109315714D02*
X188072857Y-109982380D01*
X188310952Y-109315714D01*
X189215714Y-109982380D02*
X188644285Y-109982380D01*
X188930000Y-109982380D02*
X188930000Y-108982380D01*
X188834761Y-109125238D01*
X188739523Y-109220476D01*
X188644285Y-109268095D01*
X189644285Y-109887142D02*
X189691904Y-109934761D01*
X189644285Y-109982380D01*
X189596666Y-109934761D01*
X189644285Y-109887142D01*
X189644285Y-109982380D01*
X190310952Y-108982380D02*
X190406190Y-108982380D01*
X190501428Y-109030000D01*
X190549047Y-109077619D01*
X190596666Y-109172857D01*
X190644285Y-109363333D01*
X190644285Y-109601428D01*
X190596666Y-109791904D01*
X190549047Y-109887142D01*
X190501428Y-109934761D01*
X190406190Y-109982380D01*
X190310952Y-109982380D01*
X190215714Y-109934761D01*
X190168095Y-109887142D01*
X190120476Y-109791904D01*
X190072857Y-109601428D01*
X190072857Y-109363333D01*
X190120476Y-109172857D01*
X190168095Y-109077619D01*
X190215714Y-109030000D01*
X190310952Y-108982380D01*
X191787142Y-109077619D02*
X191834761Y-109030000D01*
X191930000Y-108982380D01*
X192168095Y-108982380D01*
X192263333Y-109030000D01*
X192310952Y-109077619D01*
X192358571Y-109172857D01*
X192358571Y-109268095D01*
X192310952Y-109410952D01*
X191739523Y-109982380D01*
X192358571Y-109982380D01*
X192977619Y-108982380D02*
X193072857Y-108982380D01*
X193168095Y-109030000D01*
X193215714Y-109077619D01*
X193263333Y-109172857D01*
X193310952Y-109363333D01*
X193310952Y-109601428D01*
X193263333Y-109791904D01*
X193215714Y-109887142D01*
X193168095Y-109934761D01*
X193072857Y-109982380D01*
X192977619Y-109982380D01*
X192882380Y-109934761D01*
X192834761Y-109887142D01*
X192787142Y-109791904D01*
X192739523Y-109601428D01*
X192739523Y-109363333D01*
X192787142Y-109172857D01*
X192834761Y-109077619D01*
X192882380Y-109030000D01*
X192977619Y-108982380D01*
X193691904Y-109077619D02*
X193739523Y-109030000D01*
X193834761Y-108982380D01*
X194072857Y-108982380D01*
X194168095Y-109030000D01*
X194215714Y-109077619D01*
X194263333Y-109172857D01*
X194263333Y-109268095D01*
X194215714Y-109410952D01*
X193644285Y-109982380D01*
X194263333Y-109982380D01*
X194882380Y-108982380D02*
X194977619Y-108982380D01*
X195072857Y-109030000D01*
X195120476Y-109077619D01*
X195168095Y-109172857D01*
X195215714Y-109363333D01*
X195215714Y-109601428D01*
X195168095Y-109791904D01*
X195120476Y-109887142D01*
X195072857Y-109934761D01*
X194977619Y-109982380D01*
X194882380Y-109982380D01*
X194787142Y-109934761D01*
X194739523Y-109887142D01*
X194691904Y-109791904D01*
X194644285Y-109601428D01*
X194644285Y-109363333D01*
X194691904Y-109172857D01*
X194739523Y-109077619D01*
X194787142Y-109030000D01*
X194882380Y-108982380D01*
X195644285Y-109887142D02*
X195691904Y-109934761D01*
X195644285Y-109982380D01*
X195596666Y-109934761D01*
X195644285Y-109887142D01*
X195644285Y-109982380D01*
X196644285Y-109982380D02*
X196072857Y-109982380D01*
X196358571Y-109982380D02*
X196358571Y-108982380D01*
X196263333Y-109125238D01*
X196168095Y-109220476D01*
X196072857Y-109268095D01*
X197596666Y-109982380D02*
X197025238Y-109982380D01*
X197310952Y-109982380D02*
X197310952Y-108982380D01*
X197215714Y-109125238D01*
X197120476Y-109220476D01*
X197025238Y-109268095D01*
X198025238Y-109887142D02*
X198072857Y-109934761D01*
X198025238Y-109982380D01*
X197977619Y-109934761D01*
X198025238Y-109887142D01*
X198025238Y-109982380D01*
X198453809Y-109077619D02*
X198501428Y-109030000D01*
X198596666Y-108982380D01*
X198834761Y-108982380D01*
X198930000Y-109030000D01*
X198977619Y-109077619D01*
X199025238Y-109172857D01*
X199025238Y-109268095D01*
X198977619Y-109410952D01*
X198406190Y-109982380D01*
X199025238Y-109982380D01*
X199406190Y-109077619D02*
X199453809Y-109030000D01*
X199549047Y-108982380D01*
X199787142Y-108982380D01*
X199882380Y-109030000D01*
X199930000Y-109077619D01*
X199977619Y-109172857D01*
X199977619Y-109268095D01*
X199930000Y-109410952D01*
X199358571Y-109982380D01*
X199977619Y-109982380D01*
D12*
X204191904Y-115422380D02*
X204191904Y-114422380D01*
X204525238Y-115136666D01*
X204858571Y-114422380D01*
X204858571Y-115422380D01*
X205763333Y-115422380D02*
X205763333Y-114898571D01*
X205715714Y-114803333D01*
X205620476Y-114755714D01*
X205430000Y-114755714D01*
X205334761Y-114803333D01*
X205763333Y-115374761D02*
X205668095Y-115422380D01*
X205430000Y-115422380D01*
X205334761Y-115374761D01*
X205287142Y-115279523D01*
X205287142Y-115184285D01*
X205334761Y-115089047D01*
X205430000Y-115041428D01*
X205668095Y-115041428D01*
X205763333Y-114993809D01*
X206144285Y-115422380D02*
X206668095Y-114755714D01*
X206144285Y-114755714D02*
X206668095Y-115422380D01*
X207049047Y-115422380D02*
X207049047Y-114755714D01*
X207049047Y-114422380D02*
X207001428Y-114470000D01*
X207049047Y-114517619D01*
X207096666Y-114470000D01*
X207049047Y-114422380D01*
X207049047Y-114517619D01*
X207525238Y-115422380D02*
X207525238Y-114755714D01*
X207525238Y-114850952D02*
X207572857Y-114803333D01*
X207668095Y-114755714D01*
X207810952Y-114755714D01*
X207906190Y-114803333D01*
X207953809Y-114898571D01*
X207953809Y-115422380D01*
X207953809Y-114898571D02*
X208001428Y-114803333D01*
X208096666Y-114755714D01*
X208239523Y-114755714D01*
X208334761Y-114803333D01*
X208382380Y-114898571D01*
X208382380Y-115422380D01*
X208858571Y-115422380D02*
X208858571Y-114755714D01*
X208858571Y-114422380D02*
X208810952Y-114470000D01*
X208858571Y-114517619D01*
X208906190Y-114470000D01*
X208858571Y-114422380D01*
X208858571Y-114517619D01*
X209477619Y-115422380D02*
X209382380Y-115374761D01*
X209334761Y-115279523D01*
X209334761Y-114422380D01*
X209858571Y-115422380D02*
X209858571Y-114755714D01*
X209858571Y-114422380D02*
X209810952Y-114470000D01*
X209858571Y-114517619D01*
X209906190Y-114470000D01*
X209858571Y-114422380D01*
X209858571Y-114517619D01*
X210763333Y-115422380D02*
X210763333Y-114898571D01*
X210715714Y-114803333D01*
X210620476Y-114755714D01*
X210430000Y-114755714D01*
X210334761Y-114803333D01*
X210763333Y-115374761D02*
X210668095Y-115422380D01*
X210430000Y-115422380D01*
X210334761Y-115374761D01*
X210287142Y-115279523D01*
X210287142Y-115184285D01*
X210334761Y-115089047D01*
X210430000Y-115041428D01*
X210668095Y-115041428D01*
X210763333Y-114993809D01*
X211239523Y-114755714D02*
X211239523Y-115422380D01*
X211239523Y-114850952D02*
X211287142Y-114803333D01*
X211382380Y-114755714D01*
X211525238Y-114755714D01*
X211620476Y-114803333D01*
X211668095Y-114898571D01*
X211668095Y-115422380D01*
X213239523Y-114898571D02*
X213382380Y-114946190D01*
X213430000Y-114993809D01*
X213477619Y-115089047D01*
X213477619Y-115231904D01*
X213430000Y-115327142D01*
X213382380Y-115374761D01*
X213287142Y-115422380D01*
X212906190Y-115422380D01*
X212906190Y-114422380D01*
X213239523Y-114422380D01*
X213334761Y-114470000D01*
X213382380Y-114517619D01*
X213430000Y-114612857D01*
X213430000Y-114708095D01*
X213382380Y-114803333D01*
X213334761Y-114850952D01*
X213239523Y-114898571D01*
X212906190Y-114898571D01*
X214287142Y-115374761D02*
X214191904Y-115422380D01*
X214001428Y-115422380D01*
X213906190Y-115374761D01*
X213858571Y-115279523D01*
X213858571Y-114898571D01*
X213906190Y-114803333D01*
X214001428Y-114755714D01*
X214191904Y-114755714D01*
X214287142Y-114803333D01*
X214334761Y-114898571D01*
X214334761Y-114993809D01*
X213858571Y-115089047D01*
X214620476Y-114755714D02*
X215001428Y-114755714D01*
X214763333Y-114422380D02*
X214763333Y-115279523D01*
X214810952Y-115374761D01*
X214906190Y-115422380D01*
X215001428Y-115422380D01*
X215239523Y-114755714D02*
X215763333Y-114755714D01*
X215239523Y-115422380D01*
X215763333Y-115422380D01*
D10*
X204160476Y-113155714D02*
X204160476Y-114155714D01*
X204160476Y-113203333D02*
X204255714Y-113155714D01*
X204446190Y-113155714D01*
X204541428Y-113203333D01*
X204589047Y-113250952D01*
X204636666Y-113346190D01*
X204636666Y-113631904D01*
X204589047Y-113727142D01*
X204541428Y-113774761D01*
X204446190Y-113822380D01*
X204255714Y-113822380D01*
X204160476Y-113774761D01*
X205493809Y-113774761D02*
X205398571Y-113822380D01*
X205208095Y-113822380D01*
X205112857Y-113774761D01*
X205065238Y-113727142D01*
X205017619Y-113631904D01*
X205017619Y-113346190D01*
X205065238Y-113250952D01*
X205112857Y-113203333D01*
X205208095Y-113155714D01*
X205398571Y-113155714D01*
X205493809Y-113203333D01*
X205922380Y-113822380D02*
X205922380Y-112822380D01*
X205922380Y-113203333D02*
X206017619Y-113155714D01*
X206208095Y-113155714D01*
X206303333Y-113203333D01*
X206350952Y-113250952D01*
X206398571Y-113346190D01*
X206398571Y-113631904D01*
X206350952Y-113727142D01*
X206303333Y-113774761D01*
X206208095Y-113822380D01*
X206017619Y-113822380D01*
X205922380Y-113774761D01*
X206827142Y-113822380D02*
X206827142Y-112822380D01*
X207065238Y-112822380D01*
X207208095Y-112870000D01*
X207303333Y-112965238D01*
X207350952Y-113060476D01*
X207398571Y-113250952D01*
X207398571Y-113393809D01*
X207350952Y-113584285D01*
X207303333Y-113679523D01*
X207208095Y-113774761D01*
X207065238Y-113822380D01*
X206827142Y-113822380D01*
X208208095Y-113774761D02*
X208112857Y-113822380D01*
X207922380Y-113822380D01*
X207827142Y-113774761D01*
X207779523Y-113679523D01*
X207779523Y-113298571D01*
X207827142Y-113203333D01*
X207922380Y-113155714D01*
X208112857Y-113155714D01*
X208208095Y-113203333D01*
X208255714Y-113298571D01*
X208255714Y-113393809D01*
X207779523Y-113489047D01*
X208636666Y-113774761D02*
X208731904Y-113822380D01*
X208922380Y-113822380D01*
X209017619Y-113774761D01*
X209065238Y-113679523D01*
X209065238Y-113631904D01*
X209017619Y-113536666D01*
X208922380Y-113489047D01*
X208779523Y-113489047D01*
X208684285Y-113441428D01*
X208636666Y-113346190D01*
X208636666Y-113298571D01*
X208684285Y-113203333D01*
X208779523Y-113155714D01*
X208922380Y-113155714D01*
X209017619Y-113203333D01*
X209493809Y-113822380D02*
X209493809Y-113155714D01*
X209493809Y-112822380D02*
X209446190Y-112870000D01*
X209493809Y-112917619D01*
X209541428Y-112870000D01*
X209493809Y-112822380D01*
X209493809Y-112917619D01*
X210398571Y-113155714D02*
X210398571Y-113965238D01*
X210350952Y-114060476D01*
X210303333Y-114108095D01*
X210208095Y-114155714D01*
X210065238Y-114155714D01*
X209970000Y-114108095D01*
X210398571Y-113774761D02*
X210303333Y-113822380D01*
X210112857Y-113822380D01*
X210017619Y-113774761D01*
X209970000Y-113727142D01*
X209922380Y-113631904D01*
X209922380Y-113346190D01*
X209970000Y-113250952D01*
X210017619Y-113203333D01*
X210112857Y-113155714D01*
X210303333Y-113155714D01*
X210398571Y-113203333D01*
X210874761Y-113155714D02*
X210874761Y-113822380D01*
X210874761Y-113250952D02*
X210922380Y-113203333D01*
X211017619Y-113155714D01*
X211160476Y-113155714D01*
X211255714Y-113203333D01*
X211303333Y-113298571D01*
X211303333Y-113822380D01*
X211779523Y-113727142D02*
X211827142Y-113774761D01*
X211779523Y-113822380D01*
X211731904Y-113774761D01*
X211779523Y-113727142D01*
X211779523Y-113822380D01*
X211779523Y-113203333D02*
X211827142Y-113250952D01*
X211779523Y-113298571D01*
X211731904Y-113250952D01*
X211779523Y-113203333D01*
X211779523Y-113298571D01*
X210485714Y-101452380D02*
X210152380Y-100976190D01*
X209914285Y-101452380D02*
X209914285Y-100452380D01*
X210295238Y-100452380D01*
X210390476Y-100500000D01*
X210438095Y-100547619D01*
X210485714Y-100642857D01*
X210485714Y-100785714D01*
X210438095Y-100880952D01*
X210390476Y-100928571D01*
X210295238Y-100976190D01*
X209914285Y-100976190D01*
X211247619Y-100928571D02*
X210914285Y-100928571D01*
X210914285Y-101452380D02*
X210914285Y-100452380D01*
X211390476Y-100452380D01*
X211771428Y-101452380D02*
X211771428Y-100452380D01*
X212104761Y-101166666D01*
X212438095Y-100452380D01*
X212438095Y-101452380D01*
X212961904Y-101452380D02*
X213152380Y-101452380D01*
X213247619Y-101404761D01*
X213295238Y-101357142D01*
X213390476Y-101214285D01*
X213438095Y-101023809D01*
X213438095Y-100642857D01*
X213390476Y-100547619D01*
X213342857Y-100500000D01*
X213247619Y-100452380D01*
X213057142Y-100452380D01*
X212961904Y-100500000D01*
X212914285Y-100547619D01*
X212866666Y-100642857D01*
X212866666Y-100880952D01*
X212914285Y-100976190D01*
X212961904Y-101023809D01*
X213057142Y-101071428D01*
X213247619Y-101071428D01*
X213342857Y-101023809D01*
X213390476Y-100976190D01*
X213438095Y-100880952D01*
X214342857Y-100452380D02*
X213866666Y-100452380D01*
X213819047Y-100928571D01*
X213866666Y-100880952D01*
X213961904Y-100833333D01*
X214200000Y-100833333D01*
X214295238Y-100880952D01*
X214342857Y-100928571D01*
X214390476Y-101023809D01*
X214390476Y-101261904D01*
X214342857Y-101357142D01*
X214295238Y-101404761D01*
X214200000Y-101452380D01*
X213961904Y-101452380D01*
X213866666Y-101404761D01*
X213819047Y-101357142D01*
X214723809Y-100452380D02*
X214961904Y-101452380D01*
X215152380Y-100738095D01*
X215342857Y-101452380D01*
X215580952Y-100452380D01*
X175551904Y-98990000D02*
X175456666Y-98942380D01*
X175313809Y-98942380D01*
X175170952Y-98990000D01*
X175075714Y-99085238D01*
X175028095Y-99180476D01*
X174980476Y-99370952D01*
X174980476Y-99513809D01*
X175028095Y-99704285D01*
X175075714Y-99799523D01*
X175170952Y-99894761D01*
X175313809Y-99942380D01*
X175409047Y-99942380D01*
X175551904Y-99894761D01*
X175599523Y-99847142D01*
X175599523Y-99513809D01*
X175409047Y-99513809D01*
X174799047Y-93791428D02*
X175560952Y-93791428D01*
X175180000Y-94172380D02*
X175180000Y-93410476D01*
X208201904Y-134920000D02*
X208106666Y-134872380D01*
X207963809Y-134872380D01*
X207820952Y-134920000D01*
X207725714Y-135015238D01*
X207678095Y-135110476D01*
X207630476Y-135300952D01*
X207630476Y-135443809D01*
X207678095Y-135634285D01*
X207725714Y-135729523D01*
X207820952Y-135824761D01*
X207963809Y-135872380D01*
X208059047Y-135872380D01*
X208201904Y-135824761D01*
X208249523Y-135777142D01*
X208249523Y-135443809D01*
X208059047Y-135443809D01*
X219661904Y-134950000D02*
X219566666Y-134902380D01*
X219423809Y-134902380D01*
X219280952Y-134950000D01*
X219185714Y-135045238D01*
X219138095Y-135140476D01*
X219090476Y-135330952D01*
X219090476Y-135473809D01*
X219138095Y-135664285D01*
X219185714Y-135759523D01*
X219280952Y-135854761D01*
X219423809Y-135902380D01*
X219519047Y-135902380D01*
X219661904Y-135854761D01*
X219709523Y-135807142D01*
X219709523Y-135473809D01*
X219519047Y-135473809D01*
X170322380Y-133834761D02*
X171322380Y-133596666D01*
X170608095Y-133406190D01*
X171322380Y-133215714D01*
X170322380Y-132977619D01*
X170417619Y-132644285D02*
X170370000Y-132596666D01*
X170322380Y-132501428D01*
X170322380Y-132263333D01*
X170370000Y-132168095D01*
X170417619Y-132120476D01*
X170512857Y-132072857D01*
X170608095Y-132072857D01*
X170750952Y-132120476D01*
X171322380Y-132691904D01*
X171322380Y-132072857D01*
X219202380Y-131011904D02*
X220011904Y-131011904D01*
X220107142Y-130964285D01*
X220154761Y-130916666D01*
X220202380Y-130821428D01*
X220202380Y-130630952D01*
X220154761Y-130535714D01*
X220107142Y-130488095D01*
X220011904Y-130440476D01*
X219202380Y-130440476D01*
X220202380Y-129440476D02*
X220202380Y-130011904D01*
X220202380Y-129726190D02*
X219202380Y-129726190D01*
X219345238Y-129821428D01*
X219440476Y-129916666D01*
X219488095Y-130011904D01*
X220202380Y-128440476D02*
X219726190Y-128773809D01*
X220202380Y-129011904D02*
X219202380Y-129011904D01*
X219202380Y-128630952D01*
X219250000Y-128535714D01*
X219297619Y-128488095D01*
X219392857Y-128440476D01*
X219535714Y-128440476D01*
X219630952Y-128488095D01*
X219678571Y-128535714D01*
X219726190Y-128630952D01*
X219726190Y-129011904D01*
X219152380Y-134392857D02*
X219961904Y-134392857D01*
X220057142Y-134345238D01*
X220104761Y-134297619D01*
X220152380Y-134202380D01*
X220152380Y-134011904D01*
X220104761Y-133916666D01*
X220057142Y-133869047D01*
X219961904Y-133821428D01*
X219152380Y-133821428D01*
X220152380Y-132821428D02*
X220152380Y-133392857D01*
X220152380Y-133107142D02*
X219152380Y-133107142D01*
X219295238Y-133202380D01*
X219390476Y-133297619D01*
X219438095Y-133392857D01*
X219152380Y-132535714D02*
X219152380Y-131964285D01*
X220152380Y-132250000D02*
X219152380Y-132250000D01*
X171031904Y-130060000D02*
X170936666Y-130012380D01*
X170793809Y-130012380D01*
X170650952Y-130060000D01*
X170555714Y-130155238D01*
X170508095Y-130250476D01*
X170460476Y-130440952D01*
X170460476Y-130583809D01*
X170508095Y-130774285D01*
X170555714Y-130869523D01*
X170650952Y-130964761D01*
X170793809Y-131012380D01*
X170889047Y-131012380D01*
X171031904Y-130964761D01*
X171079523Y-130917142D01*
X171079523Y-130583809D01*
X170889047Y-130583809D01*
X171301904Y-121310000D02*
X171206666Y-121262380D01*
X171063809Y-121262380D01*
X170920952Y-121310000D01*
X170825714Y-121405238D01*
X170778095Y-121500476D01*
X170730476Y-121690952D01*
X170730476Y-121833809D01*
X170778095Y-122024285D01*
X170825714Y-122119523D01*
X170920952Y-122214761D01*
X171063809Y-122262380D01*
X171159047Y-122262380D01*
X171301904Y-122214761D01*
X171349523Y-122167142D01*
X171349523Y-121833809D01*
X171159047Y-121833809D01*
X212261904Y-135000000D02*
X212166666Y-134952380D01*
X212023809Y-134952380D01*
X211880952Y-135000000D01*
X211785714Y-135095238D01*
X211738095Y-135190476D01*
X211690476Y-135380952D01*
X211690476Y-135523809D01*
X211738095Y-135714285D01*
X211785714Y-135809523D01*
X211880952Y-135904761D01*
X212023809Y-135952380D01*
X212119047Y-135952380D01*
X212261904Y-135904761D01*
X212309523Y-135857142D01*
X212309523Y-135523809D01*
X212119047Y-135523809D01*
X211352380Y-130811904D02*
X212161904Y-130811904D01*
X212257142Y-130764285D01*
X212304761Y-130716666D01*
X212352380Y-130621428D01*
X212352380Y-130430952D01*
X212304761Y-130335714D01*
X212257142Y-130288095D01*
X212161904Y-130240476D01*
X211352380Y-130240476D01*
X211447619Y-129811904D02*
X211400000Y-129764285D01*
X211352380Y-129669047D01*
X211352380Y-129430952D01*
X211400000Y-129335714D01*
X211447619Y-129288095D01*
X211542857Y-129240476D01*
X211638095Y-129240476D01*
X211780952Y-129288095D01*
X212352380Y-129859523D01*
X212352380Y-129240476D01*
X212352380Y-128240476D02*
X211876190Y-128573809D01*
X212352380Y-128811904D02*
X211352380Y-128811904D01*
X211352380Y-128430952D01*
X211400000Y-128335714D01*
X211447619Y-128288095D01*
X211542857Y-128240476D01*
X211685714Y-128240476D01*
X211780952Y-128288095D01*
X211828571Y-128335714D01*
X211876190Y-128430952D01*
X211876190Y-128811904D01*
X211302380Y-134042857D02*
X212111904Y-134042857D01*
X212207142Y-133995238D01*
X212254761Y-133947619D01*
X212302380Y-133852380D01*
X212302380Y-133661904D01*
X212254761Y-133566666D01*
X212207142Y-133519047D01*
X212111904Y-133471428D01*
X211302380Y-133471428D01*
X211397619Y-133042857D02*
X211350000Y-132995238D01*
X211302380Y-132900000D01*
X211302380Y-132661904D01*
X211350000Y-132566666D01*
X211397619Y-132519047D01*
X211492857Y-132471428D01*
X211588095Y-132471428D01*
X211730952Y-132519047D01*
X212302380Y-133090476D01*
X212302380Y-132471428D01*
X211302380Y-132185714D02*
X211302380Y-131614285D01*
X212302380Y-131900000D02*
X211302380Y-131900000D01*
X170552380Y-124994761D02*
X171552380Y-124756666D01*
X170838095Y-124566190D01*
X171552380Y-124375714D01*
X170552380Y-124137619D01*
X171552380Y-123232857D02*
X171552380Y-123804285D01*
X171552380Y-123518571D02*
X170552380Y-123518571D01*
X170695238Y-123613809D01*
X170790476Y-123709047D01*
X170838095Y-123804285D01*
X219269047Y-127171428D02*
X220030952Y-127171428D01*
X219650000Y-127552380D02*
X219650000Y-126790476D01*
X207359047Y-132671428D02*
X208120952Y-132671428D01*
X207740000Y-133052380D02*
X207740000Y-132290476D01*
X203985714Y-106961904D02*
X202557142Y-106961904D01*
X203128571Y-105914285D02*
X203176190Y-105771428D01*
X203223809Y-105723809D01*
X203319047Y-105676190D01*
X203461904Y-105676190D01*
X203557142Y-105723809D01*
X203604761Y-105771428D01*
X203652380Y-105866666D01*
X203652380Y-106247619D01*
X202652380Y-106247619D01*
X202652380Y-105914285D01*
X202700000Y-105819047D01*
X202747619Y-105771428D01*
X202842857Y-105723809D01*
X202938095Y-105723809D01*
X203033333Y-105771428D01*
X203080952Y-105819047D01*
X203128571Y-105914285D01*
X203128571Y-106247619D01*
X203652380Y-104819047D02*
X203128571Y-104819047D01*
X203033333Y-104866666D01*
X202985714Y-104961904D01*
X202985714Y-105152380D01*
X203033333Y-105247619D01*
X203604761Y-104819047D02*
X203652380Y-104914285D01*
X203652380Y-105152380D01*
X203604761Y-105247619D01*
X203509523Y-105295238D01*
X203414285Y-105295238D01*
X203319047Y-105247619D01*
X203271428Y-105152380D01*
X203271428Y-104914285D01*
X203223809Y-104819047D01*
X202985714Y-104485714D02*
X202985714Y-104104761D01*
X202652380Y-104342857D02*
X203509523Y-104342857D01*
X203604761Y-104295238D01*
X203652380Y-104200000D01*
X203652380Y-104104761D01*
X202985714Y-103914285D02*
X202985714Y-103533333D01*
X202652380Y-103771428D02*
X203509523Y-103771428D01*
X203604761Y-103723809D01*
X203652380Y-103628571D01*
X203652380Y-103533333D01*
X203985714Y-102961904D02*
X202557142Y-102961904D01*
X203128571Y-101914285D02*
X203176190Y-101771428D01*
X203223809Y-101723809D01*
X203319047Y-101676190D01*
X203461904Y-101676190D01*
X203557142Y-101723809D01*
X203604761Y-101771428D01*
X203652380Y-101866666D01*
X203652380Y-102247619D01*
X202652380Y-102247619D01*
X202652380Y-101914285D01*
X202700000Y-101819047D01*
X202747619Y-101771428D01*
X202842857Y-101723809D01*
X202938095Y-101723809D01*
X203033333Y-101771428D01*
X203080952Y-101819047D01*
X203128571Y-101914285D01*
X203128571Y-102247619D01*
X202985714Y-100819047D02*
X203652380Y-100819047D01*
X202985714Y-101247619D02*
X203509523Y-101247619D01*
X203604761Y-101200000D01*
X203652380Y-101104761D01*
X203652380Y-100961904D01*
X203604761Y-100866666D01*
X203557142Y-100819047D01*
X203604761Y-99914285D02*
X203652380Y-100009523D01*
X203652380Y-100200000D01*
X203604761Y-100295238D01*
X203557142Y-100342857D01*
X203461904Y-100390476D01*
X203176190Y-100390476D01*
X203080952Y-100342857D01*
X203033333Y-100295238D01*
X202985714Y-100200000D01*
X202985714Y-100009523D01*
X203033333Y-99914285D01*
X203652380Y-99485714D02*
X202652380Y-99485714D01*
X203271428Y-99390476D02*
X203652380Y-99104761D01*
X202985714Y-99104761D02*
X203366666Y-99485714D01*
X203985714Y-98438095D02*
X202557142Y-98438095D01*
X200129761Y-97935714D02*
X200177380Y-97792857D01*
X200177380Y-97554761D01*
X200129761Y-97459523D01*
X200082142Y-97411904D01*
X199986904Y-97364285D01*
X199891666Y-97364285D01*
X199796428Y-97411904D01*
X199748809Y-97459523D01*
X199701190Y-97554761D01*
X199653571Y-97745238D01*
X199605952Y-97840476D01*
X199558333Y-97888095D01*
X199463095Y-97935714D01*
X199367857Y-97935714D01*
X199272619Y-97888095D01*
X199225000Y-97840476D01*
X199177380Y-97745238D01*
X199177380Y-97507142D01*
X199225000Y-97364285D01*
X199510714Y-96507142D02*
X200177380Y-96507142D01*
X199510714Y-96935714D02*
X200034523Y-96935714D01*
X200129761Y-96888095D01*
X200177380Y-96792857D01*
X200177380Y-96650000D01*
X200129761Y-96554761D01*
X200082142Y-96507142D01*
X199510714Y-96030952D02*
X200510714Y-96030952D01*
X199558333Y-96030952D02*
X199510714Y-95935714D01*
X199510714Y-95745238D01*
X199558333Y-95650000D01*
X199605952Y-95602380D01*
X199701190Y-95554761D01*
X199986904Y-95554761D01*
X200082142Y-95602380D01*
X200129761Y-95650000D01*
X200177380Y-95745238D01*
X200177380Y-95935714D01*
X200129761Y-96030952D01*
X199510714Y-95126190D02*
X200510714Y-95126190D01*
X199558333Y-95126190D02*
X199510714Y-95030952D01*
X199510714Y-94840476D01*
X199558333Y-94745238D01*
X199605952Y-94697619D01*
X199701190Y-94650000D01*
X199986904Y-94650000D01*
X200082142Y-94697619D01*
X200129761Y-94745238D01*
X200177380Y-94840476D01*
X200177380Y-95030952D01*
X200129761Y-95126190D01*
X200177380Y-94078571D02*
X200129761Y-94173809D01*
X200034523Y-94221428D01*
X199177380Y-94221428D01*
X199510714Y-93792857D02*
X200177380Y-93554761D01*
X199510714Y-93316666D02*
X200177380Y-93554761D01*
X200415476Y-93650000D01*
X200463095Y-93697619D01*
X200510714Y-93792857D01*
X201779761Y-97769047D02*
X201827380Y-97626190D01*
X201827380Y-97388095D01*
X201779761Y-97292857D01*
X201732142Y-97245238D01*
X201636904Y-97197619D01*
X201541666Y-97197619D01*
X201446428Y-97245238D01*
X201398809Y-97292857D01*
X201351190Y-97388095D01*
X201303571Y-97578571D01*
X201255952Y-97673809D01*
X201208333Y-97721428D01*
X201113095Y-97769047D01*
X201017857Y-97769047D01*
X200922619Y-97721428D01*
X200875000Y-97673809D01*
X200827380Y-97578571D01*
X200827380Y-97340476D01*
X200875000Y-97197619D01*
X201779761Y-96388095D02*
X201827380Y-96483333D01*
X201827380Y-96673809D01*
X201779761Y-96769047D01*
X201684523Y-96816666D01*
X201303571Y-96816666D01*
X201208333Y-96769047D01*
X201160714Y-96673809D01*
X201160714Y-96483333D01*
X201208333Y-96388095D01*
X201303571Y-96340476D01*
X201398809Y-96340476D01*
X201494047Y-96816666D01*
X201827380Y-95769047D02*
X201779761Y-95864285D01*
X201684523Y-95911904D01*
X200827380Y-95911904D01*
X201779761Y-95007142D02*
X201827380Y-95102380D01*
X201827380Y-95292857D01*
X201779761Y-95388095D01*
X201684523Y-95435714D01*
X201303571Y-95435714D01*
X201208333Y-95388095D01*
X201160714Y-95292857D01*
X201160714Y-95102380D01*
X201208333Y-95007142D01*
X201303571Y-94959523D01*
X201398809Y-94959523D01*
X201494047Y-95435714D01*
X201779761Y-94102380D02*
X201827380Y-94197619D01*
X201827380Y-94388095D01*
X201779761Y-94483333D01*
X201732142Y-94530952D01*
X201636904Y-94578571D01*
X201351190Y-94578571D01*
X201255952Y-94530952D01*
X201208333Y-94483333D01*
X201160714Y-94388095D01*
X201160714Y-94197619D01*
X201208333Y-94102380D01*
X201160714Y-93816666D02*
X201160714Y-93435714D01*
X200827380Y-93673809D02*
X201684523Y-93673809D01*
X201779761Y-93626190D01*
X201827380Y-93530952D01*
X201827380Y-93435714D01*
D11*
X177941904Y-124094285D02*
X177141904Y-124094285D01*
X177141904Y-123789523D01*
X177180000Y-123713333D01*
X177218095Y-123675238D01*
X177294285Y-123637142D01*
X177408571Y-123637142D01*
X177484761Y-123675238D01*
X177522857Y-123713333D01*
X177560952Y-123789523D01*
X177560952Y-124094285D01*
X177141904Y-123065714D02*
X177713333Y-123065714D01*
X177827619Y-123103809D01*
X177903809Y-123180000D01*
X177941904Y-123294285D01*
X177941904Y-123370476D01*
X177941904Y-122684761D02*
X177141904Y-122684761D01*
X177141904Y-122380000D01*
X177180000Y-122303809D01*
X177218095Y-122265714D01*
X177294285Y-122227619D01*
X177408571Y-122227619D01*
X177484761Y-122265714D01*
X177522857Y-122303809D01*
X177560952Y-122380000D01*
X177560952Y-122684761D01*
D10*
X181391904Y-131370000D02*
X181296666Y-131322380D01*
X181153809Y-131322380D01*
X181010952Y-131370000D01*
X180915714Y-131465238D01*
X180868095Y-131560476D01*
X180820476Y-131750952D01*
X180820476Y-131893809D01*
X180868095Y-132084285D01*
X180915714Y-132179523D01*
X181010952Y-132274761D01*
X181153809Y-132322380D01*
X181249047Y-132322380D01*
X181391904Y-132274761D01*
X181439523Y-132227142D01*
X181439523Y-131893809D01*
X181249047Y-131893809D01*
X180071904Y-133922380D02*
X180071904Y-132922380D01*
X180452857Y-132922380D01*
X180548095Y-132970000D01*
X180595714Y-133017619D01*
X180643333Y-133112857D01*
X180643333Y-133255714D01*
X180595714Y-133350952D01*
X180548095Y-133398571D01*
X180452857Y-133446190D01*
X180071904Y-133446190D01*
X181643333Y-133922380D02*
X181310000Y-133446190D01*
X181071904Y-133922380D02*
X181071904Y-132922380D01*
X181452857Y-132922380D01*
X181548095Y-132970000D01*
X181595714Y-133017619D01*
X181643333Y-133112857D01*
X181643333Y-133255714D01*
X181595714Y-133350952D01*
X181548095Y-133398571D01*
X181452857Y-133446190D01*
X181071904Y-133446190D01*
X181976666Y-132922380D02*
X182643333Y-133922380D01*
X182643333Y-132922380D02*
X181976666Y-133922380D01*
X180110952Y-135662380D02*
X180110952Y-134662380D01*
X180491904Y-134662380D01*
X180587142Y-134710000D01*
X180634761Y-134757619D01*
X180682380Y-134852857D01*
X180682380Y-134995714D01*
X180634761Y-135090952D01*
X180587142Y-135138571D01*
X180491904Y-135186190D01*
X180110952Y-135186190D01*
X180968095Y-134662380D02*
X181539523Y-134662380D01*
X181253809Y-135662380D02*
X181253809Y-134662380D01*
X181777619Y-134662380D02*
X182444285Y-135662380D01*
X182444285Y-134662380D02*
X181777619Y-135662380D01*
X222255714Y-133044761D02*
X222398571Y-133092380D01*
X222636666Y-133092380D01*
X222731904Y-133044761D01*
X222779523Y-132997142D01*
X222827142Y-132901904D01*
X222827142Y-132806666D01*
X222779523Y-132711428D01*
X222731904Y-132663809D01*
X222636666Y-132616190D01*
X222446190Y-132568571D01*
X222350952Y-132520952D01*
X222303333Y-132473333D01*
X222255714Y-132378095D01*
X222255714Y-132282857D01*
X222303333Y-132187619D01*
X222350952Y-132140000D01*
X222446190Y-132092380D01*
X222684285Y-132092380D01*
X222827142Y-132140000D01*
X223255714Y-133092380D02*
X223255714Y-132092380D01*
X223493809Y-132092380D01*
X223636666Y-132140000D01*
X223731904Y-132235238D01*
X223779523Y-132330476D01*
X223827142Y-132520952D01*
X223827142Y-132663809D01*
X223779523Y-132854285D01*
X223731904Y-132949523D01*
X223636666Y-133044761D01*
X223493809Y-133092380D01*
X223255714Y-133092380D01*
X224208095Y-132806666D02*
X224684285Y-132806666D01*
X224112857Y-133092380D02*
X224446190Y-132092380D01*
X224779523Y-133092380D01*
X222279523Y-130534761D02*
X222422380Y-130582380D01*
X222660476Y-130582380D01*
X222755714Y-130534761D01*
X222803333Y-130487142D01*
X222850952Y-130391904D01*
X222850952Y-130296666D01*
X222803333Y-130201428D01*
X222755714Y-130153809D01*
X222660476Y-130106190D01*
X222470000Y-130058571D01*
X222374761Y-130010952D01*
X222327142Y-129963333D01*
X222279523Y-129868095D01*
X222279523Y-129772857D01*
X222327142Y-129677619D01*
X222374761Y-129630000D01*
X222470000Y-129582380D01*
X222708095Y-129582380D01*
X222850952Y-129630000D01*
X223850952Y-130487142D02*
X223803333Y-130534761D01*
X223660476Y-130582380D01*
X223565238Y-130582380D01*
X223422380Y-130534761D01*
X223327142Y-130439523D01*
X223279523Y-130344285D01*
X223231904Y-130153809D01*
X223231904Y-130010952D01*
X223279523Y-129820476D01*
X223327142Y-129725238D01*
X223422380Y-129630000D01*
X223565238Y-129582380D01*
X223660476Y-129582380D01*
X223803333Y-129630000D01*
X223850952Y-129677619D01*
X224755714Y-130582380D02*
X224279523Y-130582380D01*
X224279523Y-129582380D01*
D11*
X225210000Y-136400000D02*
X227870000Y-136400000D01*
X225210000Y-128720000D02*
X225210000Y-136400000D01*
X227870000Y-128720000D02*
X227870000Y-136400000D01*
X225210000Y-128720000D02*
X227870000Y-128720000D01*
X225210000Y-127450000D02*
X225210000Y-126120000D01*
X225210000Y-126120000D02*
X226540000Y-126120000D01*
X201970000Y-111900000D02*
X201970000Y-111120000D01*
X201970000Y-111120000D02*
X200970000Y-111120000D01*
X183730000Y-111900000D02*
X183730000Y-111120000D01*
X183730000Y-111120000D02*
X184730000Y-111120000D01*
X201970000Y-136865000D02*
X183730000Y-136865000D01*
X183730000Y-136865000D02*
X183730000Y-130445000D01*
X201970000Y-136865000D02*
X201970000Y-130445000D01*
X201970000Y-130445000D02*
X202350000Y-130445000D01*
X224938000Y-99750000D02*
X225438000Y-99500000D01*
X224938000Y-99250000D02*
X224938000Y-99750000D01*
X225438000Y-99500000D02*
X224938000Y-99250000D01*
X185610000Y-107465580D02*
X185610000Y-107184420D01*
X184590000Y-107465580D02*
X184590000Y-107184420D01*
X179860000Y-92350000D02*
X179860000Y-94700000D01*
X179860000Y-99170000D02*
X179860000Y-96820000D01*
X185615563Y-99170000D02*
X179860000Y-99170000D01*
X185615563Y-92350000D02*
X179860000Y-92350000D01*
X186680000Y-93414437D02*
X186680000Y-94700000D01*
X186680000Y-98105563D02*
X186680000Y-96820000D01*
X186680000Y-98105563D02*
X185615563Y-99170000D01*
X186680000Y-93414437D02*
X185615563Y-92350000D01*
X187707500Y-97607500D02*
X186920000Y-97607500D01*
X187313750Y-98001250D02*
X187313750Y-97213750D01*
X226065580Y-116510000D02*
X225784420Y-116510000D01*
X226065580Y-115490000D02*
X225784420Y-115490000D01*
X203690000Y-128865580D02*
X203690000Y-128584420D01*
X204710000Y-128865580D02*
X204710000Y-128584420D01*
X205265000Y-128911252D02*
X205265000Y-128388748D01*
X206735000Y-128911252D02*
X206735000Y-128388748D01*
X209415580Y-121610000D02*
X209134420Y-121610000D01*
X209415580Y-120590000D02*
X209134420Y-120590000D01*
X202590000Y-94765580D02*
X202590000Y-94484420D01*
X203610000Y-94765580D02*
X203610000Y-94484420D01*
X209084420Y-117990000D02*
X209365580Y-117990000D01*
X209084420Y-119010000D02*
X209365580Y-119010000D01*
X177350000Y-105400000D02*
X177350000Y-108700000D01*
X177350000Y-108700000D02*
X182750000Y-108700000D01*
X177350000Y-105400000D02*
X182750000Y-105400000D01*
X175950000Y-99260000D02*
X177950000Y-99260000D01*
X177950000Y-99260000D02*
X177950000Y-95360000D01*
X175950000Y-99260000D02*
X175950000Y-95360000D01*
X176120000Y-129980000D02*
X178780000Y-129980000D01*
X176120000Y-127380000D02*
X176120000Y-129980000D01*
X178780000Y-127380000D02*
X178780000Y-129980000D01*
X176120000Y-127380000D02*
X178780000Y-127380000D01*
X176120000Y-126110000D02*
X176120000Y-124780000D01*
X176120000Y-124780000D02*
X177450000Y-124780000D01*
X182450000Y-129980000D02*
X181120000Y-129980000D01*
X182450000Y-128650000D02*
X182450000Y-129980000D01*
X182450000Y-127380000D02*
X179790000Y-127380000D01*
X179790000Y-127380000D02*
X179790000Y-122240000D01*
X182450000Y-127380000D02*
X182450000Y-122240000D01*
X182450000Y-122240000D02*
X179790000Y-122240000D01*
X211000000Y-136430000D02*
X209670000Y-136430000D01*
X211000000Y-135100000D02*
X211000000Y-136430000D01*
X211000000Y-133830000D02*
X208340000Y-133830000D01*
X208340000Y-133830000D02*
X208340000Y-131230000D01*
X211000000Y-133830000D02*
X211000000Y-131230000D01*
X211000000Y-131230000D02*
X208340000Y-131230000D01*
X212570000Y-136430000D02*
X215230000Y-136430000D01*
X212570000Y-128750000D02*
X212570000Y-136430000D01*
X215230000Y-128750000D02*
X215230000Y-136430000D01*
X212570000Y-128750000D02*
X215230000Y-128750000D01*
X212570000Y-127480000D02*
X212570000Y-126150000D01*
X212570000Y-126150000D02*
X213900000Y-126150000D01*
X216270000Y-126150000D02*
X217600000Y-126150000D01*
X216270000Y-127480000D02*
X216270000Y-126150000D01*
X216270000Y-128750000D02*
X218930000Y-128750000D01*
X218930000Y-128750000D02*
X218930000Y-136430000D01*
X216270000Y-128750000D02*
X216270000Y-136430000D01*
X216270000Y-136430000D02*
X218930000Y-136430000D01*
X198600000Y-94450000D02*
X198600000Y-107050000D01*
X198600000Y-107050000D02*
X188200000Y-107050000D01*
X188200000Y-107050000D02*
X188200000Y-93050000D01*
X188200000Y-93050000D02*
X198600000Y-93050000D01*
X198600000Y-93050000D02*
X198600000Y-94450000D01*
X179270000Y-120420000D02*
X180200000Y-120420000D01*
X182430000Y-120420000D02*
X181500000Y-120420000D01*
X182430000Y-120420000D02*
X182430000Y-118260000D01*
X179270000Y-120420000D02*
X179270000Y-118960000D01*
X177560000Y-115130000D02*
X176100000Y-115130000D01*
X177560000Y-111970000D02*
X175400000Y-111970000D01*
X177560000Y-111970000D02*
X177560000Y-112900000D01*
X177560000Y-115130000D02*
X177560000Y-114200000D01*
X212390000Y-121780000D02*
X213320000Y-121780000D01*
X215550000Y-121780000D02*
X214620000Y-121780000D01*
X215550000Y-121780000D02*
X215550000Y-119620000D01*
X212390000Y-121780000D02*
X212390000Y-120320000D01*
X171350000Y-99680000D02*
X171350000Y-100610000D01*
X171350000Y-102840000D02*
X171350000Y-101910000D01*
X171350000Y-102840000D02*
X173510000Y-102840000D01*
X171350000Y-99680000D02*
X172810000Y-99680000D01*
X223460000Y-112430000D02*
X222000000Y-112430000D01*
X223460000Y-109270000D02*
X221300000Y-109270000D01*
X223460000Y-109270000D02*
X223460000Y-110200000D01*
X223460000Y-112430000D02*
X223460000Y-111500000D01*
X179320000Y-116244420D02*
X179320000Y-116525580D01*
X180340000Y-116244420D02*
X180340000Y-116525580D01*
X181892500Y-116157742D02*
X181892500Y-116632258D01*
X180847500Y-116157742D02*
X180847500Y-116632258D01*
X225734420Y-118210000D02*
X226015580Y-118210000D01*
X225734420Y-117190000D02*
X226015580Y-117190000D01*
X186260000Y-100884420D02*
X186260000Y-101165580D01*
X185240000Y-100884420D02*
X185240000Y-101165580D01*
X186777500Y-101612742D02*
X186777500Y-102087258D01*
X187822500Y-101612742D02*
X187822500Y-102087258D01*
X186512258Y-104672500D02*
X186037742Y-104672500D01*
X186512258Y-103627500D02*
X186037742Y-103627500D01*
X178827500Y-113092742D02*
X178827500Y-113567258D01*
X179872500Y-113092742D02*
X179872500Y-113567258D01*
X180377500Y-113577258D02*
X180377500Y-113102742D01*
X181422500Y-113577258D02*
X181422500Y-113102742D01*
X174560000Y-114965580D02*
X174560000Y-114684420D01*
X173540000Y-114965580D02*
X173540000Y-114684420D01*
X176837258Y-111222500D02*
X176362742Y-111222500D01*
X176837258Y-110177500D02*
X176362742Y-110177500D01*
X213820000Y-117845580D02*
X213820000Y-117564420D01*
X212800000Y-117845580D02*
X212800000Y-117564420D01*
X214467500Y-117447742D02*
X214467500Y-117922258D01*
X215512500Y-117447742D02*
X215512500Y-117922258D01*
X215634420Y-112490000D02*
X215915580Y-112490000D01*
X215634420Y-113510000D02*
X215915580Y-113510000D01*
X204922500Y-120062258D02*
X204922500Y-119587742D01*
X203877500Y-120062258D02*
X203877500Y-119587742D01*
X221722500Y-133472258D02*
X221722500Y-132997742D01*
X220677500Y-133472258D02*
X220677500Y-132997742D01*
X221782500Y-129107742D02*
X221782500Y-129582258D01*
X220737500Y-129107742D02*
X220737500Y-129582258D01*
X176880000Y-132155580D02*
X176880000Y-131874420D01*
X175860000Y-132155580D02*
X175860000Y-131874420D01*
X172822258Y-104622500D02*
X172347742Y-104622500D01*
X172822258Y-103577500D02*
X172347742Y-103577500D01*
X225887742Y-109722500D02*
X226362258Y-109722500D01*
X225887742Y-108677500D02*
X226362258Y-108677500D01*
X218800000Y-121650000D02*
X218800000Y-113450000D01*
X218800000Y-113450000D02*
X224100000Y-113450000D01*
X224100000Y-113450000D02*
X224100000Y-121650000D01*
X224100000Y-121650000D02*
X218800000Y-121650000D01*
X199370000Y-106610000D02*
X202030000Y-106610000D01*
X199370000Y-101470000D02*
X199370000Y-106610000D01*
X202030000Y-101470000D02*
X202030000Y-106610000D01*
X199370000Y-101470000D02*
X202030000Y-101470000D01*
X199370000Y-100200000D02*
X199370000Y-98870000D01*
X199370000Y-98870000D02*
X200700000Y-98870000D01*
D10*
X182975000Y-104915000D02*
X182975000Y-104865000D01*
X178825000Y-104915000D02*
X178825000Y-104770000D01*
X178825000Y-99765000D02*
X178825000Y-99910000D01*
X182975000Y-99765000D02*
X182975000Y-99910000D01*
X182975000Y-104915000D02*
X178825000Y-104915000D01*
X182975000Y-99765000D02*
X178825000Y-99765000D01*
X182975000Y-104865000D02*
X184375000Y-104865000D01*
D11*
X204200000Y-110500000D02*
X204200000Y-94300000D01*
X204200000Y-94300000D02*
X204600000Y-94300000D01*
X220000000Y-110500000D02*
X220400000Y-110500000D01*
X220400000Y-110500000D02*
X220400000Y-94300000D01*
X220400000Y-94300000D02*
X220000000Y-94300000D01*
X204200000Y-110500000D02*
X204550000Y-110500000D01*
X204550000Y-110500000D02*
X204550000Y-111400000D01*
X207400000Y-119300000D02*
X207400000Y-120400000D01*
X205500000Y-119300000D02*
X205500000Y-120400000D01*
X207350000Y-117900000D02*
X205550000Y-117900000D01*
X176610000Y-101963748D02*
X176610000Y-103386252D01*
X174790000Y-101963748D02*
X174790000Y-103386252D01*
X176610000Y-108136252D02*
X176610000Y-106713748D01*
X174790000Y-108136252D02*
X174790000Y-106713748D01*
X221120000Y-98584420D02*
X221120000Y-98865580D01*
X222140000Y-98584420D02*
X222140000Y-98865580D01*
X226720000Y-97584420D02*
X226720000Y-97865580D01*
X225700000Y-97584420D02*
X225700000Y-97865580D01*
X223687742Y-100022500D02*
X224162258Y-100022500D01*
X223687742Y-98977500D02*
X224162258Y-98977500D01*
X172964564Y-106315000D02*
X172510436Y-106315000D01*
X172964564Y-107785000D02*
X172510436Y-107785000D01*
X229740000Y-94310000D02*
X226940000Y-94310000D01*
X226940000Y-94310000D02*
X226940000Y-92310000D01*
X226940000Y-92310000D02*
X229740000Y-92310000D01*
X229740000Y-92310000D02*
X229740000Y-94310000D01*
X209910000Y-128386252D02*
X209910000Y-126963748D01*
X208090000Y-128386252D02*
X208090000Y-126963748D01*
X218300000Y-114950000D02*
X218300000Y-117750000D01*
X218300000Y-117750000D02*
X216300000Y-117750000D01*
X216300000Y-117750000D02*
X216300000Y-114950000D01*
X216300000Y-114950000D02*
X218300000Y-114950000D01*
X175120000Y-98650000D02*
X173850000Y-98650000D01*
X175120000Y-97380000D02*
X175120000Y-98650000D01*
X172807071Y-94460000D02*
X172410000Y-94460000D01*
X172807071Y-95220000D02*
X172410000Y-95220000D01*
X163750000Y-94460000D02*
X169750000Y-94460000D01*
X163750000Y-95220000D02*
X163750000Y-94460000D01*
X169750000Y-95220000D02*
X163750000Y-95220000D01*
X172410000Y-96110000D02*
X169750000Y-96110000D01*
X172740000Y-97000000D02*
X172410000Y-97000000D01*
X172740000Y-97760000D02*
X172410000Y-97760000D01*
X169750000Y-97100000D02*
X163750000Y-97100000D01*
X169750000Y-97220000D02*
X163750000Y-97220000D01*
X169750000Y-97340000D02*
X163750000Y-97340000D01*
X169750000Y-97460000D02*
X163750000Y-97460000D01*
X169750000Y-97580000D02*
X163750000Y-97580000D01*
X169750000Y-97700000D02*
X163750000Y-97700000D01*
X163750000Y-97000000D02*
X169750000Y-97000000D01*
X163750000Y-97760000D02*
X163750000Y-97000000D01*
X169750000Y-97760000D02*
X163750000Y-97760000D01*
X169750000Y-98710000D02*
X172410000Y-98710000D01*
X169750000Y-93510000D02*
X169750000Y-98710000D01*
X172410000Y-93510000D02*
X169750000Y-93510000D01*
X172410000Y-98710000D02*
X172410000Y-93510000D01*
X175050000Y-136800000D02*
X173780000Y-136800000D01*
X175050000Y-135530000D02*
X175050000Y-136800000D01*
X172737071Y-130070000D02*
X172340000Y-130070000D01*
X172737071Y-130830000D02*
X172340000Y-130830000D01*
X163680000Y-130070000D02*
X169680000Y-130070000D01*
X163680000Y-130830000D02*
X163680000Y-130070000D01*
X169680000Y-130830000D02*
X163680000Y-130830000D01*
X172340000Y-131720000D02*
X169680000Y-131720000D01*
X172737071Y-132610000D02*
X172340000Y-132610000D01*
X172737071Y-133370000D02*
X172340000Y-133370000D01*
X163680000Y-132610000D02*
X169680000Y-132610000D01*
X163680000Y-133370000D02*
X163680000Y-132610000D01*
X169680000Y-133370000D02*
X163680000Y-133370000D01*
X172340000Y-134260000D02*
X169680000Y-134260000D01*
X172670000Y-135150000D02*
X172340000Y-135150000D01*
X172670000Y-135910000D02*
X172340000Y-135910000D01*
X169680000Y-135250000D02*
X163680000Y-135250000D01*
X169680000Y-135370000D02*
X163680000Y-135370000D01*
X169680000Y-135490000D02*
X163680000Y-135490000D01*
X169680000Y-135610000D02*
X163680000Y-135610000D01*
X169680000Y-135730000D02*
X163680000Y-135730000D01*
X169680000Y-135850000D02*
X163680000Y-135850000D01*
X163680000Y-135150000D02*
X169680000Y-135150000D01*
X163680000Y-135910000D02*
X163680000Y-135150000D01*
X169680000Y-135910000D02*
X163680000Y-135910000D01*
X169680000Y-136860000D02*
X172340000Y-136860000D01*
X169680000Y-129120000D02*
X169680000Y-136860000D01*
X172340000Y-129120000D02*
X169680000Y-129120000D01*
X172340000Y-136860000D02*
X172340000Y-129120000D01*
X172340000Y-128140000D02*
X172340000Y-120400000D01*
X172340000Y-120400000D02*
X169680000Y-120400000D01*
X169680000Y-120400000D02*
X169680000Y-128140000D01*
X169680000Y-128140000D02*
X172340000Y-128140000D01*
X169680000Y-127190000D02*
X163680000Y-127190000D01*
X163680000Y-127190000D02*
X163680000Y-126430000D01*
X163680000Y-126430000D02*
X169680000Y-126430000D01*
X169680000Y-127130000D02*
X163680000Y-127130000D01*
X169680000Y-127010000D02*
X163680000Y-127010000D01*
X169680000Y-126890000D02*
X163680000Y-126890000D01*
X169680000Y-126770000D02*
X163680000Y-126770000D01*
X169680000Y-126650000D02*
X163680000Y-126650000D01*
X169680000Y-126530000D02*
X163680000Y-126530000D01*
X172670000Y-127190000D02*
X172340000Y-127190000D01*
X172670000Y-126430000D02*
X172340000Y-126430000D01*
X172340000Y-125540000D02*
X169680000Y-125540000D01*
X169680000Y-124650000D02*
X163680000Y-124650000D01*
X163680000Y-124650000D02*
X163680000Y-123890000D01*
X163680000Y-123890000D02*
X169680000Y-123890000D01*
X172737071Y-124650000D02*
X172340000Y-124650000D01*
X172737071Y-123890000D02*
X172340000Y-123890000D01*
X172340000Y-123000000D02*
X169680000Y-123000000D01*
X169680000Y-122110000D02*
X163680000Y-122110000D01*
X163680000Y-122110000D02*
X163680000Y-121350000D01*
X163680000Y-121350000D02*
X169680000Y-121350000D01*
X172737071Y-122110000D02*
X172340000Y-122110000D01*
X172737071Y-121350000D02*
X172340000Y-121350000D01*
X175050000Y-126810000D02*
X175050000Y-128080000D01*
X175050000Y-128080000D02*
X173780000Y-128080000D01*
D10*
X207507142Y-128317857D02*
X207554761Y-128365476D01*
X207602380Y-128508333D01*
X207602380Y-128603571D01*
X207554761Y-128746428D01*
X207459523Y-128841666D01*
X207364285Y-128889285D01*
X207173809Y-128936904D01*
X207030952Y-128936904D01*
X206840476Y-128889285D01*
X206745238Y-128841666D01*
X206650000Y-128746428D01*
X206602380Y-128603571D01*
X206602380Y-128508333D01*
X206650000Y-128365476D01*
X206697619Y-128317857D01*
X207602380Y-127365476D02*
X207602380Y-127936904D01*
X207602380Y-127651190D02*
X206602380Y-127651190D01*
X206745238Y-127746428D01*
X206840476Y-127841666D01*
X206888095Y-127936904D01*
X206602380Y-127032142D02*
X206602380Y-126413095D01*
X206983333Y-126746428D01*
X206983333Y-126603571D01*
X207030952Y-126508333D01*
X207078571Y-126460714D01*
X207173809Y-126413095D01*
X207411904Y-126413095D01*
X207507142Y-126460714D01*
X207554761Y-126508333D01*
X207602380Y-126603571D01*
X207602380Y-126889285D01*
X207554761Y-126984523D01*
X207507142Y-127032142D01*
M02*
