G04 #@! TF.GenerationSoftware,KiCad,Pcbnew,(5.1.7)-1*
G04 #@! TF.CreationDate,2020-12-10T21:45:52+01:00*
G04 #@! TF.ProjectId,lora,6c6f7261-2e6b-4696-9361-645f70636258,v1.0*
G04 #@! TF.SameCoordinates,Original*
G04 #@! TF.FileFunction,Paste,Top*
G04 #@! TF.FilePolarity,Positive*
%FSLAX46Y46*%
G04 Gerber Fmt 4.6, Leading zero omitted, Abs format (unit mm)*
G04 Created by KiCad (PCBNEW (5.1.7)-1) date 2020-12-10 21:45:52*
%MOMM*%
%LPD*%
G01*
G04 APERTURE LIST*
%ADD10R,5.000000X5.000000*%
%ADD11R,2.000000X0.900000*%
%ADD12R,0.900000X2.000000*%
%ADD13R,4.190000X2.665000*%
%ADD14R,4.190000X1.780000*%
%ADD15R,2.500000X1.800000*%
%ADD16R,1.200000X0.900000*%
%ADD17R,4.950000X4.100000*%
%ADD18R,0.800000X0.900000*%
%ADD19R,0.900000X0.800000*%
%ADD20R,1.000000X1.500000*%
%ADD21R,2.600000X3.100000*%
%ADD22R,1.550000X0.600000*%
%ADD23R,1.000000X2.000000*%
%ADD24R,1.800000X1.000000*%
G04 APERTURE END LIST*
D10*
X193850000Y-121755000D03*
D11*
X201350000Y-129255000D03*
X201350000Y-127985000D03*
X201350000Y-126715000D03*
X201350000Y-125445000D03*
X201350000Y-124175000D03*
X201350000Y-122905000D03*
X201350000Y-121635000D03*
X201350000Y-120365000D03*
X201350000Y-119095000D03*
X201350000Y-117825000D03*
X201350000Y-116555000D03*
X201350000Y-115285000D03*
X201350000Y-114015000D03*
X201350000Y-112745000D03*
D12*
X198565000Y-111745000D03*
X197295000Y-111745000D03*
X196025000Y-111745000D03*
X194755000Y-111745000D03*
X193485000Y-111745000D03*
X192215000Y-111745000D03*
X190945000Y-111745000D03*
X189675000Y-111745000D03*
X188405000Y-111745000D03*
X187135000Y-111745000D03*
D11*
X184350000Y-112745000D03*
X184350000Y-114015000D03*
X184350000Y-115285000D03*
X184350000Y-116555000D03*
X184350000Y-117825000D03*
X184350000Y-119095000D03*
X184350000Y-120365000D03*
X184350000Y-121635000D03*
X184350000Y-122905000D03*
X184350000Y-124175000D03*
X184350000Y-125445000D03*
X184350000Y-126715000D03*
X184350000Y-127985000D03*
X184350000Y-129255000D03*
D13*
X227838000Y-102992500D03*
D14*
X227838000Y-99500000D03*
D13*
X227838000Y-96007500D03*
G36*
G01*
X185350000Y-107000000D02*
X184850000Y-107000000D01*
G75*
G02*
X184625000Y-106775000I0J225000D01*
G01*
X184625000Y-106325000D01*
G75*
G02*
X184850000Y-106100000I225000J0D01*
G01*
X185350000Y-106100000D01*
G75*
G02*
X185575000Y-106325000I0J-225000D01*
G01*
X185575000Y-106775000D01*
G75*
G02*
X185350000Y-107000000I-225000J0D01*
G01*
G37*
G36*
G01*
X185350000Y-108550000D02*
X184850000Y-108550000D01*
G75*
G02*
X184625000Y-108325000I0J225000D01*
G01*
X184625000Y-107875000D01*
G75*
G02*
X184850000Y-107650000I225000J0D01*
G01*
X185350000Y-107650000D01*
G75*
G02*
X185575000Y-107875000I0J-225000D01*
G01*
X185575000Y-108325000D01*
G75*
G02*
X185350000Y-108550000I-225000J0D01*
G01*
G37*
G36*
G01*
X187720000Y-95210000D02*
X187720000Y-96310000D01*
G75*
G02*
X187470000Y-96560000I-250000J0D01*
G01*
X184470000Y-96560000D01*
G75*
G02*
X184220000Y-96310000I0J250000D01*
G01*
X184220000Y-95210000D01*
G75*
G02*
X184470000Y-94960000I250000J0D01*
G01*
X187470000Y-94960000D01*
G75*
G02*
X187720000Y-95210000I0J-250000D01*
G01*
G37*
G36*
G01*
X182320000Y-95210000D02*
X182320000Y-96310000D01*
G75*
G02*
X182070000Y-96560000I-250000J0D01*
G01*
X179070000Y-96560000D01*
G75*
G02*
X178820000Y-96310000I0J250000D01*
G01*
X178820000Y-95210000D01*
G75*
G02*
X179070000Y-94960000I250000J0D01*
G01*
X182070000Y-94960000D01*
G75*
G02*
X182320000Y-95210000I0J-250000D01*
G01*
G37*
G36*
G01*
X227150000Y-115750000D02*
X227150000Y-116250000D01*
G75*
G02*
X226925000Y-116475000I-225000J0D01*
G01*
X226475000Y-116475000D01*
G75*
G02*
X226250000Y-116250000I0J225000D01*
G01*
X226250000Y-115750000D01*
G75*
G02*
X226475000Y-115525000I225000J0D01*
G01*
X226925000Y-115525000D01*
G75*
G02*
X227150000Y-115750000I0J-225000D01*
G01*
G37*
G36*
G01*
X225600000Y-115750000D02*
X225600000Y-116250000D01*
G75*
G02*
X225375000Y-116475000I-225000J0D01*
G01*
X224925000Y-116475000D01*
G75*
G02*
X224700000Y-116250000I0J225000D01*
G01*
X224700000Y-115750000D01*
G75*
G02*
X224925000Y-115525000I225000J0D01*
G01*
X225375000Y-115525000D01*
G75*
G02*
X225600000Y-115750000I0J-225000D01*
G01*
G37*
G36*
G01*
X204450000Y-129950000D02*
X203950000Y-129950000D01*
G75*
G02*
X203725000Y-129725000I0J225000D01*
G01*
X203725000Y-129275000D01*
G75*
G02*
X203950000Y-129050000I225000J0D01*
G01*
X204450000Y-129050000D01*
G75*
G02*
X204675000Y-129275000I0J-225000D01*
G01*
X204675000Y-129725000D01*
G75*
G02*
X204450000Y-129950000I-225000J0D01*
G01*
G37*
G36*
G01*
X204450000Y-128400000D02*
X203950000Y-128400000D01*
G75*
G02*
X203725000Y-128175000I0J225000D01*
G01*
X203725000Y-127725000D01*
G75*
G02*
X203950000Y-127500000I225000J0D01*
G01*
X204450000Y-127500000D01*
G75*
G02*
X204675000Y-127725000I0J-225000D01*
G01*
X204675000Y-128175000D01*
G75*
G02*
X204450000Y-128400000I-225000J0D01*
G01*
G37*
G36*
G01*
X206475000Y-130100000D02*
X205525000Y-130100000D01*
G75*
G02*
X205275000Y-129850000I0J250000D01*
G01*
X205275000Y-129350000D01*
G75*
G02*
X205525000Y-129100000I250000J0D01*
G01*
X206475000Y-129100000D01*
G75*
G02*
X206725000Y-129350000I0J-250000D01*
G01*
X206725000Y-129850000D01*
G75*
G02*
X206475000Y-130100000I-250000J0D01*
G01*
G37*
G36*
G01*
X206475000Y-128200000D02*
X205525000Y-128200000D01*
G75*
G02*
X205275000Y-127950000I0J250000D01*
G01*
X205275000Y-127450000D01*
G75*
G02*
X205525000Y-127200000I250000J0D01*
G01*
X206475000Y-127200000D01*
G75*
G02*
X206725000Y-127450000I0J-250000D01*
G01*
X206725000Y-127950000D01*
G75*
G02*
X206475000Y-128200000I-250000J0D01*
G01*
G37*
G36*
G01*
X210500000Y-120850000D02*
X210500000Y-121350000D01*
G75*
G02*
X210275000Y-121575000I-225000J0D01*
G01*
X209825000Y-121575000D01*
G75*
G02*
X209600000Y-121350000I0J225000D01*
G01*
X209600000Y-120850000D01*
G75*
G02*
X209825000Y-120625000I225000J0D01*
G01*
X210275000Y-120625000D01*
G75*
G02*
X210500000Y-120850000I0J-225000D01*
G01*
G37*
G36*
G01*
X208950000Y-120850000D02*
X208950000Y-121350000D01*
G75*
G02*
X208725000Y-121575000I-225000J0D01*
G01*
X208275000Y-121575000D01*
G75*
G02*
X208050000Y-121350000I0J225000D01*
G01*
X208050000Y-120850000D01*
G75*
G02*
X208275000Y-120625000I225000J0D01*
G01*
X208725000Y-120625000D01*
G75*
G02*
X208950000Y-120850000I0J-225000D01*
G01*
G37*
G36*
G01*
X203350000Y-95850000D02*
X202850000Y-95850000D01*
G75*
G02*
X202625000Y-95625000I0J225000D01*
G01*
X202625000Y-95175000D01*
G75*
G02*
X202850000Y-94950000I225000J0D01*
G01*
X203350000Y-94950000D01*
G75*
G02*
X203575000Y-95175000I0J-225000D01*
G01*
X203575000Y-95625000D01*
G75*
G02*
X203350000Y-95850000I-225000J0D01*
G01*
G37*
G36*
G01*
X203350000Y-94300000D02*
X202850000Y-94300000D01*
G75*
G02*
X202625000Y-94075000I0J225000D01*
G01*
X202625000Y-93625000D01*
G75*
G02*
X202850000Y-93400000I225000J0D01*
G01*
X203350000Y-93400000D01*
G75*
G02*
X203575000Y-93625000I0J-225000D01*
G01*
X203575000Y-94075000D01*
G75*
G02*
X203350000Y-94300000I-225000J0D01*
G01*
G37*
G36*
G01*
X208000000Y-118750000D02*
X208000000Y-118250000D01*
G75*
G02*
X208225000Y-118025000I225000J0D01*
G01*
X208675000Y-118025000D01*
G75*
G02*
X208900000Y-118250000I0J-225000D01*
G01*
X208900000Y-118750000D01*
G75*
G02*
X208675000Y-118975000I-225000J0D01*
G01*
X208225000Y-118975000D01*
G75*
G02*
X208000000Y-118750000I0J225000D01*
G01*
G37*
G36*
G01*
X209550000Y-118750000D02*
X209550000Y-118250000D01*
G75*
G02*
X209775000Y-118025000I225000J0D01*
G01*
X210225000Y-118025000D01*
G75*
G02*
X210450000Y-118250000I0J-225000D01*
G01*
X210450000Y-118750000D01*
G75*
G02*
X210225000Y-118975000I-225000J0D01*
G01*
X209775000Y-118975000D01*
G75*
G02*
X209550000Y-118750000I0J225000D01*
G01*
G37*
D15*
X178750000Y-107050000D03*
X182750000Y-107050000D03*
D16*
X176950000Y-98660000D03*
X176950000Y-95360000D03*
D17*
X193400000Y-104800000D03*
X193400000Y-95300000D03*
D18*
X181800000Y-118660000D03*
X179900000Y-118660000D03*
X180850000Y-120660000D03*
D19*
X177800000Y-113550000D03*
X175800000Y-114500000D03*
X175800000Y-112600000D03*
D18*
X214920000Y-120020000D03*
X213020000Y-120020000D03*
X213970000Y-122020000D03*
D19*
X173110000Y-102210000D03*
X173110000Y-100310000D03*
X171110000Y-101260000D03*
X223700000Y-110850000D03*
X221700000Y-111800000D03*
X221700000Y-109900000D03*
G36*
G01*
X179580000Y-116710000D02*
X180080000Y-116710000D01*
G75*
G02*
X180305000Y-116935000I0J-225000D01*
G01*
X180305000Y-117385000D01*
G75*
G02*
X180080000Y-117610000I-225000J0D01*
G01*
X179580000Y-117610000D01*
G75*
G02*
X179355000Y-117385000I0J225000D01*
G01*
X179355000Y-116935000D01*
G75*
G02*
X179580000Y-116710000I225000J0D01*
G01*
G37*
G36*
G01*
X179580000Y-115160000D02*
X180080000Y-115160000D01*
G75*
G02*
X180305000Y-115385000I0J-225000D01*
G01*
X180305000Y-115835000D01*
G75*
G02*
X180080000Y-116060000I-225000J0D01*
G01*
X179580000Y-116060000D01*
G75*
G02*
X179355000Y-115835000I0J225000D01*
G01*
X179355000Y-115385000D01*
G75*
G02*
X179580000Y-115160000I225000J0D01*
G01*
G37*
G36*
G01*
X181095000Y-115170000D02*
X181645000Y-115170000D01*
G75*
G02*
X181845000Y-115370000I0J-200000D01*
G01*
X181845000Y-115770000D01*
G75*
G02*
X181645000Y-115970000I-200000J0D01*
G01*
X181095000Y-115970000D01*
G75*
G02*
X180895000Y-115770000I0J200000D01*
G01*
X180895000Y-115370000D01*
G75*
G02*
X181095000Y-115170000I200000J0D01*
G01*
G37*
G36*
G01*
X181095000Y-116820000D02*
X181645000Y-116820000D01*
G75*
G02*
X181845000Y-117020000I0J-200000D01*
G01*
X181845000Y-117420000D01*
G75*
G02*
X181645000Y-117620000I-200000J0D01*
G01*
X181095000Y-117620000D01*
G75*
G02*
X180895000Y-117420000I0J200000D01*
G01*
X180895000Y-117020000D01*
G75*
G02*
X181095000Y-116820000I200000J0D01*
G01*
G37*
G36*
G01*
X226200000Y-117950000D02*
X226200000Y-117450000D01*
G75*
G02*
X226425000Y-117225000I225000J0D01*
G01*
X226875000Y-117225000D01*
G75*
G02*
X227100000Y-117450000I0J-225000D01*
G01*
X227100000Y-117950000D01*
G75*
G02*
X226875000Y-118175000I-225000J0D01*
G01*
X226425000Y-118175000D01*
G75*
G02*
X226200000Y-117950000I0J225000D01*
G01*
G37*
G36*
G01*
X224650000Y-117950000D02*
X224650000Y-117450000D01*
G75*
G02*
X224875000Y-117225000I225000J0D01*
G01*
X225325000Y-117225000D01*
G75*
G02*
X225550000Y-117450000I0J-225000D01*
G01*
X225550000Y-117950000D01*
G75*
G02*
X225325000Y-118175000I-225000J0D01*
G01*
X224875000Y-118175000D01*
G75*
G02*
X224650000Y-117950000I0J225000D01*
G01*
G37*
G36*
G01*
X185500000Y-99800000D02*
X186000000Y-99800000D01*
G75*
G02*
X186225000Y-100025000I0J-225000D01*
G01*
X186225000Y-100475000D01*
G75*
G02*
X186000000Y-100700000I-225000J0D01*
G01*
X185500000Y-100700000D01*
G75*
G02*
X185275000Y-100475000I0J225000D01*
G01*
X185275000Y-100025000D01*
G75*
G02*
X185500000Y-99800000I225000J0D01*
G01*
G37*
G36*
G01*
X185500000Y-101350000D02*
X186000000Y-101350000D01*
G75*
G02*
X186225000Y-101575000I0J-225000D01*
G01*
X186225000Y-102025000D01*
G75*
G02*
X186000000Y-102250000I-225000J0D01*
G01*
X185500000Y-102250000D01*
G75*
G02*
X185275000Y-102025000I0J225000D01*
G01*
X185275000Y-101575000D01*
G75*
G02*
X185500000Y-101350000I225000J0D01*
G01*
G37*
G36*
G01*
X187025000Y-102275000D02*
X187575000Y-102275000D01*
G75*
G02*
X187775000Y-102475000I0J-200000D01*
G01*
X187775000Y-102875000D01*
G75*
G02*
X187575000Y-103075000I-200000J0D01*
G01*
X187025000Y-103075000D01*
G75*
G02*
X186825000Y-102875000I0J200000D01*
G01*
X186825000Y-102475000D01*
G75*
G02*
X187025000Y-102275000I200000J0D01*
G01*
G37*
G36*
G01*
X187025000Y-100625000D02*
X187575000Y-100625000D01*
G75*
G02*
X187775000Y-100825000I0J-200000D01*
G01*
X187775000Y-101225000D01*
G75*
G02*
X187575000Y-101425000I-200000J0D01*
G01*
X187025000Y-101425000D01*
G75*
G02*
X186825000Y-101225000I0J200000D01*
G01*
X186825000Y-100825000D01*
G75*
G02*
X187025000Y-100625000I200000J0D01*
G01*
G37*
G36*
G01*
X187500000Y-103875000D02*
X187500000Y-104425000D01*
G75*
G02*
X187300000Y-104625000I-200000J0D01*
G01*
X186900000Y-104625000D01*
G75*
G02*
X186700000Y-104425000I0J200000D01*
G01*
X186700000Y-103875000D01*
G75*
G02*
X186900000Y-103675000I200000J0D01*
G01*
X187300000Y-103675000D01*
G75*
G02*
X187500000Y-103875000I0J-200000D01*
G01*
G37*
G36*
G01*
X185850000Y-103875000D02*
X185850000Y-104425000D01*
G75*
G02*
X185650000Y-104625000I-200000J0D01*
G01*
X185250000Y-104625000D01*
G75*
G02*
X185050000Y-104425000I0J200000D01*
G01*
X185050000Y-103875000D01*
G75*
G02*
X185250000Y-103675000I200000J0D01*
G01*
X185650000Y-103675000D01*
G75*
G02*
X185850000Y-103875000I0J-200000D01*
G01*
G37*
G36*
G01*
X179075000Y-113755000D02*
X179625000Y-113755000D01*
G75*
G02*
X179825000Y-113955000I0J-200000D01*
G01*
X179825000Y-114355000D01*
G75*
G02*
X179625000Y-114555000I-200000J0D01*
G01*
X179075000Y-114555000D01*
G75*
G02*
X178875000Y-114355000I0J200000D01*
G01*
X178875000Y-113955000D01*
G75*
G02*
X179075000Y-113755000I200000J0D01*
G01*
G37*
G36*
G01*
X179075000Y-112105000D02*
X179625000Y-112105000D01*
G75*
G02*
X179825000Y-112305000I0J-200000D01*
G01*
X179825000Y-112705000D01*
G75*
G02*
X179625000Y-112905000I-200000J0D01*
G01*
X179075000Y-112905000D01*
G75*
G02*
X178875000Y-112705000I0J200000D01*
G01*
X178875000Y-112305000D01*
G75*
G02*
X179075000Y-112105000I200000J0D01*
G01*
G37*
G36*
G01*
X181175000Y-114565000D02*
X180625000Y-114565000D01*
G75*
G02*
X180425000Y-114365000I0J200000D01*
G01*
X180425000Y-113965000D01*
G75*
G02*
X180625000Y-113765000I200000J0D01*
G01*
X181175000Y-113765000D01*
G75*
G02*
X181375000Y-113965000I0J-200000D01*
G01*
X181375000Y-114365000D01*
G75*
G02*
X181175000Y-114565000I-200000J0D01*
G01*
G37*
G36*
G01*
X181175000Y-112915000D02*
X180625000Y-112915000D01*
G75*
G02*
X180425000Y-112715000I0J200000D01*
G01*
X180425000Y-112315000D01*
G75*
G02*
X180625000Y-112115000I200000J0D01*
G01*
X181175000Y-112115000D01*
G75*
G02*
X181375000Y-112315000I0J-200000D01*
G01*
X181375000Y-112715000D01*
G75*
G02*
X181175000Y-112915000I-200000J0D01*
G01*
G37*
G36*
G01*
X174300000Y-114500000D02*
X173800000Y-114500000D01*
G75*
G02*
X173575000Y-114275000I0J225000D01*
G01*
X173575000Y-113825000D01*
G75*
G02*
X173800000Y-113600000I225000J0D01*
G01*
X174300000Y-113600000D01*
G75*
G02*
X174525000Y-113825000I0J-225000D01*
G01*
X174525000Y-114275000D01*
G75*
G02*
X174300000Y-114500000I-225000J0D01*
G01*
G37*
G36*
G01*
X174300000Y-116050000D02*
X173800000Y-116050000D01*
G75*
G02*
X173575000Y-115825000I0J225000D01*
G01*
X173575000Y-115375000D01*
G75*
G02*
X173800000Y-115150000I225000J0D01*
G01*
X174300000Y-115150000D01*
G75*
G02*
X174525000Y-115375000I0J-225000D01*
G01*
X174525000Y-115825000D01*
G75*
G02*
X174300000Y-116050000I-225000J0D01*
G01*
G37*
G36*
G01*
X177825000Y-110425000D02*
X177825000Y-110975000D01*
G75*
G02*
X177625000Y-111175000I-200000J0D01*
G01*
X177225000Y-111175000D01*
G75*
G02*
X177025000Y-110975000I0J200000D01*
G01*
X177025000Y-110425000D01*
G75*
G02*
X177225000Y-110225000I200000J0D01*
G01*
X177625000Y-110225000D01*
G75*
G02*
X177825000Y-110425000I0J-200000D01*
G01*
G37*
G36*
G01*
X176175000Y-110425000D02*
X176175000Y-110975000D01*
G75*
G02*
X175975000Y-111175000I-200000J0D01*
G01*
X175575000Y-111175000D01*
G75*
G02*
X175375000Y-110975000I0J200000D01*
G01*
X175375000Y-110425000D01*
G75*
G02*
X175575000Y-110225000I200000J0D01*
G01*
X175975000Y-110225000D01*
G75*
G02*
X176175000Y-110425000I0J-200000D01*
G01*
G37*
G36*
G01*
X213560000Y-117380000D02*
X213060000Y-117380000D01*
G75*
G02*
X212835000Y-117155000I0J225000D01*
G01*
X212835000Y-116705000D01*
G75*
G02*
X213060000Y-116480000I225000J0D01*
G01*
X213560000Y-116480000D01*
G75*
G02*
X213785000Y-116705000I0J-225000D01*
G01*
X213785000Y-117155000D01*
G75*
G02*
X213560000Y-117380000I-225000J0D01*
G01*
G37*
G36*
G01*
X213560000Y-118930000D02*
X213060000Y-118930000D01*
G75*
G02*
X212835000Y-118705000I0J225000D01*
G01*
X212835000Y-118255000D01*
G75*
G02*
X213060000Y-118030000I225000J0D01*
G01*
X213560000Y-118030000D01*
G75*
G02*
X213785000Y-118255000I0J-225000D01*
G01*
X213785000Y-118705000D01*
G75*
G02*
X213560000Y-118930000I-225000J0D01*
G01*
G37*
G36*
G01*
X214715000Y-118110000D02*
X215265000Y-118110000D01*
G75*
G02*
X215465000Y-118310000I0J-200000D01*
G01*
X215465000Y-118710000D01*
G75*
G02*
X215265000Y-118910000I-200000J0D01*
G01*
X214715000Y-118910000D01*
G75*
G02*
X214515000Y-118710000I0J200000D01*
G01*
X214515000Y-118310000D01*
G75*
G02*
X214715000Y-118110000I200000J0D01*
G01*
G37*
G36*
G01*
X214715000Y-116460000D02*
X215265000Y-116460000D01*
G75*
G02*
X215465000Y-116660000I0J-200000D01*
G01*
X215465000Y-117060000D01*
G75*
G02*
X215265000Y-117260000I-200000J0D01*
G01*
X214715000Y-117260000D01*
G75*
G02*
X214515000Y-117060000I0J200000D01*
G01*
X214515000Y-116660000D01*
G75*
G02*
X214715000Y-116460000I200000J0D01*
G01*
G37*
G36*
G01*
X214550000Y-113250000D02*
X214550000Y-112750000D01*
G75*
G02*
X214775000Y-112525000I225000J0D01*
G01*
X215225000Y-112525000D01*
G75*
G02*
X215450000Y-112750000I0J-225000D01*
G01*
X215450000Y-113250000D01*
G75*
G02*
X215225000Y-113475000I-225000J0D01*
G01*
X214775000Y-113475000D01*
G75*
G02*
X214550000Y-113250000I0J225000D01*
G01*
G37*
G36*
G01*
X216100000Y-113250000D02*
X216100000Y-112750000D01*
G75*
G02*
X216325000Y-112525000I225000J0D01*
G01*
X216775000Y-112525000D01*
G75*
G02*
X217000000Y-112750000I0J-225000D01*
G01*
X217000000Y-113250000D01*
G75*
G02*
X216775000Y-113475000I-225000J0D01*
G01*
X216325000Y-113475000D01*
G75*
G02*
X216100000Y-113250000I0J225000D01*
G01*
G37*
G36*
G01*
X204675000Y-119400000D02*
X204125000Y-119400000D01*
G75*
G02*
X203925000Y-119200000I0J200000D01*
G01*
X203925000Y-118800000D01*
G75*
G02*
X204125000Y-118600000I200000J0D01*
G01*
X204675000Y-118600000D01*
G75*
G02*
X204875000Y-118800000I0J-200000D01*
G01*
X204875000Y-119200000D01*
G75*
G02*
X204675000Y-119400000I-200000J0D01*
G01*
G37*
G36*
G01*
X204675000Y-121050000D02*
X204125000Y-121050000D01*
G75*
G02*
X203925000Y-120850000I0J200000D01*
G01*
X203925000Y-120450000D01*
G75*
G02*
X204125000Y-120250000I200000J0D01*
G01*
X204675000Y-120250000D01*
G75*
G02*
X204875000Y-120450000I0J-200000D01*
G01*
X204875000Y-120850000D01*
G75*
G02*
X204675000Y-121050000I-200000J0D01*
G01*
G37*
G36*
G01*
X221475000Y-132810000D02*
X220925000Y-132810000D01*
G75*
G02*
X220725000Y-132610000I0J200000D01*
G01*
X220725000Y-132210000D01*
G75*
G02*
X220925000Y-132010000I200000J0D01*
G01*
X221475000Y-132010000D01*
G75*
G02*
X221675000Y-132210000I0J-200000D01*
G01*
X221675000Y-132610000D01*
G75*
G02*
X221475000Y-132810000I-200000J0D01*
G01*
G37*
G36*
G01*
X221475000Y-134460000D02*
X220925000Y-134460000D01*
G75*
G02*
X220725000Y-134260000I0J200000D01*
G01*
X220725000Y-133860000D01*
G75*
G02*
X220925000Y-133660000I200000J0D01*
G01*
X221475000Y-133660000D01*
G75*
G02*
X221675000Y-133860000I0J-200000D01*
G01*
X221675000Y-134260000D01*
G75*
G02*
X221475000Y-134460000I-200000J0D01*
G01*
G37*
G36*
G01*
X220985000Y-128120000D02*
X221535000Y-128120000D01*
G75*
G02*
X221735000Y-128320000I0J-200000D01*
G01*
X221735000Y-128720000D01*
G75*
G02*
X221535000Y-128920000I-200000J0D01*
G01*
X220985000Y-128920000D01*
G75*
G02*
X220785000Y-128720000I0J200000D01*
G01*
X220785000Y-128320000D01*
G75*
G02*
X220985000Y-128120000I200000J0D01*
G01*
G37*
G36*
G01*
X220985000Y-129770000D02*
X221535000Y-129770000D01*
G75*
G02*
X221735000Y-129970000I0J-200000D01*
G01*
X221735000Y-130370000D01*
G75*
G02*
X221535000Y-130570000I-200000J0D01*
G01*
X220985000Y-130570000D01*
G75*
G02*
X220785000Y-130370000I0J200000D01*
G01*
X220785000Y-129970000D01*
G75*
G02*
X220985000Y-129770000I200000J0D01*
G01*
G37*
G36*
G01*
X176620000Y-131690000D02*
X176120000Y-131690000D01*
G75*
G02*
X175895000Y-131465000I0J225000D01*
G01*
X175895000Y-131015000D01*
G75*
G02*
X176120000Y-130790000I225000J0D01*
G01*
X176620000Y-130790000D01*
G75*
G02*
X176845000Y-131015000I0J-225000D01*
G01*
X176845000Y-131465000D01*
G75*
G02*
X176620000Y-131690000I-225000J0D01*
G01*
G37*
G36*
G01*
X176620000Y-133240000D02*
X176120000Y-133240000D01*
G75*
G02*
X175895000Y-133015000I0J225000D01*
G01*
X175895000Y-132565000D01*
G75*
G02*
X176120000Y-132340000I225000J0D01*
G01*
X176620000Y-132340000D01*
G75*
G02*
X176845000Y-132565000I0J-225000D01*
G01*
X176845000Y-133015000D01*
G75*
G02*
X176620000Y-133240000I-225000J0D01*
G01*
G37*
G36*
G01*
X173810000Y-103825000D02*
X173810000Y-104375000D01*
G75*
G02*
X173610000Y-104575000I-200000J0D01*
G01*
X173210000Y-104575000D01*
G75*
G02*
X173010000Y-104375000I0J200000D01*
G01*
X173010000Y-103825000D01*
G75*
G02*
X173210000Y-103625000I200000J0D01*
G01*
X173610000Y-103625000D01*
G75*
G02*
X173810000Y-103825000I0J-200000D01*
G01*
G37*
G36*
G01*
X172160000Y-103825000D02*
X172160000Y-104375000D01*
G75*
G02*
X171960000Y-104575000I-200000J0D01*
G01*
X171560000Y-104575000D01*
G75*
G02*
X171360000Y-104375000I0J200000D01*
G01*
X171360000Y-103825000D01*
G75*
G02*
X171560000Y-103625000I200000J0D01*
G01*
X171960000Y-103625000D01*
G75*
G02*
X172160000Y-103825000I0J-200000D01*
G01*
G37*
G36*
G01*
X226550000Y-109475000D02*
X226550000Y-108925000D01*
G75*
G02*
X226750000Y-108725000I200000J0D01*
G01*
X227150000Y-108725000D01*
G75*
G02*
X227350000Y-108925000I0J-200000D01*
G01*
X227350000Y-109475000D01*
G75*
G02*
X227150000Y-109675000I-200000J0D01*
G01*
X226750000Y-109675000D01*
G75*
G02*
X226550000Y-109475000I0J200000D01*
G01*
G37*
G36*
G01*
X224900000Y-109475000D02*
X224900000Y-108925000D01*
G75*
G02*
X225100000Y-108725000I200000J0D01*
G01*
X225500000Y-108725000D01*
G75*
G02*
X225700000Y-108925000I0J-200000D01*
G01*
X225700000Y-109475000D01*
G75*
G02*
X225500000Y-109675000I-200000J0D01*
G01*
X225100000Y-109675000D01*
G75*
G02*
X224900000Y-109475000I0J200000D01*
G01*
G37*
D20*
X219600000Y-120550000D03*
X219600000Y-114550000D03*
X223300000Y-120550000D03*
X223300000Y-114550000D03*
D21*
X180900000Y-102340000D03*
D22*
X183600000Y-104245000D03*
X183600000Y-102975000D03*
X183600000Y-101705000D03*
X183600000Y-100435000D03*
X178200000Y-100435000D03*
X178200000Y-101705000D03*
X178200000Y-102975000D03*
X178200000Y-104245000D03*
D23*
X205300000Y-110400000D03*
X207300000Y-110400000D03*
X209300000Y-110400000D03*
X211300000Y-110400000D03*
X213300000Y-110400000D03*
X215300000Y-110400000D03*
X217300000Y-110400000D03*
X219300000Y-110400000D03*
X219300000Y-94400000D03*
X217300000Y-94400000D03*
X215300000Y-94400000D03*
X213300000Y-94400000D03*
X211300000Y-94400000D03*
X209300000Y-94400000D03*
X207300000Y-94400000D03*
X205300000Y-94400000D03*
D24*
X206450000Y-118600000D03*
X206450000Y-121100000D03*
G36*
G01*
X175049999Y-103575000D02*
X176350001Y-103575000D01*
G75*
G02*
X176600000Y-103824999I0J-249999D01*
G01*
X176600000Y-104475001D01*
G75*
G02*
X176350001Y-104725000I-249999J0D01*
G01*
X175049999Y-104725000D01*
G75*
G02*
X174800000Y-104475001I0J249999D01*
G01*
X174800000Y-103824999D01*
G75*
G02*
X175049999Y-103575000I249999J0D01*
G01*
G37*
G36*
G01*
X175049999Y-100625000D02*
X176350001Y-100625000D01*
G75*
G02*
X176600000Y-100874999I0J-249999D01*
G01*
X176600000Y-101525001D01*
G75*
G02*
X176350001Y-101775000I-249999J0D01*
G01*
X175049999Y-101775000D01*
G75*
G02*
X174800000Y-101525001I0J249999D01*
G01*
X174800000Y-100874999D01*
G75*
G02*
X175049999Y-100625000I249999J0D01*
G01*
G37*
G36*
G01*
X176350001Y-109475000D02*
X175049999Y-109475000D01*
G75*
G02*
X174800000Y-109225001I0J249999D01*
G01*
X174800000Y-108574999D01*
G75*
G02*
X175049999Y-108325000I249999J0D01*
G01*
X176350001Y-108325000D01*
G75*
G02*
X176600000Y-108574999I0J-249999D01*
G01*
X176600000Y-109225001D01*
G75*
G02*
X176350001Y-109475000I-249999J0D01*
G01*
G37*
G36*
G01*
X176350001Y-106525000D02*
X175049999Y-106525000D01*
G75*
G02*
X174800000Y-106275001I0J249999D01*
G01*
X174800000Y-105624999D01*
G75*
G02*
X175049999Y-105375000I249999J0D01*
G01*
X176350001Y-105375000D01*
G75*
G02*
X176600000Y-105624999I0J-249999D01*
G01*
X176600000Y-106275001D01*
G75*
G02*
X176350001Y-106525000I-249999J0D01*
G01*
G37*
G36*
G01*
X221380000Y-97500000D02*
X221880000Y-97500000D01*
G75*
G02*
X222105000Y-97725000I0J-225000D01*
G01*
X222105000Y-98175000D01*
G75*
G02*
X221880000Y-98400000I-225000J0D01*
G01*
X221380000Y-98400000D01*
G75*
G02*
X221155000Y-98175000I0J225000D01*
G01*
X221155000Y-97725000D01*
G75*
G02*
X221380000Y-97500000I225000J0D01*
G01*
G37*
G36*
G01*
X221380000Y-99050000D02*
X221880000Y-99050000D01*
G75*
G02*
X222105000Y-99275000I0J-225000D01*
G01*
X222105000Y-99725000D01*
G75*
G02*
X221880000Y-99950000I-225000J0D01*
G01*
X221380000Y-99950000D01*
G75*
G02*
X221155000Y-99725000I0J225000D01*
G01*
X221155000Y-99275000D01*
G75*
G02*
X221380000Y-99050000I225000J0D01*
G01*
G37*
G36*
G01*
X225960000Y-98050000D02*
X226460000Y-98050000D01*
G75*
G02*
X226685000Y-98275000I0J-225000D01*
G01*
X226685000Y-98725000D01*
G75*
G02*
X226460000Y-98950000I-225000J0D01*
G01*
X225960000Y-98950000D01*
G75*
G02*
X225735000Y-98725000I0J225000D01*
G01*
X225735000Y-98275000D01*
G75*
G02*
X225960000Y-98050000I225000J0D01*
G01*
G37*
G36*
G01*
X225960000Y-96500000D02*
X226460000Y-96500000D01*
G75*
G02*
X226685000Y-96725000I0J-225000D01*
G01*
X226685000Y-97175000D01*
G75*
G02*
X226460000Y-97400000I-225000J0D01*
G01*
X225960000Y-97400000D01*
G75*
G02*
X225735000Y-97175000I0J225000D01*
G01*
X225735000Y-96725000D01*
G75*
G02*
X225960000Y-96500000I225000J0D01*
G01*
G37*
G36*
G01*
X222700000Y-99775000D02*
X222700000Y-99225000D01*
G75*
G02*
X222900000Y-99025000I200000J0D01*
G01*
X223300000Y-99025000D01*
G75*
G02*
X223500000Y-99225000I0J-200000D01*
G01*
X223500000Y-99775000D01*
G75*
G02*
X223300000Y-99975000I-200000J0D01*
G01*
X222900000Y-99975000D01*
G75*
G02*
X222700000Y-99775000I0J200000D01*
G01*
G37*
G36*
G01*
X224350000Y-99775000D02*
X224350000Y-99225000D01*
G75*
G02*
X224550000Y-99025000I200000J0D01*
G01*
X224950000Y-99025000D01*
G75*
G02*
X225150000Y-99225000I0J-200000D01*
G01*
X225150000Y-99775000D01*
G75*
G02*
X224950000Y-99975000I-200000J0D01*
G01*
X224550000Y-99975000D01*
G75*
G02*
X224350000Y-99775000I0J200000D01*
G01*
G37*
G36*
G01*
X174162500Y-106599998D02*
X174162500Y-107500002D01*
G75*
G02*
X173912502Y-107750000I-249998J0D01*
G01*
X173387498Y-107750000D01*
G75*
G02*
X173137500Y-107500002I0J249998D01*
G01*
X173137500Y-106599998D01*
G75*
G02*
X173387498Y-106350000I249998J0D01*
G01*
X173912502Y-106350000D01*
G75*
G02*
X174162500Y-106599998I0J-249998D01*
G01*
G37*
G36*
G01*
X172337500Y-106599998D02*
X172337500Y-107500002D01*
G75*
G02*
X172087502Y-107750000I-249998J0D01*
G01*
X171562498Y-107750000D01*
G75*
G02*
X171312500Y-107500002I0J249998D01*
G01*
X171312500Y-106599998D01*
G75*
G02*
X171562498Y-106350000I249998J0D01*
G01*
X172087502Y-106350000D01*
G75*
G02*
X172337500Y-106599998I0J-249998D01*
G01*
G37*
G36*
G01*
X209650001Y-129725000D02*
X208349999Y-129725000D01*
G75*
G02*
X208100000Y-129475001I0J249999D01*
G01*
X208100000Y-128824999D01*
G75*
G02*
X208349999Y-128575000I249999J0D01*
G01*
X209650001Y-128575000D01*
G75*
G02*
X209900000Y-128824999I0J-249999D01*
G01*
X209900000Y-129475001D01*
G75*
G02*
X209650001Y-129725000I-249999J0D01*
G01*
G37*
G36*
G01*
X209650001Y-126775000D02*
X208349999Y-126775000D01*
G75*
G02*
X208100000Y-126525001I0J249999D01*
G01*
X208100000Y-125874999D01*
G75*
G02*
X208349999Y-125625000I249999J0D01*
G01*
X209650001Y-125625000D01*
G75*
G02*
X209900000Y-125874999I0J-249999D01*
G01*
X209900000Y-126525001D01*
G75*
G02*
X209650001Y-126775000I-249999J0D01*
G01*
G37*
M02*
