M48
; DRILL file {KiCad (5.1.7)-1} date 12/10/20 21:46:23
; FORMAT={-:-/ absolute / inch / decimal}
; #@! TF.CreationDate,2020-12-10T21:46:23+01:00
; #@! TF.GenerationSoftware,Kicad,Pcbnew,(5.1.7)-1
; #@! TF.FileFunction,Plated,1,4,PTH
FMAT,2
INCH
T1C0.0118
T2C0.0177
T3C0.0181
T4C0.0394
T5C0.0402
T6C0.0866
T7C0.1039
%
G90
G05
T1
X7.0984Y-3.9583
X7.0984Y-4.0016
X7.0984Y-4.0528
X7.0984Y-4.1
X7.1457Y-3.9583
X7.1457Y-4.0016
X7.1457Y-4.0528
X7.1457Y-4.1
T2
X6.7165Y-4.1299
X6.7165Y-4.2087
X6.7319Y-4.2917
X6.7323Y-4.0551
X6.7508Y-3.6626
X6.7697Y-4.1689
X6.7839Y-3.9823
X6.7843Y-4.6421
X6.7913Y-4.2913
X6.7913Y-4.3701
X6.7913Y-4.4488
X6.7913Y-4.5472
X6.7953Y-3.95
X6.8311Y-4.0543
X6.8425Y-4.5945
X6.8506Y-4.3148
X6.8506Y-4.3502
X6.8583Y-4.0272
X6.8732Y-3.6618
X6.9291Y-4.2323
X6.9437Y-5.2602
X6.9488Y-3.9331
X6.9587Y-4.5217
X6.9685Y-3.6614
X6.9685Y-4.311
X6.9801Y-4.0041
X7.0472Y-3.6614
X7.0472Y-4.3307
X7.0835Y-4.6969
X7.0984Y-3.8346
X7.0984Y-3.874
X7.1138Y-4.3516
X7.1224Y-4.4732
X7.126Y-3.6614
X7.1594Y-4.1791
X7.1707Y-4.3939
X7.1709Y-4.7138
X7.176Y-4.4547
X7.1907Y-4.5388
X7.1929Y-4.5909
X7.1969Y-4.4909
X7.2047Y-3.6614
X7.2047Y-4.1732
X7.2339Y-4.4406
X7.274Y-4.3524
X7.2835Y-3.6614
X7.3012Y-4.0571
X7.315Y-5.0354
X7.3307Y-5.0965
X7.3319Y-4.8173
X7.3384Y-4.6041
X7.3465Y-4.3228
X7.3524Y-4.478
X7.3622Y-3.6614
X7.3746Y-4.6257
X7.3774Y-4.512
X7.4016Y-5.1181
X7.4094Y-4.2677
X7.4138Y-4.6226
X7.4173Y-4.6685
X7.422Y-4.7917
X7.4409Y-3.6614
X7.4409Y-3.9764
X7.4512Y-4.6972
X7.4512Y-4.8217
X7.4803Y-3.8976
X7.4803Y-4.2717
X7.4957Y-4.7083
X7.5087Y-3.6469
X7.5189Y-4.9201
X7.5197Y-5.1181
X7.5276Y-4.3307
X7.5591Y-3.8976
X7.5591Y-4.2717
X7.5591Y-4.7165
X7.561Y-4.8622
X7.5909Y-3.6457
X7.5984Y-3.9764
X7.6378Y-3.8976
X7.6378Y-4.2717
X7.6378Y-5.1181
X7.6406Y-4.5996
X7.6429Y-4.5551
X7.6457Y-4.4961
X7.6681Y-4.9315
X7.6807Y-3.6469
X7.7047Y-4.7185
X7.7047Y-4.8642
X7.7165Y-3.8976
X7.7165Y-4.2717
X7.7559Y-3.6614
X7.7559Y-3.9764
X7.7559Y-5.1181
X7.7677Y-4.4606
X7.7921Y-4.5256
X7.7953Y-4.0945
X7.7953Y-4.1732
X7.7953Y-4.2717
X7.8083Y-4.8421
X7.813Y-5.1201
X7.8134Y-4.8862
X7.8248Y-4.4665
X7.8248Y-4.6413
X7.8346Y-3.6614
X7.8606Y-4.5902
X7.8622Y-5.1063
X7.874Y-4.2717
X7.9134Y-3.6614
X7.9528Y-4.2323
X7.9724Y-3.6467
X8.0Y-3.7992
X8.0039Y-4.4921
X8.0118Y-4.1929
X8.0315Y-3.8976
X8.0315Y-3.9764
X8.0669Y-4.935
X8.0827Y-4.4173
X8.1102Y-3.8189
X8.1102Y-4.0748
X8.1496Y-3.8976
X8.1496Y-3.9764
X8.1516Y-4.9862
X8.1614Y-4.2992
X8.1614Y-5.1142
X8.2461Y-4.8169
X8.252Y-4.6122
X8.2913Y-4.9764
X8.2972Y-3.6476
X8.3169Y-4.2776
X8.3201Y-4.5772
X8.3268Y-3.7894
X8.3425Y-4.9724
X8.3602Y-4.6634
X8.3636Y-4.4888
X8.3777Y-4.4329
X8.3957Y-4.2638
X8.4646Y-3.8189
X8.4941Y-4.935
X8.5433Y-3.6614
X8.5472Y-4.5157
X8.5551Y-4.6496
X8.561Y-3.7874
X8.5827Y-3.8583
X8.622Y-3.937
X8.6339Y-4.2756
X8.6476Y-4.7028
X8.6614Y-4.6457
X8.6614Y-4.8031
X8.6752Y-4.4409
X8.6917Y-5.1591
X8.7008Y-3.7992
X8.7008Y-3.9764
X8.711Y-5.3118
X8.75Y-5.078
X8.7768Y-3.8555
X8.7795Y-3.9764
X8.7795Y-4.0551
X8.8189Y-4.8031
X8.8583Y-3.8583
X8.8583Y-3.9764
X8.8976Y-3.6614
X8.9429Y-4.6713
X8.9449Y-4.5295
X8.9535Y-4.261
X8.9567Y-3.7795
X8.9567Y-4.0157
X8.9677Y-4.1724
X8.9764Y-4.4094
X8.9961Y-4.6457
X9.0157Y-3.7402
X9.0157Y-3.8189
X9.0157Y-4.0551
X9.0157Y-4.0945
X9.0157Y-4.252
X9.0157Y-4.3307
X9.0157Y-4.4882
X9.0157Y-4.5669
X9.0157Y-4.7244
X9.0157Y-4.8031
X9.0157Y-4.8819
X9.0157Y-5.0197
X9.0157Y-5.1181
X9.0157Y-5.1969
X9.0157Y-5.3543
T3
X8.8525Y-3.7798
X8.8525Y-4.0548
T4
X8.4213Y-5.0189
X8.4213Y-5.1189
X8.4213Y-5.2189
X8.4213Y-5.3189
X8.9189Y-5.0177
X8.9189Y-5.1177
X8.9189Y-5.2177
X8.9189Y-5.3177
X6.8417Y-5.1358
X6.8417Y-5.2358
X6.8417Y-5.3358
X6.9862Y-4.965
X6.9862Y-5.065
X6.8445Y-3.7339
X6.8445Y-3.8339
X6.8417Y-4.7925
X6.8417Y-4.8925
X6.8417Y-4.9925
X7.9016Y-3.9449
X7.9016Y-4.0449
X7.9016Y-4.1449
X8.2547Y-5.2189
X8.2547Y-5.3189
X8.5669Y-5.0189
X8.5669Y-5.1189
X8.5669Y-5.2189
X8.5669Y-5.3189
X7.1307Y-4.865
X7.1307Y-4.965
X7.1307Y-5.065
T5
X6.8506Y-4.4077
X8.8974Y-4.4077
T6
X8.7677Y-3.7126
X8.7677Y-4.9083
T7
X6.9589Y-4.6455
X8.7888Y-4.1734
T0
M30
